<svg width="601" height="601" viewBox="0 0 601 601" fill="none" xmlns="http://www.w3.org/2000/svg">
<path d="M583.915 318.667V302.642L576.289 304.325C575.75 303.928 575.188 303.561 574.607 303.228L437.537 224.051C429.561 219.457 420.518 217.038 411.313 217.038C402.108 217.038 393.065 219.457 385.089 224.051L37.878 423.638L17.3175 428.149V447.177C17.4627 450.294 18.3962 453.324 20.0306 455.982C21.6651 458.641 23.947 460.842 26.6632 462.379L164.518 542.017C172.503 546.626 181.56 549.053 190.78 549.053C199.999 549.053 209.057 546.626 217.041 542.017L574.669 335.577C577.615 333.879 580.036 331.403 581.668 328.421C583.299 325.438 584.076 322.063 583.915 318.667Z" fill="#FBE7CB" stroke="#6E5521" stroke-miterlimit="10"/>
<path fill-rule="evenodd" clip-rule="evenodd" d="M583.915 302.643V318.667C584.076 322.063 583.299 325.438 581.668 328.421C580.036 331.404 577.615 333.88 574.669 335.577L217.041 542.017C209.753 546.225 201.571 548.614 193.188 548.998L193.188 512.425L548.832 288.34L574.607 303.228C575.188 303.562 575.75 303.928 576.289 304.325L583.915 302.643Z" fill="#F7CD83"/>
<path d="M583.915 318.667V302.642L576.289 304.325C575.75 303.928 575.188 303.561 574.607 303.228L437.537 224.051C429.561 219.457 420.518 217.038 411.313 217.038C402.108 217.038 393.065 219.457 385.089 224.051L37.878 423.638L17.3175 428.149V447.177C17.4627 450.294 18.3962 453.324 20.0306 455.982C21.6651 458.641 23.947 460.842 26.6632 462.379L164.518 542.017C172.503 546.626 181.56 549.053 190.78 549.053C199.999 549.053 209.057 546.626 217.041 542.017L574.669 335.577C577.615 333.879 580.036 331.403 581.668 328.421C583.299 325.438 584.076 322.063 583.915 318.667Z" stroke="#6E5521" stroke-miterlimit="10"/>
<path d="M26.6632 412.598L385.039 206.569C393.015 201.974 402.058 199.556 411.263 199.556C420.468 199.556 429.511 201.974 437.487 206.569L574.557 285.746C577.384 287.39 579.73 289.748 581.36 292.583C582.99 295.418 583.848 298.631 583.848 301.901C583.848 305.171 582.99 308.385 581.36 311.22C579.73 314.054 577.384 316.412 574.557 318.057L217.041 524.572C209.057 529.181 199.999 531.608 190.78 531.608C181.56 531.608 172.503 529.181 164.518 524.572L26.6632 444.934C23.8307 443.291 21.4796 440.932 19.8452 438.095C18.2108 435.257 17.3506 432.04 17.3506 428.766C17.3506 425.491 18.2108 422.274 19.8452 419.437C21.4796 416.599 23.8307 414.241 26.6632 412.598V412.598Z" fill="white" stroke="#6E5521" stroke-miterlimit="10"/>
<path d="M26.6632 412.598L385.039 206.569C393.015 201.974 402.058 199.556 411.263 199.556C420.468 199.556 429.511 201.974 437.487 206.569L574.557 285.746C577.384 287.39 579.73 289.748 581.36 292.583C582.99 295.418 583.848 298.631 583.848 301.901C583.848 305.171 582.99 308.385 581.36 311.22C579.73 314.054 577.384 316.412 574.557 318.057L217.041 524.572C209.057 529.181 199.999 531.608 190.78 531.608C181.56 531.608 172.503 529.181 164.518 524.572L26.6632 444.934C23.8307 443.291 21.4796 440.932 19.8452 438.095C18.2108 435.257 17.3506 432.04 17.3506 428.766C17.3506 425.491 18.2108 422.274 19.8452 419.437C21.4796 416.599 23.8307 414.241 26.6632 412.598V412.598Z" fill="#FBE7CB" stroke="#6E5521" stroke-miterlimit="10"/>
<path d="M29.9404 414.317L386.223 209.622C393.905 205.195 402.615 202.865 411.481 202.865C420.347 202.865 429.058 205.195 436.74 209.622L568.825 285.858C581.598 292.748 586.445 307.452 568.825 317.01L215.521 520.684C207.83 525.123 199.106 527.46 190.225 527.46C181.345 527.46 172.621 525.123 164.93 520.684L32.146 444.024C16.1088 435.438 19.1866 420.523 29.9404 414.317Z" fill="white" stroke="#6E5521" stroke-miterlimit="10"/>
<path d="M568.8 285.907L436.715 209.671C429.033 205.245 420.322 202.915 411.456 202.915C402.59 202.915 393.88 205.245 386.198 209.671L29.9404 414.317C19.2115 420.548 16.1088 435.501 32.146 444.024L164.979 520.683C172.671 525.123 181.395 527.459 190.275 527.459C199.155 527.459 207.879 525.123 215.571 520.683L568.8 317.035C586.42 307.502 581.573 292.798 568.8 285.907ZM564.975 316.761L213.677 517.631C198.25 527.039 179.895 526.353 164.755 517.631L36.4076 443.501C19.9966 434.853 19.9966 422.105 34.2269 414.778L388.391 212.911C403.519 204.189 420.005 202.943 437.238 212.911L564.975 286.667C577.436 293.359 585.386 305.633 564.975 316.761Z" fill="#6E5521"/>
<path d="M460.914 241.709L461.412 241.422C463.137 240.425 465.095 239.899 467.088 239.899C469.081 239.899 471.039 240.425 472.764 241.422L497.349 255.615C497.942 255.958 498.434 256.45 498.776 257.043C499.118 257.635 499.298 258.308 499.298 258.992C499.298 259.676 499.118 260.349 498.776 260.942C498.434 261.534 497.942 262.027 497.349 262.369L496.839 262.668C495.111 263.66 493.154 264.181 491.163 264.181C489.171 264.181 487.214 263.66 485.487 262.668L460.914 248.475C460.321 248.131 459.83 247.637 459.488 247.044C459.146 246.45 458.967 245.777 458.967 245.092C458.967 244.407 459.146 243.734 459.488 243.14C459.83 242.547 460.321 242.053 460.914 241.709V241.709Z" fill="#6E5521"/>
<path d="M249.091 300.861L382.086 223.927C385.329 222.041 389.014 221.048 392.765 221.048C396.516 221.048 400.201 222.041 403.444 223.927L547.131 307.714C548.229 308.342 549.141 309.249 549.776 310.343C550.411 311.437 550.745 312.68 550.745 313.944C550.745 315.209 550.411 316.452 549.776 317.546C549.141 318.64 548.229 319.547 547.131 320.175L414.036 396.71C410.815 398.569 407.162 399.548 403.444 399.548C399.725 399.548 396.072 398.569 392.852 396.71L249.128 313.222C248.045 312.596 247.145 311.697 246.519 310.614C245.892 309.531 245.56 308.303 245.557 307.052C245.553 305.801 245.877 304.571 246.497 303.485C247.117 302.399 248.012 301.494 249.091 300.861Z" fill="#FDF3E6"/>
<path d="M162.151 416.847L210.549 388.661C212.27 387.651 214.229 387.118 216.225 387.118C218.22 387.118 220.18 387.651 221.901 388.661L260.405 411.09C260.985 411.425 261.466 411.906 261.801 412.486C262.135 413.066 262.311 413.723 262.311 414.392C262.311 415.062 262.135 415.719 261.801 416.299C261.466 416.878 260.985 417.36 260.405 417.695L211.957 445.657C210.245 446.653 208.299 447.177 206.318 447.177C204.338 447.177 202.392 446.653 200.68 445.657L162.176 423.439C161.598 423.106 161.117 422.627 160.782 422.049C160.448 421.472 160.27 420.817 160.267 420.15C160.265 419.483 160.438 418.827 160.768 418.247C161.098 417.668 161.575 417.185 162.151 416.847V416.847Z" fill="#FDF3E6"/>
<path d="M107.235 383.202L155.621 355.016C157.347 354.012 159.307 353.483 161.303 353.483C163.3 353.483 165.26 354.012 166.986 355.016L205.49 377.445C206.069 377.78 206.551 378.261 206.885 378.841C207.22 379.421 207.396 380.078 207.396 380.747C207.396 381.417 207.22 382.074 206.885 382.654C206.551 383.234 206.069 383.715 205.49 384.05L157.042 412.024C155.326 413.016 153.379 413.539 151.397 413.539C149.415 413.539 147.468 413.016 145.752 412.024L107.248 389.794C106.671 389.46 106.191 388.98 105.857 388.402C105.524 387.824 105.347 387.169 105.346 386.502C105.345 385.835 105.519 385.179 105.85 384.6C106.182 384.021 106.659 383.539 107.235 383.202V383.202Z" fill="#FDF3E6"/>
<path d="M219.895 450.716L268.28 422.529C270.006 421.526 271.966 420.997 273.963 420.997C275.959 420.997 277.919 421.526 279.645 422.529L318.149 444.959C318.729 445.294 319.21 445.775 319.545 446.355C319.879 446.934 320.055 447.592 320.055 448.261C320.055 448.93 319.879 449.588 319.545 450.168C319.21 450.747 318.729 451.229 318.149 451.563L269.651 479.526C267.935 480.518 265.988 481.04 264.006 481.04C262.024 481.04 260.077 480.518 258.361 479.526L219.907 457.283C219.316 456.963 218.822 456.489 218.478 455.912C218.133 455.335 217.951 454.675 217.95 454.003C217.948 453.331 218.128 452.671 218.471 452.092C218.813 451.514 219.305 451.038 219.895 450.716Z" fill="#FDF3E6"/>
<path d="M95.0362 455.451L143.434 427.264C145.155 426.254 147.115 425.722 149.11 425.722C151.106 425.722 153.065 426.254 154.786 427.264L193.291 449.694C193.87 450.028 194.352 450.51 194.686 451.089C195.021 451.669 195.197 452.327 195.197 452.996C195.197 453.665 195.021 454.323 194.686 454.902C194.352 455.482 193.87 455.963 193.291 456.298L144.843 484.273C143.127 485.265 141.18 485.787 139.198 485.787C137.216 485.787 135.269 485.265 133.553 484.273L95.0487 462.043C94.4713 461.708 93.9918 461.228 93.6581 460.65C93.3243 460.073 93.148 459.417 93.1468 458.75C93.1455 458.083 93.3193 457.427 93.6509 456.848C93.9825 456.269 94.4601 455.787 95.0362 455.451V455.451Z" fill="#FDF3E6"/>
<path d="M39.4481 421.807L87.8338 393.62C89.5593 392.617 91.5199 392.088 93.516 392.088C95.5121 392.088 97.4726 392.617 99.1982 393.62L137.702 416.05C138.279 416.387 138.757 416.869 139.089 417.449C139.422 418.028 139.596 418.684 139.596 419.352C139.596 420.02 139.422 420.676 139.089 421.255C138.757 421.835 138.279 422.317 137.702 422.654L89.2294 450.629C87.5139 451.615 85.5697 452.134 83.5909 452.134C81.6121 452.134 79.6679 451.615 77.9523 450.629L39.4605 428.399C38.8832 428.064 38.4037 427.584 38.0699 427.006C37.7362 426.429 37.5599 425.773 37.5586 425.106C37.5573 424.439 37.7312 423.783 38.0627 423.204C38.3943 422.625 38.872 422.143 39.4481 421.807Z" fill="#FDF3E6"/>
<path d="M152.768 489.307L201.116 461.12C202.837 460.111 204.796 459.578 206.792 459.578C208.787 459.578 210.747 460.111 212.468 461.12L250.985 483.55C251.561 483.887 252.039 484.37 252.372 484.949C252.704 485.528 252.879 486.184 252.879 486.852C252.879 487.52 252.704 488.176 252.372 488.756C252.039 489.335 251.561 489.817 250.985 490.154L202.524 518.129C200.819 519.113 198.885 519.632 196.917 519.632C194.948 519.632 193.014 519.113 191.309 518.129L152.78 495.911C152.2 495.578 151.718 495.097 151.382 494.518C151.046 493.939 150.869 493.282 150.867 492.613C150.866 491.944 151.041 491.286 151.375 490.705C151.708 490.125 152.189 489.643 152.768 489.307V489.307Z" fill="#FDF3E6"/>
<path d="M289.402 410.217L337.8 382.031C339.521 381.021 341.48 380.488 343.476 380.488C345.471 380.488 347.431 381.021 349.152 382.031L387.656 404.46C388.236 404.795 388.717 405.276 389.052 405.856C389.386 406.436 389.562 407.093 389.562 407.762C389.562 408.432 389.386 409.089 389.052 409.669C388.717 410.249 388.236 410.73 387.656 411.065L339.208 439.039C337.492 440.031 335.545 440.554 333.563 440.554C331.581 440.554 329.634 440.031 327.918 439.039L289.427 416.809C288.849 416.476 288.368 415.997 288.033 415.42C287.698 414.842 287.521 414.188 287.518 413.52C287.516 412.853 287.688 412.197 288.019 411.617C288.349 411.038 288.826 410.555 289.402 410.217Z" fill="#FDF3E6"/>
<path d="M193.184 532.107C188.466 532.385 183.632 531.714 181.805 531.344V547.789C187.245 548.844 191.658 548.645 193.184 548.413V532.107Z" fill="#FDF3E6"/>
<path d="M240.281 502.416L62.0023 398.99L34.2269 414.778C19.9966 422.105 19.9966 434.853 36.3578 443.501L164.705 517.631C179.845 526.353 198.2 527.039 213.627 517.631L240.281 502.416Z" fill="white" stroke="#6E5521" stroke-miterlimit="10"/>
<path d="M64.7513 443.458C77.9102 443.458 88.5775 437.299 88.5775 429.702C88.5775 422.104 77.9102 415.945 64.7513 415.945C51.5924 415.945 40.9251 422.104 40.9251 429.702C40.9251 437.299 51.5924 443.458 64.7513 443.458Z" stroke="#6E5521" stroke-miterlimit="10"/>
<path d="M183.57 513.3C196.729 513.3 207.396 507.141 207.396 499.544C207.396 491.946 196.729 485.787 183.57 485.787C170.411 485.787 159.744 491.946 159.744 499.544C159.744 507.141 170.411 513.3 183.57 513.3Z" stroke="#6E5521" stroke-miterlimit="10"/>
<path d="M120.346 478.531C133.505 478.531 144.172 472.372 144.172 464.775C144.172 457.178 133.505 451.019 120.346 451.019C107.187 451.019 96.5194 457.178 96.5194 464.775C96.5194 472.372 107.187 478.531 120.346 478.531Z" fill="#F5BE49" stroke="#6E5521" stroke-miterlimit="10"/>
<path fill-rule="evenodd" clip-rule="evenodd" d="M104.861 471.972C103.319 470.329 102.444 468.447 102.444 466.446C102.444 460.031 111.452 454.83 122.564 454.83C128.667 454.83 134.136 456.399 137.826 458.876C134.422 455.249 127.771 452.785 120.123 452.785C109.011 452.785 100.003 457.986 100.003 464.402C100.003 467.294 101.833 469.939 104.861 471.972Z" fill="white"/>
<path d="M108.253 473.599C113.108 475.069 124.538 476.78 132.47 473.145M135.719 471.518C138.022 470.075 142.128 466.307 140.131 462.778" stroke="#6E5521" stroke-linecap="round"/>
<g style="mix-blend-mode:multiply">
<path d="M156.768 378.044L277.128 307.976C281.412 305.48 286.281 304.164 291.24 304.164C296.198 304.164 301.068 305.48 305.352 307.976L401.076 363.727C402.515 364.561 403.708 365.759 404.538 367.201C405.368 368.642 405.804 370.275 405.804 371.938C405.804 373.601 405.368 375.235 404.538 376.676C403.708 378.117 402.515 379.315 401.076 380.15L280.642 449.682C276.378 452.144 271.541 453.44 266.617 453.44C261.693 453.44 256.856 452.144 252.592 449.682L156.892 394.43C155.45 393.609 154.249 392.423 153.41 390.991C152.57 389.56 152.122 387.933 152.109 386.273C152.097 384.614 152.52 382.98 153.338 381.536C154.155 380.091 155.338 378.887 156.768 378.044V378.044Z" fill="#F7CD83"/>
</g>
<path d="M156.768 358.044L277.128 287.976C281.412 285.48 286.281 284.164 291.24 284.164C296.198 284.164 301.068 285.48 305.352 287.976L401.076 343.727C402.515 344.561 403.708 345.759 404.538 347.201C405.368 348.642 405.804 350.275 405.804 351.938C405.804 353.601 405.368 355.235 404.538 356.676C403.708 358.117 402.515 359.315 401.076 360.15L280.642 429.682C276.378 432.144 271.541 433.44 266.617 433.44C261.693 433.44 256.856 432.144 252.592 429.682L156.892 374.43C155.45 373.609 154.249 372.423 153.41 370.991C152.57 369.56 152.122 367.933 152.109 366.273C152.097 364.614 152.52 362.98 153.338 361.536C154.155 360.091 155.338 358.887 156.768 358.044V358.044Z" fill="white" stroke="#10323F" stroke-miterlimit="10"/>
<path d="M175.633 343.776L224.032 315.589C225.753 314.579 227.712 314.047 229.708 314.047C231.703 314.047 233.662 314.579 235.384 315.589L273.888 338.019C274.467 338.354 274.949 338.835 275.283 339.415C275.618 339.994 275.794 340.652 275.794 341.321C275.794 341.99 275.618 342.648 275.283 343.228C274.949 343.807 274.467 344.289 273.888 344.623L225.427 372.548C223.719 373.523 221.786 374.035 219.82 374.035C217.853 374.035 215.921 373.523 214.212 372.548L175.708 350.318C175.139 349.986 174.666 349.512 174.334 348.942C174.003 348.373 173.825 347.727 173.817 347.068C173.81 346.409 173.973 345.759 174.291 345.183C174.61 344.606 175.072 344.121 175.633 343.776V343.776Z" stroke="#6E5521" stroke-miterlimit="10"/>
<path d="M156.768 354.306L277.128 284.238C281.412 281.741 286.281 280.426 291.24 280.426C296.198 280.426 301.068 281.741 305.352 284.238L401.076 339.988C402.515 340.823 403.708 342.021 404.538 343.462C405.368 344.903 405.804 346.537 405.804 348.2C405.804 349.863 405.368 351.497 404.538 352.938C403.708 354.379 402.515 355.577 401.076 356.412L280.642 425.944C276.378 428.406 271.541 429.702 266.617 429.702C261.693 429.702 256.856 428.406 252.592 425.944L156.892 370.692C155.45 369.871 154.249 368.685 153.41 367.253C152.57 365.822 152.122 364.194 152.109 362.535C152.097 360.875 152.52 359.242 153.338 357.797C154.155 356.353 155.338 355.149 156.768 354.306V354.306Z" fill="white" stroke="#10323F" stroke-miterlimit="10"/>
<path fill-rule="evenodd" clip-rule="evenodd" d="M391.194 337.971L401.076 343.726C402.515 344.561 403.708 345.759 404.538 347.2C405.368 348.641 405.804 350.275 405.804 351.938C405.804 353.601 405.368 355.234 404.538 356.676C403.708 358.117 402.515 359.315 401.076 360.15L325.437 403.819V398.654L391.194 337.971Z" fill="#10323F"/>
<path d="M391.194 337.971L391.446 337.539L391.127 337.353L390.855 337.603L391.194 337.971ZM401.076 343.726L400.825 344.158L400.825 344.158L401.076 343.726ZM404.538 347.2L404.971 346.951L404.971 346.951L404.538 347.2ZM404.538 356.676L404.971 356.925L404.971 356.925L404.538 356.676ZM401.076 360.15L401.326 360.583L401.327 360.582L401.076 360.15ZM325.437 403.819H324.937V404.685L325.687 404.252L325.437 403.819ZM325.437 398.654L325.098 398.286L324.937 398.435V398.654H325.437ZM390.943 338.403L400.825 344.158L401.328 343.294L391.446 337.539L390.943 338.403ZM400.825 344.158C402.188 344.949 403.319 346.084 404.105 347.449L404.971 346.951C404.098 345.433 402.841 344.172 401.327 343.294L400.825 344.158ZM404.105 347.449C404.891 348.815 405.304 350.362 405.304 351.938H406.304C406.304 350.187 405.845 348.468 404.971 346.951L404.105 347.449ZM405.304 351.938C405.304 353.513 404.891 355.061 404.105 356.426L404.971 356.925C405.845 355.408 406.304 353.688 406.304 351.938H405.304ZM404.105 356.426C403.319 357.791 402.188 358.926 400.825 359.717L401.327 360.582C402.841 359.703 404.098 358.442 404.971 356.925L404.105 356.426ZM400.826 359.717L325.187 403.386L325.687 404.252L401.326 360.583L400.826 359.717ZM325.937 403.819V398.654H324.937V403.819H325.937ZM325.776 399.021L391.533 338.338L390.855 337.603L325.098 398.286L325.776 399.021Z" fill="#10323F"/>
<path fill-rule="evenodd" clip-rule="evenodd" d="M201.016 328.547L277.128 284.238C281.412 281.741 286.281 280.426 291.24 280.426C296.198 280.426 301.068 281.741 305.352 284.238L401.076 339.988C402.515 340.823 403.708 342.021 404.538 343.462C405.368 344.903 405.804 346.537 405.804 348.2C405.804 349.863 405.368 351.497 404.538 352.938C403.708 354.379 402.515 355.577 401.076 356.412L325.755 399.898L201.016 328.547Z" fill="#20677F"/>
<path d="M201.016 328.547L200.764 328.115L200.015 328.551L200.768 328.981L201.016 328.547ZM277.128 284.238L277.379 284.67L277.379 284.67L277.128 284.238ZM305.352 284.238L305.1 284.67L305.1 284.67L305.352 284.238ZM401.076 339.988L400.825 340.42L400.825 340.421L401.076 339.988ZM404.538 343.462L404.105 343.712L404.105 343.712L404.538 343.462ZM404.538 352.938L404.105 352.688L404.105 352.688L404.538 352.938ZM401.076 356.412L401.326 356.845L401.327 356.844L401.076 356.412ZM325.755 399.898L325.507 400.332L325.756 400.474L326.005 400.331L325.755 399.898ZM201.267 328.979L277.379 284.67L276.876 283.806L200.764 328.115L201.267 328.979ZM277.379 284.67C281.587 282.218 286.37 280.926 291.24 280.926V279.926C286.193 279.926 281.236 281.265 276.876 283.806L277.379 284.67ZM291.24 280.926C296.11 280.926 300.892 282.218 305.1 284.67L305.603 283.806C301.243 281.265 296.287 279.926 291.24 279.926V280.926ZM305.1 284.67L400.825 340.42L401.328 339.556L305.603 283.806L305.1 284.67ZM400.825 340.421C402.188 341.212 403.319 342.347 404.105 343.712L404.971 343.213C404.098 341.696 402.841 340.435 401.327 339.556L400.825 340.421ZM404.105 343.712C404.891 345.077 405.304 346.625 405.304 348.2H406.304C406.304 346.45 405.845 344.73 404.971 343.213L404.105 343.712ZM405.304 348.2C405.304 349.775 404.891 351.323 404.105 352.688L404.971 353.187C405.845 351.67 406.304 349.951 406.304 348.2H405.304ZM404.105 352.688C403.319 354.054 402.188 355.188 400.825 355.979L401.327 356.844C402.841 355.965 404.098 354.704 404.971 353.187L404.105 352.688ZM400.826 355.979L325.505 399.465L326.005 400.331L401.326 356.845L400.826 355.979ZM326.004 399.464L201.264 328.113L200.768 328.981L325.507 400.332L326.004 399.464Z" fill="#10323F"/>
<path d="M360.23 325.646L383.407 312.686C384.521 312.037 385.787 311.695 387.077 311.695C388.366 311.695 389.632 312.037 390.746 312.686L415.668 327.178C416.034 327.401 416.337 327.713 416.547 328.087C416.757 328.46 416.868 328.881 416.868 329.309C416.868 329.738 416.757 330.159 416.547 330.532C416.337 330.905 416.034 331.218 415.668 331.44L392.391 344.25C391.284 344.892 390.026 345.23 388.746 345.23C387.466 345.23 386.209 344.892 385.101 344.25L360.242 329.895C359.878 329.673 359.577 329.362 359.367 328.99C359.158 328.619 359.048 328.2 359.046 327.774C359.045 327.348 359.153 326.928 359.36 326.555C359.567 326.183 359.867 325.87 360.23 325.646Z" fill="white" stroke="white" stroke-miterlimit="10"/>
<path d="M269.016 396.505L285.45 387.231C286.24 386.766 287.138 386.521 288.052 386.521C288.967 386.521 289.865 386.766 290.654 387.231L308.326 397.602C308.586 397.761 308.8 397.985 308.949 398.252C309.098 398.519 309.177 398.821 309.177 399.127C309.177 399.434 309.098 399.735 308.949 400.002C308.8 400.269 308.586 400.493 308.326 400.652L291.821 409.82C291.036 410.279 290.144 410.521 289.236 410.521C288.329 410.521 287.437 410.279 286.652 409.82L269.025 399.546C268.766 399.388 268.553 399.165 268.404 398.899C268.256 398.633 268.178 398.333 268.177 398.028C268.176 397.723 268.252 397.423 268.399 397.156C268.546 396.89 268.758 396.666 269.016 396.505Z" fill="#E8EEF0" stroke="white" stroke-miterlimit="10"/>
<g clip-path="url(#clip0_194_644)">
<path d="M283.969 392.972L278.785 399.061C278.177 399.915 278.308 400.644 279.021 401.055L285.585 404.956C285.96 405.175 286.383 405.294 286.814 405.301C287.245 405.308 287.671 405.202 288.053 404.995L296.802 400.587L283.969 392.972Z" fill="white" stroke="#10323F" stroke-width="0.595746" stroke-linecap="round" stroke-linejoin="round"/>
<path d="M284.316 392.113C283.912 392.354 283.913 392.938 284.317 393.178L296.769 400.566C297.157 400.796 297.639 400.8 298.031 400.576V400.576C298.448 400.337 298.453 399.737 298.039 399.492L285.581 392.112C285.191 391.88 284.705 391.881 284.316 392.113V392.113Z" fill="white" stroke="#10323F" stroke-width="0.595746" stroke-linecap="round" stroke-linejoin="round"/>
<path d="M287.036 392.971L292.651 392.533" stroke="#10323F" stroke-width="0.595746" stroke-linecap="round" stroke-linejoin="round"/>
<path d="M296.199 398.403L295.68 394.237" stroke="#10323F" stroke-width="0.595746" stroke-linecap="round" stroke-linejoin="round"/>
<path d="M284.518 395.277L280.856 400.136" stroke="#10323F" stroke-width="0.595746" stroke-linecap="round" stroke-linejoin="round"/>
<path d="M288.154 397.704L283.421 401.83" stroke="#10323F" stroke-width="0.595746" stroke-linecap="round" stroke-linejoin="round"/>
<path d="M292.28 399.897L286.226 403.629" stroke="#10323F" stroke-width="0.595746" stroke-linecap="round" stroke-linejoin="round"/>
</g>
<path d="M365.48 357.303C371.317 340.098 350.051 317.33 317.98 306.45C285.909 295.569 255.179 300.697 249.342 317.902C243.505 335.107 264.771 357.875 296.842 368.755C328.913 379.636 359.643 374.508 365.48 357.303Z" fill="#FBE7CB" stroke="#6E5521" stroke-miterlimit="10"/>
<path d="M362.058 356.141C367.336 340.585 347.148 319.674 316.967 309.434C286.786 299.195 258.041 303.506 252.764 319.062C247.486 334.619 267.674 355.53 297.855 365.769C328.036 376.008 356.781 371.698 362.058 356.141Z" fill="#FBE7CB" stroke="#6E5521" stroke-miterlimit="10"/>
<path d="M350.029 339.046C348.706 338.411 346.303 339.046 345.267 339.443C343.965 339.839 344.407 341.691 344.87 342.617C345.333 343.543 347.78 341.956 348.574 344.535C349.368 347.115 346.788 345.858 346.061 347.049C345.333 348.239 344.738 349.099 344.87 350.422C345.002 351.745 348.375 353.663 350.029 353.067C351.682 352.472 353.204 349.099 353.071 345.858C352.939 342.617 351.682 339.839 350.029 339.046Z" fill="#6E5521" stroke="#6E5521"/>
<path d="M200.817 328.648L325.788 399.825" stroke="#10323F" stroke-miterlimit="10"/>
<path d="M403.967 327.528C403.967 325.123 400.665 323.179 396.603 323.179C395.193 323.164 393.793 323.418 392.478 323.926C392.905 323.434 393.147 322.808 393.164 322.157C393.164 319.864 390.011 318.008 386.123 318.008C384.304 317.965 382.509 318.431 380.94 319.353V319.353C380.94 319.353 375.282 321.571 375.955 333.696C375.955 333.696 391.918 336.836 401.724 330.63C401.974 330.481 402.21 330.319 402.435 330.157C402.877 329.868 403.245 329.48 403.511 329.023C403.777 328.567 403.933 328.055 403.967 327.528V327.528Z" fill="#A3BBC3"/>
<path fill-rule="evenodd" clip-rule="evenodd" d="M403.199 325.591C403.691 326.174 403.967 326.832 403.967 327.528C403.933 328.055 403.777 328.567 403.511 329.023C403.245 329.48 402.877 329.868 402.435 330.157C402.21 330.319 401.974 330.481 401.724 330.631C392.325 336.578 377.271 333.941 376.036 333.711C381.74 334.015 393.575 333.075 398.806 330.756C403.004 328.895 403.506 326.754 403.199 325.591ZM391.536 319.503C392.134 320.323 392.666 321.961 391.559 324.151C391.761 324.089 392.096 323.992 392.517 323.881C392.919 323.395 393.147 322.788 393.164 322.157C393.164 321.147 392.552 320.222 391.536 319.503ZM392.803 323.807C393.482 323.568 394.181 323.397 394.891 323.294C394.894 323.31 394.898 323.327 394.901 323.343C394.148 323.481 393.41 323.652 392.803 323.807Z" fill="#10323F"/>
<path opacity="0.4" d="M193.976 339.976L197.826 337.746C198.384 337.433 199.013 337.27 199.652 337.27C200.291 337.27 200.92 337.433 201.477 337.746L264.542 374.156C264.801 374.306 265.015 374.522 265.165 374.781C265.314 375.04 265.393 375.334 265.393 375.633C265.393 375.932 265.314 376.226 265.165 376.485C265.015 376.744 264.801 376.96 264.542 377.11L260.505 379.452C259.948 379.774 259.316 379.943 258.673 379.943C258.03 379.943 257.398 379.774 256.841 379.452L193.963 342.942C193.702 342.791 193.486 342.575 193.336 342.314C193.186 342.053 193.107 341.756 193.108 341.455C193.11 341.154 193.191 340.859 193.343 340.599C193.495 340.339 193.714 340.124 193.976 339.976V339.976Z" fill="#C6D4D9"/>
<path opacity="0.4" d="M181.964 347.465L184.082 346.331C184.453 346.124 184.872 346.015 185.297 346.015C185.722 346.015 186.14 346.124 186.512 346.331L220.032 365.521C220.208 365.617 220.356 365.759 220.459 365.933C220.562 366.106 220.616 366.304 220.616 366.505C220.616 366.706 220.562 366.904 220.459 367.077C220.356 367.251 220.208 367.393 220.032 367.489L217.714 368.736C217.335 368.954 216.905 369.069 216.468 369.069C216.03 369.069 215.601 368.954 215.222 368.736L181.926 349.434C181.751 349.334 181.606 349.189 181.507 349.013C181.407 348.838 181.357 348.64 181.36 348.438C181.364 348.237 181.422 348.04 181.528 347.869C181.635 347.697 181.785 347.558 181.964 347.465V347.465Z" fill="#C6D4D9"/>
<path opacity="0.4" d="M174.338 351.651L176.468 350.517C176.84 350.31 177.258 350.201 177.683 350.201C178.109 350.201 178.527 350.31 178.898 350.517L212.418 369.707C212.595 369.805 212.742 369.949 212.844 370.123C212.946 370.297 213 370.496 213 370.698C213 370.9 212.946 371.098 212.844 371.272C212.742 371.447 212.595 371.59 212.418 371.688L210.1 372.935C209.722 373.153 209.292 373.268 208.854 373.268C208.417 373.268 207.987 373.153 207.608 372.935L174.275 353.645C174.095 353.545 173.946 353.397 173.844 353.218C173.742 353.039 173.692 352.835 173.698 352.629C173.704 352.423 173.768 352.223 173.88 352.05C173.993 351.878 174.151 351.74 174.338 351.651V351.651Z" fill="#C6D4D9"/>
<path opacity="0.4" d="M166.649 355.938L168.78 354.817C169.15 354.612 169.566 354.504 169.989 354.504C170.412 354.504 170.828 354.612 171.197 354.817L204.73 374.006C204.906 374.105 205.053 374.248 205.156 374.423C205.258 374.597 205.312 374.795 205.312 374.997C205.312 375.199 205.258 375.397 205.156 375.572C205.053 375.746 204.906 375.889 204.73 375.988L202.412 377.234C202.033 377.453 201.603 377.568 201.166 377.568C200.728 377.568 200.299 377.453 199.92 377.234L166.587 357.944C166.407 357.843 166.258 357.694 166.157 357.513C166.056 357.333 166.006 357.129 166.012 356.922C166.019 356.716 166.081 356.515 166.194 356.342C166.306 356.168 166.463 356.029 166.649 355.938Z" fill="#C6D4D9"/>
<ellipse cx="386.07" cy="320.014" rx="2.49162" ry="1.23913" fill="white"/>
<path d="M147.239 358.086C146.403 359.581 145.432 363.649 148.229 367.954M140.556 358.014C139.677 359.935 138.711 364.875 141.88 369.267" stroke="#10323F" stroke-linecap="round"/>
<path d="M411.865 348.32C412.7 349.816 413.672 353.883 410.875 358.189M418.548 348.248C419.427 350.169 420.393 355.11 417.223 359.501" stroke="#10323F" stroke-linecap="round"/>
<path d="M359.452 352.719C364.403 338.127 345.466 318.512 317.155 308.907C288.845 299.303 261.881 303.346 256.931 317.937C251.981 332.529 270.918 352.144 299.228 361.749C327.538 371.354 354.502 367.311 359.452 352.719Z" fill="#F5BE49" stroke="#6E5521" stroke-miterlimit="10"/>
<path fill-rule="evenodd" clip-rule="evenodd" d="M357.323 337.625C359.4 342.201 359.903 346.715 358.507 350.829C353.557 365.42 326.593 369.463 298.283 359.859C279.052 353.335 264.146 342.191 258.115 331.141C263.404 342.794 278.899 354.852 299.228 361.749C327.538 371.354 354.502 367.311 359.452 352.719C361.04 348.039 360.17 342.843 357.323 337.625Z" fill="#6E5521"/>
<path d="M358.507 350.829L358.98 350.989L358.98 350.989L358.507 350.829ZM357.323 337.625L357.762 337.386L356.868 337.832L357.323 337.625ZM298.283 359.859L298.443 359.385L298.443 359.385L298.283 359.859ZM258.115 331.141L258.554 330.901L257.66 331.347L258.115 331.141ZM299.228 361.749L299.389 361.276L299.389 361.276L299.228 361.749ZM359.452 352.719L358.979 352.558L358.979 352.558L359.452 352.719ZM358.98 350.989C360.427 346.726 359.893 342.079 357.778 337.419L356.868 337.832C358.906 342.324 359.379 346.703 358.033 350.668L358.98 350.989ZM298.122 360.332C312.337 365.155 326.237 366.56 337.229 364.912C348.193 363.268 356.414 358.554 358.98 350.989L358.033 350.668C355.649 357.695 347.914 362.299 337.081 363.923C326.276 365.543 312.539 364.167 298.443 359.385L298.122 360.332ZM257.676 331.38C263.79 342.582 278.826 353.786 298.122 360.332L298.443 359.385C279.278 352.883 264.502 341.8 258.554 330.901L257.676 331.38ZM257.66 331.347C263.03 343.18 278.676 355.305 299.067 362.223L299.389 361.276C279.123 354.4 263.778 342.408 258.57 330.934L257.66 331.347ZM299.067 362.223C313.282 367.045 327.182 368.45 338.174 366.802C349.138 365.158 357.359 360.444 359.926 352.879L358.979 352.558C356.594 359.586 348.859 364.189 338.026 365.813C327.221 367.433 313.484 366.058 299.389 361.276L299.067 362.223ZM359.926 352.879C361.571 348.029 360.654 342.685 357.762 337.386L356.884 337.865C359.687 343.001 360.508 348.05 358.979 352.558L359.926 352.879Z" fill="#6E5521"/>
<path d="M259.259 324.996C258.295 321.289 260.864 317.458 261.604 316.532C262.344 315.607 263.337 315.022 265.098 315.578C266.859 316.134 268.088 316.995 267.917 318C267.256 321.891 265.691 319.354 264.393 321.671C263.096 323.988 266.395 323.699 266.395 324.996C266.395 326.294 265.932 328.703 265.098 328.796C264.264 328.889 260.464 329.63 259.259 324.996Z" fill="#6E5521" stroke="#6E5521"/>
<path d="M350.003 352.616C349.404 351.343 346.446 351.087 345.042 351.119C342.796 352.242 343.919 352.616 343.919 354.02C343.919 355.424 340.362 355.986 340.081 355.05C339.801 354.114 336.338 353.552 335.121 354.02C333.904 354.488 332.594 360.853 339.52 359.917C346.446 358.981 350.751 354.207 350.003 352.616Z" fill="#6E5521" stroke="#6E5521"/>
<path d="M335.869 360.478C337.592 358.681 335.776 356.297 334.653 355.33C333.842 354.768 331.976 353.814 331.002 354.488C329.786 355.33 331.377 357.857 328.288 358.231C325.2 358.606 326.697 356.547 324.825 355.33C322.953 354.113 322.298 353.926 320.801 355.33C319.303 356.734 318.273 359.729 321.362 360.946C324.451 362.162 333.717 362.724 335.869 360.478Z" fill="#6E5521" stroke="#6E5521"/>
<path d="M321.331 358.482C321.331 357 320.095 355.023 319.477 354.22C319.103 353.695 316.81 354.22 315.905 354.22C315 354.22 314.638 354.745 314.186 356.283C313.733 357.822 308.484 355.831 310.113 354.745C311.742 353.659 310.384 352.573 309.298 351.668C308.212 350.762 307.126 351.124 306.04 351.668C304.954 352.211 300.157 354.22 303.687 357.008C307.216 359.795 315.493 360.706 317.717 360.52C319.941 360.335 321.331 360.335 321.331 358.482Z" fill="#6E5521" stroke="#6E5521"/>
<path d="M305.066 355.562C305.958 354.28 305.67 352.566 305.414 351.869C305.159 350.402 300.119 350.545 299.77 351.869C299.422 353.193 297.053 352.914 295.59 351.869C294.126 350.824 296.286 350.197 294.544 348.385C292.802 346.574 292.245 346.225 290.433 346.852C288.622 347.479 286.81 349.918 288.831 351.869C290.851 353.82 295.311 355.562 297.541 356.12C299.77 356.677 303.951 357.165 305.066 355.562Z" fill="#6E5521" stroke="#6E5521"/>
<path d="M290.031 349.416C290.712 347.666 290.315 346.337 290.031 345.892C289.659 344.425 286.69 343.644 285.718 343.644C284.746 343.644 284.867 345.892 281.951 344.737C279.034 343.583 281.768 341.335 281.282 340.423C280.796 339.512 280.25 337.872 278.548 338.358C276.847 338.844 271.561 340.302 276.361 344.737C281.161 349.173 289.181 351.603 290.031 349.416Z" fill="#6E5521" stroke="#6E5521"/>
<path d="M277.047 341.911C277.947 341.225 278.208 338.981 278.226 337.944C278.28 337.087 275.707 336.283 274.849 336.283C273.991 336.283 273.348 338.52 271.633 336.751C269.918 334.982 271.901 334.514 271.633 333.12C271.365 331.727 270.454 330.762 268.47 331.298C266.487 331.834 264.075 333.013 265.629 335.8C267.184 338.588 273.295 342.822 274.367 342.876C275.439 342.93 275.921 342.769 277.047 341.911Z" fill="#6E5521" stroke="#6E5521"/>
<path d="M268.526 336.071C269.605 335.731 270.61 333.707 270.978 332.738C271.319 331.95 269.17 330.322 268.363 330.032C267.556 329.741 266.692 331.468 265.677 329.222C264.662 326.977 266.188 327.369 266.407 325.967C266.627 324.565 266.096 323.349 264.049 323.182C262.001 323.015 259.332 323.308 259.851 326.457C260.37 329.606 264.687 335.659 265.677 336.072C266.668 336.485 267.176 336.497 268.526 336.071Z" fill="#6E5521" stroke="#6E5521"/>
<path d="M260.259 323.996C259.295 320.289 261.864 316.458 262.604 315.532C263.344 314.607 264.337 314.022 266.098 314.578C267.859 315.134 269.088 315.995 268.917 317C268.256 320.891 266.691 318.354 265.393 320.671C264.096 322.988 267.395 322.699 267.395 323.996C267.395 325.294 266.932 327.703 266.098 327.796C265.264 327.889 261.464 328.63 260.259 323.996Z" fill="#FBE7CB" stroke="#6E5521"/>
<path d="M264.496 314.167C265.256 315.636 266.994 317.246 268.007 317.5C268.661 317.31 270.45 316.042 270.45 315.434C270.45 314.674 269.621 313.906 270.951 312.703C272.281 311.5 273.975 312.964 274.228 313.344C274.482 313.724 276.087 313.66 277.163 313.344C278.24 313.027 277.695 308.571 275.321 308.571C270.76 308.571 263.546 312.33 264.496 314.167Z" fill="#FBE7CB" stroke="#6E5521"/>
<path d="M276.34 309.877C276.339 310.711 277.338 312.336 277.837 313.045C279.729 313.99 280.741 313.628 281.182 313.19C281.623 312.752 280.534 310.234 282.986 310.025C285.439 309.817 284.929 312.022 285.667 312.567C286.406 313.113 287.873 313.802 289.413 312.339C290.954 310.876 292.005 308.074 290.212 307.532C288.419 306.989 283.07 306.924 280.366 307.48C277.662 308.036 276.342 308.834 276.34 309.877Z" fill="#FBE7CB" stroke="#6E5521"/>
<path d="M290.461 308.105C289.947 308.945 289.89 311.217 289.926 312.248C290.247 314.291 293.832 315.283 294.206 313.474C294.581 311.665 295.276 310.556 297.684 311.256C300.092 311.956 298.861 314.582 300.199 315.283C301.536 315.983 302.5 315.749 303.837 313.882C305.175 312.015 305.121 310.147 301.376 308.747C297.631 307.346 291.103 307.055 290.461 308.105Z" fill="#FBE7CB" stroke="#6E5521"/>
<path d="M304.674 309.981C302.676 310.493 302.86 313.438 303.201 314.846C303.376 315.892 305.442 316.959 307.299 316.127C309.156 315.295 307.555 313.374 311.012 314.27C314.469 315.167 312.357 316.511 313.893 317.727C315.43 318.944 316.07 320.16 317.542 319.008C319.015 317.855 320.039 314.846 316.902 313.374C313.765 311.901 307.171 309.34 304.674 309.981Z" fill="#FBE7CB" stroke="#6E5521"/>
<path d="M315.749 315.788C314.827 317.017 315.023 318.989 315.237 319.821C315.4 320.91 319.206 320.526 319.462 319.821C319.718 319.117 320.166 317.517 322.727 318.733C325.288 319.95 323.239 321.422 323.88 322.446C324.52 323.471 324.904 324.815 326.184 324.751C327.465 324.687 330.538 322.895 329.257 319.821C327.977 316.748 321.831 314.188 320.166 314.188C318.502 314.188 316.901 314.252 315.749 315.788Z" fill="#FBE7CB" stroke="#6E5521"/>
<path d="M326.753 319.062C325.644 319.754 325.713 321.968 325.886 322.988C325.96 324.832 328.947 326.222 329.871 325.702C330.795 325.182 330.968 322.642 333.046 323.623C335.125 324.605 333.393 326.395 333.682 327.376C333.97 328.358 334.721 329.859 336.338 329.744C337.955 329.628 339.976 328.589 340.149 327.376C340.322 326.164 338.994 324.201 334.721 321.602C330.448 319.004 328.138 318.195 326.753 319.062Z" fill="#FBE7CB" stroke="#6E5521"/>
<path d="M339.52 326.737C337.827 327.054 337.007 329.073 336.809 330.044C336.147 332.491 338.396 334.607 340.248 334.409C342.1 334.21 340.909 332.689 342.166 331.895C343.423 331.102 346.531 334.144 345.209 335.004C343.886 335.864 344.216 337.451 344.547 338.443C344.878 339.435 346.796 339.766 348.78 339.369C350.764 338.972 351.36 336.128 348.78 332.689C346.201 329.25 341.637 326.34 339.52 326.737Z" fill="#FBE7CB" stroke="#6E5521"/>
<path d="M351.029 338.046C349.706 337.411 347.303 338.046 346.267 338.443C344.965 338.839 345.407 340.691 345.87 341.617C346.333 342.543 348.78 340.956 349.574 343.535C350.367 346.115 347.788 344.858 347.06 346.049C346.333 347.239 345.738 348.099 345.87 349.422C346.002 350.745 349.375 352.663 351.029 352.067C352.682 351.472 354.204 348.099 354.071 344.858C353.939 341.617 352.682 338.839 351.029 338.046Z" fill="#FBE7CB" stroke="#6E5521"/>
<path d="M351.003 351.616C350.404 350.343 347.446 350.087 346.042 350.119C343.796 351.242 344.919 351.616 344.919 353.02C344.919 354.424 341.362 354.986 341.081 354.05C340.801 353.114 337.338 352.552 336.121 353.02C334.904 353.488 333.594 359.853 340.52 358.917C347.446 357.981 351.751 353.207 351.003 351.616Z" fill="#FBE7CB" stroke="#6E5521"/>
<path d="M336.869 359.478C338.592 357.681 336.776 355.297 335.653 354.33C334.842 353.768 332.976 352.814 332.002 353.488C330.786 354.33 332.377 356.857 329.288 357.231C326.2 357.606 327.697 355.547 325.825 354.33C323.953 353.113 323.298 352.926 321.801 354.33C320.303 355.734 319.273 358.729 322.362 359.946C325.451 361.162 334.717 361.724 336.869 359.478Z" fill="#FBE7CB" stroke="#6E5521"/>
<path d="M322.331 357.482C322.331 356 321.095 354.023 320.477 353.22C320.103 352.695 317.81 353.22 316.905 353.22C316 353.22 315.638 353.745 315.186 355.283C314.733 356.822 309.484 354.831 311.113 353.745C312.742 352.659 311.384 351.573 310.298 350.668C309.212 349.762 308.126 350.124 307.04 350.668C305.954 351.211 301.157 353.22 304.687 356.008C308.216 358.795 316.493 359.706 318.717 359.52C320.941 359.335 322.331 359.335 322.331 357.482Z" fill="#FBE7CB" stroke="#6E5521"/>
<path d="M306.066 354.562C306.958 353.28 306.67 351.566 306.414 350.869C306.159 349.402 301.119 349.545 300.77 350.869C300.422 352.193 298.053 351.914 296.59 350.869C295.126 349.824 297.286 349.197 295.544 347.385C293.802 345.574 293.245 345.225 291.433 345.852C289.622 346.479 287.81 348.918 289.831 350.869C291.851 352.82 296.311 354.562 298.541 355.12C300.77 355.677 304.951 356.165 306.066 354.562Z" fill="#FBE7CB" stroke="#6E5521"/>
<path d="M291.031 348.416C291.712 346.666 291.315 345.337 291.031 344.892C290.659 343.425 287.69 342.644 286.718 342.644C285.746 342.644 285.867 344.892 282.951 343.737C280.034 342.583 282.768 340.335 282.282 339.423C281.796 338.512 281.25 336.872 279.548 337.358C277.847 337.844 272.561 339.302 277.361 343.737C282.161 348.173 290.181 350.603 291.031 348.416Z" fill="#FBE7CB" stroke="#6E5521"/>
<path d="M278.047 340.911C278.947 340.225 279.208 337.981 279.226 336.944C279.28 336.087 276.707 335.283 275.849 335.283C274.991 335.283 274.348 337.52 272.633 335.751C270.918 333.982 272.901 333.514 272.633 332.12C272.365 330.727 271.454 329.762 269.47 330.298C267.487 330.834 265.075 332.013 266.629 334.8C268.184 337.588 274.295 341.822 275.367 341.876C276.439 341.93 276.921 341.769 278.047 340.911Z" fill="#FBE7CB" stroke="#6E5521"/>
<path d="M269.526 335.071C270.605 334.731 271.61 332.707 271.978 331.738C272.319 330.95 270.17 329.322 269.363 329.032C268.556 328.741 267.692 330.468 266.677 328.222C265.662 325.977 267.188 326.369 267.407 324.967C267.627 323.565 267.096 322.349 265.049 322.182C263.001 322.015 260.332 322.308 260.851 325.457C261.37 328.606 265.687 334.659 266.677 335.072C267.668 335.485 268.176 335.497 269.526 335.071Z" fill="#FBE7CB" stroke="#6E5521"/>
<path d="M267.001 318.435C265.428 321.882 266.346 325.835 267.001 327.381C269.156 330.191 271.966 328.505 271.966 327.381C271.966 326.257 272.294 324.196 271.17 324.102C270.046 324.009 268.875 322.978 269.062 321.807C269.25 320.636 271.076 320.402 271.451 320.402C271.826 320.402 273.981 319.653 273.746 318.435C273.512 317.217 273.606 316.186 272.294 315.39C271.186 314.969 268.575 314.987 267.001 318.435Z" fill="#FBE7CB" stroke="#6E5521"/>
<path d="M274.624 312.19C271.318 313.055 271.017 316.108 270.787 317.157C270 320.207 273.542 320.354 274.968 318.633C276.394 316.911 274.593 316.911 277.2 316.223C279.806 315.534 278.017 315.387 279.886 316.223C281.755 317.059 281.903 317.846 283.133 316.616C284.362 315.387 283.87 313.419 282.887 312.682C281.903 311.944 278.755 311.108 274.624 312.19Z" fill="#FBE7CB" stroke="#6E5521"/>
<path d="M286.353 310.612C282.964 310.614 282.094 313.111 281.672 313.942C280.328 316.33 283.755 317.231 285.472 316.098C287.189 314.965 285.593 312.871 288.266 312.864C290.939 312.858 289.06 314.041 290.726 315.153C292.391 316.265 292.387 316.958 293.819 316.195C295.25 315.433 295.142 313.672 294.321 312.837C293.501 312.002 290.588 310.609 286.353 310.612Z" fill="#FBE7CB" stroke="#6E5521"/>
<path d="M294.36 312.689C293.81 313.506 293.654 315.773 293.645 316.805C293.877 318.859 297.415 320.006 297.868 318.215C298.321 316.424 299.064 315.347 301.439 316.151C303.814 316.956 302.47 319.526 303.776 320.284C305.082 321.042 306.054 320.85 307.472 319.043C308.89 317.236 308.918 315.368 305.237 313.805C301.556 312.243 295.047 311.667 294.36 312.689Z" fill="#FBE7CB" stroke="#6E5521"/>
<path d="M306.626 317.221C305.747 318.482 306.011 320.446 306.253 321.27C306.454 322.352 310.244 321.837 310.476 321.125C310.708 320.412 311.101 318.797 313.702 319.925C316.303 321.052 314.306 322.594 314.981 323.596C315.656 324.598 316.086 325.928 317.364 325.82C318.641 325.712 321.651 323.815 320.266 320.788C318.88 317.761 312.65 315.413 310.986 315.47C309.322 315.527 307.725 315.646 306.626 317.221Z" fill="#FBE7CB" stroke="#6E5521"/>
<path d="M319.172 319.564C318.448 320.231 317.77 322.4 317.522 323.402C317.271 325.454 320.447 327.39 321.303 325.753C322.159 324.116 323.132 323.24 325.255 324.573C327.379 325.906 325.476 328.095 326.571 329.135C327.665 330.175 328.655 330.214 330.454 328.785C332.252 327.355 332.712 325.545 329.493 323.172C326.275 320.798 320.077 318.729 319.172 319.564Z" fill="#FBE7CB" stroke="#6E5521"/>
<path d="M330.84 324.684C329.16 325.064 328.415 327.113 328.253 328.09C327.683 330.56 330.009 332.591 331.853 332.324C333.696 332.056 332.449 330.581 333.676 329.741C334.902 328.901 338.122 331.825 336.832 332.734C335.542 333.642 335.931 335.216 336.299 336.195C336.666 337.174 338.595 337.433 340.563 336.963C342.532 336.492 343.02 333.628 340.315 330.287C337.609 326.947 332.94 324.208 330.84 324.684Z" fill="#FBE7CB" stroke="#6E5521"/>
<path d="M343.306 333.127C341.868 332.837 339.695 334.044 338.789 334.684C337.625 335.389 338.509 337.075 339.186 337.859C339.862 338.642 341.843 336.501 343.248 338.806C344.652 341.11 341.843 340.527 341.431 341.86C341.019 343.193 340.653 344.173 341.107 345.423C341.561 346.672 345.303 347.701 346.759 346.717C348.215 345.733 348.859 342.089 347.932 338.98C347.006 335.872 345.104 333.489 343.306 333.127Z" fill="#FBE7CB" stroke="#6E5521"/>
<path d="M347.366 347.436C346.767 346.163 343.809 345.907 342.405 345.938C340.159 347.061 341.282 347.436 341.282 348.839C341.282 350.243 337.726 350.805 337.445 349.869C337.164 348.933 333.701 348.371 332.484 348.839C331.267 349.307 329.957 355.672 336.883 354.736C343.809 353.8 348.115 349.027 347.366 347.436Z" fill="#FBE7CB" stroke="#6E5521"/>
<path d="M334.479 353.046C334.177 351.594 332.564 349.912 331.795 349.252C331.322 348.814 329.184 349.796 328.298 349.981C327.412 350.166 327.165 350.754 327.036 352.352C326.907 353.951 321.362 353.074 322.735 351.678C324.108 350.282 322.557 349.496 321.309 348.831C320.061 348.167 319.072 348.743 318.119 349.497C317.167 350.25 312.881 353.197 316.906 355.205C320.931 357.213 329.219 356.414 331.358 355.779C333.497 355.143 334.858 354.86 334.479 353.046Z" fill="#FBE7CB" stroke="#6E5521"/>
<path d="M317.991 353.099C318.772 351.746 318.342 350.062 318.029 349.389C317.652 347.949 312.641 348.513 312.405 349.861C312.168 351.21 309.784 351.13 308.239 350.211C306.693 349.292 308.793 348.486 306.906 346.827C305.019 345.167 304.434 344.867 302.681 345.643C300.928 346.419 299.327 349.001 301.504 350.776C303.68 352.551 308.27 353.914 310.538 354.283C312.807 354.652 317.014 354.789 317.991 353.099Z" fill="#FBE7CB" stroke="#6E5521"/>
<path d="M303.092 348.849C303.457 347.007 302.834 345.768 302.477 345.379C301.854 344 298.794 343.749 297.837 343.918C296.88 344.088 297.392 346.28 294.319 345.653C291.246 345.025 293.546 342.334 292.908 341.522C292.27 340.709 291.446 339.189 289.855 339.965C288.265 340.74 283.315 343.098 288.815 346.628C294.315 350.158 302.636 351.151 303.092 348.849Z" fill="#FBE7CB" stroke="#6E5521"/>
<path d="M288.771 342.39C289.603 341.623 289.654 339.364 289.575 338.331C289.549 337.472 286.912 336.911 286.058 336.991C285.204 337.071 284.308 339.578 282.435 337.977C280.563 336.375 282.958 335.505 282.561 334.142C282.164 332.78 281.167 331.904 279.242 332.623C277.318 333.341 275.026 334.74 276.834 337.371C278.641 340.001 285.12 343.647 286.192 343.601C287.265 343.554 287.73 343.349 288.771 342.39Z" fill="#FBE7CB" stroke="#6E5521"/>
<path d="M278.419 335.736C279.406 335.181 279.974 332.995 280.135 331.971C280.307 331.129 277.869 329.977 277.02 329.859C276.171 329.74 274.723 331.974 273.268 329.985C271.813 327.996 274.344 327.7 274.271 326.282C274.198 324.865 273.429 323.783 271.391 324.04C269.352 324.298 266.801 325.132 267.955 328.108C269.11 331.083 274.577 336.121 275.632 336.322C276.686 336.523 277.186 336.43 278.419 335.736Z" fill="#FBE7CB" stroke="#6E5521"/>
<path d="M269.919 323.895C269.532 320.566 272.559 317.709 273.405 317.038C274.251 316.367 275.292 316.03 276.904 316.793C278.516 317.557 279.572 318.495 279.262 319.327C278.061 322.547 276.925 320.12 275.34 321.89C273.755 323.66 276.97 323.953 276.781 325.063C276.592 326.172 275.796 328.158 274.98 328.101C274.165 328.044 270.403 328.057 269.919 323.895Z" fill="#FBE7CB" stroke="#6E5521"/>
<path d="M276.665 317C276.967 318.626 278.163 320.67 279.059 321.206C279.741 321.214 281.82 320.519 281.996 319.937C282.216 319.21 281.646 318.235 283.268 317.469C284.889 316.703 286.086 318.595 286.218 319.032C286.351 319.469 287.905 319.874 289.027 319.883C290.149 319.892 290.92 315.469 288.647 314.781C284.282 313.459 276.289 314.966 276.665 317Z" fill="#FBE7CB" stroke="#6E5521"/>
<path d="M288.649 315.522C288.135 316.362 288.078 318.634 288.114 319.665C288.435 321.708 292.02 322.7 292.394 320.891C292.769 319.082 293.464 317.973 295.872 318.673C298.28 319.373 297.049 321.999 298.387 322.7C299.724 323.4 300.688 323.166 302.025 321.299C303.363 319.432 303.309 317.564 299.564 316.164C295.819 314.763 289.291 314.472 288.649 315.522Z" fill="#FBE7CB" stroke="#6E5521"/>
<path d="M302.549 317.608C300.41 318.161 300.607 321.342 300.972 322.863C301.159 323.992 303.372 325.145 305.36 324.246C307.348 323.347 305.634 321.273 309.336 322.241C313.038 323.209 310.776 324.661 312.421 325.975C314.067 327.288 314.752 328.602 316.329 327.357C317.906 326.113 319.003 322.863 315.644 321.273C312.284 319.682 305.223 316.916 302.549 317.608Z" fill="#FBE7CB" stroke="#6E5521"/>
<path d="M315.8 323.028C314.674 323.858 314.92 326.231 315.184 327.314C315.406 329.291 318.692 330.554 319.634 329.924C320.577 329.295 320.564 326.551 322.852 327.446C325.14 328.341 323.436 330.398 323.82 331.43C324.203 332.463 325.119 334.019 326.83 333.77C328.541 333.522 330.611 332.249 330.701 330.933C330.791 329.616 329.225 327.608 324.477 325.145C319.728 322.681 317.207 321.99 315.8 323.028Z" fill="#FBE7CB" stroke="#6E5521"/>
<path d="M330.421 328.947C328.591 329.265 327.705 331.284 327.49 332.254C326.775 334.702 329.206 336.818 331.207 336.62C333.209 336.421 331.76 336.227 333.119 335.433C334.477 334.639 336.079 336.945 334.649 337.804C333.219 338.664 335.497 339.662 335.854 340.654C336.212 341.646 338.285 341.977 340.429 341.58C342.574 341.183 343.217 338.339 340.429 334.9C337.641 331.461 332.709 328.551 330.421 328.947Z" fill="#FBE7CB" stroke="#6E5521"/>
<path d="M275.152 329.743C273.439 326.863 275.035 323.018 275.533 322.06C276.032 321.102 276.843 320.369 278.627 320.408C280.41 320.447 281.757 320.871 281.814 321.757C282.032 325.187 280.004 323.436 279.281 325.699C278.557 327.962 281.611 326.916 281.892 328.006C282.173 329.096 282.257 331.234 281.489 331.515C280.722 331.796 277.293 333.344 275.152 329.743Z" fill="#FBE7CB" stroke="#6E5521"/>
<path d="M278.47 319.989C278.691 321.628 279.785 323.729 280.654 324.308C281.335 324.349 283.445 323.757 283.65 323.184C283.906 322.469 283.384 321.467 285.041 320.781C286.698 320.095 287.801 322.044 287.911 322.487C288.022 322.93 289.555 323.41 290.675 323.474C291.796 323.538 292.782 319.159 290.545 318.36C286.251 316.826 278.193 317.94 278.47 319.989Z" fill="#FBE7CB" stroke="#6E5521"/>
<path d="M290.58 319.359C290.066 320.199 290.009 322.471 290.045 323.502C290.366 325.544 293.951 326.536 294.325 324.727C294.7 322.918 295.395 321.81 297.803 322.51C300.211 323.21 298.98 325.836 300.318 326.536C301.656 327.237 302.619 327.003 303.956 325.136C305.294 323.269 305.24 321.401 301.495 320.001C297.75 318.6 291.222 318.308 290.58 319.359Z" fill="#FBE7CB" stroke="#6E5521"/>
<path d="M303.694 322.245C302.62 323.141 303.007 325.496 303.336 326.561C303.676 328.52 307.032 329.584 307.935 328.899C308.838 328.214 308.66 325.476 310.998 326.232C313.336 326.988 311.758 329.143 312.203 330.151C312.648 331.159 313.655 332.657 315.349 332.306C317.042 331.955 319.032 330.561 319.043 329.241C319.053 327.922 317.37 326.012 312.482 323.838C307.593 321.664 305.036 321.125 303.694 322.245Z" fill="#FBE7CB" stroke="#6E5521"/>
<path d="M318.271 327.338C316.495 327.883 315.869 329.997 315.777 330.987C315.375 333.504 318.052 335.299 320.013 334.851C321.974 334.404 320.506 333.056 321.754 332.098C323.002 331.14 326.717 333.738 325.406 334.77C324.096 335.802 324.649 337.332 325.128 338.272C325.607 339.211 327.706 339.279 329.784 338.617C331.861 337.954 332.143 335.052 328.946 331.989C325.749 328.927 320.491 326.658 318.271 327.338Z" fill="#FBE7CB" stroke="#6E5521"/>
<path d="M340.907 340.265C339.968 339.21 337.596 338.722 336.527 338.61C335.222 338.388 334.925 340.051 334.992 340.983C335.059 341.915 336.687 341.663 335.687 343.849C334.846 345.685 334.591 344.423 333.501 345.073C332.411 345.723 332.461 346.108 332.086 347.22C331.711 348.332 333.995 351.261 335.687 351.47C337.378 351.68 339.986 349.614 341.075 346.969C342.164 344.325 342.082 341.584 340.907 340.265Z" fill="#FBE7CB" stroke="#6E5521"/>
<path d="M334.5 348.453C334.13 347.018 332.44 345.412 331.642 344.789C331.148 344.374 329.059 345.454 328.183 345.68C327.306 345.906 327.087 346.505 327.032 348.108C326.978 349.711 321.398 349.093 322.704 347.635C324.011 346.176 322.425 345.464 321.147 344.858C319.87 344.253 318.908 344.875 317.992 345.672C317.076 346.469 312.933 349.612 317.047 351.43C321.161 353.248 329.403 352.064 331.51 351.329C333.617 350.595 334.963 350.248 334.5 348.453Z" fill="#FBE7CB" stroke="#6E5521"/>
<path d="M318.416 348.814C319.197 347.462 318.767 345.778 318.454 345.105C318.077 343.665 312.667 343.094 312.43 344.442C312.194 345.79 311.091 346.496 309.545 345.577C308 344.658 309.218 344.202 307.331 342.543C305.443 340.883 304.859 340.582 303.106 341.359C301.353 342.135 299.752 344.717 301.928 346.492C304.105 348.267 308.695 349.63 310.963 349.999C313.232 350.368 317.439 350.505 318.416 348.814Z" fill="#FBE7CB" stroke="#6E5521"/>
<path d="M331.361 345.972C332.775 343.924 330.602 341.86 329.339 341.084C328.449 340.659 326.455 340.014 325.602 340.834C324.535 341.859 326.508 344.101 323.518 344.962C320.529 345.824 321.679 343.552 319.637 342.649C317.596 341.746 316.919 341.666 315.664 343.29C314.409 344.915 313.87 348.036 317.113 348.745C320.356 349.454 329.593 348.533 331.361 345.972Z" fill="#FBE7CB" stroke="#6E5521"/>
<path d="M304.272 345.111C305.214 343.866 304.994 342.142 304.766 341.435C304.569 339.959 299.527 339.902 299.127 341.211C298.726 342.52 297.117 341.88 295.697 340.777C294.276 339.675 295.712 339.402 294.043 337.523C292.374 335.643 291.831 335.273 289.996 335.828C288.161 336.383 286.254 338.748 288.196 340.777C290.137 342.807 294.524 344.724 296.73 345.37C298.936 346.015 303.094 346.669 304.272 345.111Z" fill="#FBE7CB" stroke="#6E5521"/>
<path d="M292.476 339.761C293.669 338.753 293.834 337.023 293.767 336.284C293.9 334.801 288.994 333.636 288.315 334.825C287.636 336.014 285.42 335.132 284.276 333.745C283.133 332.357 285.381 332.309 284.167 330.109C282.952 327.909 282.504 327.428 280.592 327.565C278.679 327.703 276.299 329.591 277.747 331.998C279.195 334.405 283.052 337.24 285.062 338.355C287.072 339.47 290.985 341.021 292.476 339.761Z" fill="#FBE7CB" stroke="#6E5521"/>
<path d="M279.785 330.326C278.609 327.188 280.861 323.686 281.52 322.832C282.18 321.977 283.109 321.4 284.858 321.753C286.606 322.107 287.857 322.763 287.755 323.646C287.363 327.06 285.677 324.978 284.565 327.077C283.452 329.176 286.642 328.687 286.726 329.809C286.81 330.932 286.514 333.051 285.709 333.192C284.903 333.332 281.255 334.249 279.785 330.326Z" fill="#FBE7CB" stroke="#6E5521"/>
<path d="M285.445 322.262C285 323.14 285.124 325.41 285.242 326.434C285.725 328.445 289.377 329.148 289.606 327.315C289.836 325.482 290.441 324.321 292.896 324.827C295.352 325.333 294.335 328.049 295.724 328.64C297.114 329.231 298.055 328.922 299.239 326.954C300.424 324.986 300.222 323.129 296.377 322.031C292.531 320.934 286.001 321.163 285.445 322.262Z" fill="#FBE7CB" stroke="#6E5521"/>
<path d="M297.148 326.154C296.401 327.497 296.863 329.424 297.188 330.22C297.498 331.276 301.216 330.379 301.374 329.646C301.532 328.914 301.759 327.267 304.461 328.125C307.164 328.982 305.334 330.719 306.107 331.647C306.88 332.575 307.444 333.855 308.703 333.618C309.963 333.38 312.765 331.187 311.079 328.316C309.393 325.446 302.956 323.743 301.307 323.969C299.658 324.195 298.081 324.475 297.148 326.154Z" fill="#FBE7CB" stroke="#6E5521"/>
<path d="M311.056 327.547C309.281 328.092 308.654 330.206 308.563 331.196C308.161 333.713 310.837 335.508 312.798 335.06C314.759 334.613 313.292 333.265 314.54 332.307C315.788 331.349 319.503 333.947 318.192 334.979C316.881 336.011 317.435 337.541 317.914 338.481C318.393 339.42 320.491 339.488 322.569 338.826C324.647 338.163 324.929 335.261 321.732 332.198C318.535 329.136 313.276 326.867 311.056 327.547Z" fill="#FBE7CB" stroke="#6E5521"/>
<path d="M323.234 332.594C321.702 332.402 320.508 333.793 320.102 334.512C318.94 336.284 320.359 338.556 321.999 338.883C323.638 339.211 322.533 338.705 323.806 338.403C325.078 338.102 325.792 340.323 324.447 340.659C323.102 340.996 324.67 342.342 324.714 343.217C324.758 344.092 326.325 344.858 328.126 345.062C329.927 345.267 331.128 343.162 329.746 339.752C328.364 336.342 325.148 332.833 323.234 332.594Z" fill="#FBE7CB" stroke="#6E5521"/>
<path d="M326.648 342.168C326.346 340.716 324.733 339.034 323.964 338.374C323.491 337.936 321.353 338.918 320.467 339.103C319.581 339.288 319.334 339.876 319.205 341.474C319.076 343.073 313.531 342.196 314.904 340.8C316.277 339.404 314.726 338.618 313.478 337.954C312.23 337.289 311.241 337.866 310.288 338.619C309.336 339.372 305.05 342.319 309.075 344.327C313.1 346.335 321.388 345.536 323.527 344.901C325.666 344.265 327.027 343.982 326.648 342.168Z" fill="#FBE7CB" stroke="#6E5521"/>
<path d="M310.12 342.488C310.485 340.646 309.862 339.407 309.505 339.018C308.882 337.639 305.822 337.387 304.865 337.557C303.908 337.727 304.828 339.645 301.755 339.018C298.682 338.39 300.574 335.973 299.936 335.16C299.298 334.348 298.474 332.828 296.883 333.603C295.293 334.379 290.343 336.737 295.843 340.267C301.343 343.796 309.664 344.79 310.12 342.488Z" fill="#FBE7CB" stroke="#6E5521"/>
<path d="M298.628 338.049C299.387 336.331 299.051 334.986 298.788 334.528C298.481 333.046 295.551 332.131 294.58 332.087C293.609 332.043 293.628 334.294 290.767 333.009C287.906 331.723 290.74 329.602 290.295 328.669C289.851 327.737 289.379 326.073 287.658 326.481C285.936 326.89 280.59 328.107 285.183 332.755C289.777 337.404 297.679 340.195 298.628 338.049Z" fill="#FBE7CB" stroke="#6E5521"/>
<path d="M287.366 331.237C286.345 328.878 288.4 326.208 289 325.556C289.6 324.903 290.438 324.457 292.001 324.706C293.564 324.955 294.678 325.438 294.578 326.105C294.19 328.69 292.702 327.134 291.683 328.732C290.664 330.329 293.528 329.926 293.591 330.774C293.654 331.622 293.367 333.226 292.644 333.34C291.921 333.455 288.642 334.186 287.366 331.237Z" fill="#FBE7CB" stroke="#6E5521"/>
<path d="M292.818 326.289C292.257 327.099 292.069 329.364 292.046 330.395C292.249 332.453 295.771 333.649 296.249 331.864C296.727 330.08 297.485 329.013 299.848 329.85C302.212 330.687 300.833 333.238 302.128 334.014C303.423 334.79 304.398 334.612 305.841 332.824C307.283 331.037 307.337 329.169 303.678 327.556C300.019 325.943 293.519 325.278 292.818 326.289Z" fill="#FBE7CB" stroke="#6E5521"/>
<path d="M303.6 329.567C303.039 330.376 302.852 332.641 302.829 333.672C303.032 335.73 306.554 336.926 307.032 335.141C307.509 333.357 308.267 332.29 310.631 333.127C312.995 333.964 311.615 336.515 312.911 337.291C314.206 338.067 315.181 337.889 316.623 336.102C318.066 334.314 318.12 332.447 314.461 330.834C310.802 329.221 304.302 328.555 303.6 329.567Z" fill="#FBE7CB" stroke="#6E5521"/>
<path d="M316.007 331.911C314.475 331.72 313.281 333.11 312.875 333.829C311.714 335.601 313.133 337.873 314.772 338.201C316.411 338.528 315.307 338.022 316.579 337.72C317.851 337.419 318.565 339.64 317.22 339.977C315.875 340.314 317.444 341.659 317.487 342.534C317.531 343.41 319.099 344.175 320.9 344.38C322.701 344.584 323.902 342.48 322.52 339.07C321.137 335.66 317.922 332.15 316.007 331.911Z" fill="#FBE7CB" stroke="#6E5521"/>
<path d="M319.04 339.899C319.104 338.023 318.291 336.9 317.876 336.573C317.039 335.312 313.979 335.555 313.062 335.876C312.144 336.198 313.001 338.279 309.867 338.153C306.733 338.027 308.571 335.002 307.811 334.302C307.052 333.603 305.993 332.235 304.548 333.256C303.103 334.277 298.596 337.4 304.592 340C310.587 342.6 318.96 342.245 319.04 339.899Z" fill="#FBE7CB" stroke="#6E5521"/>
<path d="M311.928 338.331C312.336 336.499 311.743 335.246 311.395 334.848C310.805 333.455 307.752 333.131 306.791 333.278C305.83 333.425 306.29 335.629 303.233 334.929C300.175 334.229 302.538 331.594 301.92 330.766C301.301 329.939 300.513 328.4 298.905 329.138C297.296 329.875 292.292 332.116 297.707 335.775C303.123 339.433 311.418 340.622 311.928 338.331Z" fill="#FBE7CB" stroke="#6E5521"/>
<path d="M331.397 335.14C330.15 334.806 328.094 335.626 327.222 336.077C326.115 336.563 326.724 337.981 327.242 338.659C327.761 339.337 329.745 337.753 330.751 339.705C331.756 341.657 329.323 340.992 328.817 342.036C328.312 343.079 327.885 343.842 328.157 344.879C328.429 345.916 331.644 347.005 333.04 346.315C334.436 345.625 335.39 342.739 334.892 340.173C334.395 337.607 332.956 335.557 331.397 335.14Z" fill="#FBE7CB" stroke="#6E5521"/>
<path d="M165.042 349.495L285.751 131.815V422.94" stroke="#10323F" stroke-miterlimit="10"/>
<path d="M285.75 131.815L396.59 358.953" stroke="#10323F" stroke-miterlimit="10"/>
<path d="M272.156 287.103L285.751 131.815" stroke="#10323F" stroke-miterlimit="10"/>
<path d="M392.341 173.123C417.515 173.123 437.923 161.34 437.923 146.806C437.923 132.271 417.515 120.488 392.341 120.488C367.167 120.488 346.759 132.271 346.759 146.806C346.759 161.34 367.167 173.123 392.341 173.123Z" stroke="#10323F" stroke-miterlimit="10"/>
<path d="M297.875 102.109C319.416 102.109 336.878 92.0278 336.878 79.5921C336.878 67.1563 319.416 57.0752 297.875 57.0752C276.334 57.0752 258.872 67.1563 258.872 79.5921C258.872 92.0278 276.334 102.109 297.875 102.109Z" stroke="#10323F" stroke-miterlimit="10"/>
<path d="M297.875 86.5949C304.571 86.5949 309.999 83.4596 309.999 79.5919C309.999 75.7242 304.571 72.5889 297.875 72.5889C291.179 72.5889 285.75 75.7242 285.75 79.5919C285.75 83.4596 291.179 86.5949 297.875 86.5949Z" fill="#20677F" stroke="#10323F" stroke-miterlimit="10"/>
<path d="M286.052 75.7285C286.052 75.7285 274.651 76.7877 268.121 76.7752C261.591 76.7628 258.651 80.2269 259.984 81.4232C261.317 82.6194 267.984 82.7565 274.513 79.9528C279.184 78.1892 284.138 77.298 289.13 77.3235L286.052 75.7285Z" fill="#10323F"/>
<path d="M297.875 81.1994C304.571 81.1994 309.999 78.0641 309.999 74.1964C309.999 70.3287 304.571 67.1934 297.875 67.1934C291.179 67.1934 285.75 70.3287 285.75 74.1964C285.75 78.0641 291.179 81.1994 297.875 81.1994Z" fill="#E4EAEC" stroke="#10323F" stroke-miterlimit="10"/>
<path d="M304.454 258.331C329.629 258.331 350.036 246.548 350.036 232.014C350.036 217.479 329.629 205.696 304.454 205.696C279.28 205.696 258.872 217.479 258.872 232.014C258.872 246.548 279.28 258.331 304.454 258.331Z" stroke="#10323F" stroke-miterlimit="10"/>
<path d="M150.674 155.753C172.215 155.753 189.677 145.671 189.677 133.236C189.677 120.8 172.215 110.719 150.674 110.719C129.134 110.719 111.672 120.8 111.672 133.236C111.672 145.671 129.134 155.753 150.674 155.753Z" stroke="#10323F" stroke-miterlimit="10"/>
<path d="M150.674 140.239C157.37 140.239 162.799 137.104 162.799 133.236C162.799 129.369 157.37 126.233 150.674 126.233C143.978 126.233 138.55 129.369 138.55 133.236C138.55 137.104 143.978 140.239 150.674 140.239Z" fill="#20677F" stroke="#10323F" stroke-miterlimit="10"/>
<path d="M325.302 95.5414L319.345 96.9744C319.071 97.0491 318.809 97.1239 318.548 97.2236L267.944 116.376C267.191 116.66 266.393 116.804 265.589 116.8H256.866C255.488 116.804 254.146 117.24 253.028 118.046L211.608 147.279C210.451 148.079 209.578 149.227 209.116 150.556L205.216 161.858C204.978 162.557 204.856 163.289 204.854 164.027V168.5C204.854 169.655 205.155 170.79 205.728 171.793C206.3 172.796 207.125 173.632 208.119 174.22L235.408 190.419C236.728 191.202 238.277 191.505 239.795 191.279L260.679 188.126C261.495 188.002 262.281 187.727 262.997 187.316L293.389 169.871C294.5 169.234 295.404 168.291 295.993 167.154L299.345 160.699C299.877 159.685 300.663 158.827 301.626 158.207L348.977 127.441C349.906 126.835 350.669 126.008 351.197 125.033C351.726 124.058 352.004 122.968 352.005 121.859V112.239C352.007 111.051 351.689 109.885 351.087 108.861C350.484 107.838 349.618 106.995 348.579 106.42L330.136 96.1893C328.666 95.3667 326.937 95.135 325.302 95.5414Z" fill="#1B596E" stroke="#10323F" stroke-miterlimit="10"/>
<path d="M324.629 131.43L367.145 143.268C368.999 143.782 370.953 143.816 372.823 143.367C374.693 142.918 376.419 142 377.837 140.701C378.227 140.341 378.522 139.89 378.694 139.388C378.866 138.886 378.91 138.349 378.822 137.825C378.734 137.302 378.517 136.809 378.191 136.39C377.864 135.972 377.438 135.642 376.952 135.43L343.569 120.838L324.629 131.43Z" fill="#A3BBC3" stroke="#10323F" stroke-miterlimit="10"/>
<path d="M290.336 102.146L291.333 93.8469C291.906 88.9871 294.772 85.4482 298.099 85.4482H299.769C302.735 85.4482 305.551 87.4171 307.42 90.8189L309.227 94.9933L290.336 102.146Z" fill="#A3BBC3" stroke="#10323F" stroke-miterlimit="10"/>
<path d="M297.875 96.7134C319.416 96.7134 336.878 86.6323 336.878 74.1966C336.878 61.7608 319.416 51.6797 297.875 51.6797C276.334 51.6797 258.872 61.7608 258.872 74.1966C258.872 86.6323 276.334 96.7134 297.875 96.7134Z" stroke="#10323F" stroke-miterlimit="10"/>
<path d="M318.548 97.2241L267.944 116.376C267.191 116.661 266.393 116.804 265.589 116.8H256.866C255.488 116.805 254.146 117.241 253.028 118.046L211.608 147.28C210.451 148.08 209.578 149.228 209.116 150.557L206.624 157.784C206.123 159.24 206.143 160.824 206.679 162.266C207.215 163.709 208.235 164.922 209.565 165.697L235.446 181.049C236.765 181.831 238.315 182.135 239.832 181.908L260.355 178.831C261.381 178.671 262.358 178.279 263.209 177.684L295.682 154.731C296.552 154.115 297.261 153.299 297.75 152.351L301.152 145.759C301.749 144.598 302.677 143.64 303.819 143.005L348.554 118.009C349.588 117.429 350.45 116.585 351.05 115.562C351.65 114.539 351.967 113.375 351.968 112.19V112.19C351.969 111.002 351.652 109.835 351.049 108.812C350.447 107.788 349.58 106.945 348.541 106.37L330.099 96.14C328.639 95.3269 326.925 95.0955 325.302 95.492L319.345 96.925C319.071 97.0496 318.809 97.1618 318.548 97.2241Z" stroke="#10323F" stroke-miterlimit="10"/>
<path d="M320.666 93.6975L267.346 113.872C266.551 114.18 265.706 114.337 264.854 114.333H255.707C254.261 114.321 252.847 114.756 251.657 115.579L207.97 146.457C206.768 147.305 205.861 148.507 205.378 149.896L202.748 157.522C202.222 159.051 202.24 160.714 202.799 162.23C203.357 163.747 204.422 165.024 205.814 165.846L233.091 182.045C234.482 182.869 236.114 183.19 237.714 182.955L259.333 179.715C260.421 179.537 261.453 179.111 262.349 178.469L296.579 154.283C297.489 153.632 298.236 152.779 298.76 151.79L302.336 144.887C302.97 143.678 303.945 142.681 305.14 142.021L352.292 115.666C353.384 115.058 354.294 114.169 354.927 113.091C355.56 112.013 355.893 110.785 355.893 109.535V109.535C355.894 108.284 355.559 107.055 354.923 105.977C354.288 104.899 353.375 104.01 352.279 103.405L332.84 92.6134C331.303 91.7632 329.503 91.5188 327.794 91.9281L321.563 93.4483C321.227 93.5106 320.94 93.5978 320.666 93.6975Z" fill="#24748F" stroke="#10323F" stroke-miterlimit="10"/>
<path d="M320.666 90.6195L267.346 110.868C266.549 111.167 265.705 111.319 264.854 111.317H255.707C254.261 111.305 252.847 111.74 251.657 112.563L207.97 143.379C206.764 144.229 205.857 145.436 205.378 146.831L202.748 154.482C202.223 156.008 202.241 157.669 202.8 159.184C203.359 160.698 204.423 161.973 205.814 162.793L233.091 178.992C234.484 179.811 236.115 180.128 237.714 179.889L259.333 176.65C260.423 176.478 261.456 176.051 262.349 175.404L296.579 151.217C297.494 150.572 298.242 149.718 298.76 148.725L302.336 141.821C302.969 140.605 303.944 139.601 305.14 138.93L352.292 112.576C353.384 111.967 354.294 111.078 354.927 110C355.56 108.922 355.893 107.695 355.893 106.445V106.445C355.892 105.194 355.557 103.965 354.921 102.887C354.286 101.809 353.374 100.921 352.279 100.314L332.84 89.5354C331.305 88.6793 329.502 88.4345 327.794 88.85L321.563 90.3702C321.259 90.4335 320.959 90.5168 320.666 90.6195V90.6195Z" fill="#A3BBC3" stroke="#10323F" stroke-miterlimit="10"/>
<path d="M226.561 136.874C234.212 132.762 288.642 103.815 326.111 92.4262C326.645 92.2612 327.208 92.2082 327.763 92.2703C328.318 92.3325 328.855 92.5086 329.339 92.7876L345.663 101.896C345.991 102.072 346.265 102.333 346.457 102.653C346.648 102.972 346.749 103.337 346.749 103.71C346.749 104.082 346.648 104.447 346.457 104.766C346.265 105.086 345.991 105.347 345.663 105.523C333.949 111.479 294.797 131.927 262.997 154.482C261.832 155.315 260.578 156.017 259.259 156.575L227.633 170.282C227.016 170.55 226.344 170.664 225.674 170.617C225.004 170.569 224.355 170.36 223.782 170.008L212.057 162.768C211.741 162.574 211.468 162.318 211.254 162.016C211.039 161.714 210.888 161.372 210.809 161.011C210.73 160.649 210.725 160.275 210.793 159.911C210.862 159.547 211.004 159.201 211.209 158.893L225.078 138.282C225.451 137.7 225.96 137.216 226.561 136.874Z" fill="#20677F" stroke="#10323F" stroke-miterlimit="10"/>
<path d="M163.085 128.8C163.085 128.8 174.026 126.856 180.132 125.162C186.238 123.467 189.889 125.959 188.942 127.429C187.995 128.9 181.802 130.732 174.948 129.785C170.111 129.34 165.233 129.784 160.556 131.093L163.085 128.8Z" fill="#10323F"/>
<path d="M211.234 161.871L225.078 141.223C225.455 140.66 225.964 140.198 226.561 139.877C234.212 135.765 288.641 106.819 326.111 95.4293C326.645 95.2654 327.206 95.2118 327.761 95.2718C328.316 95.3318 328.853 95.5041 329.339 95.7782L345.663 104.887C345.812 104.974 345.95 105.078 346.074 105.199C346.311 104.977 346.492 104.702 346.603 104.397C346.713 104.092 346.75 103.765 346.71 103.443C346.67 103.121 346.554 102.813 346.372 102.544C346.19 102.275 345.947 102.053 345.663 101.896L329.339 92.7876C328.855 92.5086 328.318 92.3325 327.763 92.2703C327.208 92.2082 326.645 92.2612 326.111 92.4262C288.641 103.815 234.212 132.762 226.561 136.874C225.96 137.216 225.451 137.7 225.078 138.282L211.234 158.868C210.935 159.316 210.776 159.843 210.776 160.382C210.776 160.921 210.935 161.447 211.234 161.896C211.234 161.896 211.234 161.883 211.234 161.871Z" fill="#1B596E" stroke="#10323F" stroke-miterlimit="10"/>
<path d="M265.464 176.276L294.049 221.696C294.955 223.121 296.281 224.228 297.844 224.867C299.406 225.505 301.128 225.643 302.772 225.26V225.26C303.865 225.001 304.892 224.517 305.788 223.84C306.684 223.163 307.429 222.306 307.976 221.326C308.524 220.345 308.861 219.261 308.967 218.143C309.073 217.024 308.945 215.896 308.591 214.83L290.162 158.881L265.464 176.276Z" fill="#A3BBC3" stroke="#10323F" stroke-miterlimit="10"/>
<path d="M207.234 143.33L169.515 139.454C169.515 139.454 160.967 138.657 166.786 131.155C166.786 131.155 169.278 127.081 178.587 126.881C186.275 126.719 233.203 125.561 233.203 125.561L207.234 143.33Z" fill="#A3BBC3" stroke="#10323F" stroke-miterlimit="10"/>
<path d="M150.674 150.357C172.215 150.357 189.677 140.276 189.677 127.84C189.677 115.404 172.215 105.323 150.674 105.323C129.134 105.323 111.672 115.404 111.672 127.84C111.672 140.276 129.134 150.357 150.674 150.357Z" stroke="#10323F" stroke-miterlimit="10"/>
<path d="M304.454 252.026C329.629 252.026 350.036 240.243 350.036 225.708C350.036 211.173 329.629 199.391 304.454 199.391C279.28 199.391 258.872 211.173 258.872 225.708C258.872 240.243 279.28 252.026 304.454 252.026Z" stroke="#10323F" stroke-miterlimit="10"/>
<path d="M150.674 134.844C157.37 134.844 162.799 131.709 162.799 127.841C162.799 123.973 157.37 120.838 150.674 120.838C143.978 120.838 138.55 123.973 138.55 127.841C138.55 131.709 143.978 134.844 150.674 134.844Z" fill="#E4EAEC" stroke="#10323F" stroke-miterlimit="10"/>
<path d="M147.702 98.7578C133.99 98.7578 121.958 102.912 115.173 109.161" stroke="#10323F" stroke-miterlimit="10" stroke-linecap="round"/>
<path d="M102.219 120.919C102.219 110.313 113.101 101.175 128.768 97.0264" stroke="#10323F" stroke-miterlimit="10" stroke-linecap="round"/>
<path d="M294.698 45.2871C280.986 45.2871 268.954 49.4417 262.169 55.6903" stroke="#10323F" stroke-miterlimit="10" stroke-linecap="round"/>
<path d="M249.215 67.4488C249.215 56.8426 260.097 47.7044 275.764 43.5557" stroke="#10323F" stroke-miterlimit="10" stroke-linecap="round"/>
<path d="M402.115 180.25C415.827 180.25 427.86 176.095 434.644 169.847" stroke="#10323F" stroke-miterlimit="10" stroke-linecap="round"/>
<path d="M314.138 267.546C327.85 267.546 339.882 263.391 346.667 257.143" stroke="#10323F" stroke-miterlimit="10" stroke-linecap="round"/>
<path d="M447.598 158.088C447.598 168.695 436.717 177.833 421.05 181.981" stroke="#10323F" stroke-miterlimit="10" stroke-linecap="round"/>
<path d="M359.621 245.384C359.621 255.99 348.739 265.129 333.072 269.277" stroke="#10323F" stroke-miterlimit="10" stroke-linecap="round"/>
<path d="M304.454 236.425C311.15 236.425 316.579 233.29 316.579 229.422C316.579 225.554 311.15 222.419 304.454 222.419C297.758 222.419 292.33 225.554 292.33 229.422C292.33 233.29 297.758 236.425 304.454 236.425Z" fill="#20677F" stroke="#10323F" stroke-miterlimit="10"/>
<path d="M380.279 141.036C380.279 141.036 364.715 142.419 357.089 142.394C349.463 142.369 346.024 146.432 347.582 147.827C349.139 149.223 356.927 149.385 364.566 146.12C372.204 142.855 381.687 143.042 381.687 143.042L380.279 141.036Z" fill="#10323F"/>
<path d="M304.454 231.029C311.15 231.029 316.579 227.894 316.579 224.026C316.579 220.159 311.15 217.023 304.454 217.023C297.758 217.023 292.33 220.159 292.33 224.026C292.33 227.894 297.758 231.029 304.454 231.029Z" fill="#E4EAEC" stroke="#10323F" stroke-miterlimit="10"/>
<path d="M392.341 166.819C417.515 166.819 437.923 155.036 437.923 140.501C437.923 125.966 417.515 114.184 392.341 114.184C367.167 114.184 346.759 125.966 346.759 140.501C346.759 155.036 367.167 166.819 392.341 166.819Z" stroke="#10323F" stroke-miterlimit="10"/>
<path d="M392.341 151.217C399.038 151.217 404.466 148.082 404.466 144.214C404.466 140.346 399.038 137.211 392.341 137.211C385.645 137.211 380.217 140.346 380.217 144.214C380.217 148.082 385.645 151.217 392.341 151.217Z" fill="#20677F" stroke="#10323F" stroke-miterlimit="10"/>
<path d="M392.341 145.822C399.038 145.822 404.466 142.686 404.466 138.818C404.466 134.951 399.038 131.815 392.341 131.815C385.645 131.815 380.217 134.951 380.217 138.818C380.217 142.686 385.645 145.822 392.341 145.822Z" fill="#E4EAEC" stroke="#10323F" stroke-miterlimit="10"/>
<path d="M138.986 131.03C138.986 131.03 127.908 132.052 121.541 132.04C115.173 132.027 112.357 135.392 113.653 136.55C114.949 137.709 121.416 137.797 127.759 135.13C132.306 133.438 137.125 132.593 141.977 132.638L138.986 131.03Z" fill="#10323F"/>
<path d="M310.087 73.4864C310.087 73.4864 321.301 71.4802 327.657 69.7482C334.012 68.0161 337.688 70.5706 336.728 72.0783C335.769 73.5861 329.364 75.4802 322.323 74.5705C318.08 73.9831 313.759 74.4101 309.713 75.8166L310.087 73.4864Z" fill="#10323F"/>
<path d="M316.093 222.07C316.093 222.07 331.046 219.404 338.348 217.36C345.65 215.316 350.086 218.32 348.952 220.089C347.818 221.858 340.354 224.064 332.13 222.93C326.924 222.286 321.643 222.659 316.579 224.027L316.093 222.07Z" fill="#10323F"/>
<path d="M291.944 225.509C291.944 225.509 276.38 226.879 268.754 226.867C261.128 226.855 257.688 230.892 259.246 232.3C260.804 233.708 268.592 233.858 276.23 230.58C283.869 227.303 293.327 227.49 293.327 227.49L291.944 225.509Z" fill="#10323F"/>
<path d="M404.428 137.622C404.428 137.622 419.382 134.955 426.684 132.924C433.986 130.893 438.422 133.884 437.288 135.641C436.154 137.398 428.69 139.616 420.466 138.482C415.26 137.838 409.978 138.211 404.914 139.579L404.428 137.622Z" fill="#10323F"/>
<path d="M150.674 150.357C172.215 150.357 189.677 140.276 189.677 127.84C189.677 115.404 172.215 105.323 150.674 105.323C129.134 105.323 111.672 115.404 111.672 127.84C111.672 140.276 129.134 150.357 150.674 150.357Z" stroke="#10323F" stroke-miterlimit="10"/>
<path d="M150.674 134.844C157.37 134.844 162.799 131.709 162.799 127.841C162.799 123.973 157.37 120.838 150.674 120.838C143.978 120.838 138.55 123.973 138.55 127.841C138.55 131.709 143.978 134.844 150.674 134.844Z" stroke="#10323F" stroke-miterlimit="10"/>
<path d="M228.881 135.042L231.917 127.136L244.922 117.912L240.683 128.912L228.881 135.042Z" fill="#E4EAEC"/>
<path d="M220.756 167.526L235.329 135.647L259.939 123.37L243.051 163.07L227.591 169.757C227.359 169.883 226.684 170.133 225.835 170.125C224.985 170.116 224.142 169.681 223.827 169.464L220.756 167.526Z" fill="#E4EAEC"/>
<path d="M232.469 178.065L236.838 166.807L246.652 162.586L240.171 179.028C237.357 179.62 235.789 179.472 235.357 179.324C234.587 179.265 233.11 178.46 232.469 178.065Z" fill="#E4EAEC"/>
<defs>
<clipPath id="clip0_194_644">
<rect width="21" height="14" fill="white" transform="translate(278.177 391.521)"/>
</clipPath>
</defs>
</svg>
