<svg width="16" height="16" viewBox="0 0 16 16" fill="none" xmlns="http://www.w3.org/2000/svg">
<path d="M5.45311 6.88021L7.64538 9.0858L7.99244 9.43498L8.34695 9.09336L10.5469 6.97336L10.5598 6.96096L10.5718 6.94767C10.5871 6.93062 10.6058 6.91692 10.6267 6.90742L10.4195 6.45233L10.6267 6.90742C10.6475 6.89792 10.6701 6.89283 10.6931 6.89247C10.716 6.89211 10.7387 6.89648 10.7599 6.90531C10.7811 6.91414 10.8002 6.92724 10.816 6.9438C10.8319 6.96035 10.8442 6.98 10.8521 7.00152C10.86 7.02303 10.8634 7.04595 10.8621 7.06884C10.8607 7.09173 10.8547 7.1141 10.8443 7.13454C10.8339 7.15499 10.8195 7.17308 10.8018 7.18767L10.7868 7.20004L10.7728 7.21353L8.1063 9.78671C8.10628 9.78672 8.10627 9.78673 8.10626 9.78675C8.07628 9.81563 8.0366 9.83223 7.99504 9.83333C7.97381 9.83319 7.95279 9.82899 7.93313 9.82096C7.91303 9.81275 7.89473 9.8007 7.87927 9.78548L5.21355 7.11977C5.19783 7.10404 5.18535 7.08537 5.17683 7.06482C5.16832 7.04426 5.16394 7.02224 5.16394 6.99999C5.16394 6.97775 5.16832 6.95572 5.17684 6.93517C5.18535 6.91461 5.19783 6.89594 5.21355 6.88021C5.22928 6.86448 5.24796 6.852 5.26851 6.84349C5.28906 6.83498 5.31109 6.8306 5.33333 6.8306C5.35558 6.8306 5.37761 6.83498 5.39816 6.84349L5.5895 6.38155L5.39816 6.84349C5.41855 6.85194 5.4371 6.86429 5.45275 6.87985C5.45287 6.87997 5.45299 6.88009 5.45311 6.88021Z" fill="#676767" stroke="#676767"/>
</svg>
