<svg width="30" height="30" viewBox="0 0 30 30" fill="none" xmlns="http://www.w3.org/2000/svg">
<path d="M29.9999 21.1858C29.9999 19.4304 29.4742 17.7353 28.4796 16.2839C27.7641 15.2399 26.8428 14.373 25.7752 13.7287C27.0322 12.5383 27.8186 10.8558 27.8186 8.99206C27.8186 5.39318 24.8907 2.46521 21.2919 2.46521C19.1579 2.46521 17.1589 3.52061 15.9446 5.25312C15.6361 5.20818 15.3208 5.18394 15 5.18394C14.6791 5.18394 14.3639 5.20826 14.0554 5.25312C12.8411 3.52061 10.8421 2.46521 8.70813 2.46521C5.10925 2.46521 2.18128 5.39318 2.18128 8.99206C2.18128 10.8558 2.96776 12.5383 4.22484 13.7287C3.15711 14.3729 2.23581 15.2399 1.52045 16.2838C0.525769 17.7353 0 19.4304 0 21.1858V24.8162H6.29191V27.5348H23.7082V24.8162H30L29.9999 21.1858ZM21.2919 4.0761C24.0025 4.0761 26.2078 6.28138 26.2078 8.99214C26.2078 11.7029 24.0025 13.9082 21.2919 13.9082C21.2433 13.9082 21.1947 13.9075 21.1461 13.906C21.1498 13.8957 21.1529 13.8851 21.1565 13.8748C21.2404 13.6369 21.3104 13.3926 21.3665 13.143C21.3705 13.1252 21.375 13.1077 21.3788 13.0899C21.3934 13.0226 21.4062 12.9546 21.4186 12.8864C21.4245 12.8542 21.4306 12.8221 21.436 12.7898C21.4461 12.729 21.4553 12.6679 21.4637 12.6066C21.4696 12.564 21.4749 12.5214 21.48 12.4787C21.4864 12.4246 21.4926 12.3704 21.4977 12.3159C21.5028 12.2602 21.5067 12.2045 21.5104 12.1487C21.5133 12.1047 21.5169 12.0609 21.5189 12.0167C21.5233 11.9219 21.5258 11.8269 21.5262 11.7319C21.5262 11.7249 21.5267 11.718 21.5267 11.7109C21.5267 11.7072 21.5264 11.7034 21.5264 11.6996C21.5262 11.6025 21.5234 11.5061 21.5191 11.4099C21.5178 11.3819 21.5161 11.3541 21.5145 11.3262C21.5097 11.2445 21.5035 11.1631 21.4959 11.0822C21.4941 11.0638 21.4927 11.0454 21.4908 11.0272C21.2474 8.67465 19.7612 6.66105 17.6172 5.72968C18.5411 4.69175 19.8774 4.0761 21.2919 4.0761ZM13.299 7.09815C13.3147 7.09243 13.3306 7.08703 13.3463 7.08139C13.3952 7.06392 13.4445 7.04733 13.494 7.0313C13.5315 7.0193 13.5693 7.0077 13.6073 6.99659C13.635 6.98845 13.6627 6.98064 13.6904 6.97291C13.7401 6.95929 13.7899 6.94601 13.8403 6.93384C14.2124 6.84348 14.6004 6.79443 14.9998 6.79443C15.3995 6.79475 15.7877 6.84388 16.1599 6.93425C16.2099 6.94633 16.2595 6.95954 16.3088 6.97307C16.337 6.98088 16.3652 6.98877 16.3932 6.99707C16.4307 7.0081 16.4681 7.01954 16.5052 7.03138C16.5554 7.04757 16.6052 7.06432 16.6547 7.08204C16.6699 7.08743 16.6851 7.09259 16.7003 7.09815C18.3443 7.70615 19.577 9.16933 19.856 10.945C19.8582 10.9592 19.8603 10.9734 19.8624 10.9877C19.8713 11.0479 19.8788 11.1085 19.8855 11.1693C19.8879 11.1917 19.8905 11.214 19.8926 11.2365C19.898 11.292 19.9019 11.3479 19.9054 11.4039C19.9069 11.4279 19.9089 11.4518 19.91 11.4759C19.9134 11.5475 19.9153 11.6195 19.9155 11.6919C19.9155 11.6982 19.9159 11.7043 19.9159 11.7106C19.9159 11.7135 19.9158 11.7165 19.9158 11.7194C19.9156 11.7895 19.9135 11.8591 19.9104 11.9284C19.9095 11.9502 19.9085 11.9721 19.9072 11.9938C19.9034 12.0608 19.8984 12.1275 19.892 12.1937C19.8895 12.2193 19.8861 12.2449 19.8832 12.2704C19.8783 12.3132 19.8728 12.356 19.8669 12.3985C19.8622 12.4316 19.8575 12.4648 19.8522 12.4977C19.8441 12.5479 19.8351 12.5978 19.8254 12.6475C19.8168 12.6917 19.8073 12.7357 19.7975 12.7797C19.7916 12.8062 19.7855 12.8327 19.7792 12.8591C19.7635 12.9244 19.7462 12.9893 19.7279 13.054C19.7205 13.0797 19.7137 13.1055 19.7059 13.131C19.6948 13.168 19.6827 13.2047 19.6707 13.2415C19.661 13.2709 19.6511 13.3001 19.6409 13.3293C19.6293 13.3624 19.6178 13.3955 19.6056 13.4284C19.5847 13.4842 19.5628 13.5395 19.54 13.5944C19.5299 13.6189 19.5191 13.6431 19.5085 13.6675C19.4886 13.7132 19.4682 13.7586 19.4469 13.8036C19.4444 13.8089 19.4419 13.8142 19.4394 13.8195C19.4318 13.8354 19.4242 13.8515 19.4164 13.8674C19.3926 13.9161 19.3678 13.9642 19.3423 14.0118C19.3324 14.0304 19.3228 14.0491 19.3127 14.0676L19.3107 14.071C19.2829 14.1218 19.2538 14.1717 19.2242 14.2213C19.2125 14.241 19.2009 14.2607 19.1889 14.2801C19.1567 14.3324 19.1236 14.3841 19.0895 14.435C19.0683 14.4666 19.0462 14.4977 19.0243 14.5288C19.0056 14.5552 18.9871 14.5817 18.968 14.6078C18.9433 14.6414 18.9181 14.6747 18.8925 14.7078C18.8751 14.7303 18.8575 14.7526 18.8398 14.7748C18.8128 14.8086 18.7854 14.8423 18.7576 14.8754C18.7403 14.8959 18.7225 14.9161 18.7048 14.9363C18.6758 14.9695 18.6469 15.0029 18.6171 15.0353C18.5994 15.0546 18.581 15.0731 18.563 15.0921C18.5145 15.1433 18.4649 15.1933 18.4143 15.2423C18.3843 15.2714 18.3544 15.3006 18.3236 15.3288C18.3024 15.3484 18.2805 15.3674 18.2589 15.3867C18.2236 15.418 18.1881 15.449 18.1519 15.4793C18.1336 15.4947 18.115 15.5099 18.0964 15.525C18.0527 15.5606 18.0084 15.5955 17.9634 15.6297C17.9511 15.6389 17.939 15.6483 17.9267 15.6575C17.1084 16.2658 16.0956 16.6264 14.9999 16.6264C13.9041 16.6264 12.8911 16.2658 12.0728 15.6573C12.0607 15.6483 12.0489 15.639 12.0369 15.6299C11.9917 15.5957 11.9472 15.5605 11.9033 15.5248C11.8848 15.5097 11.8664 15.4947 11.8482 15.4794C11.8118 15.4489 11.7762 15.4177 11.7408 15.3863C11.7193 15.3672 11.6976 15.3483 11.6764 15.3288C11.6455 15.3005 11.6156 15.2712 11.5854 15.2422C11.5346 15.193 11.4849 15.1428 11.4363 15.0915C11.4185 15.0727 11.4003 15.0544 11.3828 15.0354C11.3529 15.0029 11.324 14.9695 11.295 14.9362C11.2774 14.916 11.2597 14.8959 11.2423 14.8754C11.2144 14.8423 11.1872 14.8086 11.1601 14.7749C11.1424 14.7526 11.1247 14.7303 11.1074 14.7078C11.0818 14.6748 11.0566 14.6415 11.0319 14.6078C11.0128 14.5817 10.9942 14.5552 10.9756 14.5287C10.9537 14.4976 10.9316 14.4666 10.9105 14.4351C10.8763 14.3839 10.843 14.3321 10.8107 14.2796C10.7989 14.2604 10.7874 14.241 10.7758 14.2216C10.7458 14.1712 10.7164 14.1206 10.6881 14.0692C10.6777 14.0503 10.6679 14.031 10.6577 14.012C10.6322 13.9642 10.6074 13.9159 10.5834 13.8672C10.5749 13.8499 10.5666 13.8324 10.5583 13.815C10.557 13.8123 10.5558 13.8097 10.5546 13.807C10.5323 13.76 10.5109 13.7125 10.4901 13.6645C10.4802 13.6417 10.4701 13.619 10.4606 13.5962C10.4373 13.5401 10.4149 13.4836 10.3936 13.4265C10.3821 13.3958 10.3715 13.3647 10.3606 13.3337C10.3494 13.3019 10.3386 13.2698 10.328 13.2377C10.3167 13.2029 10.3052 13.1681 10.2946 13.1331C10.2788 13.0809 10.2638 13.0283 10.2497 12.9754C10.2398 12.9382 10.2308 12.9008 10.2217 12.8634C10.2146 12.834 10.2078 12.8046 10.2013 12.7751C10.1932 12.7388 10.1851 12.7026 10.1778 12.6662C10.1666 12.6095 10.1564 12.5525 10.1472 12.4952C10.1422 12.4642 10.1379 12.4332 10.1335 12.4023C10.1269 12.3565 10.1211 12.3104 10.1158 12.2642C10.1132 12.2414 10.1103 12.2186 10.1079 12.1958C10.1012 12.1279 10.0962 12.0595 10.0923 11.9909C10.0912 11.9712 10.0903 11.9514 10.0894 11.9317C10.0861 11.8583 10.0838 11.7847 10.0838 11.7106C10.0838 11.6312 10.086 11.5524 10.0898 11.4738C10.0908 11.4525 10.0926 11.4313 10.0938 11.41C10.0974 11.3511 10.1016 11.2923 10.1073 11.2338C10.1092 11.2134 10.1115 11.1932 10.1137 11.1729C10.1207 11.1096 10.1285 11.0466 10.1378 10.984C10.1396 10.9718 10.1413 10.9596 10.1433 10.9474C10.4214 9.1707 11.6543 7.70655 13.299 7.09815ZM3.79209 8.99214C3.79209 6.28147 5.99737 4.0761 8.70813 4.0761C10.1227 4.0761 11.4589 4.69184 12.3828 5.72952C10.2381 6.66121 8.75154 8.67578 8.50887 11.0293C8.50718 11.0452 8.50597 11.0612 8.50444 11.0773C8.49639 11.1611 8.49002 11.2453 8.48519 11.3299C8.48374 11.3557 8.48213 11.3814 8.48092 11.4072C8.47633 11.508 8.47319 11.6091 8.47319 11.7109C8.47319 11.8136 8.47617 11.9162 8.481 12.0186C8.48294 12.0598 8.48632 12.1007 8.48898 12.1417C8.49292 12.2006 8.49695 12.2596 8.50243 12.3184C8.50726 12.3707 8.51322 12.4226 8.51934 12.4746C8.52466 12.5198 8.5303 12.5649 8.53658 12.61C8.54479 12.6692 8.55365 12.7282 8.5634 12.7869C8.56928 12.8218 8.57572 12.8566 8.58208 12.8914C8.59416 12.9571 8.60649 13.0226 8.6205 13.0876C8.62517 13.1091 8.63049 13.1303 8.63532 13.1517C8.69001 13.3935 8.7579 13.6303 8.83877 13.8612C8.84392 13.8761 8.84843 13.8912 8.85367 13.906C8.8051 13.9075 8.75645 13.9082 8.70797 13.9082C5.99738 13.9081 3.79209 11.7028 3.79209 8.99214ZM7.64234 19.2611C7.62462 19.2891 7.6077 19.3175 7.59031 19.3456C7.5535 19.4051 7.51701 19.4647 7.48174 19.5248C7.462 19.5584 7.443 19.5922 7.42383 19.6261C7.3921 19.6819 7.36077 19.7379 7.33032 19.7943C7.31115 19.8298 7.29231 19.8655 7.27362 19.9012C7.2443 19.9573 7.21571 20.0138 7.18768 20.0704C7.17005 20.106 7.15249 20.1415 7.13541 20.1773C7.1069 20.237 7.07944 20.2971 7.05229 20.3574C7.03756 20.3902 7.02241 20.4227 7.00816 20.4556C6.97675 20.5278 6.94679 20.6005 6.91739 20.6735C6.90877 20.6948 6.89959 20.716 6.89121 20.7373C6.85392 20.8321 6.81824 20.9275 6.78442 21.0235C6.77669 21.0454 6.76976 21.0677 6.76211 21.0897C6.73666 21.1636 6.71185 21.2378 6.68841 21.3123C6.6777 21.3465 6.66779 21.3809 6.65749 21.4152C6.63856 21.4783 6.61995 21.5416 6.60248 21.6052C6.59209 21.6431 6.58218 21.681 6.57227 21.719C6.55633 21.7801 6.54102 21.8413 6.52653 21.9027C6.51726 21.9416 6.50824 21.9805 6.49963 22.0195C6.48577 22.0818 6.47281 22.1443 6.46032 22.2068C6.45283 22.2444 6.4451 22.2821 6.43809 22.3198C6.42545 22.388 6.41409 22.4564 6.40306 22.525C6.3979 22.5572 6.39218 22.5892 6.38735 22.6215C6.37237 22.7221 6.35876 22.8231 6.34732 22.9245L6.347 22.9281C6.33661 23.0203 6.32767 23.1127 6.32018 23.2054H1.61081V21.1858C1.61081 18.4267 3.19698 15.9496 5.68198 14.7723C6.58725 15.2481 7.61632 15.519 8.70805 15.519C9.02377 15.519 9.34045 15.4956 9.65472 15.4494C9.70369 15.5192 9.75346 15.5883 9.80501 15.6561C9.82241 15.6789 9.84045 15.7012 9.85817 15.7237C9.90907 15.7888 9.9607 15.8532 10.014 15.9162C10.0358 15.9421 10.0582 15.9674 10.0805 15.9929C10.1304 16.0502 10.1811 16.1069 10.233 16.1623C10.2602 16.1916 10.2879 16.2203 10.3156 16.2491C10.3631 16.298 10.4112 16.3461 10.46 16.3936C10.4784 16.4114 10.4957 16.4302 10.5143 16.4479C10.4443 16.4901 10.3749 16.5335 10.3062 16.5777C10.295 16.5849 10.2841 16.5924 10.273 16.5997C10.2043 16.6443 10.1363 16.6899 10.0689 16.7364C10.0457 16.7525 10.0225 16.7687 9.99928 16.785C9.93927 16.8273 9.87991 16.8703 9.82104 16.914C9.80243 16.9279 9.78359 16.9414 9.76514 16.9554C9.69024 17.0121 9.61622 17.0697 9.54317 17.1287C9.52723 17.1416 9.5116 17.1548 9.49566 17.1679C9.4375 17.2155 9.37992 17.2639 9.32306 17.313C9.30099 17.332 9.27908 17.3512 9.25717 17.3705C9.20023 17.4206 9.14402 17.4715 9.08836 17.5232C9.07386 17.5366 9.05904 17.5498 9.04463 17.5634C8.97633 17.6277 8.90908 17.6932 8.84279 17.7598C8.82556 17.7771 8.80872 17.7947 8.79165 17.8121C8.74091 17.8639 8.69073 17.9163 8.6412 17.9694C8.62155 17.9905 8.6019 18.0116 8.58241 18.0329C8.52667 18.0938 8.47174 18.1555 8.4177 18.2181C8.40924 18.2279 8.40046 18.2374 8.39201 18.2473C8.33039 18.3192 8.27015 18.3925 8.21071 18.4665C8.19412 18.4872 8.17793 18.5081 8.16158 18.529C8.11688 18.5857 8.07283 18.6431 8.02949 18.701C8.01274 18.7234 7.99591 18.7456 7.9794 18.7682C7.9227 18.8455 7.86672 18.9234 7.81236 19.0028C7.75397 19.088 7.69743 19.1742 7.64234 19.2611ZM7.90272 25.9241V24.8163V23.9046C7.90272 23.8152 7.90441 23.7261 7.90772 23.6372C7.90876 23.608 7.9111 23.579 7.91255 23.5499C7.91545 23.4906 7.91819 23.4312 7.92254 23.3722C7.92519 23.3363 7.92922 23.3008 7.93244 23.2651C7.93711 23.213 7.9413 23.1609 7.9471 23.1092C7.95137 23.0714 7.95693 23.0337 7.96176 22.996C7.96804 22.9468 7.97392 22.8975 7.98117 22.8485C7.98705 22.8095 7.99414 22.7709 8.00058 22.732C8.00847 22.6848 8.0158 22.6375 8.02466 22.5905C8.03215 22.5508 8.04085 22.5115 8.04898 22.472C8.05833 22.4264 8.06727 22.3806 8.0775 22.3354C8.08652 22.2954 8.09683 22.2559 8.10649 22.2161C8.11736 22.1718 8.12775 22.1273 8.13943 22.0832C8.15006 22.0432 8.16182 22.0036 8.1731 21.9638C8.18534 21.9206 8.19726 21.8773 8.21031 21.8343C8.22247 21.7944 8.23584 21.7548 8.24864 21.7151C8.26234 21.6729 8.27563 21.6307 8.29004 21.5889C8.30373 21.5494 8.31847 21.5102 8.33281 21.4709C8.34795 21.4295 8.36277 21.388 8.37864 21.3469C8.39378 21.3078 8.40989 21.2693 8.42559 21.2304C8.4421 21.1899 8.45837 21.1492 8.47561 21.109C8.49228 21.0702 8.50984 21.0319 8.52715 20.9936C8.54495 20.954 8.56259 20.9143 8.58112 20.8752C8.59924 20.8369 8.61825 20.7991 8.63701 20.7612C8.65618 20.7226 8.67511 20.6838 8.69492 20.6456C8.71449 20.6079 8.73487 20.5707 8.75508 20.5334C8.77554 20.4956 8.79576 20.4578 8.81686 20.4204C8.8378 20.3834 8.85954 20.3469 8.88105 20.3103C8.9028 20.2734 8.92438 20.2364 8.94685 20.1998C8.96916 20.1635 8.9922 20.1278 9.01515 20.0918C9.03818 20.0558 9.06106 20.0198 9.08474 19.9842C9.10842 19.9486 9.13274 19.9135 9.15706 19.8784C9.18131 19.8434 9.20547 19.8083 9.23027 19.7737C9.25524 19.7389 9.28093 19.7046 9.30663 19.6702C9.33208 19.6361 9.35745 19.6021 9.38346 19.5685C9.40972 19.5346 9.43662 19.5012 9.46352 19.4677C9.49018 19.4345 9.51692 19.4014 9.54414 19.3687C9.57161 19.3358 9.59963 19.3034 9.62766 19.271C9.65561 19.2387 9.68364 19.2064 9.71223 19.1745C9.74082 19.1426 9.77006 19.1112 9.79921 19.0798C9.82837 19.0484 9.85752 19.0173 9.88724 18.9865C9.91704 18.9556 9.94741 18.9251 9.97785 18.8948C10.0082 18.8644 10.0387 18.8342 10.0697 18.8043C10.1005 18.7746 10.1318 18.7453 10.1633 18.716C10.1949 18.6867 10.2266 18.6575 10.2588 18.6287C10.2908 18.6 10.3232 18.5717 10.3558 18.5436C10.3885 18.5153 10.4215 18.4872 10.4547 18.4595C10.4878 18.432 10.5213 18.4048 10.5549 18.3779C10.5888 18.3506 10.623 18.3237 10.6575 18.297C10.6915 18.2707 10.7259 18.2448 10.7605 18.219C10.7956 18.1929 10.8309 18.167 10.8667 18.1415C10.9017 18.1164 10.9369 18.0918 10.9724 18.0673C11.0089 18.0422 11.0454 18.0175 11.0823 17.9931C11.1181 17.9694 11.1543 17.946 11.1906 17.9229C11.2282 17.899 11.2661 17.8754 11.3042 17.8522C11.3409 17.8298 11.3779 17.8076 11.4151 17.7859C11.4538 17.7633 11.4927 17.7409 11.532 17.719C11.5696 17.6979 11.6074 17.677 11.6455 17.6565C11.6854 17.6351 11.7256 17.6141 11.766 17.5933C11.8044 17.5736 11.8428 17.5542 11.8817 17.5351C11.9122 17.5201 11.943 17.5056 11.9739 17.491C12.8791 17.9669 13.9083 18.2376 15 18.2376C16.0917 18.2376 17.1208 17.9669 18.026 17.491C18.0566 17.5055 18.0872 17.5199 18.1175 17.5348C18.1568 17.5541 18.1957 17.5737 18.2346 17.5936C18.2745 17.6142 18.3143 17.635 18.3538 17.6561C18.3922 17.6768 18.4305 17.6979 18.4685 17.7193C18.5073 17.741 18.5458 17.763 18.5839 17.7854C18.6217 17.8075 18.6592 17.8299 18.6964 17.8527C18.734 17.8756 18.7713 17.8988 18.8083 17.9224C18.8452 17.9458 18.8818 17.9695 18.9181 17.9936C18.9546 18.0177 18.9907 18.0422 19.0267 18.0669C19.0625 18.0916 19.0982 18.1165 19.1335 18.1418C19.1689 18.1671 19.2039 18.1927 19.2387 18.2186C19.2736 18.2446 19.3083 18.2707 19.3427 18.2973C19.3769 18.3237 19.4107 18.3505 19.4444 18.3775C19.4782 18.4046 19.5118 18.4319 19.5452 18.4596C19.5783 18.4872 19.611 18.5151 19.6435 18.5432C19.6763 18.5715 19.7089 18.5999 19.7411 18.6288C19.773 18.6574 19.8045 18.6864 19.8359 18.7155C19.8676 18.745 19.8992 18.7746 19.9304 18.8046C19.9611 18.8342 19.9913 18.8642 20.0213 18.8942C20.0519 18.9248 20.0826 18.9555 20.1126 18.9866C20.1421 19.0172 20.1711 19.0481 20.2001 19.0792C20.2295 19.1109 20.2589 19.1426 20.2878 19.1747C20.3161 19.2063 20.3439 19.2383 20.3716 19.2703C20.3999 19.3029 20.4282 19.3356 20.4558 19.3688C20.4829 19.4013 20.5094 19.4342 20.5359 19.4672C20.563 19.5008 20.59 19.5344 20.6165 19.5686C20.6424 19.602 20.6676 19.6359 20.6929 19.6698C20.7187 19.7043 20.7444 19.7388 20.7696 19.7738C20.7943 19.8082 20.8184 19.8431 20.8425 19.878C20.8669 19.9133 20.8913 19.9486 20.9151 19.9843C20.9386 20.0197 20.9613 20.0554 20.9842 20.0912C21.0073 20.1274 21.0305 20.1634 21.053 20.2C21.0752 20.2362 21.0966 20.2729 21.1182 20.3095C21.14 20.3464 21.1619 20.3832 21.1829 20.4204C21.2039 20.4577 21.2241 20.4954 21.2444 20.5329C21.2647 20.5703 21.2852 20.6077 21.3048 20.6455C21.3246 20.6837 21.3434 20.7224 21.3626 20.761C21.3814 20.7989 21.4004 20.8368 21.4186 20.8751C21.4371 20.9142 21.4546 20.9538 21.4724 20.9933C21.4898 21.0318 21.5074 21.0702 21.5241 21.1091C21.5412 21.1489 21.5573 21.1893 21.5737 21.2296C21.5896 21.2687 21.6059 21.3077 21.6211 21.3471C21.6369 21.388 21.6516 21.4293 21.6667 21.4705C21.6811 21.5099 21.6959 21.5491 21.7096 21.5889C21.7241 21.6308 21.7374 21.6733 21.7511 21.7155C21.7639 21.7551 21.7772 21.7945 21.7893 21.8343C21.8024 21.8773 21.8143 21.9207 21.8266 21.9639C21.8379 22.0036 21.8496 22.0432 21.8602 22.0832C21.8719 22.1273 21.8823 22.1717 21.8932 22.2161C21.9029 22.2558 21.9132 22.2954 21.9222 22.3354C21.9324 22.3806 21.9413 22.4263 21.9507 22.4718C21.9588 22.5114 21.9675 22.5507 21.975 22.5905C21.9838 22.6371 21.991 22.684 21.9989 22.7309C22.0055 22.7701 22.0127 22.8091 22.0186 22.8486C22.0258 22.8972 22.0316 22.9461 22.0379 22.9949C22.0428 23.033 22.0485 23.0709 22.0527 23.1091C22.0585 23.1608 22.0627 23.2129 22.0674 23.265C22.0706 23.3007 22.0746 23.3363 22.0773 23.3721C22.0817 23.4311 22.0844 23.4906 22.0873 23.5499C22.0887 23.579 22.0911 23.608 22.0921 23.6372C22.0954 23.726 22.0971 23.8151 22.0971 23.9045V24.8161V25.9241H7.90272ZM23.6801 23.2054C23.6644 23.0092 23.6416 22.8142 23.6128 22.6204C23.6082 22.5897 23.6027 22.5593 23.5978 22.5287C23.5866 22.4585 23.575 22.3885 23.562 22.3188C23.5551 22.2821 23.5477 22.2455 23.5403 22.2089C23.5277 22.1451 23.5145 22.0816 23.5004 22.0183C23.4918 21.9801 23.483 21.9419 23.474 21.9039C23.4592 21.8417 23.4438 21.7798 23.4276 21.718C23.4179 21.6806 23.4082 21.6432 23.3978 21.6058C23.3802 21.5416 23.3614 21.4776 23.3422 21.4138C23.332 21.3801 23.3224 21.3463 23.3118 21.3128C23.2881 21.2371 23.2629 21.1619 23.2371 21.0868C23.2298 21.0659 23.2232 21.0447 23.2158 21.0238C23.1818 20.9275 23.1462 20.8318 23.1087 20.7367C23.1007 20.7164 23.0919 20.6962 23.0837 20.6758C23.0539 20.602 23.0235 20.5283 22.9917 20.4552C22.9776 20.4227 22.9627 20.3906 22.9482 20.3584C22.9208 20.2975 22.8931 20.2368 22.8643 20.1766C22.8474 20.1413 22.83 20.1063 22.8127 20.0712C22.7844 20.014 22.7555 19.9571 22.726 19.9005C22.7075 19.865 22.6888 19.8298 22.6698 19.7946C22.6392 19.7379 22.6078 19.6817 22.5759 19.6257C22.5568 19.592 22.5378 19.5583 22.5183 19.5249C22.4828 19.4644 22.4462 19.4046 22.4091 19.3448C22.3919 19.317 22.3751 19.2889 22.3576 19.2612C22.3024 19.1743 22.2459 19.0881 22.1874 19.0028C22.133 18.9234 22.077 18.8454 22.0203 18.7681C22.0039 18.7457 21.9871 18.7235 21.9705 18.7013C21.9269 18.6431 21.8827 18.5856 21.8379 18.5285C21.8217 18.508 21.8056 18.4872 21.7892 18.4669C21.7297 18.3926 21.6692 18.3191 21.6074 18.2471C21.5994 18.2377 21.5911 18.2286 21.583 18.2193C21.5286 18.1562 21.4732 18.094 21.417 18.0327C21.3977 18.0116 21.3783 17.9907 21.3588 17.9698C21.309 17.9164 21.2585 17.8636 21.2075 17.8116C21.1906 17.7944 21.1741 17.7771 21.1571 17.7601C21.0907 17.6934 21.0232 17.6277 20.9547 17.5633C20.9406 17.55 20.9261 17.5371 20.912 17.5239C20.856 17.4719 20.7994 17.4208 20.7423 17.3704C20.7205 17.3512 20.6986 17.3322 20.6767 17.3132C20.6197 17.264 20.5621 17.2156 20.5039 17.1679C20.488 17.1549 20.4725 17.1416 20.4565 17.1288C20.3835 17.0698 20.3095 17.0121 20.2347 16.9556C20.216 16.9415 20.197 16.9278 20.1782 16.9139C20.1196 16.8704 20.0606 16.8275 20.0008 16.7855C19.9774 16.769 19.9539 16.7525 19.9304 16.7363C19.8637 16.6903 19.7965 16.6452 19.7285 16.6011C19.7166 16.5933 19.7049 16.5853 19.693 16.5776C19.6244 16.5336 19.5553 16.4903 19.4853 16.4481C19.5034 16.4309 19.5203 16.4127 19.5381 16.3953C19.588 16.3469 19.6371 16.2978 19.6854 16.2479C19.7124 16.22 19.7392 16.1921 19.7656 16.1637C19.8184 16.1073 19.8698 16.0498 19.9205 15.9916C19.9421 15.9669 19.9638 15.9423 19.9849 15.9172C20.039 15.8532 20.0915 15.7879 20.1431 15.7218C20.16 15.7002 20.1773 15.6789 20.1939 15.6571C20.2457 15.5891 20.2957 15.5196 20.345 15.4496C20.6592 15.4957 20.9759 15.5191 21.2916 15.5191C22.3834 15.5191 23.4125 15.2483 24.3177 14.7724C26.8028 15.9497 28.3889 18.4267 28.3889 21.1859V23.2054H23.6801Z" fill="#4B555D"/>
</svg>
