<svg width="20" height="16" viewBox="0 0 20 16" fill="none" xmlns="http://www.w3.org/2000/svg">
<path d="M5.36289 0C3.94706 0 2.75645 1.04777 2.3986 2.45284H0.801879C0.5891 2.45188 0.384702 2.54245 0.234131 2.70406C0.0837241 2.86586 -0.000386595 3.08529 0.000325087 3.31389C0.0012161 3.54156 0.0860415 3.75927 0.236448 3.91952C0.386677 4.07978 0.590186 4.1694 0.801916 4.16844H2.39563C2.75097 5.57733 3.9444 6.6297 5.36293 6.6297C6.76718 6.6297 7.95067 5.59782 8.31937 4.2104L19.2033 4.16846C19.4151 4.16808 19.6178 4.07713 19.7673 3.9161C19.9166 3.75487 20.0004 3.53639 20 3.3089C19.9995 3.082 19.9155 2.86448 19.7662 2.70402C19.6167 2.54356 19.4144 2.45318 19.2031 2.4528L8.34107 2.49473C7.99713 1.06805 6.79314 0 5.36289 0ZM5.36289 1.71565C6.19474 1.71565 6.85199 2.42029 6.85199 3.31389C6.85199 4.2077 6.19478 4.91391 5.36289 4.91391C4.531 4.91391 3.87543 4.20775 3.87543 3.31389C3.87543 2.42004 4.53104 1.71565 5.36289 1.71565ZM11.5392 9.29C10.0998 9.29 8.88853 10.3564 8.53123 11.7863H0.80156C0.589497 11.7856 0.385805 11.8754 0.23559 12.0358C0.0851838 12.1965 0.000539449 12.4148 1.12585e-06 12.6426C-0.000355308 12.8709 0.0839338 13.0901 0.234518 13.2513C0.384925 13.4127 0.588968 13.5029 0.801583 13.502H8.53262C8.89099 14.9315 10.1008 16 11.5389 16C12.977 16 14.1869 14.9315 14.5452 13.502H19.2026C19.4145 13.5016 19.6173 13.4108 19.7668 13.2496C19.9162 13.0884 19.9999 12.8701 19.9996 12.6426C19.999 12.4157 19.9151 12.1982 19.7658 12.0377C19.6163 11.8773 19.414 11.7869 19.2026 11.7863H14.5466C14.1893 10.3563 12.9786 9.29 11.5392 9.29ZM11.5392 11.0057C12.3924 11.0057 13.0673 11.7258 13.0673 12.6426C13.0673 13.5595 12.3924 14.2845 11.5392 14.2845C10.6859 14.2845 10.0111 13.5594 10.0111 12.6426C10.0111 11.7258 10.6859 11.0057 11.5392 11.0057Z" fill="white"/>
</svg>
