<svg width="113" height="109" viewBox="0 0 113 109" fill="none" xmlns="http://www.w3.org/2000/svg">
<path d="M112.142 25.4252L100.74 11.3851C100.49 11.1009 100.168 10.8838 99.8052 10.7551V2.25001C99.8052 1.65326 99.5594 1.08096 99.1211 0.659009C98.6829 0.237055 98.0884 0 97.4687 0H63.028C62.4086 0 61.8141 0.237055 61.3759 0.659009C60.9376 1.08096 60.6915 1.65326 60.6915 2.25001V11.2501C60.6915 11.2501 60.4111 11.2501 60.3177 11.61L57.5141 15.525C53.2408 13.1928 48.4065 11.9823 43.4948 12.015C38.0351 12.0352 32.6945 13.5527 28.0978 16.3898C23.5013 19.2266 19.8389 23.2657 17.5395 28.034C15.2401 32.8027 14.3986 38.103 15.1139 43.3153C15.8291 48.5273 18.0714 53.4354 21.5781 57.4651L1.57699 76.7702C1.14593 77.1983 0.905029 77.7712 0.905029 78.3676C0.905029 78.9639 1.14593 79.5369 1.57699 79.9652C1.80003 80.1724 2.06369 80.3347 2.35252 80.4429C2.64134 80.5509 2.94974 80.6029 3.25954 80.5951C3.56186 80.5992 3.86184 80.5457 4.14257 80.4378C4.42329 80.3295 4.67906 80.1691 4.89499 79.9652L24.8492 60.6602C30.0467 64.9758 36.6786 67.3547 43.5415 67.3651C45.632 67.3482 47.7146 67.1221 49.7565 66.6901V105.885C49.7565 106.482 50.0029 107.054 50.4411 107.476C50.8793 107.898 51.4733 108.135 52.093 108.135H110.32C110.939 108.135 111.534 107.898 111.972 107.476C112.41 107.054 112.656 106.482 112.656 105.885V26.8201C112.661 26.3112 112.479 25.8172 112.142 25.4252ZM65.4116 4.5H95.1791V10.4851H65.4116V4.5ZM63.3554 15.1651H94.1043L86.5339 24.57H67.8416C66.1777 22.026 64.0759 19.7738 61.6264 17.9101L63.3554 15.1651ZM19.5219 39.555C19.4827 34.5128 21.1658 29.598 24.3118 25.5672C27.4578 21.5364 31.8926 18.6134 36.9333 17.2475C41.9737 15.8819 47.3408 16.1496 52.208 18.0095C57.0751 19.8691 61.1723 23.2179 63.8692 27.54C63.9608 27.7295 64.0704 27.9102 64.1963 28.08C66.0567 31.1481 67.1567 34.588 67.4104 38.1323C67.664 41.6766 67.0648 45.2294 65.6592 48.5144C64.254 51.799 62.0799 54.7272 59.3072 57.0708C56.5343 59.4141 53.2374 61.1096 49.6726 62.0253C46.1078 62.9409 42.3717 63.0518 38.7553 62.3495C35.1386 61.6473 31.7394 60.1506 28.8219 57.9763C25.904 55.802 23.547 53.0083 21.934 49.8132C20.3207 46.6181 19.4954 43.1076 19.5219 39.555ZM54.3831 65.1152C61.4023 62.3249 66.9864 56.9687 69.912 50.2208C72.8376 43.4729 72.8659 35.8833 69.9909 29.1151H85.1785V103.545H54.3831V65.1152ZM107.936 103.5H89.8515V27.5852L98.9173 16.4251L107.936 27.5852V103.5Z" fill="white"/>
</svg>
