<svg width="18" height="18" viewBox="0 0 18 18" fill="none" xmlns="http://www.w3.org/2000/svg">
<path fill-rule="evenodd" clip-rule="evenodd" d="M8.87856 0.600037C9.6723 0.600037 10.3205 1.2218 10.3629 2.00496L10.3651 2.08653V2.38906C11.4212 2.60324 12.3961 3.04115 13.2381 3.65118L13.2779 3.6113C13.7389 3.15092 14.4852 3.15092 14.9466 3.61171C15.3874 4.05313 15.4058 4.75727 15.0016 5.22076L14.9464 5.27981L14.9066 5.31968C15.794 6.54466 16.3171 8.05078 16.3171 9.67917C16.3171 13.7874 12.9868 17.1178 8.87844 17.1178C4.77044 17.1178 1.44019 13.7873 1.44019 9.67917C1.44019 6.07981 3.99619 3.07772 7.39207 2.38903V2.08653C7.39207 1.26542 8.05745 0.600037 8.87856 0.600037ZM14.3724 4.66399C14.4844 4.53049 14.4776 4.33083 14.3527 4.20568C14.2317 4.08487 14.043 4.07389 13.91 4.17242L13.8944 4.18587C14.0609 4.33795 14.2204 4.4975 14.3724 4.66399ZM9.52506 2.08653V2.26821C9.31196 2.24987 9.09629 2.2405 8.87844 2.2405C8.66067 2.2405 8.44508 2.24986 8.23207 2.2682V2.08653L8.23471 2.02767C8.26442 1.69809 8.54121 1.44004 8.87856 1.44004C9.23575 1.44004 9.52506 1.72934 9.52506 2.08653ZM15.4771 9.67917C15.4771 6.03461 12.523 3.0805 8.87844 3.0805C5.23423 3.0805 2.28019 6.03467 2.28019 9.67917C2.28019 13.3234 5.23438 16.2778 8.87844 16.2778C12.5229 16.2778 15.4771 13.3235 15.4771 9.67917ZM8.94218 5.68498C9.15757 5.68498 9.33509 5.84712 9.35935 6.056L9.36218 6.10498V9.08195C9.51465 9.20475 9.6122 9.39299 9.6122 9.60404C9.6122 9.9737 9.31226 10.2741 8.94218 10.2741C8.57252 10.2741 8.27258 9.9737 8.27258 9.60404C8.27258 9.39315 8.36998 9.20503 8.52218 9.08222V6.10498C8.52218 5.87302 8.71022 5.68498 8.94218 5.68498ZM8.87852 3.36897C9.09391 3.36897 9.27143 3.53111 9.2957 3.73999L9.29852 3.78897V4.57863C9.29852 4.81059 9.11048 4.99863 8.87852 4.99863C8.66313 4.99863 8.48561 4.83649 8.46135 4.62761L8.45852 4.57863V3.78897C8.45852 3.55701 8.64656 3.36897 8.87852 3.36897ZM9.2957 14.7309C9.27143 14.522 9.09391 14.3599 8.87852 14.3599C8.64656 14.3599 8.45852 14.548 8.45852 14.7799V15.5692L8.46135 15.6181C8.48561 15.827 8.66313 15.9892 8.87852 15.9892C9.11048 15.9892 9.29852 15.8011 9.29852 15.5692V14.7799L9.2957 14.7309ZM4.41675 5.21719C4.56815 5.06579 4.80639 5.05414 4.97115 5.18225L5.01072 5.21719L5.56893 5.7754C5.73295 5.93942 5.73295 6.20535 5.56893 6.36937C5.41753 6.52077 5.17929 6.53242 5.01453 6.40431L4.97496 6.36937L4.41675 5.81116C4.25273 5.64714 4.25273 5.38121 4.41675 5.21719ZM12.7426 12.9537C12.5778 12.8257 12.3396 12.8374 12.1882 12.9889C12.0242 13.153 12.0243 13.4189 12.1884 13.5828L12.747 14.141L12.7866 14.176C12.9514 14.304 13.1897 14.2923 13.341 14.1408C13.505 13.9767 13.5049 13.7108 13.3408 13.5469L12.7822 12.9887L12.7426 12.9537ZM3.77778 9.25917C4.00974 9.25917 4.19778 9.44721 4.19778 9.67917C4.19778 9.89456 4.03564 10.0721 3.82676 10.0963L3.77778 10.0992H2.98853C2.75657 10.0992 2.56853 9.91113 2.56853 9.67917C2.56853 9.46378 2.73066 9.28625 2.93955 9.26199L2.98853 9.25917H3.77778ZM15.1889 9.67917C15.1889 9.44721 15.0009 9.25917 14.7689 9.25917H13.9793L13.9303 9.26199C13.7214 9.28625 13.5593 9.46378 13.5593 9.67917C13.5593 9.91113 13.7473 10.0992 13.9793 10.0992H14.7689L14.8179 10.0963C15.0268 10.0721 15.1889 9.89456 15.1889 9.67917ZM4.97496 12.9888C5.13898 12.8248 5.40491 12.8248 5.56893 12.9888C5.72033 13.1402 5.73198 13.3784 5.60387 13.5432L5.56893 13.5828L5.01072 14.141C4.8467 14.305 4.58077 14.305 4.41675 14.141C4.26535 13.9896 4.2537 13.7513 4.38181 13.5866L4.41675 13.547L4.97496 12.9888ZM13.341 5.2173C13.1771 5.05322 12.9111 5.05312 12.747 5.21708L12.1884 5.77529L12.1535 5.81485C12.0253 5.97956 12.0369 6.2178 12.1882 6.36926C12.3522 6.53334 12.6181 6.53344 12.7822 6.36948L13.3408 5.81127L13.3758 5.77172C13.5039 5.607 13.4924 5.36876 13.341 5.2173Z" fill="#797978"/>
</svg>
