<svg width="24" height="24" viewBox="0 0 24 24" fill="none" xmlns="http://www.w3.org/2000/svg">
<path d="M21.66 10.37C21.6936 10.3109 21.7172 10.2467 21.73 10.18L22.48 6.18C22.5277 5.91478 22.4682 5.64146 22.3144 5.42017C22.1606 5.19888 21.9252 5.04774 21.66 5C21.3948 4.95226 21.1215 5.01183 20.9002 5.16561C20.6789 5.31939 20.5277 5.55478 20.48 5.82L20.11 7.82C19.2776 6.29992 18.0336 5.04521 16.5208 4.19978C15.0079 3.35436 13.2874 2.95244 11.5565 3.04013C9.8257 3.12782 8.15461 3.70157 6.73493 4.69557C5.31526 5.68957 4.20448 7.06357 3.52999 8.66C3.43105 8.90537 3.43337 9.17995 3.53646 9.42361C3.63955 9.66726 3.83499 9.86014 4.07999 9.96C4.20204 10.0105 4.3329 10.0364 4.46501 10.0361C4.59711 10.0357 4.72784 10.0092 4.84964 9.95809C4.97145 9.90696 5.08191 9.83219 5.17466 9.73811C5.2674 9.64404 5.34059 9.53252 5.38999 9.41C5.92852 8.0868 6.85475 6.95747 8.04696 6.1704C9.23918 5.38332 10.6416 4.97532 12.07 5C13.3333 4.99411 14.5757 5.3221 15.6715 5.95076C16.7672 6.57943 17.6775 7.48645 18.31 8.58L16.66 8.31C16.5287 8.28899 16.3945 8.29405 16.2651 8.32489C16.1358 8.35573 16.0137 8.41175 15.906 8.48976C15.7983 8.56776 15.707 8.66621 15.6373 8.7795C15.5677 8.89278 15.521 9.01868 15.5 9.15C15.479 9.28132 15.484 9.4155 15.5149 9.54486C15.5457 9.67423 15.6017 9.79625 15.6797 9.90397C15.7577 10.0117 15.8562 10.103 15.9695 10.1726C16.0828 10.2423 16.2087 10.289 16.34 10.31L20.59 11.02H20.75C20.8661 11.0214 20.9814 11.001 21.09 10.96C21.1266 10.9461 21.1605 10.9258 21.19 10.9C21.2617 10.8733 21.3291 10.8363 21.39 10.79L21.47 10.69C21.5218 10.6414 21.5687 10.5878 21.61 10.53C21.6343 10.4794 21.6512 10.4255 21.66 10.37Z" fill="#007E92"/>
<path d="M19.88 14.07C19.7573 14.0197 19.6259 13.9944 19.4933 13.9954C19.3607 13.9964 19.2297 14.0237 19.1078 14.0758C18.9859 14.1279 18.8756 14.2038 18.7832 14.2989C18.6909 14.394 18.6184 14.5066 18.57 14.63C18.0277 15.9393 17.1049 17.0557 15.9211 17.8348C14.7374 18.6139 13.347 19.0198 11.93 19C10.6667 19.0059 9.42427 18.6779 8.3285 18.0492C7.23273 17.4206 6.32251 16.5136 5.68999 15.42L7.33999 15.69H7.49999C7.7652 15.7112 8.02799 15.6262 8.23052 15.4537C8.43306 15.2811 8.55877 15.0352 8.57999 14.77C8.6012 14.5048 8.5162 14.242 8.34366 14.0395C8.17113 13.8369 7.9252 13.7112 7.65999 13.69L3.40999 13C3.30091 12.9799 3.18907 12.9799 3.07999 13H2.99999C2.88681 13.0301 2.7789 13.0773 2.67999 13.14C2.61256 13.1921 2.55207 13.2526 2.49999 13.32L2.40999 13.42C2.37908 13.4803 2.35557 13.5441 2.33999 13.61C2.30494 13.6611 2.28109 13.719 2.26999 13.78L1.51999 17.78C1.48787 17.9129 1.48335 18.051 1.5067 18.1857C1.53005 18.3204 1.58078 18.4489 1.65576 18.5633C1.73074 18.6776 1.82836 18.7754 1.94261 18.8505C2.05686 18.9256 2.18529 18.9765 2.31999 19H2.49999C2.73677 19.0039 2.96725 18.9236 3.15038 18.7734C3.3335 18.6232 3.45739 18.413 3.49999 18.18L3.86999 16.18C4.7015 17.7004 5.94469 18.9558 7.45699 19.802C8.96929 20.6482 10.6895 21.0511 12.4203 20.9645C14.1511 20.8779 15.8224 20.3052 17.2426 19.3121C18.6629 18.3191 19.7745 16.9459 20.45 15.35C20.5416 15.1045 20.5332 14.8329 20.4266 14.5935C20.3201 14.3541 20.1238 14.1661 19.88 14.07Z" fill="#007E92"/>
</svg>
