<svg width="18" height="18" viewBox="0 0 18 18" fill="none" xmlns="http://www.w3.org/2000/svg">
<path d="M8.82683 16.5C8.7084 16.5 8.58208 16.4605 8.47944 16.3895C8.16363 16.1605 0.75 10.7523 0.75 5.98354C0.75 3.63076 2.09219 1.8938 4.17653 1.55431C5.78716 1.29376 7.7136 1.96486 8.82683 3.69392C9.93217 1.96486 11.8744 1.29376 13.4692 1.55431C15.5536 1.8938 16.8958 3.63076 16.8958 5.97564C16.8958 10.7444 9.48214 16.1526 9.16633 16.3816C9.06369 16.4526 8.93737 16.4921 8.81894 16.4921L8.82683 16.5ZM4.87132 2.68333C4.69762 2.68333 4.53182 2.69912 4.37392 2.7228C3.19753 2.91229 1.94218 3.87551 1.94218 5.97564C1.94218 9.60745 7.3899 14.0525 8.83473 15.1578C10.2796 14.0446 15.7273 9.60745 15.7273 5.97564C15.7273 3.86761 14.4719 2.91229 13.2955 2.7228C11.8586 2.48595 10.0664 3.27547 9.40318 5.24138C9.32423 5.48614 9.09527 5.64404 8.84262 5.64404C8.58997 5.64404 8.36101 5.47824 8.28206 5.24138C7.69781 3.49654 6.21351 2.67543 4.88711 2.67543L4.87132 2.68333Z" fill="#007D8F"/>
</svg>
