<svg width="26" height="25" viewBox="0 0 26 25" fill="none" xmlns="http://www.w3.org/2000/svg">
<path d="M12.4543 19.2466L9.78569 23.4461C9.47057 23.9387 8.95654 24.2879 8.35742 24.4169C8.21508 24.4473 8.06939 24.4643 7.92278 24.4679C7.49566 24.4785 7.07156 24.3679 6.70578 24.1506C6.18354 23.8443 5.81647 23.3492 5.69369 22.7859C5.56779 22.2245 5.69116 21.6452 6.0346 21.183L9.74977 16.2413L9.74996 16.2413C9.92158 16.0136 10.2605 15.9646 10.5071 16.1319C10.7537 16.299 10.8145 16.6193 10.6429 16.847L6.92769 21.7887C6.75365 22.0243 6.69265 22.3196 6.75933 22.6046C6.82582 22.8896 7.01411 23.139 7.27938 23.2939C7.52633 23.4389 7.82238 23.4854 8.10076 23.4234C8.41839 23.3555 8.69097 23.1708 8.85821 22.9102L11.5157 18.7058C11.6703 18.4717 11.9993 18.4025 12.2547 18.5501C12.5101 18.6978 12.5976 19.0078 12.4514 19.2467L12.4543 19.2466ZM22.893 0.685084C21.8453 0.0292234 20.4674 0.0096407 19.0181 0.63341C17.5259 1.32517 16.2731 2.39144 15.3943 3.71725C14.1183 5.56142 13.5859 7.65169 13.9728 9.30936C14.0593 9.69321 14.044 10.0887 13.9282 10.4606C13.8457 10.7301 14.0129 11.0169 14.3017 11.1014C14.5903 11.1857 14.8911 11.0358 14.9736 10.7665C15.1388 10.2331 15.1599 9.6662 15.0352 9.11635C14.7147 7.73829 15.203 5.88921 16.31 4.28941L16.3098 4.28942C17.0779 3.12143 18.1749 2.18001 19.4833 1.56608C20.5825 1.09621 21.5812 1.08348 22.3003 1.53467C23.0195 1.98586 23.4055 2.86156 23.385 4.00708L23.3848 4.00726C23.3104 5.39291 22.8358 6.72392 22.012 7.85754C20.9161 9.45973 19.3105 10.6186 17.8527 10.8822C17.2835 10.9883 16.7537 11.2231 16.3087 11.5668C16.1871 11.6605 16.0718 11.7614 15.9635 11.8687C15.7768 12.0725 15.7971 12.3826 16.0097 12.573C16.2221 12.7635 16.5521 12.7672 16.7591 12.5815C16.8407 12.5035 16.9274 12.4307 17.0191 12.3634C17.3285 12.1234 17.6971 11.9588 18.0933 11.8837C19.8495 11.5648 21.657 10.2683 22.936 8.42941L22.936 8.42923C23.8682 7.13839 24.4025 5.62393 24.4816 4.04847C24.4989 2.53751 23.9356 1.34139 22.8933 0.685268L22.893 0.685084ZM11.5485 10.2416C11.5211 10.2003 11.5184 10.1488 11.5413 10.1064C11.9676 9.07248 11.7768 7.88959 11.039 6.99429L5.8565 0.743376C5.76816 0.631645 5.63653 0.557103 5.49147 0.536356C5.34642 0.515788 5.19998 0.550883 5.08562 0.633739C4.97126 0.716417 4.89829 0.840048 4.88338 0.976429C4.86866 1.11281 4.91311 1.25051 5.00674 1.35837L10.1835 7.60942C10.6834 8.21521 10.8128 9.01587 10.5236 9.71552C10.4423 9.90691 10.4178 10.1168 10.4533 10.323C10.4887 10.5292 10.5824 10.7239 10.7246 10.8868L20.2542 21.5778L20.254 21.5779C20.4438 21.7844 20.5371 22.053 20.5119 22.3208C20.4868 22.5886 20.3456 22.832 20.1212 22.9944C19.8971 23.1566 19.6093 23.2235 19.3255 23.1794C19.0417 23.1351 18.7865 22.9836 18.6198 22.7603L9.89009 11.4835C9.75767 11.3124 9.57924 11.177 9.37392 11.0917C9.16861 11.0065 8.94396 10.9744 8.72383 10.9989C7.92634 11.0869 7.12802 10.7709 6.62408 10.1678L1.45627 3.93209C1.36774 3.82037 1.2363 3.74582 1.09105 3.72508C0.946004 3.70451 0.799754 3.7396 0.685386 3.82228C0.570843 3.90514 0.498057 4.02876 0.483148 4.16515C0.468242 4.30154 0.512692 4.43923 0.606318 4.5471L5.78035 10.7959C6.52529 11.689 7.7071 12.1569 8.8872 12.0258C8.93789 12.0171 8.99032 12.0343 9.02543 12.0711L17.7444 23.3458C18.0865 23.7928 18.605 24.0932 19.1789 24.1768C19.3081 24.196 19.4385 24.204 19.5685 24.2012C20.1011 24.1876 20.6039 23.9865 20.9775 23.6376C21.351 23.2888 21.5684 22.8176 21.5864 22.3169C21.6047 21.8161 21.4224 21.3225 21.0755 20.933L11.5485 10.2416ZM8.00926 8.94767C8.2119 8.94338 8.39222 8.83316 8.47687 8.66184C8.56133 8.49052 8.53608 8.28659 8.41125 8.13327L3.67445 2.29116C3.49056 2.06376 3.1495 2.01488 2.9123 2.18204C2.67534 2.34919 2.63211 2.66878 2.816 2.89621L7.55299 8.73832L7.5528 8.73832C7.66132 8.8733 7.83178 8.95142 8.00925 8.9477L8.00926 8.94767Z" fill="black" stroke="black" stroke-width="0.3"/>
</svg>
