<svg width="17" height="16" viewBox="0 0 17 16" fill="none" xmlns="http://www.w3.org/2000/svg">
<path d="M8.82683 15.5C8.7084 15.5 8.58208 15.4605 8.47944 15.3895C8.16363 15.1605 0.75 9.75226 0.75 4.98354C0.75 2.63076 2.09219 0.893803 4.17653 0.554307C5.78716 0.293764 7.7136 0.96486 8.82683 2.69392C9.93217 0.96486 11.8744 0.293764 13.4692 0.554307C15.5536 0.893803 16.8958 2.63076 16.8958 4.97564C16.8958 9.74437 9.48214 15.1526 9.16633 15.3816C9.06369 15.4526 8.93737 15.4921 8.81894 15.4921L8.82683 15.5ZM4.87132 1.68333C4.69762 1.68333 4.53182 1.69912 4.37392 1.7228C3.19753 1.91229 1.94218 2.87551 1.94218 4.97564C1.94218 8.60745 7.3899 13.0525 8.83473 14.1578C10.2796 13.0446 15.7273 8.60745 15.7273 4.97564C15.7273 2.86761 14.4719 1.91229 13.2955 1.7228C11.8586 1.48595 10.0664 2.27547 9.40318 4.24138C9.32423 4.48614 9.09527 4.64404 8.84262 4.64404C8.58997 4.64404 8.36101 4.47824 8.28206 4.24138C7.69781 2.49654 6.21351 1.67543 4.88711 1.67543L4.87132 1.68333Z" fill="white"/>
</svg>
