<svg width="40" height="40" viewBox="0 0 40 40" fill="none" xmlns="http://www.w3.org/2000/svg">
<path d="M20 25.8334C19.7807 25.8346 19.5632 25.7926 19.3602 25.7096C19.1571 25.6267 18.9724 25.5045 18.8167 25.35L12.15 18.6834C11.9946 18.528 11.8713 18.3435 11.7872 18.1404C11.7031 17.9374 11.6599 17.7198 11.6599 17.5C11.6599 17.2803 11.7031 17.0626 11.7872 16.8596C11.8713 16.6566 11.9946 16.4721 12.15 16.3167C12.3054 16.1613 12.4899 16.038 12.6929 15.9539C12.896 15.8698 13.1136 15.8265 13.3333 15.8265C13.5531 15.8265 13.7707 15.8698 13.9738 15.9539C14.1768 16.038 14.3613 16.1613 14.5167 16.3167L20 21.8334L25.5 16.5334C25.6533 16.3629 25.8402 16.2259 26.0489 16.1309C26.2575 16.0359 26.4836 15.985 26.7128 15.9814C26.9421 15.9777 27.1696 16.0215 27.3812 16.1098C27.5928 16.1981 27.7839 16.3291 27.9426 16.4947C28.1012 16.6602 28.224 16.8567 28.3032 17.0719C28.3825 17.287 28.4165 17.5162 28.4031 17.7451C28.3897 17.974 28.3292 18.1977 28.2255 18.4021C28.1217 18.6066 27.9769 18.7874 27.8 18.9334L21.1333 25.3667C20.8285 25.6605 20.4233 25.8274 20 25.8334Z" fill="#007E92"/>
</svg>
