<svg width="15" height="12" viewBox="0 0 15 12" fill="none" xmlns="http://www.w3.org/2000/svg">
<path d="M0.607801 5.42501L13.1616 5.42501L8.83189 0.925597C8.7594 0.814652 8.72513 0.681053 8.73475 0.546884C8.74436 0.412714 8.7973 0.286005 8.88479 0.187704C8.97227 0.0894017 9.08909 0.025392 9.21592 0.00625369C9.34274 -0.0128856 9.47196 0.0139937 9.58226 0.0824475L14.8349 5.55897C14.9405 5.66969 14.9999 5.81991 15 5.9766C14.9991 6.07962 14.9723 6.18056 14.9222 6.26915C14.8721 6.35773 14.8006 6.4308 14.7149 6.48091L9.46222 11.918C9.35192 11.9865 9.22265 12.0134 9.09583 11.9942C8.96901 11.9751 8.85223 11.9111 8.76475 11.8128C8.67726 11.7145 8.62432 11.5878 8.61471 11.4536C8.60509 11.3194 8.63936 11.1858 8.71185 11.0749L13.034 6.56759L0.56278 6.56759C0.41352 6.56759 0.270372 6.50533 0.16483 6.3945C0.0592876 6.28367 -2.35019e-06 6.15698 -2.33649e-06 6.00024C-2.32278e-06 5.8435 0.0592876 5.69318 0.16483 5.58235C0.270372 5.47152 0.41352 5.42274 0.56278 5.42274L0.607801 5.42501Z" fill="#007D8F"/>
</svg>
