<svg width="20" height="20" viewBox="0 0 20 20" fill="none" xmlns="http://www.w3.org/2000/svg">
<path d="M11.9393 0C10.4111 0.00635186 8.91588 0.445459 7.62687 1.26648C6.33786 2.08749 5.30776 3.25683 4.65587 4.6391C4.00398 6.02136 3.75695 7.56001 3.94339 9.07686C4.12983 10.5937 4.74211 12.0267 5.70934 13.21L0.21934 18.72C0.0788896 18.8606 0 19.0512 0 19.25C0 19.4487 0.0788896 19.6394 0.21934 19.78C0.359965 19.9204 0.55059 19.9993 0.74934 19.9993C0.948091 19.9993 1.13871 19.9204 1.27934 19.78L6.75934 14.28C7.75539 15.1066 8.93566 15.6815 10.2006 15.9562C11.4655 16.2308 12.7779 16.1972 14.027 15.8581C15.2762 15.5191 16.4255 14.8845 17.3779 14.0079C18.3303 13.1314 19.0579 12.0386 19.4993 10.8218C19.9407 9.60506 20.0829 8.29994 19.914 7.01664C19.745 5.73334 19.2699 4.50951 18.5286 3.44841C17.7873 2.38731 16.8017 1.52008 15.6549 0.919908C14.5081 0.319735 13.2337 0.00422391 11.9393 0ZM11.9393 14.67C10.6343 14.6759 9.35683 14.2942 8.26896 13.5733C7.18108 12.8524 6.33176 11.8246 5.82867 10.6204C5.32558 9.41621 5.19137 8.08974 5.44306 6.80916C5.69475 5.52858 6.321 4.35157 7.24243 3.42733C8.16385 2.5031 9.33895 1.87327 10.6188 1.61768C11.8986 1.36209 13.2254 1.49226 14.4312 1.99168C15.6369 2.49111 16.6672 3.33729 17.3915 4.42297C18.1157 5.50865 18.5013 6.78492 18.4993 8.09C18.5007 8.95278 18.332 9.80738 18.0031 10.605C17.6741 11.4026 17.1913 12.1276 16.5821 12.7386C15.973 13.3496 15.2494 13.8347 14.4528 14.1661C13.6562 14.4974 12.8021 14.6687 11.9393 14.67Z" fill="white"/>
</svg>
