<svg width="601" height="601" viewBox="0 0 601 601" fill="none" xmlns="http://www.w3.org/2000/svg">
<path d="M17.3403 295.44V279.416L24.9664 281.098C25.506 280.701 26.0676 280.335 26.6486 280.001L163.719 200.825C171.695 196.23 180.738 193.812 189.943 193.812C199.148 193.812 208.191 196.23 216.167 200.825L563.378 400.411L583.938 404.922V423.95C583.793 427.067 582.859 430.097 581.225 432.756C579.591 435.414 577.309 437.615 574.593 439.152L436.737 518.79C428.753 523.4 419.696 525.827 410.476 525.827C401.256 525.827 392.199 523.4 384.215 518.79L26.5863 312.35C23.6405 310.653 21.2192 308.177 19.5882 305.194C17.9572 302.211 17.1794 298.836 17.3403 295.44Z" fill="#C6D4D9" stroke="#10323F" stroke-miterlimit="10"/>
<path fill-rule="evenodd" clip-rule="evenodd" d="M17.3403 279.416V295.441C17.1794 298.837 17.9572 302.211 19.5882 305.194C21.2193 308.177 23.6406 310.653 26.5864 312.35L384.215 518.79C391.503 522.998 399.685 525.387 408.068 525.772V489.198L52.4234 265.113L26.6487 280.002C26.0677 280.335 25.506 280.701 24.9665 281.098L17.3403 279.416Z" fill="#A3BBC3"/>
<path d="M17.3403 295.44V279.416L24.9664 281.098C25.506 280.701 26.0676 280.335 26.6486 280.001L163.719 200.825C171.695 196.23 180.738 193.812 189.943 193.812C199.148 193.812 208.191 196.23 216.167 200.825L563.378 400.411L583.938 404.922V423.95C583.793 427.067 582.859 430.097 581.225 432.756C579.591 435.414 577.309 437.615 574.593 439.152L436.737 518.79C428.753 523.4 419.696 525.827 410.476 525.827C401.256 525.827 392.199 523.4 384.215 518.79L26.5863 312.35C23.6405 310.653 21.2192 308.177 19.5882 305.194C17.9572 302.211 17.1794 298.836 17.3403 295.44Z" stroke="#10323F" stroke-miterlimit="10"/>
<path d="M574.593 389.371L216.217 183.342C208.241 178.748 199.197 176.329 189.993 176.329C180.788 176.329 171.745 178.748 163.769 183.342L26.6985 262.519C23.8718 264.164 21.5261 266.521 19.8958 269.356C18.2654 272.191 17.4073 275.404 17.4073 278.675C17.4073 281.945 18.2654 285.158 19.8958 287.993C21.5261 290.828 23.8718 293.185 26.6985 294.83L384.215 501.345C392.199 505.955 401.256 508.382 410.476 508.382C419.696 508.382 428.753 505.955 436.737 501.345L574.593 421.707C577.425 420.064 579.776 417.706 581.411 414.868C583.045 412.031 583.905 408.814 583.905 405.539C583.905 402.265 583.045 399.048 581.411 396.21C579.776 393.373 577.425 391.014 574.593 389.371V389.371Z" fill="white" stroke="#10323F" stroke-miterlimit="10"/>
<path d="M574.593 389.371L216.217 183.342C208.241 178.748 199.197 176.329 189.993 176.329C180.788 176.329 171.745 178.748 163.769 183.342L26.6985 262.519C23.8718 264.164 21.5261 266.521 19.8958 269.356C18.2654 272.191 17.4073 275.404 17.4073 278.675C17.4073 281.945 18.2654 285.158 19.8958 287.993C21.5261 290.828 23.8718 293.185 26.6985 294.83L384.215 501.345C392.199 505.955 401.256 508.382 410.476 508.382C419.696 508.382 428.753 505.955 436.737 501.345L574.593 421.707C577.425 420.064 579.776 417.706 581.411 414.868C583.045 412.031 583.905 408.814 583.905 405.539C583.905 402.265 583.045 399.048 581.411 396.21C579.776 393.373 577.425 391.014 574.593 389.371V389.371Z" fill="#E4EAEC" stroke="#10323F" stroke-miterlimit="10"/>
<path d="M571.315 391.091L215.033 186.395C207.351 181.969 198.641 179.639 189.775 179.639C180.909 179.639 172.198 181.969 164.516 186.395L32.4305 262.631C19.658 269.522 14.8107 284.226 32.4305 293.783L385.735 497.457C393.426 501.896 402.15 504.233 411.031 504.233C419.911 504.233 428.635 501.896 436.326 497.457L569.11 420.797C585.147 412.212 582.069 397.296 571.315 391.091Z" fill="white" stroke="#10323F" stroke-miterlimit="10"/>
<path d="M32.4553 262.681L164.541 186.445C172.223 182.018 180.933 179.688 189.799 179.688C198.665 179.688 207.376 182.018 215.058 186.445L571.315 391.09C582.044 397.321 585.147 412.274 569.11 420.797L436.276 497.457C428.585 501.896 419.861 504.233 410.981 504.233C402.1 504.233 393.376 501.896 385.685 497.457L32.4553 293.808C14.8356 284.276 19.6829 269.572 32.4553 262.681ZM36.2808 293.534L387.579 494.404C403.006 503.812 421.361 503.127 436.501 494.404L564.848 420.274C581.259 411.626 581.259 398.879 567.029 391.552L212.864 189.685C197.737 180.962 181.251 179.716 164.018 189.685L36.2808 263.441C23.8199 270.132 15.8698 282.406 36.2808 293.534Z" fill="#10323F"/>
<path d="M140.342 218.482L139.844 218.196C138.118 217.198 136.161 216.673 134.168 216.673C132.175 216.673 130.217 217.198 128.492 218.196L103.906 232.389C103.314 232.731 102.822 233.223 102.48 233.816C102.138 234.409 101.958 235.081 101.958 235.766C101.958 236.45 102.138 237.122 102.48 237.715C102.822 238.308 103.314 238.8 103.906 239.142L104.417 239.442C106.145 240.433 108.101 240.955 110.093 240.955C112.085 240.955 114.042 240.433 115.769 239.442L140.342 225.249C140.934 224.904 141.426 224.411 141.768 223.817C142.109 223.223 142.289 222.55 142.289 221.865C142.289 221.18 142.109 220.507 141.768 219.914C141.426 219.32 140.934 218.826 140.342 218.482V218.482Z" fill="#10323F"/>
<path d="M408.071 508.88C412.79 509.158 417.624 508.487 419.451 508.117V524.562C414.011 525.617 409.598 525.418 408.071 525.187V508.88Z" fill="#E4EAEC"/>
<path d="M360.975 479.189L539.253 375.764L567.029 391.552C581.259 398.879 581.259 411.626 564.898 420.274L436.55 494.404C421.41 503.127 403.056 503.812 387.629 494.404L360.975 479.189Z" fill="white" stroke="#10323F" stroke-miterlimit="10"/>
<path d="M536.504 420.232C523.346 420.232 512.678 414.073 512.678 406.475C512.678 398.878 523.346 392.719 536.504 392.719C549.663 392.719 560.331 398.878 560.331 406.475C560.331 414.073 549.663 420.232 536.504 420.232Z" stroke="#10323F" stroke-miterlimit="10"/>
<path d="M417.686 490.073C404.527 490.073 393.859 483.914 393.859 476.317C393.859 468.72 404.527 462.561 417.686 462.561C430.845 462.561 441.512 468.72 441.512 476.317C441.512 483.914 430.845 490.073 417.686 490.073Z" stroke="#10323F" stroke-miterlimit="10"/>
<path d="M480.91 455.305C467.751 455.305 457.084 449.146 457.084 441.548C457.084 433.951 467.751 427.792 480.91 427.792C494.069 427.792 504.736 433.951 504.736 441.548C504.736 449.146 494.069 455.305 480.91 455.305Z" fill="#24748F" stroke="#10323F" stroke-miterlimit="10"/>
<path fill-rule="evenodd" clip-rule="evenodd" d="M496.394 448.745C497.936 447.102 498.812 445.22 498.812 443.22C498.812 436.804 489.804 431.603 478.692 431.603C472.589 431.603 467.12 433.172 463.43 435.65C466.834 432.022 473.485 429.559 481.133 429.559C492.245 429.559 501.253 434.76 501.253 441.175C501.253 444.067 499.423 446.712 496.394 448.745Z" fill="white"/>
<path d="M493.003 450.372C488.148 451.842 476.718 453.554 468.786 449.918M465.536 448.291C463.234 446.848 459.127 443.081 461.125 439.552" stroke="#10323F" stroke-linecap="round"/>
<path d="M164.325 361.342C158.985 358.264 158.986 350.558 164.326 347.48L313.202 261.686C318.147 258.836 324.236 258.836 329.181 261.686L366.514 283.206C371.854 286.284 371.854 293.991 366.513 297.069L217.627 382.863C212.681 385.713 206.592 385.712 201.647 382.861L164.325 361.342Z" fill="#E4EAEC"/>
<path d="M85.2855 315.861C79.946 312.782 79.9468 305.076 85.2869 301.999L234.163 216.204C239.108 213.354 245.197 213.355 250.142 216.205L287.475 237.725C292.815 240.803 292.815 248.51 287.474 251.587L138.588 337.381C133.642 340.231 127.553 340.23 122.608 337.379L85.2855 315.861Z" fill="#E4EAEC"/>
<path d="M247.539 407.812C242.163 404.721 242.196 396.953 247.598 393.908L304.135 362.034C310.284 358.567 317.805 358.599 323.924 362.116L399.995 405.843C405.372 408.933 405.34 416.702 399.937 419.747L343.387 451.622C337.239 455.088 329.718 455.056 323.599 451.538L247.539 407.812Z" fill="#E4EAEC"/>
<path d="M340.141 357.525C333.42 353.661 333.461 343.951 340.214 340.144L393.691 309.996C399.84 306.529 407.361 306.561 413.48 310.078L486.505 352.053C493.227 355.917 493.186 365.628 486.432 369.435L432.944 399.584C426.795 403.05 419.274 403.018 413.155 399.5L340.141 357.525Z" fill="#FDF3E6"/>
<path d="M413.68 508.781C410.418 509.136 405.163 508.633 402.943 508.337V524.806C406.592 525.387 411.621 525.398 413.68 525.331V508.781Z" fill="#E4EAEC"/>
<path d="M247.539 365.812C242.163 362.721 242.196 354.953 247.598 351.908L304.135 320.034C310.284 316.567 317.805 316.599 323.924 320.116L399.995 363.843C405.372 366.933 405.34 374.702 399.937 377.747L343.387 409.622C337.239 413.088 329.718 413.056 323.599 409.538L247.539 365.812Z" fill="#1B596E" stroke="#161414" stroke-linecap="round" stroke-linejoin="round"/>
<path d="M247.539 361.812C242.163 358.721 242.196 350.953 247.598 347.908L304.135 316.034C310.284 312.567 317.805 312.599 323.924 316.116L399.995 359.843C405.372 362.933 405.34 370.702 399.937 373.747L343.387 405.622C337.239 409.088 329.718 409.056 323.599 405.538L247.539 361.812Z" fill="#A3BBC3" stroke="#161414" stroke-linecap="round" stroke-linejoin="round"/>
<path d="M85.2855 189.861C79.946 186.782 79.9468 179.076 85.2869 175.999L234.163 90.2041C239.108 87.3542 245.197 87.3545 250.142 90.205L287.475 111.725C292.815 114.803 292.815 122.51 287.474 125.587L138.588 211.381C133.642 214.231 127.553 214.23 122.608 211.379L85.2855 189.861Z" fill="#1B596E" stroke="#161414" stroke-linecap="round" stroke-linejoin="round"/>
<path d="M85.2855 185.861C79.946 182.782 79.9468 175.076 85.2869 171.999L234.163 86.2041C239.108 83.3542 245.197 83.3545 250.142 86.205L287.475 107.725C292.815 110.803 292.815 118.51 287.474 121.587L138.588 207.381C133.642 210.231 127.553 210.23 122.608 207.379L85.2855 185.861Z" fill="#24748F" stroke="#161414" stroke-linecap="round" stroke-linejoin="round"/>
<path d="M224.199 100.739L239.707 92.0675C240.453 91.6331 241.3 91.4043 242.163 91.4043C243.026 91.4043 243.873 91.6331 244.618 92.0675L261.294 101.765C261.54 101.913 261.742 102.123 261.883 102.372C262.023 102.622 262.097 102.904 262.097 103.19C262.097 103.477 262.023 103.759 261.883 104.009C261.742 104.258 261.54 104.468 261.294 104.616L245.719 113.188C244.978 113.617 244.137 113.844 243.28 113.844C242.424 113.844 241.582 113.617 240.841 113.188L224.207 103.582C223.963 103.434 223.762 103.226 223.622 102.977C223.482 102.729 223.408 102.448 223.407 102.163C223.406 101.878 223.478 101.597 223.617 101.348C223.756 101.098 223.956 100.889 224.199 100.739Z" fill="#E4EAEC" fill-opacity="0.4"/>
<g clip-path="url(#clip0_194_1812)">
<path d="M247.235 97.4717L252.173 103.126C252.752 103.919 252.627 104.596 251.948 104.978L245.697 108.6C245.339 108.804 244.937 108.914 244.526 108.92C244.115 108.926 243.709 108.829 243.346 108.636L235.013 104.543L247.235 97.4717Z" fill="#24748F" stroke="#10323F" stroke-width="0.595746" stroke-linecap="round" stroke-linejoin="round"/>
<path d="M246.888 96.6639C247.275 96.889 247.274 97.4488 246.887 97.6732L235.027 104.533C234.667 104.741 234.224 104.745 233.861 104.542V104.542C233.461 104.319 233.456 103.745 233.853 103.515L245.718 96.6623C246.08 96.4532 246.526 96.4538 246.888 96.6639V96.6639Z" fill="#24748F" stroke="#10323F" stroke-width="0.595746" stroke-linecap="round" stroke-linejoin="round"/>
<path d="M244.315 97.471L238.967 97.0645" stroke="#10323F" stroke-width="0.595746" stroke-linecap="round" stroke-linejoin="round"/>
<path d="M235.588 102.514L236.082 98.6465" stroke="#10323F" stroke-width="0.595746" stroke-linecap="round" stroke-linejoin="round"/>
<path d="M246.713 99.6123L250.2 104.124" stroke="#10323F" stroke-width="0.595746" stroke-linecap="round" stroke-linejoin="round"/>
<path d="M243.25 101.866L247.758 105.698" stroke="#10323F" stroke-width="0.595746" stroke-linecap="round" stroke-linejoin="round"/>
<path d="M239.32 103.902L245.086 107.368" stroke="#10323F" stroke-width="0.595746" stroke-linecap="round" stroke-linejoin="round"/>
</g>
<path d="M127.653 200.031L93.5808 180.69C92.244 179.932 92.2273 178.011 93.5507 177.229L123.825 159.341C125.688 158.24 128 158.228 129.875 159.309L164.146 179.08C165.483 179.851 165.479 181.782 164.139 182.549L133.594 200.021C131.754 201.073 129.496 201.077 127.653 200.031Z" fill="#E4EAEC"/>
<path d="M124.219 185.074V181.19C124.219 180.637 124.667 180.19 125.219 180.19H132.486C133.093 180.19 133.56 179.653 133.476 179.052L133.38 178.364C133.292 177.735 133.805 177.185 134.438 177.228L139.44 177.569" stroke="#24748F"/>
<path fill-rule="evenodd" clip-rule="evenodd" d="M113.522 165.429L127.484 173.355C128.099 173.704 128.852 173.702 129.465 173.352L141.892 166.243L129.875 159.31C128 158.228 125.688 158.24 123.824 159.341L113.522 165.429Z" fill="#1B596E" fill-opacity="0.4"/>
<path d="M127.485 169.636L111.983 160.836C111.315 160.457 111.306 159.497 111.968 159.106L125.77 150.95C126.391 150.583 127.162 150.579 127.787 150.94L143.384 159.938C144.052 160.324 144.05 161.289 143.381 161.672L129.465 169.632C128.852 169.983 128.099 169.984 127.485 169.636Z" fill="#E4EAEC"/>
<path d="M118.832 159.994C118.832 158.612 120.73 157.494 123.065 157.494C123.875 157.486 124.679 157.632 125.435 157.924C125.19 157.641 125.051 157.281 125.041 156.907C125.041 155.589 126.853 154.522 129.088 154.522C130.134 154.498 131.165 154.766 132.067 155.296V155.296C132.067 155.296 135.319 156.57 134.932 163.539C134.932 163.539 125.757 165.344 120.121 161.777C119.978 161.691 119.842 161.598 119.713 161.505C119.459 161.339 119.247 161.116 119.094 160.853C118.941 160.591 118.851 160.297 118.832 159.994V159.994Z" fill="#A3BBC3"/>
<path fill-rule="evenodd" clip-rule="evenodd" d="M119.273 158.881C118.991 159.216 118.832 159.594 118.832 159.994C118.851 160.297 118.941 160.591 119.094 160.854C119.247 161.116 119.459 161.339 119.713 161.505C119.842 161.598 119.978 161.692 120.121 161.777C125.522 165.195 134.171 163.681 134.885 163.548C131.606 163.723 124.804 163.182 121.798 161.85C119.386 160.78 119.097 159.549 119.273 158.881ZM125.977 155.382C125.633 155.853 125.327 156.795 125.963 158.053C125.848 158.017 125.655 157.962 125.413 157.898C125.182 157.619 125.051 157.27 125.041 156.907C125.041 156.327 125.393 155.795 125.977 155.382ZM125.25 157.856C124.859 157.719 124.457 157.62 124.049 157.56C124.047 157.57 124.045 157.58 124.043 157.589C124.476 157.669 124.901 157.767 125.25 157.856Z" fill="#10323F"/>
<ellipse rx="1.43209" ry="0.712203" transform="matrix(-1 0 0 1 129.118 155.674)" fill="white"/>
<path d="M146.764 159.185L145.282 158.328C143.951 157.558 143.95 155.636 145.282 154.866L207.502 118.861C209.541 117.681 212.081 117.804 213.997 119.173L215.021 119.905C216.204 120.751 216.118 122.536 214.859 123.264L152.771 159.184C150.913 160.259 148.622 160.259 146.764 159.185Z" fill="#E4EAEC" fill-opacity="0.4"/>
<path d="M155.963 162.327L230.334 119.037C232.098 118.011 234.282 118.033 236.024 119.095C237.223 119.826 237.205 121.572 235.992 122.279L161.618 165.566C159.868 166.584 157.706 166.581 155.959 165.558C154.723 164.834 154.726 163.047 155.963 162.327Z" fill="#E4EAEC" fill-opacity="0.4"/>
<path d="M165.588 167.505L238.645 124.98C240.425 123.944 242.635 123.992 244.368 125.105C245.517 125.843 245.48 127.536 244.299 128.223L171.242 170.743C169.493 171.762 167.33 171.759 165.583 170.735C164.348 170.012 164.35 168.225 165.588 167.505Z" fill="#E4EAEC" fill-opacity="0.4"/>
<path d="M62.6966 175.613C61.8612 177.109 60.8897 181.176 63.6866 185.482M56.0141 175.541C55.135 177.462 54.169 182.403 57.3382 186.794" stroke="#10323F" stroke-linecap="round"/>
<path d="M385.682 248.918C386.419 247.371 387.123 243.249 384.051 239.135M392.355 248.554C393.107 246.58 393.749 241.587 390.301 237.412" stroke="#10323F" stroke-linecap="round"/>
<path d="M128.072 187.463L115.34 180.236C114.671 179.857 114.663 178.896 115.325 178.505L126.565 171.864C127.497 171.313 128.653 171.307 129.59 171.848L142.392 179.234C143.061 179.619 143.059 180.585 142.389 180.968L131.043 187.458C130.123 187.985 128.994 187.986 128.072 187.463Z" stroke="#24748F" stroke-linecap="round" stroke-linejoin="round"/>
<path d="M128.391 187.611L124.686 185.482C124.376 185.304 124.185 184.973 124.185 184.615V181.415C124.185 181.173 124.273 180.939 124.432 180.757L124.547 180.626C124.737 180.409 125.011 180.284 125.299 180.284H132.022C132.147 180.284 132.27 180.261 132.386 180.215L132.661 180.108C133.044 179.958 133.297 179.588 133.297 179.177V178.494C133.297 178.22 133.409 177.958 133.607 177.77L133.97 177.424C134.173 177.231 134.447 177.132 134.727 177.151L138.916 177.435C139.07 177.446 139.22 177.492 139.354 177.571L142.198 179.239C142.504 179.419 142.692 179.747 142.692 180.102V180.179C142.692 180.536 142.501 180.866 142.192 181.045L130.838 187.61C130.686 187.698 130.513 187.744 130.337 187.744H128.889C128.715 187.744 128.543 187.698 128.391 187.611Z" fill="#24748F"/>
<path d="M128.656 176.491C128.656 176.778 128.505 177.073 128.191 177.312C127.877 177.552 127.422 177.715 126.898 177.715C126.374 177.715 125.918 177.552 125.604 177.312C125.29 177.073 125.139 176.778 125.139 176.491C125.139 176.203 125.29 175.908 125.604 175.669C125.918 175.429 126.374 175.267 126.898 175.267C127.422 175.267 127.877 175.429 128.191 175.669C128.505 175.908 128.656 176.203 128.656 176.491Z" stroke="#24748F"/>
<path d="M165.218 321.342C159.879 318.264 159.88 310.558 165.22 307.48L314.096 221.686C319.041 218.836 325.13 218.836 330.075 221.686L367.408 243.206C372.748 246.284 372.748 253.991 367.407 257.069L218.521 342.863C213.575 345.713 207.485 345.712 202.54 342.861L165.218 321.342Z" fill="#1B596E" stroke="#161414" stroke-linecap="round" stroke-linejoin="round"/>
<path d="M165.218 317.342C159.879 314.264 159.88 306.558 165.22 303.48L314.096 217.686C319.041 214.836 325.13 214.836 330.075 217.686L367.408 239.206C372.748 242.284 372.748 249.991 367.407 253.069L218.521 338.863C213.575 341.713 207.485 341.712 202.54 338.861L165.218 317.342Z" fill="#A3BBC3" stroke="#161414" stroke-linecap="round" stroke-linejoin="round"/>
<path d="M207.586 331.512L173.514 312.172C172.177 311.413 172.16 309.493 173.484 308.711L203.758 290.822C205.621 289.721 207.933 289.709 209.808 290.791L244.078 310.562C245.415 311.333 245.412 313.264 244.072 314.03L213.527 331.503C211.687 332.555 209.429 332.559 207.586 331.512Z" fill="#24748F"/>
<path fill-rule="evenodd" clip-rule="evenodd" d="M193.439 296.942L207.402 304.868C208.016 305.216 208.769 305.215 209.382 304.864L221.81 297.755L209.792 290.822C207.917 289.741 205.605 289.753 203.742 290.854L193.439 296.942Z" fill="#1B596E" fill-opacity="0.4"/>
<path d="M207.402 301.148L191.9 292.349C191.232 291.97 191.223 291.009 191.885 290.618L205.687 282.463C206.308 282.096 207.079 282.092 207.704 282.453L223.301 291.451C223.969 291.837 223.968 292.802 223.298 293.185L209.382 301.145C208.769 301.496 208.016 301.497 207.402 301.148Z" fill="#E4EAEC"/>
<path d="M198.749 291.507C198.749 290.124 200.647 289.007 202.982 289.007C203.792 288.999 204.596 289.144 205.352 289.437C205.107 289.153 204.968 288.794 204.958 288.42C204.958 287.102 206.77 286.035 209.005 286.035C210.051 286.01 211.082 286.278 211.984 286.808V286.808C211.984 286.808 215.236 288.083 214.849 295.052C214.849 295.052 205.675 296.857 200.038 293.29C199.895 293.204 199.759 293.111 199.63 293.018C199.376 292.852 199.164 292.628 199.011 292.366C198.858 292.104 198.768 291.81 198.749 291.507V291.507Z" fill="#A3BBC3"/>
<path fill-rule="evenodd" clip-rule="evenodd" d="M199.19 290.394C198.908 290.729 198.749 291.107 198.749 291.507C198.768 291.81 198.858 292.104 199.011 292.366C199.164 292.629 199.376 292.852 199.63 293.018C199.759 293.111 199.895 293.204 200.038 293.29C205.439 296.708 214.088 295.194 214.802 295.061C211.523 295.235 204.722 294.695 201.715 293.362C199.303 292.293 199.014 291.062 199.19 290.394ZM205.894 286.895C205.55 287.366 205.244 288.308 205.88 289.566C205.765 289.53 205.572 289.474 205.33 289.411C205.099 289.132 204.968 288.783 204.958 288.42C204.958 287.84 205.31 287.308 205.894 286.895ZM205.167 289.368C204.776 289.231 204.374 289.132 203.966 289.073C203.964 289.083 203.962 289.092 203.96 289.102C204.393 289.181 204.818 289.28 205.167 289.368Z" fill="#10323F"/>
<ellipse rx="1.43209" ry="0.712203" transform="matrix(-1 0 0 1 209.035 287.187)" fill="white"/>
<path d="M208.005 318.944L195.273 311.716C194.605 311.337 194.596 310.377 195.258 309.986L206.498 303.344C207.43 302.794 208.586 302.788 209.523 303.328L222.326 310.714C222.994 311.1 222.992 312.065 222.322 312.448L210.976 318.939C210.056 319.465 208.927 319.467 208.005 318.944Z" stroke="#A3BBC3" stroke-linecap="round" stroke-linejoin="round"/>
<path d="M208.324 319.092L204.62 316.963C204.309 316.785 204.118 316.454 204.118 316.096V312.896C204.118 312.654 204.206 312.42 204.365 312.237L204.48 312.106C204.67 311.889 204.944 311.765 205.233 311.765H211.955C212.08 311.765 212.204 311.741 212.32 311.696L212.594 311.588C212.978 311.438 213.23 311.069 213.23 310.657V309.974C213.23 309.701 213.342 309.439 213.54 309.25L213.903 308.905C214.106 308.712 214.381 308.612 214.66 308.631L218.849 308.916C219.004 308.926 219.154 308.973 219.287 309.051L222.131 310.72C222.437 310.899 222.625 311.227 222.625 311.582V311.66C222.625 312.017 222.435 312.347 222.126 312.525L210.771 319.09C210.619 319.178 210.446 319.224 210.271 319.224H208.823C208.648 319.224 208.476 319.179 208.324 319.092Z" fill="#A3BBC3"/>
<path d="M208.589 307.971C208.589 308.258 208.438 308.553 208.125 308.793C207.811 309.032 207.355 309.195 206.831 309.195C206.307 309.195 205.851 309.032 205.537 308.793C205.224 308.553 205.072 308.258 205.072 307.971C205.072 307.684 205.224 307.389 205.537 307.149C205.851 306.91 206.307 306.747 206.831 306.747C207.355 306.747 207.811 306.91 208.125 307.149C208.438 307.389 208.589 307.684 208.589 307.971Z" stroke="#A3BBC3"/>
<path d="M226.696 290.666L225.215 289.81C223.883 289.04 223.883 287.117 225.214 286.347L287.435 250.343C289.473 249.163 292.013 249.285 293.929 250.655L294.954 251.387C296.136 252.232 296.05 254.017 294.792 254.745L232.704 290.665C230.846 291.74 228.555 291.741 226.696 290.666Z" fill="#E4EAEC" fill-opacity="0.4"/>
<path d="M235.896 293.808L310.267 250.519C312.03 249.492 314.214 249.514 315.957 250.576C317.156 251.307 317.138 253.054 315.924 253.76L241.551 297.047C239.801 298.066 237.638 298.062 235.891 297.039C234.656 296.315 234.658 294.529 235.896 293.808Z" fill="#E4EAEC" fill-opacity="0.4"/>
<path d="M245.52 298.986L318.578 256.461C320.358 255.425 322.568 255.474 324.3 256.587C325.45 257.325 325.413 259.017 324.232 259.704L251.175 302.225C249.425 303.243 247.263 303.24 245.516 302.217C244.28 301.493 244.283 299.707 245.52 298.986Z" fill="#E4EAEC" fill-opacity="0.4"/>
<path d="M305.215 232.705L320.724 224.033C321.469 223.599 322.317 223.37 323.179 223.37C324.042 223.37 324.89 223.599 325.635 224.033L342.311 233.73C342.556 233.879 342.759 234.088 342.899 234.338C343.04 234.588 343.114 234.87 343.114 235.156C343.114 235.443 343.04 235.725 342.899 235.974C342.759 236.224 342.556 236.433 342.311 236.582L326.736 245.154C325.995 245.583 325.153 245.81 324.297 245.81C323.44 245.81 322.599 245.583 321.858 245.154L305.223 235.548C304.98 235.4 304.778 235.191 304.638 234.943C304.498 234.694 304.424 234.414 304.423 234.129C304.423 233.844 304.495 233.563 304.634 233.314C304.772 233.064 304.972 232.855 305.215 232.705Z" fill="#E4EAEC" fill-opacity="0.4"/>
<g clip-path="url(#clip1_194_1812)">
<path d="M328.252 229.438L333.19 235.092C333.768 235.885 333.644 236.561 332.965 236.944L326.713 240.566C326.356 240.77 325.953 240.88 325.543 240.886C325.132 240.892 324.726 240.795 324.363 240.602L316.03 236.509L328.252 229.438Z" fill="#A3BBC3" stroke="#10323F" stroke-width="0.595746" stroke-linecap="round" stroke-linejoin="round"/>
<path d="M327.904 228.63C328.292 228.855 328.291 229.415 327.903 229.639L316.044 236.499C315.684 236.707 315.241 236.711 314.878 236.508V236.508C314.477 236.285 314.473 235.71 314.87 235.481L326.734 228.628C327.096 228.419 327.543 228.42 327.904 228.63V228.63Z" fill="#A3BBC3" stroke="#10323F" stroke-width="0.595746" stroke-linecap="round" stroke-linejoin="round"/>
<path d="M325.331 229.437L319.984 229.03" stroke="#10323F" stroke-width="0.595746" stroke-linecap="round" stroke-linejoin="round"/>
<path d="M316.605 234.48L317.099 230.612" stroke="#10323F" stroke-width="0.595746" stroke-linecap="round" stroke-linejoin="round"/>
<path d="M327.729 231.578L331.217 236.09" stroke="#10323F" stroke-width="0.595746" stroke-linecap="round" stroke-linejoin="round"/>
<path d="M324.266 233.832L328.774 237.664" stroke="#10323F" stroke-width="0.595746" stroke-linecap="round" stroke-linejoin="round"/>
<path d="M320.337 235.868L326.102 239.333" stroke="#10323F" stroke-width="0.595746" stroke-linecap="round" stroke-linejoin="round"/>
</g>
<path d="M340.141 315.525C333.42 311.661 333.461 301.951 340.214 298.144L393.691 267.996C399.84 264.529 407.361 264.561 413.48 268.078L486.505 310.053C493.227 313.917 493.186 323.628 486.432 327.435L432.944 357.584C426.795 361.05 419.274 361.018 413.155 357.5L340.141 315.525Z" fill="#BE9339" stroke="#6E5521" stroke-linecap="round" stroke-linejoin="round"/>
<path d="M340.141 311.525C333.42 307.661 333.461 297.951 340.214 294.144L393.691 263.996C399.84 260.529 407.361 260.561 413.48 264.078L486.505 306.053C493.227 309.917 493.186 319.628 486.432 323.435L432.944 353.584C426.795 357.05 419.274 357.018 413.155 353.5L340.141 311.525Z" fill="#FDF3E6" stroke="#6E5521" stroke-linecap="round" stroke-linejoin="round"/>
<path d="M333.783 259.969L338.733 282.549L372.873 262.839L333.783 259.969Z" fill="#F5BE49" stroke="#6E5521" stroke-linecap="round" stroke-linejoin="round"/>
<path d="M337.003 329.635L372.873 350.345L337.003 355.075V329.635Z" fill="#F5BE49" stroke="#6E5521" stroke-linecap="round" stroke-linejoin="round"/>
<path d="M445.5 266.358L481.36 287.068V261.628L445.5 266.358Z" fill="#F5BE49" stroke="#6E5521" stroke-linecap="round" stroke-linejoin="round"/>
<path d="M460.593 356.199L493.383 337.269L498.383 359.819L460.593 356.199Z" fill="#F5BE49" stroke="#6E5521" stroke-linecap="round" stroke-linejoin="round"/>
<path d="M499.691 243.331L432.499 281.897C430.946 282.789 429.988 284.443 429.988 286.234V287.026C429.988 290.822 434.052 293.234 437.384 291.414L465.278 276.185V280.055C465.278 283.329 467.056 286.345 469.921 287.93L495.201 301.92C497.984 303.46 501.373 303.417 504.116 301.806L524.729 289.704C526.093 288.903 526.873 287.387 526.732 285.811L526.676 285.19C526.41 282.23 523.201 280.509 520.588 281.925V281.925L523.246 280.647C527.044 278.821 530.414 276.214 533.138 272.999L538.164 267.064L540.063 266.024C543.911 263.919 546.303 259.883 546.303 255.497V250.331C546.303 246.005 543.975 242.015 540.21 239.885L528.671 233.361C524.963 231.264 520.421 231.29 516.738 233.43L499.691 243.331Z" fill="#F5BE49" stroke="#6E5521" stroke-linecap="round" stroke-linejoin="round"/>
<path d="M468.838 279.199C466.694 278.794 465.905 276.948 465.778 276.076V279.199C465.778 280.401 465.723 281.695 466.546 283.657C467.324 285.514 469.196 286.977 470.061 287.448L474.387 289.854C473.901 288.806 472.897 286.047 472.762 283.397C472.627 280.747 472.889 278.51 473.036 277.722C472.53 278.383 470.981 279.604 468.838 279.199Z" fill="#BE9339"/>
<path d="M476.498 271.259L475.802 272.293C474.137 274.768 473.247 277.683 473.247 280.667V282.818C473.247 284.762 473.625 286.687 474.359 288.486L475.327 290.857M485.848 276.09L485.702 276.276C483.629 278.918 482.502 282.179 482.502 285.536V287.309C482.502 289.173 482.85 291.02 483.527 292.757L484.894 296.265M494.358 280.73L494.08 281.145C492.43 283.612 491.55 286.514 491.55 289.482V290.963C491.55 292.817 491.894 294.656 492.564 296.385L494.574 301.568" stroke="#6E5521" stroke-linecap="round" stroke-linejoin="round"/>
<path d="M465.277 276.271C465.494 274.468 465.892 270.793 468.629 268.056" stroke="#6E5521" stroke-linecap="round" stroke-linejoin="round"/>
<path d="M477.374 282.509C475.101 281.752 474.099 279.569 473.882 278.573C473.645 279.816 473.586 282.302 473.882 284.877C474.118 286.937 475.204 289.524 475.717 290.56L483.915 295.147C483.688 294.625 483.11 293.182 482.613 291.596C481.991 289.613 481.962 287.422 482.021 285.262C482.068 283.533 482.435 281.838 482.613 281.207C481.814 281.957 479.647 283.267 477.374 282.509Z" fill="#BE9339"/>
<path d="M482.964 287.004C482.853 284.398 483.311 282.245 483.553 281.494C483.553 282.811 484.198 285.611 486.776 286.277C489.355 286.942 491.201 285.56 491.801 284.786C491.074 287.108 490.866 290.019 491.178 292.792C491.427 295.01 492.922 298.845 493.638 300.486L485.286 295.911C483.241 290.99 483.103 290.262 482.964 287.004Z" fill="#BE9339"/>
<path d="M498.521 291.901C494.754 291.188 492.981 287.264 492.565 285.392C492.087 287.239 492.046 288.558 492.023 290.827C492.005 292.641 492.575 294.88 492.863 295.772L494.972 301.262C497.834 302.875 500.009 302.6 501.37 302.373C502.459 302.192 503.79 301.466 504.319 301.126L522.944 290.169C524.259 289.42 524.6 289.216 525.189 288.717C525.779 288.218 526.959 286.199 525.87 284.021C524.781 281.843 522.807 281.866 522.013 281.957C521.378 282.029 520.074 282.707 519.502 283.037L511.331 287.4C508.63 289.197 502.287 292.614 498.521 291.901Z" fill="#BE9339"/>
<path d="M530.57 269.003C527.268 275.058 520.425 280.882 517.417 283.037C519.547 281.952 524.335 279.475 526.444 278.251C529.079 276.721 531.927 273.703 532.395 273.15C532.769 272.708 536.235 268.63 537.921 266.647C538.459 266.533 540.165 265.711 542.681 263.331C545.198 260.951 545.813 257.352 545.806 255.85V253.669L534.6 259.468C534.633 260.124 533.873 262.948 530.57 269.003Z" fill="#BE9339"/>
<path d="M436.479 287.162L466.067 270.95C465.195 272.897 464.885 275.045 464.839 275.876L437.777 290.63C437.197 291.075 435.627 291.861 433.996 291.446C431.957 290.927 431.123 289.537 430.808 288.74C430.493 287.943 430.456 287.162 430.493 285.922C430.523 284.93 431.001 284.068 431.237 283.761C431.246 284.372 431.657 285.799 433.231 286.618C434.805 287.438 436.052 287.322 436.479 287.162Z" fill="#BE9339"/>
<path d="M527.288 278.314L510.934 287.068" stroke="#6E5521"/>
<path d="M422.997 281.975C422.162 283.471 421.19 287.538 423.987 291.844M416.315 281.903C415.435 283.825 414.469 288.765 417.639 293.156" stroke="#10323F" stroke-linecap="round"/>
<defs>
<clipPath id="clip0_194_1812">
<rect width="20" height="13" fill="white" transform="matrix(-1 0 0 1 252.752 96.124)"/>
</clipPath>
<clipPath id="clip1_194_1812">
<rect width="20" height="13" fill="white" transform="matrix(-1 0 0 1 333.769 228.09)"/>
</clipPath>
</defs>
</svg>
