<svg width="16" height="16" viewBox="0 0 16 16" fill="none" xmlns="http://www.w3.org/2000/svg">
<path fill-rule="evenodd" clip-rule="evenodd" d="M6.51811 5.70055C6.95676 5.39668 7.47248 5.23449 8.00004 5.23449C8.70747 5.23449 9.38593 5.52584 9.88617 6.04446C10.3864 6.56308 10.6674 7.26648 10.6674 7.99992C10.6674 8.54687 10.511 9.08154 10.2179 9.53631C9.92479 9.99108 9.50821 10.3455 9.0208 10.5548C8.5334 10.7642 7.99708 10.8189 7.47965 10.7122C6.96223 10.6055 6.48695 10.3421 6.1139 9.95538C5.74086 9.56862 5.48682 9.07587 5.3839 8.53943C5.28097 8.00299 5.3338 7.44695 5.53569 6.94163C5.73757 6.43632 6.07946 6.00442 6.51811 5.70055ZM7.07383 9.43703C7.34799 9.62695 7.67031 9.72831 8.00004 9.72831C8.44218 9.72831 8.86622 9.54622 9.17887 9.22208C9.49151 8.89794 9.66716 8.45832 9.66716 7.99992C9.66716 7.65807 9.56938 7.32391 9.3862 7.03967C9.20301 6.75544 8.94264 6.53391 8.63802 6.40309C8.33339 6.27227 7.99819 6.23804 7.6748 6.30473C7.35141 6.37142 7.05435 6.53604 6.8212 6.77776C6.58805 7.01948 6.42927 7.32745 6.36495 7.66273C6.30062 7.998 6.33364 8.34552 6.45982 8.66135C6.586 8.97717 6.79968 9.24711 7.07383 9.43703Z" fill="#575756"/>
<path fill-rule="evenodd" clip-rule="evenodd" d="M14.5741 7.69155C14.5774 7.69621 14.5799 7.69992 14.5818 7.70264C14.6372 7.79115 14.6667 7.89441 14.6667 7.99992C14.6667 8.10543 14.6372 8.20869 14.5818 8.2972C14.5799 8.29992 14.5774 8.30362 14.5741 8.30829C14.3726 8.60081 11.5707 12.6666 8.00001 12.6666C4.42932 12.6666 1.62745 8.6008 1.42587 8.30829C1.42266 8.30362 1.4201 8.29992 1.41822 8.2972C1.36282 8.20869 1.33334 8.10543 1.33334 7.99992C1.33334 7.89441 1.36282 7.79115 1.41822 7.70264C1.4201 7.69992 1.42266 7.69621 1.42587 7.69155C1.62745 7.39904 4.42932 3.33325 8.00001 3.33325C11.5707 3.33325 14.3726 7.39903 14.5741 7.69155ZM2.4585 7.99992C3.14536 8.91251 5.40597 11.6295 8.00001 11.6295C10.594 11.6295 12.8547 8.91251 13.5415 7.99992C12.8547 7.08733 10.594 4.37029 8.00001 4.37029C5.40597 4.37029 3.14536 7.08733 2.4585 7.99992Z" fill="#575756"/>
</svg>
