<svg width="24" height="24" viewBox="0 0 24 24" fill="none" xmlns="http://www.w3.org/2000/svg">
<path d="M5.32185 0C6.65811 0 7.91895 0.557143 8.95607 1.59429C8.99207 1.63029 9.02293 1.66714 9.05721 1.71343C9.74806 2.68114 10.3515 3.53057 11.0552 4.53257L16.4328 12.2186C16.4885 12.3009 16.5271 12.3891 16.5528 12.4834L16.5682 12.5571L23.3549 19.3431C24.1855 20.1737 24.2138 21.5066 23.4407 22.3714L23.3549 22.4623L22.461 23.3554C22.0453 23.7703 21.4907 24 20.9019 24C20.3139 24 19.7584 23.7703 19.3436 23.3546L12.5569 16.5694L12.484 16.5531C12.4206 16.536 12.3589 16.5129 12.2997 16.4811L12.2123 16.428L7.13725 12.8794C5.75299 11.9143 4.70472 11.1771 3.73617 10.494L1.71592 9.05829C1.66792 9.02486 1.62421 8.98714 1.59506 8.95629L1.45878 8.81571C0.437942 7.73143 -0.0686206 6.42686 0.00852082 5.052C0.0788053 3.78857 0.657366 2.53371 1.59592 1.59429C2.60733 0.582857 3.96331 0 5.32185 0ZM21.861 19.5471L19.5099 21.8246L20.1922 22.506C20.355 22.6689 20.5616 22.7683 20.7879 22.7931L20.9019 22.8C21.1727 22.8 21.423 22.6963 21.6133 22.506L22.5064 21.6137C22.8981 21.222 22.8981 20.5834 22.5064 20.1917L21.861 19.5471V19.5471ZM15.5482 13.2334L13.2066 15.522L18.6613 20.976L21.0124 18.6986L15.5482 13.2334ZM2.05963 2.88257C1.55392 3.54514 1.24964 4.33629 1.20593 5.11886C1.14507 6.20229 1.56592 7.22914 2.4539 8.11714L2.43162 8.09486L3.61874 8.93914C4.07645 9.26486 4.53587 9.58971 5.027 9.93514L5.40071 10.1983L12.1232 14.9014L13.0763 13.9697L2.05963 2.88257ZM5.32185 1.2C4.48015 1.2 3.62645 1.49914 2.91161 2.03657L13.9343 13.1314L14.9285 12.1603L12.5029 8.69143C11.452 7.18714 10.6755 6.07714 9.99062 5.10429L9.84491 4.89771L8.09294 2.42914L7.97038 2.31C7.2281 1.62171 6.37955 1.24543 5.48899 1.20429L5.32185 1.2Z" fill="#4B555D"/>
</svg>
