<svg width="24" height="24" viewBox="0 0 24 24" fill="none" xmlns="http://www.w3.org/2000/svg">
<g clip-path="url(#clip0_240_1838)">
<path d="M5.32183 0C6.65811 0 7.91897 0.557143 8.95611 1.59429C8.99211 1.63029 9.02297 1.66714 9.05726 1.71343C9.74811 2.68114 10.3515 3.53057 11.0553 4.53257L16.433 12.2186C16.4887 12.3009 16.5273 12.3891 16.553 12.4834L16.5684 12.5571L23.3553 19.3431C24.1858 20.1737 24.2141 21.5066 23.441 22.3714L23.3553 22.4623L22.4613 23.3554C22.0455 23.7703 21.491 24 20.9021 24C20.3141 24 19.7587 23.7703 19.3438 23.3546L12.557 16.5694L12.4841 16.5531C12.4207 16.536 12.359 16.5129 12.2998 16.4811L12.2124 16.428L7.13726 12.8794C5.75297 11.9143 4.70468 11.1771 3.73611 10.494L1.71583 9.05829C1.66783 9.02486 1.62411 8.98714 1.59497 8.95629L1.45868 8.81571C0.437827 7.73143 -0.068744 6.42686 0.00839889 5.052C0.0786846 3.78857 0.657256 2.53371 1.59583 1.59429C2.60726 0.582857 3.96326 0 5.32183 0ZM21.8613 19.5471L19.5101 21.8246L20.1924 22.506C20.3553 22.6689 20.5618 22.7683 20.7881 22.7931L20.9021 22.8C21.173 22.8 21.4233 22.6963 21.6135 22.506L22.5067 21.6137C22.8984 21.222 22.8984 20.5834 22.5067 20.1917L21.8613 19.5471ZM15.5484 13.2334L13.2067 15.522L18.6615 20.976L21.0127 18.6986L15.5484 13.2334ZM2.05954 2.88257C1.55383 3.54514 1.24954 4.33629 1.20583 5.11886C1.14497 6.20229 1.56583 7.22914 2.45383 8.11714L2.43154 8.09486L3.61868 8.93914C4.0764 9.26486 4.53583 9.58971 5.02697 9.93514L5.40068 10.1983L12.1233 14.9014L13.0764 13.9697L2.05954 2.88257ZM5.32183 1.2C4.48011 1.2 3.6264 1.49914 2.91154 2.03657L13.9344 13.1314L14.9287 12.1603L12.503 8.69143C11.4521 7.18714 10.6755 6.07714 9.99068 5.10429L9.84497 4.89771L8.09297 2.42914L7.9704 2.31C7.22811 1.62171 6.37954 1.24543 5.48897 1.20429L5.32183 1.2Z" fill="#4B555D"/>
</g>
<defs>
<clipPath id="clip0_240_1838">
<rect width="23.9995" height="24" fill="white" transform="translate(0.000732422)"/>
</clipPath>
</defs>
</svg>
