<svg width="24" height="24" viewBox="0 0 24 24" fill="none" xmlns="http://www.w3.org/2000/svg">
<path fill-rule="evenodd" clip-rule="evenodd" d="M4 12C4 11.4477 4.44772 11 5 11H19C19.5523 11 20 11.4477 20 12C20 12.5523 19.5523 13 19 13H5C4.44772 13 4 12.5523 4 12Z" fill="#2C3E50"/>
<path fill-rule="evenodd" clip-rule="evenodd" d="M4.29289 11.2929C4.68342 10.9023 5.31658 10.9023 5.70711 11.2929L11.7071 17.2929C12.0976 17.6834 12.0976 18.3166 11.7071 18.7071C11.3166 19.0976 10.6834 19.0976 10.2929 18.7071L4.29289 12.7071C3.90237 12.3166 3.90237 11.6834 4.29289 11.2929Z" fill="#2C3E50"/>
<path fill-rule="evenodd" clip-rule="evenodd" d="M11.7071 5.29286C12.0976 5.68339 12.0976 6.31655 11.7071 6.70708L5.70711 12.7071C5.31658 13.0976 4.68342 13.0976 4.29289 12.7071C3.90237 12.3166 3.90237 11.6834 4.29289 11.2929L10.2929 5.29286C10.6834 4.90234 11.3166 4.90234 11.7071 5.29286Z" fill="#2C3E50"/>
</svg>
