<svg width="18" height="18" viewBox="0 0 18 18" fill="none" xmlns="http://www.w3.org/2000/svg">
<path fill-rule="evenodd" clip-rule="evenodd" d="M4.3252 0.599854C3.37415 0.599854 2.4251 1.0076 1.71653 1.71617C1.05936 2.37334 0.654549 3.2519 0.605481 4.13608C0.551354 5.0989 0.906507 6.01122 1.62127 6.77064L1.71653 6.86882C1.73708 6.89058 1.7678 6.91706 1.80097 6.94013L3.21517 7.94503C3.89314 8.4241 4.62739 8.93919 5.59599 9.61612L9.14844 12.0995L9.20987 12.1367C9.2515 12.1587 9.29451 12.1754 9.33896 12.1874L9.3901 12.1983L14.1406 16.9484C14.4311 17.2389 14.8202 17.3999 15.2318 17.3999C15.6435 17.3999 16.0321 17.2391 16.3231 16.9487L16.9487 16.3235L17.0088 16.2599C17.5501 15.6543 17.5301 14.7215 16.9488 14.1402L12.1982 9.38974L12.1872 9.33819C12.1694 9.27218 12.1419 9.2104 12.103 9.15317L8.33894 3.77256C7.84558 3.07146 7.42373 2.47665 6.94003 1.79931C6.91616 1.76692 6.89467 1.74124 6.8696 1.71617C6.14348 0.990044 5.26061 0.599854 4.3252 0.599854ZM4.4424 1.4426C5.06576 1.47187 5.66001 1.73489 6.17918 2.21715L6.2653 2.30014L7.49171 4.02836C7.99597 4.74388 8.56413 5.55547 9.35233 6.68427L11.05 9.11276L10.3548 9.79228L2.63799 2.02571C3.13849 1.64938 3.73601 1.43985 4.3252 1.43985L4.4424 1.4426ZM2.04183 2.61749C1.68808 3.08129 1.47456 3.63546 1.44417 4.18293C1.40194 4.93417 1.69079 5.64711 2.30019 6.2646L2.30008 6.26452L2.30506 6.26952L2.30019 6.2646L3.13313 6.85762C3.53372 7.14196 3.93626 7.42632 4.38059 7.73882L9.08736 11.0312L9.75411 10.3795L2.04183 2.61749ZM9.84498 11.4653L11.4839 9.86325L15.3095 13.6888L13.6635 15.2835L9.84498 11.4653ZM14.2576 15.8775L14.7345 16.3544C14.8674 16.4873 15.0428 16.5599 15.2318 16.5599C15.421 16.5599 15.5962 16.4874 15.7295 16.3543L16.3548 15.7295C16.6288 15.4554 16.6288 15.0082 16.3548 14.7342L15.9035 14.2829L14.2576 15.8775Z" fill="#797978"/>
</svg>
