<svg width="11" height="20" viewBox="0 0 11 20" fill="none" xmlns="http://www.w3.org/2000/svg">
<path d="M9.82833 0.476124C9.95121 0.474851 10.0731 0.498179 10.1866 0.544701C10.3001 0.591223 10.4028 0.659974 10.4887 0.746803C10.6637 0.919823 10.762 1.15436 10.762 1.39889C10.762 1.64343 10.6637 1.87796 10.4887 2.05098L2.26546 10.0729L10.3641 17.9718C10.5291 18.1468 10.619 18.3781 10.6147 18.6172C10.6105 18.8563 10.5124 19.0844 10.3412 19.2534C10.17 19.4225 9.939 19.5193 9.69691 19.5235C9.45482 19.5278 9.22053 19.439 9.04338 19.276L0.321785 10.7373C0.147965 10.5585 0.0499101 10.3208 0.0476776 10.0729C0.047896 9.82828 0.146491 9.59373 0.321786 9.42084L9.20536 0.808321C9.28191 0.715146 9.37635 0.637831 9.48327 0.58082C9.59018 0.52381 9.70745 0.488229 9.82833 0.476124Z" fill="white"/>
</svg>
