<svg width="21" height="23" viewBox="0 0 21 23" fill="none" xmlns="http://www.w3.org/2000/svg">
<mask id="path-1-inside-1_240_1850" fill="white">
<path d="M10.8384 0.799988C11.896 0.799988 12.76 1.62879 12.816 2.67359L12.8192 2.78239V3.18559C14.2272 3.47119 15.5272 4.05439 16.6496 4.86799L16.7032 4.81519C17.3176 4.20159 18.3128 4.20159 18.928 4.81519C19.516 5.40399 19.54 6.34319 19.0016 6.96079L18.928 7.03999L18.8744 7.09279C20.0584 8.72639 20.7552 10.7344 20.7552 12.9056C20.7552 18.3832 16.3152 22.824 10.8368 22.824C5.36078 22.824 0.919983 18.3832 0.919983 12.9056C0.919983 8.10639 4.32798 4.10399 8.85598 3.18559V2.78239C8.85598 1.68719 9.74398 0.799988 10.8384 0.799988ZM10.8384 4.10719C5.97838 4.10719 2.03998 8.04639 2.03998 12.9056C2.03998 17.7648 5.97918 21.704 10.8376 21.704C15.6968 21.704 19.636 17.7648 19.636 12.9056C19.636 8.04639 15.6976 4.10719 10.8376 4.10719H10.8384ZM10.8384 19.1472C11.1256 19.1472 11.3616 19.3632 11.3944 19.6416L11.3984 19.7064V20.7592C11.3984 21.068 11.1472 21.3192 10.8384 21.3192C10.5504 21.3192 10.3144 21.1032 10.2816 20.824L10.2784 20.7592V19.7064C10.2784 19.3976 10.5288 19.1464 10.8384 19.1464V19.1472ZM15.9904 17.272L16.0432 17.3184L16.7872 18.0624C17.0064 18.2808 17.0064 18.636 16.788 18.8544C16.5864 19.056 16.268 19.072 16.0488 18.9016L15.996 18.8544L15.252 18.1104C15.0328 17.892 15.032 17.5376 15.2512 17.3184C15.4528 17.1168 15.7704 17.1008 15.9904 17.272ZM6.42558 17.3184C6.62718 17.52 6.64238 17.8384 6.47198 18.0576L6.42558 18.1104L5.68158 18.8544C5.46238 19.0736 5.10798 19.0736 4.88958 18.8544C4.68718 18.6528 4.67198 18.3344 4.84238 18.1152L4.88878 18.0624L5.63278 17.3184C5.85198 17.1 6.20638 17.1 6.42478 17.3184H6.42558ZM10.9232 7.57999C11.2104 7.57999 11.4472 7.79599 11.4792 8.07439L11.4832 8.13999L11.484 12.1104C11.6864 12.2736 11.816 12.5248 11.816 12.8056C11.816 13.2984 11.416 13.6984 10.9232 13.6984C10.4304 13.6984 10.0304 13.2984 10.0304 12.8056C10.0304 12.5248 10.16 12.2736 10.3624 12.1096V8.13999C10.3624 7.83039 10.6136 7.57999 10.9224 7.57999H10.9232ZM4.03678 12.3456C4.34638 12.3456 4.59678 12.596 4.59678 12.9056C4.59678 13.1928 4.38078 13.4296 4.10238 13.4616L4.03678 13.4656H2.98478C2.67518 13.4656 2.42478 13.2152 2.42478 12.9056C2.42478 12.6184 2.64078 12.3816 2.91918 12.3496L2.98478 12.3456H4.03678ZM18.692 12.3456C19.0016 12.3456 19.252 12.596 19.252 12.9056C19.252 13.1928 19.036 13.4296 18.7576 13.4616L18.692 13.4656H17.6392C17.3296 13.4656 17.0792 13.2152 17.0792 12.9056C17.0792 12.6184 17.2952 12.3816 17.5736 12.3496L17.6392 12.3456H18.692ZM5.62798 6.90959L5.68078 6.95599L6.42478 7.69999C6.64398 7.91919 6.64398 8.27359 6.42478 8.49199C6.22318 8.69439 5.90558 8.70959 5.68638 8.53919L5.63358 8.49279L4.88958 7.74879C4.67038 7.52959 4.67038 7.17519 4.88958 6.95679C5.09118 6.75439 5.40878 6.73919 5.62798 6.90959ZM16.788 6.95679C16.9896 7.15839 17.0056 7.47599 16.8344 7.69599L16.788 7.74799L16.0432 8.49199C15.824 8.71119 15.4696 8.71119 15.2512 8.49199C15.0488 8.29039 15.0336 7.97199 15.2048 7.75279L15.2512 7.69999L15.996 6.95599C16.2152 6.73759 16.5696 6.73759 16.788 6.95599V6.95679ZM10.8384 4.49199C11.1256 4.49199 11.3616 4.70799 11.3944 4.98639L11.3984 5.05199V6.10479C11.3984 6.41439 11.1472 6.66479 10.8384 6.66479C10.5504 6.66479 10.3144 6.44879 10.2816 6.17039L10.2784 6.10479V5.05199C10.2784 4.74239 10.5288 4.49199 10.8384 4.49199ZM17.5464 5.56319L17.5256 5.58079C17.7472 5.78319 17.96 5.99599 18.1624 6.21759L18.136 6.24799C18.3128 6.07119 18.3128 5.78399 18.1368 5.60799C17.976 5.44639 17.724 5.43199 17.5464 5.56319ZM10.8384 1.91999C10.388 1.91999 10.0192 2.26399 9.97998 2.70399L9.97598 2.78239V3.02399C10.26 2.99999 10.5472 2.98719 10.8376 2.98719C11.1288 2.98719 11.416 2.99999 11.7 3.02399V2.78239C11.7 2.30559 11.3144 1.91999 10.8384 1.91999Z"/>
</mask>
<path d="M10.8384 0.799988C11.896 0.799988 12.76 1.62879 12.816 2.67359L12.8192 2.78239V3.18559C14.2272 3.47119 15.5272 4.05439 16.6496 4.86799L16.7032 4.81519C17.3176 4.20159 18.3128 4.20159 18.928 4.81519C19.516 5.40399 19.54 6.34319 19.0016 6.96079L18.928 7.03999L18.8744 7.09279C20.0584 8.72639 20.7552 10.7344 20.7552 12.9056C20.7552 18.3832 16.3152 22.824 10.8368 22.824C5.36078 22.824 0.919983 18.3832 0.919983 12.9056C0.919983 8.10639 4.32798 4.10399 8.85598 3.18559V2.78239C8.85598 1.68719 9.74398 0.799988 10.8384 0.799988ZM10.8384 4.10719C5.97838 4.10719 2.03998 8.04639 2.03998 12.9056C2.03998 17.7648 5.97918 21.704 10.8376 21.704C15.6968 21.704 19.636 17.7648 19.636 12.9056C19.636 8.04639 15.6976 4.10719 10.8376 4.10719H10.8384ZM10.8384 19.1472C11.1256 19.1472 11.3616 19.3632 11.3944 19.6416L11.3984 19.7064V20.7592C11.3984 21.068 11.1472 21.3192 10.8384 21.3192C10.5504 21.3192 10.3144 21.1032 10.2816 20.824L10.2784 20.7592V19.7064C10.2784 19.3976 10.5288 19.1464 10.8384 19.1464V19.1472ZM15.9904 17.272L16.0432 17.3184L16.7872 18.0624C17.0064 18.2808 17.0064 18.636 16.788 18.8544C16.5864 19.056 16.268 19.072 16.0488 18.9016L15.996 18.8544L15.252 18.1104C15.0328 17.892 15.032 17.5376 15.2512 17.3184C15.4528 17.1168 15.7704 17.1008 15.9904 17.272ZM6.42558 17.3184C6.62718 17.52 6.64238 17.8384 6.47198 18.0576L6.42558 18.1104L5.68158 18.8544C5.46238 19.0736 5.10798 19.0736 4.88958 18.8544C4.68718 18.6528 4.67198 18.3344 4.84238 18.1152L4.88878 18.0624L5.63278 17.3184C5.85198 17.1 6.20638 17.1 6.42478 17.3184H6.42558ZM10.9232 7.57999C11.2104 7.57999 11.4472 7.79599 11.4792 8.07439L11.4832 8.13999L11.484 12.1104C11.6864 12.2736 11.816 12.5248 11.816 12.8056C11.816 13.2984 11.416 13.6984 10.9232 13.6984C10.4304 13.6984 10.0304 13.2984 10.0304 12.8056C10.0304 12.5248 10.16 12.2736 10.3624 12.1096V8.13999C10.3624 7.83039 10.6136 7.57999 10.9224 7.57999H10.9232ZM4.03678 12.3456C4.34638 12.3456 4.59678 12.596 4.59678 12.9056C4.59678 13.1928 4.38078 13.4296 4.10238 13.4616L4.03678 13.4656H2.98478C2.67518 13.4656 2.42478 13.2152 2.42478 12.9056C2.42478 12.6184 2.64078 12.3816 2.91918 12.3496L2.98478 12.3456H4.03678ZM18.692 12.3456C19.0016 12.3456 19.252 12.596 19.252 12.9056C19.252 13.1928 19.036 13.4296 18.7576 13.4616L18.692 13.4656H17.6392C17.3296 13.4656 17.0792 13.2152 17.0792 12.9056C17.0792 12.6184 17.2952 12.3816 17.5736 12.3496L17.6392 12.3456H18.692ZM5.62798 6.90959L5.68078 6.95599L6.42478 7.69999C6.64398 7.91919 6.64398 8.27359 6.42478 8.49199C6.22318 8.69439 5.90558 8.70959 5.68638 8.53919L5.63358 8.49279L4.88958 7.74879C4.67038 7.52959 4.67038 7.17519 4.88958 6.95679C5.09118 6.75439 5.40878 6.73919 5.62798 6.90959ZM16.788 6.95679C16.9896 7.15839 17.0056 7.47599 16.8344 7.69599L16.788 7.74799L16.0432 8.49199C15.824 8.71119 15.4696 8.71119 15.2512 8.49199C15.0488 8.29039 15.0336 7.97199 15.2048 7.75279L15.2512 7.69999L15.996 6.95599C16.2152 6.73759 16.5696 6.73759 16.788 6.95599V6.95679ZM10.8384 4.49199C11.1256 4.49199 11.3616 4.70799 11.3944 4.98639L11.3984 5.05199V6.10479C11.3984 6.41439 11.1472 6.66479 10.8384 6.66479C10.5504 6.66479 10.3144 6.44879 10.2816 6.17039L10.2784 6.10479V5.05199C10.2784 4.74239 10.5288 4.49199 10.8384 4.49199ZM17.5464 5.56319L17.5256 5.58079C17.7472 5.78319 17.96 5.99599 18.1624 6.21759L18.136 6.24799C18.3128 6.07119 18.3128 5.78399 18.1368 5.60799C17.976 5.44639 17.724 5.43199 17.5464 5.56319ZM10.8384 1.91999C10.388 1.91999 10.0192 2.26399 9.97998 2.70399L9.97598 2.78239V3.02399C10.26 2.99999 10.5472 2.98719 10.8376 2.98719C11.1288 2.98719 11.416 2.99999 11.7 3.02399V2.78239C11.7 2.30559 11.3144 1.91999 10.8384 1.91999Z" fill="#4B555D" stroke="#4B555D" stroke-width="1.6" mask="url(#path-1-inside-1_240_1850)"/>
</svg>
