<svg width="24" height="24" viewBox="0 0 24 24" fill="none" xmlns="http://www.w3.org/2000/svg">
<path fill-rule="evenodd" clip-rule="evenodd" d="M12.053 2.40002C15.63 2.40002 17.615 4.98802 17.83 9.37402H22.19C22.74 9.37402 23.139 9.82102 23.018 10.278L23.001 10.333L19.181 21.079C19.077 21.368 18.784 21.571 18.443 21.597L18.369 21.6H6.05603C5.71703 21.6 5.41403 21.425 5.27903 21.16L5.25303 21.101L1.00703 10.355C0.82503 9.89302 1.19603 9.41302 1.74303 9.37702L1.81003 9.37402H6.17003C6.39903 5.03902 8.46403 2.40002 12.054 2.40002H12.053ZM21.037 10.854H17.387C17.293 10.896 17.189 10.923 17.077 10.931L17.008 10.933H6.99203C6.85503 10.933 6.72603 10.905 6.61203 10.853H3.00003L6.66103 20.12H17.743L21.037 10.854ZM12.053 3.88002C9.57103 3.88002 8.07303 5.82002 7.86003 9.31102L7.85603 9.37302H16.144L16.143 9.32402C15.947 5.83402 14.56 3.94102 12.171 3.88102L12.053 3.88002Z" fill="white"/>
</svg>
