<svg width="20" height="20" viewBox="0 0 20 20" fill="none" xmlns="http://www.w3.org/2000/svg">
<g clip-path="url(#clip0)">
<path fill-rule="evenodd" clip-rule="evenodd" d="M9.9521 -0.168945C12.2321 -0.168945 14.2211 1.25105 14.9711 3.30405L15.0121 3.42305L15.0491 3.42505C17.8171 3.58305 20.0191 5.81505 20.0731 8.56505L20.0741 8.66805C20.0741 10.9861 18.5371 12.9921 16.3551 13.6731L16.2511 13.7051V17.2831C16.2511 18.7661 13.4331 19.6671 9.9511 19.6671H9.8131C6.3951 19.6431 3.6531 18.7471 3.6531 17.2831L3.6521 13.7051L3.5481 13.6731C1.4021 13.0031 -0.121898 11.0511 -0.170898 8.78205V8.66805C-0.170898 5.87105 2.0511 3.58505 4.8541 3.42505L4.8901 3.42305L4.8941 3.41005C5.6011 1.33605 7.5641 -0.119945 9.8361 -0.167945L9.9521 -0.168945ZM9.9521 15.9911C8.4621 15.9911 7.0721 16.1801 6.0621 16.5031C5.2011 16.7791 4.7631 17.1091 4.7631 17.2831C4.7631 17.4561 5.2011 17.7871 6.0621 18.0631C7.0721 18.3861 8.4621 18.5741 9.9521 18.5741C11.4401 18.5741 12.8301 18.3861 13.8411 18.0631C14.7021 17.7871 15.1401 17.4561 15.1401 17.2831C15.1401 17.1091 14.7021 16.7791 13.8401 16.5031C12.8301 16.1801 11.4401 15.9921 9.9521 15.9921V15.9911ZM9.9521 0.924055C7.9921 0.924055 6.3051 2.25005 5.8481 4.10005C5.7861 4.35105 5.5531 4.52505 5.2901 4.51706L5.1681 4.51006C2.8331 4.51006 0.939102 6.37105 0.939102 8.66805C0.939102 10.6541 2.3651 12.3511 4.3191 12.7421C4.5611 12.7921 4.7401 12.9911 4.7611 13.2301L4.7631 13.2781V15.8581C5.1601 15.6431 5.6491 15.4611 6.2091 15.3161V12.6901C6.2091 12.3881 6.4591 12.1431 6.7661 12.1431C7.0561 12.1431 7.2951 12.3631 7.3191 12.6431L7.3211 12.6901V15.0881C7.9621 14.9881 8.6611 14.9261 9.3961 14.9051V11.6961C9.3961 11.3941 9.6451 11.1501 9.9511 11.1501C10.2421 11.1501 10.4811 11.3701 10.5051 11.6491L10.5071 11.6961V14.9061C11.2351 14.9261 11.9271 14.9861 12.5621 15.0851V12.6901C12.5621 12.3881 12.8101 12.1431 13.1171 12.1431C13.4071 12.1431 13.6471 12.3631 13.6711 12.6431L13.6731 12.6901V15.3101C14.2431 15.4561 14.7391 15.6401 15.1401 15.8561V13.2771C15.1401 13.0171 15.3251 12.7931 15.5841 12.7411C17.5371 12.3511 18.9641 10.6521 18.9641 8.66705C18.9641 6.40405 17.1251 4.56305 14.8381 4.50905H14.7181L14.6371 4.51405H14.6121C14.3491 4.52305 14.1171 4.34905 14.0541 4.09805C13.5971 2.24905 11.9101 0.924055 9.9521 0.924055Z" fill="#FCFCFC"/>
</g>
<defs>
<clipPath id="clip0">
<rect width="20" height="20" fill="white"/>
</clipPath>
</defs>
</svg>
