<svg width="24" height="24" viewBox="0 0 24 24" fill="none" xmlns="http://www.w3.org/2000/svg">
<path d="M11.8384 0.800003C12.896 0.800003 13.76 1.6288 13.816 2.6736L13.8192 2.7824V3.1856C15.2272 3.4712 16.5272 4.0544 17.6496 4.868L17.7032 4.8152C18.3176 4.2016 19.3128 4.2016 19.928 4.8152C20.516 5.404 20.54 6.3432 20.0016 6.9608L19.928 7.04L19.8744 7.0928C21.0584 8.7264 21.7552 10.7344 21.7552 12.9056C21.7552 18.3832 17.3152 22.824 11.8368 22.824C6.36078 22.824 1.91998 18.3832 1.91998 12.9056C1.91998 8.1064 5.32798 4.104 9.85598 3.1856V2.7824C9.85598 1.6872 10.744 0.800003 11.8384 0.800003ZM11.8384 4.1072C6.97838 4.1072 3.03998 8.0464 3.03998 12.9056C3.03998 17.7648 6.97918 21.704 11.8376 21.704C16.6968 21.704 20.636 17.7648 20.636 12.9056C20.636 8.0464 16.6976 4.1072 11.8376 4.1072H11.8384ZM11.8384 19.1472C12.1256 19.1472 12.3616 19.3632 12.3944 19.6416L12.3984 19.7064V20.7592C12.3984 21.068 12.1472 21.3192 11.8384 21.3192C11.5504 21.3192 11.3144 21.1032 11.2816 20.824L11.2784 20.7592V19.7064C11.2784 19.3976 11.5288 19.1464 11.8384 19.1464V19.1472ZM16.9904 17.272L17.0432 17.3184L17.7872 18.0624C18.0064 18.2808 18.0064 18.636 17.788 18.8544C17.5864 19.056 17.268 19.072 17.0488 18.9016L16.996 18.8544L16.252 18.1104C16.0328 17.892 16.032 17.5376 16.2512 17.3184C16.4528 17.1168 16.7704 17.1008 16.9904 17.272ZM7.42558 17.3184C7.62718 17.52 7.64238 17.8384 7.47198 18.0576L7.42558 18.1104L6.68158 18.8544C6.46238 19.0736 6.10798 19.0736 5.88958 18.8544C5.68718 18.6528 5.67198 18.3344 5.84238 18.1152L5.88878 18.0624L6.63278 17.3184C6.85198 17.1 7.20638 17.1 7.42478 17.3184H7.42558ZM11.9232 7.58C12.2104 7.58 12.4472 7.796 12.4792 8.0744L12.4832 8.14L12.484 12.1104C12.6864 12.2736 12.816 12.5248 12.816 12.8056C12.816 13.2984 12.416 13.6984 11.9232 13.6984C11.4304 13.6984 11.0304 13.2984 11.0304 12.8056C11.0304 12.5248 11.16 12.2736 11.3624 12.1096V8.14C11.3624 7.8304 11.6136 7.58 11.9224 7.58H11.9232ZM5.03678 12.3456C5.34638 12.3456 5.59678 12.596 5.59678 12.9056C5.59678 13.1928 5.38078 13.4296 5.10238 13.4616L5.03678 13.4656H3.98478C3.67518 13.4656 3.42478 13.2152 3.42478 12.9056C3.42478 12.6184 3.64078 12.3816 3.91918 12.3496L3.98478 12.3456H5.03678ZM19.692 12.3456C20.0016 12.3456 20.252 12.596 20.252 12.9056C20.252 13.1928 20.036 13.4296 19.7576 13.4616L19.692 13.4656H18.6392C18.3296 13.4656 18.0792 13.2152 18.0792 12.9056C18.0792 12.6184 18.2952 12.3816 18.5736 12.3496L18.6392 12.3456H19.692ZM6.62798 6.9096L6.68078 6.956L7.42478 7.7C7.64398 7.9192 7.64398 8.2736 7.42478 8.492C7.22318 8.6944 6.90558 8.7096 6.68638 8.5392L6.63358 8.4928L5.88958 7.7488C5.67038 7.5296 5.67038 7.1752 5.88958 6.9568C6.09118 6.7544 6.40878 6.7392 6.62798 6.9096ZM17.788 6.9568C17.9896 7.1584 18.0056 7.476 17.8344 7.696L17.788 7.748L17.0432 8.492C16.824 8.7112 16.4696 8.7112 16.2512 8.492C16.0488 8.2904 16.0336 7.972 16.2048 7.7528L16.2512 7.7L16.996 6.956C17.2152 6.7376 17.5696 6.7376 17.788 6.956V6.9568ZM11.8384 4.492C12.1256 4.492 12.3616 4.708 12.3944 4.9864L12.3984 5.052V6.1048C12.3984 6.4144 12.1472 6.6648 11.8384 6.6648C11.5504 6.6648 11.3144 6.4488 11.2816 6.1704L11.2784 6.1048V5.052C11.2784 4.7424 11.5288 4.492 11.8384 4.492ZM18.5464 5.5632L18.5256 5.5808C18.7472 5.7832 18.96 5.996 19.1624 6.2176L19.136 6.248C19.3128 6.0712 19.3128 5.784 19.1368 5.608C18.976 5.4464 18.724 5.432 18.5464 5.5632ZM11.8384 1.92C11.388 1.92 11.0192 2.264 10.98 2.704L10.976 2.7824V3.024C11.26 3 11.5472 2.9872 11.8376 2.9872C12.1288 2.9872 12.416 3 12.7 3.024V2.7824C12.7 2.3056 12.3144 1.92 11.8384 1.92Z" fill="#4B555D"/>
</svg>
