<svg id="Calque_1" data-name="Calque 1" xmlns="http://www.w3.org/2000/svg" xmlns:xlink="http://www.w3.org/1999/xlink" viewBox="0 0 24 24"><defs><style>.cls-1{fill:none;}.cls-2{clip-path:url(#clip-path);}.cls-3{fill:#4b555d;}</style><clipPath id="clip-path"><rect class="cls-1" width="24" height="24"/></clipPath></defs><g class="cls-2"><path class="cls-3" d="M22.24.05a.73.73,0,0,0-.77.16L1.54,20.14a.69.69,0,0,0,0,1L4.2,23.79a.7.7,0,0,0,1,0h0l6.06-6.06,1.8.77a.7.7,0,0,0,.78-.14l2.61-2.61a21.26,21.26,0,0,0,4.61-6.9A21.31,21.31,0,0,0,22.67.7a.71.71,0,0,0-.43-.65ZM4.7,22.3,3,20.63,6.3,17.37,8,19,4.7,22.3ZM9,18,7.29,16.37l1.14-1.13,1.66,1.67L9,18ZM19.75,8.31a19.75,19.75,0,0,1-4.31,6.44L13.17,17l-1.7-.72L9.42,14.24,21.18,2.48A19.61,19.61,0,0,1,19.75,8.31Z"/></g></svg>