<svg width="29" height="27" viewBox="0 0 29 27" fill="none" xmlns="http://www.w3.org/2000/svg">
<path d="M14.6093 7.57257L11.4412 8.42147C11.3612 8.44291 11.2929 8.49527 11.2515 8.56701C11.2101 8.63876 11.1989 8.72402 11.2203 8.80405L13.1607 16.0455L16.9323 15.0349L14.9919 7.79345C14.9705 7.71343 14.9181 7.6452 14.8464 7.60378C14.7746 7.56235 14.6894 7.55113 14.6093 7.57257Z" fill="#FAC000" stroke="#252525" stroke-width="0.701444"/>
<path d="M7.07316 15.9562C6.80513 14.9559 6.94545 13.8901 7.46323 12.9933C7.98102 12.0964 8.83387 11.442 9.83416 11.174C10.8344 10.9059 11.9002 11.0463 12.7971 11.5641C13.6939 12.0818 14.3483 12.9347 14.6164 13.935L7.07316 15.9562Z" fill="#FF8C22" stroke="#252525" stroke-width="0.701444"/>
<path d="M20.8473 8.22311L13.9076 10.0826C13.8275 10.104 13.7593 10.1564 13.7179 10.2281C13.6765 10.2999 13.6652 10.3852 13.6867 10.4652L14.6164 13.935L22.1596 11.9139L21.2299 8.44399C21.2084 8.36396 21.1561 8.29573 21.0843 8.25431C21.0126 8.21289 20.9273 8.20166 20.8473 8.22311Z" fill="#5AA9DF" stroke="#252525" stroke-width="0.701444"/>
<path d="M23.7669 11.3545L5.40156 16.2755C5.23426 16.3203 5.15013 16.5489 5.21366 16.786L5.70979 18.6376C5.77332 18.8747 5.96045 19.0305 6.12775 18.9857L24.4931 14.0647C24.6604 14.0199 24.7445 13.7913 24.681 13.5543L24.1849 11.7027C24.1213 11.4656 23.9342 11.3097 23.7669 11.3545Z" fill="white" stroke="#252525" stroke-width="0.701444"/>
<path d="M23.7508 14.2317L6.854 18.7592L9.16342 24.5176C9.3341 24.9424 9.65434 25.29 10.0637 25.4949C10.4731 25.6997 10.9433 25.7477 11.3856 25.6297L23.2616 22.4475C23.7036 22.3286 24.0868 22.0519 24.3389 21.6698C24.591 21.2877 24.6945 20.8266 24.63 20.3734L23.7508 14.2317Z" fill="white" stroke="#252525" stroke-width="0.701444"/>
<path d="M19.7686 10.5333L21.6544 10.028" stroke="#252525" stroke-width="0.701444" stroke-linecap="round" stroke-linejoin="round"/>
<path d="M13.3644 7.25942L12.3627 7.52783" stroke="#252525" stroke-width="0.701444" stroke-linecap="round" stroke-linejoin="round"/>
<path d="M10.0838 19.3781C10.0169 19.396 9.95589 19.4332 9.90422 19.4873C9.85255 19.5415 9.81124 19.6117 9.78266 19.6939C9.75409 19.7761 9.7388 19.8687 9.73769 19.9663C9.73658 20.0639 9.74966 20.1646 9.77618 20.2628L10.465 22.8334C10.4911 22.9316 10.5301 23.0252 10.5798 23.1091C10.6296 23.1929 10.6891 23.2653 10.7549 23.322C10.8207 23.3787 10.8915 23.4186 10.9633 23.4394C11.0351 23.4602 11.1064 23.4616 11.1731 23.4434C11.2399 23.4258 11.301 23.389 11.3527 23.3351C11.4045 23.2811 11.4458 23.2111 11.4745 23.1291C11.5031 23.0471 11.5185 22.9547 11.5197 22.8573C11.5208 22.7598 11.5078 22.6591 11.4813 22.5611L10.7925 19.9904C10.7664 19.8922 10.7273 19.7984 10.6776 19.7144C10.6278 19.6305 10.5683 19.5579 10.5025 19.5011C10.4366 19.4442 10.3657 19.404 10.2939 19.3829C10.2221 19.3618 10.1506 19.3602 10.0838 19.3781Z" fill="#252525"/>
<path d="M15.8882 17.8228C15.8214 17.8407 15.7603 17.8779 15.7087 17.9321C15.657 17.9862 15.6157 18.0564 15.5871 18.1386C15.5585 18.2208 15.5432 18.3134 15.5421 18.411C15.541 18.5086 15.5541 18.6093 15.5806 18.7075L16.2694 21.2781C16.2955 21.3763 16.3345 21.4699 16.3843 21.5538C16.434 21.6376 16.4935 21.71 16.5593 21.7667C16.6252 21.8234 16.696 21.8633 16.7677 21.8841C16.8395 21.9049 16.9108 21.9063 16.9775 21.8881C17.0444 21.8705 17.1054 21.8337 17.1572 21.7798C17.2089 21.7258 17.2503 21.6558 17.2789 21.5738C17.3076 21.4919 17.3229 21.3994 17.3241 21.302C17.3253 21.2045 17.3122 21.1038 17.2857 21.0058L16.5969 18.4351C16.5708 18.3369 16.5318 18.2431 16.482 18.1591C16.4322 18.0752 16.3727 18.0026 16.3069 17.9458C16.2411 17.8889 16.1702 17.8487 16.0983 17.8276C16.0265 17.8065 15.9551 17.8049 15.8882 17.8228Z" fill="#252525"/>
<path d="M21.0148 16.449C20.9479 16.467 20.8869 16.5041 20.8352 16.5583C20.7836 16.6125 20.7423 16.6827 20.7137 16.7648C20.6851 16.847 20.6698 16.9396 20.6687 17.0372C20.6676 17.1348 20.6807 17.2356 20.7072 17.3337L21.396 19.9044C21.4221 20.0025 21.4611 20.0962 21.5109 20.18C21.5606 20.2638 21.6201 20.3362 21.6859 20.3929C21.7517 20.4496 21.8226 20.4895 21.8943 20.5103C21.9661 20.5312 22.0374 20.5325 22.1041 20.5143C22.171 20.4967 22.232 20.4599 22.2838 20.406C22.3355 20.352 22.3769 20.2821 22.4055 20.2001C22.4342 20.1181 22.4495 20.0257 22.4507 19.9282C22.4519 19.8307 22.4388 19.7301 22.4123 19.632L21.7235 17.0614C21.6974 16.9631 21.6584 16.8693 21.6086 16.7854C21.5588 16.7014 21.4993 16.6289 21.4335 16.572C21.3676 16.5151 21.2968 16.475 21.2249 16.4539C21.1531 16.4328 21.0817 16.4311 21.0148 16.449Z" fill="#252525"/>
<path d="M9.8344 11.1739C9.8344 11.1739 8.56806 11.6134 7.63458 11.0745C6.70109 10.5355 6.44919 9.20923 6.44919 9.20923C6.44919 9.20923 7.71472 8.76665 8.6482 9.3056C9.58169 9.84454 9.8344 11.1739 9.8344 11.1739Z" fill="#2A9928" stroke="#252525" stroke-width="0.701444"/>
<path d="M15.3582 14.0198L15.3591 14.0196C15.6069 13.9575 15.8205 13.8005 15.9539 13.5825L15.954 13.5826L15.9585 13.5749L19.8636 6.81092C19.9277 6.69994 19.9693 6.57743 19.986 6.45038C20.0027 6.32333 19.9943 6.19423 19.9611 6.07045C19.9279 5.94668 19.8707 5.83064 19.7927 5.72897L19.5145 5.94248L19.7927 5.72897C19.7147 5.62731 19.6174 5.542 19.5065 5.47793C19.3955 5.41386 19.273 5.37227 19.1459 5.35555C19.0189 5.33882 18.8898 5.34728 18.766 5.38045C18.6422 5.41362 18.5262 5.47084 18.4245 5.54885L18.6374 5.8263L18.4245 5.54885C18.3228 5.62686 18.2375 5.72413 18.1735 5.8351L18.1734 5.83519L14.2713 12.5983L14.2712 12.5983L14.2673 12.6055C14.1765 12.7717 14.136 12.9608 14.1509 13.1496C14.1657 13.3384 14.2353 13.5189 14.351 13.6688L14.6256 13.457L14.351 13.6688C14.4666 13.8188 14.6235 13.9319 14.8024 13.9942L14.9165 13.6665L14.8024 13.9942C14.9812 14.0565 15.1744 14.0654 15.3582 14.0198Z" fill="white" stroke="#252525" stroke-width="0.701444"/>
<path d="M8.89922 13.3963C8.56377 13.9231 8.4549 14.4551 8.58478 14.933" stroke="#252525" stroke-width="0.701444" stroke-linecap="round" stroke-linejoin="round"/>
</svg>
