<svg width="30" height="30" viewBox="0 0 30 30" fill="none" xmlns="http://www.w3.org/2000/svg">
<path d="M29.9999 21.1857C29.9999 19.4302 29.4742 17.7352 28.4796 16.2838C27.7641 15.2398 26.8428 14.3729 25.7752 13.7286C27.0322 12.5382 27.8186 10.8557 27.8186 8.99194C27.8186 5.39306 24.8907 2.46509 21.2919 2.46509C19.1579 2.46509 17.1589 3.52049 15.9446 5.253C15.6361 5.20806 15.3208 5.18382 15 5.18382C14.6791 5.18382 14.3639 5.20814 14.0554 5.253C12.8411 3.52049 10.8421 2.46509 8.70813 2.46509C5.10925 2.46509 2.18128 5.39306 2.18128 8.99194C2.18128 10.8557 2.96776 12.5382 4.22484 13.7286C3.15711 14.3728 2.23581 15.2398 1.52045 16.2837C0.525769 17.7352 0 19.4302 0 21.1857V24.8161H6.29191V27.5347H23.7082V24.8161H30L29.9999 21.1857ZM21.2919 4.07598C24.0025 4.07598 26.2078 6.28126 26.2078 8.99202C26.2078 11.7028 24.0025 13.9081 21.2919 13.9081C21.2433 13.9081 21.1947 13.9073 21.1461 13.9059C21.1498 13.8956 21.1529 13.885 21.1565 13.8747C21.2404 13.6368 21.3104 13.3924 21.3665 13.1428C21.3705 13.1251 21.375 13.1076 21.3788 13.0898C21.3934 13.0224 21.4062 12.9545 21.4186 12.8863C21.4245 12.8541 21.4306 12.822 21.436 12.7897C21.4461 12.7289 21.4553 12.6678 21.4637 12.6065C21.4696 12.5639 21.4749 12.5213 21.48 12.4786C21.4864 12.4245 21.4926 12.3703 21.4977 12.3158C21.5028 12.2601 21.5067 12.2044 21.5104 12.1486C21.5133 12.1046 21.5169 12.0608 21.5189 12.0166C21.5233 11.9218 21.5258 11.8268 21.5262 11.7318C21.5262 11.7248 21.5267 11.7179 21.5267 11.7108C21.5267 11.707 21.5264 11.7033 21.5264 11.6995C21.5262 11.6024 21.5234 11.5059 21.5191 11.4098C21.5178 11.3818 21.5161 11.354 21.5145 11.3261C21.5097 11.2443 21.5035 11.163 21.4959 11.082C21.4941 11.0637 21.4927 11.0453 21.4908 11.027C21.2474 8.67453 19.7612 6.66093 17.6172 5.72956C18.5411 4.69163 19.8774 4.07598 21.2919 4.07598ZM13.299 7.09802C13.3147 7.09231 13.3306 7.08691 13.3463 7.08127C13.3952 7.06379 13.4445 7.0472 13.494 7.03118C13.5315 7.01918 13.5693 7.00758 13.6073 6.99646C13.635 6.98833 13.6627 6.98052 13.6904 6.97278C13.7401 6.95917 13.7899 6.94588 13.8403 6.93372C14.2124 6.84336 14.6004 6.79431 14.9998 6.79431C15.3995 6.79463 15.7877 6.84376 16.1599 6.93412C16.2099 6.94621 16.2595 6.95941 16.3088 6.97295C16.337 6.98076 16.3652 6.98865 16.3932 6.99695C16.4307 7.00798 16.4681 7.01942 16.5052 7.03126C16.5554 7.04745 16.6052 7.0642 16.6547 7.08192C16.6699 7.08731 16.6851 7.09247 16.7003 7.09802C18.3443 7.70603 19.577 9.16921 19.856 10.9449C19.8582 10.9591 19.8603 10.9733 19.8624 10.9876C19.8713 11.0477 19.8788 11.1084 19.8855 11.1692C19.8879 11.1916 19.8905 11.2139 19.8926 11.2364C19.898 11.2919 19.9019 11.3477 19.9054 11.4038C19.9069 11.4278 19.9089 11.4517 19.91 11.4758C19.9134 11.5474 19.9153 11.6194 19.9155 11.6918C19.9155 11.6981 19.9159 11.7042 19.9159 11.7105C19.9159 11.7134 19.9158 11.7164 19.9158 11.7193C19.9156 11.7894 19.9135 11.8589 19.9104 11.9283C19.9095 11.9501 19.9085 11.9719 19.9072 11.9937C19.9034 12.0607 19.8984 12.1274 19.892 12.1936C19.8895 12.2192 19.8861 12.2447 19.8832 12.2703C19.8783 12.3131 19.8728 12.3559 19.8669 12.3984C19.8622 12.4315 19.8575 12.4647 19.8522 12.4976C19.8441 12.5478 19.8351 12.5977 19.8254 12.6474C19.8168 12.6916 19.8073 12.7356 19.7975 12.7796C19.7916 12.8061 19.7855 12.8326 19.7792 12.8589C19.7635 12.9243 19.7462 12.9892 19.7279 13.0538C19.7205 13.0795 19.7137 13.1054 19.7059 13.1308C19.6948 13.1679 19.6827 13.2046 19.6707 13.2413C19.661 13.2707 19.6511 13.3 19.6409 13.3291C19.6293 13.3622 19.6178 13.3954 19.6056 13.4283C19.5847 13.4841 19.5628 13.5394 19.54 13.5943C19.5299 13.6188 19.5191 13.643 19.5085 13.6674C19.4886 13.7131 19.4682 13.7585 19.4469 13.8034C19.4444 13.8087 19.4419 13.8141 19.4394 13.8194C19.4318 13.8353 19.4242 13.8514 19.4164 13.8673C19.3926 13.9159 19.3678 13.964 19.3423 14.0117C19.3324 14.0302 19.3228 14.049 19.3127 14.0674L19.3107 14.0709C19.2829 14.1216 19.2538 14.1716 19.2242 14.2212C19.2125 14.2408 19.2009 14.2606 19.1889 14.28C19.1567 14.3323 19.1236 14.384 19.0895 14.4349C19.0683 14.4665 19.0462 14.4975 19.0243 14.5287C19.0056 14.5551 18.9871 14.5816 18.968 14.6076C18.9433 14.6413 18.9181 14.6746 18.8925 14.7077C18.8751 14.7301 18.8575 14.7524 18.8398 14.7747C18.8128 14.8085 18.7854 14.8422 18.7576 14.8753C18.7403 14.8958 18.7225 14.9159 18.7048 14.9362C18.6758 14.9694 18.6469 15.0028 18.6171 15.0352C18.5994 15.0545 18.581 15.073 18.563 15.092C18.5145 15.1431 18.4649 15.1932 18.4143 15.2422C18.3843 15.2713 18.3544 15.3004 18.3236 15.3287C18.3024 15.3483 18.2805 15.3673 18.2589 15.3865C18.2236 15.4179 18.1881 15.4489 18.1519 15.4792C18.1336 15.4945 18.115 15.5098 18.0964 15.5249C18.0527 15.5605 18.0084 15.5954 17.9634 15.6295C17.9511 15.6388 17.939 15.6482 17.9267 15.6574C17.1084 16.2657 16.0956 16.6263 14.9999 16.6263C13.9041 16.6263 12.8911 16.2656 12.0728 15.6572C12.0607 15.6481 12.0489 15.6389 12.0369 15.6298C11.9917 15.5955 11.9472 15.5604 11.9033 15.5247C11.8848 15.5096 11.8664 15.4945 11.8482 15.4792C11.8118 15.4488 11.7762 15.4176 11.7408 15.3862C11.7193 15.367 11.6976 15.3482 11.6764 15.3287C11.6455 15.3004 11.6156 15.2711 11.5854 15.242C11.5346 15.1928 11.4849 15.1427 11.4363 15.0914C11.4185 15.0726 11.4003 15.0543 11.3828 15.0353C11.3529 15.0028 11.324 14.9693 11.295 14.9361C11.2774 14.9159 11.2597 14.8958 11.2423 14.8753C11.2144 14.8422 11.1872 14.8085 11.1601 14.7748C11.1424 14.7525 11.1247 14.7302 11.1074 14.7077C11.0818 14.6746 11.0566 14.6414 11.0319 14.6077C11.0128 14.5816 10.9942 14.555 10.9756 14.5285C10.9537 14.4975 10.9316 14.4665 10.9105 14.435C10.8763 14.3838 10.843 14.3319 10.8107 14.2795C10.7989 14.2603 10.7874 14.2408 10.7758 14.2214C10.7458 14.1711 10.7164 14.1205 10.6881 14.0691C10.6777 14.0501 10.6679 14.0309 10.6577 14.0119C10.6322 13.964 10.6074 13.9158 10.5834 13.8671C10.5749 13.8497 10.5666 13.8323 10.5583 13.8149C10.557 13.8122 10.5558 13.8096 10.5546 13.8069C10.5323 13.7599 10.5109 13.7123 10.4901 13.6644C10.4802 13.6416 10.4701 13.6189 10.4606 13.596C10.4373 13.54 10.4149 13.4834 10.3936 13.4264C10.3821 13.3957 10.3715 13.3646 10.3606 13.3336C10.3494 13.3017 10.3386 13.2697 10.328 13.2376C10.3167 13.2028 10.3052 13.168 10.2946 13.133C10.2788 13.0807 10.2638 13.0281 10.2497 12.9752C10.2398 12.9381 10.2308 12.9007 10.2217 12.8633C10.2146 12.8339 10.2078 12.8045 10.2013 12.7749C10.1932 12.7387 10.1851 12.7025 10.1778 12.6661C10.1666 12.6094 10.1564 12.5524 10.1472 12.4951C10.1422 12.4641 10.1379 12.4331 10.1335 12.4022C10.1269 12.3564 10.1211 12.3103 10.1158 12.2641C10.1132 12.2413 10.1103 12.2185 10.1079 12.1957C10.1012 12.1278 10.0962 12.0594 10.0923 11.9908C10.0912 11.9711 10.0903 11.9513 10.0894 11.9316C10.0861 11.8582 10.0838 11.7846 10.0838 11.7105C10.0838 11.6311 10.086 11.5522 10.0898 11.4737C10.0908 11.4524 10.0926 11.4312 10.0938 11.4099C10.0974 11.351 10.1016 11.2922 10.1073 11.2337C10.1092 11.2133 10.1115 11.193 10.1137 11.1727C10.1207 11.1094 10.1285 11.0464 10.1378 10.9839C10.1396 10.9717 10.1413 10.9595 10.1433 10.9473C10.4214 9.17058 11.6543 7.70643 13.299 7.09802ZM3.79209 8.99202C3.79209 6.28134 5.99737 4.07598 8.70813 4.07598C10.1227 4.07598 11.4589 4.69171 12.3828 5.7294C10.2381 6.66109 8.75154 8.67565 8.50887 11.0291C8.50718 11.0451 8.50597 11.0611 8.50444 11.0771C8.49639 11.161 8.49002 11.2451 8.48519 11.3298C8.48374 11.3556 8.48213 11.3813 8.48092 11.4071C8.47633 11.5079 8.47319 11.6089 8.47319 11.7107C8.47319 11.8135 8.47617 11.916 8.481 12.0185C8.48294 12.0597 8.48632 12.1006 8.48898 12.1416C8.49292 12.2005 8.49695 12.2595 8.50243 12.3183C8.50726 12.3705 8.51322 12.4225 8.51934 12.4744C8.52466 12.5197 8.5303 12.5648 8.53658 12.6099C8.54479 12.6691 8.55365 12.7281 8.5634 12.7868C8.56928 12.8216 8.57572 12.8564 8.58208 12.8912C8.59416 12.9569 8.60649 13.0225 8.6205 13.0875C8.62517 13.1089 8.63049 13.1302 8.63532 13.1515C8.69001 13.3934 8.7579 13.6302 8.83877 13.8611C8.84392 13.876 8.84843 13.8911 8.85367 13.9059C8.8051 13.9073 8.75645 13.9081 8.70797 13.9081C5.99738 13.908 3.79209 11.7027 3.79209 8.99202ZM7.64234 19.261C7.62462 19.289 7.6077 19.3174 7.59031 19.3455C7.5535 19.405 7.51701 19.4645 7.48174 19.5247C7.462 19.5583 7.443 19.5921 7.42383 19.626C7.3921 19.6818 7.36077 19.7377 7.33032 19.7942C7.31115 19.8297 7.29231 19.8654 7.27362 19.9011C7.2443 19.9572 7.21571 20.0137 7.18768 20.0703C7.17005 20.1059 7.15249 20.1414 7.13541 20.1772C7.1069 20.2369 7.07944 20.297 7.05229 20.3573C7.03756 20.39 7.02241 20.4226 7.00816 20.4555C6.97675 20.5277 6.94679 20.6004 6.91739 20.6734C6.90877 20.6947 6.89959 20.7158 6.89121 20.7372C6.85392 20.832 6.81824 20.9274 6.78442 21.0233C6.77669 21.0453 6.76976 21.0676 6.76211 21.0895C6.73666 21.1635 6.71185 21.2377 6.68841 21.3122C6.6777 21.3464 6.66779 21.3808 6.65749 21.4151C6.63856 21.4782 6.61995 21.5415 6.60248 21.6051C6.59209 21.6429 6.58218 21.6809 6.57227 21.7189C6.55633 21.7799 6.54102 21.8411 6.52653 21.9026C6.51726 21.9415 6.50824 21.9804 6.49963 22.0194C6.48577 22.0816 6.47281 22.1441 6.46032 22.2067C6.45283 22.2443 6.4451 22.2819 6.43809 22.3197C6.42545 22.3879 6.41409 22.4563 6.40306 22.5249C6.3979 22.5571 6.39218 22.5891 6.38735 22.6213C6.37237 22.722 6.35876 22.8229 6.34732 22.9243L6.347 22.928C6.33661 23.0202 6.32767 23.1126 6.32018 23.2053H1.61081V21.1857C1.61081 18.4265 3.19698 15.9495 5.68198 14.7722C6.58725 15.248 7.61632 15.5189 8.70805 15.5189C9.02377 15.5189 9.34045 15.4955 9.65472 15.4493C9.70369 15.5191 9.75346 15.5882 9.80501 15.656C9.82241 15.6788 9.84045 15.701 9.85817 15.7236C9.90907 15.7887 9.9607 15.853 10.014 15.9161C10.0358 15.9419 10.0582 15.9672 10.0805 15.9928C10.1304 16.0501 10.1811 16.1067 10.233 16.1622C10.2602 16.1915 10.2879 16.2202 10.3156 16.249C10.3631 16.2979 10.4112 16.346 10.46 16.3935C10.4784 16.4113 10.4957 16.4301 10.5143 16.4477C10.4443 16.49 10.3749 16.5334 10.3062 16.5776C10.295 16.5847 10.2841 16.5923 10.273 16.5996C10.2043 16.6442 10.1363 16.6898 10.0689 16.7362C10.0457 16.7523 10.0225 16.7686 9.99928 16.7849C9.93927 16.8272 9.87991 16.8702 9.82104 16.9139C9.80243 16.9278 9.78359 16.9413 9.76514 16.9553C9.69024 17.0119 9.61622 17.0696 9.54317 17.1286C9.52723 17.1414 9.5116 17.1547 9.49566 17.1678C9.4375 17.2154 9.37992 17.2638 9.32306 17.3129C9.30099 17.3319 9.27908 17.3511 9.25717 17.3703C9.20023 17.4205 9.14402 17.4714 9.08836 17.523C9.07386 17.5365 9.05904 17.5497 9.04463 17.5633C8.97633 17.6276 8.90908 17.6931 8.84279 17.7597C8.82556 17.777 8.80872 17.7946 8.79165 17.812C8.74091 17.8638 8.69073 17.9162 8.6412 17.9692C8.62155 17.9903 8.6019 18.0114 8.58241 18.0328C8.52667 18.0937 8.47174 18.1554 8.4177 18.2179C8.40924 18.2278 8.40046 18.2373 8.39201 18.2472C8.33039 18.3191 8.27015 18.3924 8.21071 18.4664C8.19412 18.487 8.17793 18.508 8.16158 18.5288C8.11688 18.5856 8.07283 18.643 8.02949 18.7009C8.01274 18.7233 7.99591 18.7455 7.9794 18.768C7.9227 18.8454 7.86672 18.9233 7.81236 19.0026C7.75397 19.0879 7.69743 19.1741 7.64234 19.261ZM7.90272 25.924V24.8162V23.9044C7.90272 23.815 7.90441 23.726 7.90772 23.6371C7.90876 23.6079 7.9111 23.5789 7.91255 23.5497C7.91545 23.4905 7.91819 23.4311 7.92254 23.3721C7.92519 23.3362 7.92922 23.3007 7.93244 23.2649C7.93711 23.2129 7.9413 23.1608 7.9471 23.1091C7.95137 23.0712 7.95693 23.0336 7.96176 22.9959C7.96804 22.9466 7.97392 22.8974 7.98117 22.8484C7.98705 22.8094 7.99414 22.7707 8.00058 22.7319C8.00847 22.6847 8.0158 22.6374 8.02466 22.5904C8.03215 22.5507 8.04085 22.5114 8.04898 22.4719C8.05833 22.4263 8.06727 22.3805 8.0775 22.3353C8.08652 22.2953 8.09683 22.2558 8.10649 22.216C8.11736 22.1717 8.12775 22.1271 8.13943 22.0831C8.15006 22.0431 8.16182 22.0034 8.1731 21.9637C8.18534 21.9205 8.19726 21.8771 8.21031 21.8342C8.22247 21.7943 8.23584 21.7546 8.24864 21.7149C8.26234 21.6728 8.27563 21.6306 8.29004 21.5888C8.30373 21.5493 8.31847 21.51 8.33281 21.4708C8.34795 21.4294 8.36277 21.3879 8.37864 21.3468C8.39378 21.3077 8.40989 21.2691 8.42559 21.2303C8.4421 21.1898 8.45837 21.1491 8.47561 21.1089C8.49228 21.0701 8.50984 21.0318 8.52715 20.9935C8.54495 20.9539 8.56259 20.9142 8.58112 20.8751C8.59924 20.8368 8.61825 20.799 8.63701 20.7611C8.65618 20.7224 8.67511 20.6837 8.69492 20.6454C8.71449 20.6077 8.73487 20.5705 8.75508 20.5332C8.77554 20.4955 8.79576 20.4577 8.81686 20.4203C8.8378 20.3833 8.85954 20.3468 8.88105 20.3101C8.9028 20.2733 8.92438 20.2363 8.94685 20.1997C8.96916 20.1634 8.9922 20.1276 9.01515 20.0917C9.03818 20.0557 9.06106 20.0197 9.08474 19.9841C9.10842 19.9485 9.13274 19.9134 9.15706 19.8783C9.18131 19.8433 9.20547 19.8082 9.23027 19.7736C9.25524 19.7388 9.28093 19.7045 9.30663 19.6701C9.33208 19.636 9.35745 19.602 9.38346 19.5684C9.40972 19.5345 9.43662 19.501 9.46352 19.4675C9.49018 19.4343 9.51692 19.4012 9.54414 19.3685C9.57161 19.3357 9.59963 19.3032 9.62766 19.2709C9.65561 19.2386 9.68364 19.2063 9.71223 19.1744C9.74082 19.1425 9.77006 19.1111 9.79921 19.0796C9.82837 19.0483 9.85752 19.0171 9.88724 18.9864C9.91704 18.9555 9.94741 18.925 9.97785 18.8946C10.0082 18.8643 10.0387 18.8341 10.0697 18.8042C10.1005 18.7745 10.1318 18.7452 10.1633 18.7159C10.1949 18.6866 10.2266 18.6574 10.2588 18.6285C10.2908 18.5999 10.3232 18.5716 10.3558 18.5435C10.3885 18.5152 10.4215 18.4871 10.4547 18.4594C10.4878 18.4319 10.5213 18.4047 10.5549 18.3777C10.5888 18.3505 10.623 18.3235 10.6575 18.2969C10.6915 18.2706 10.7259 18.2447 10.7605 18.2189C10.7956 18.1927 10.8309 18.1669 10.8667 18.1413C10.9017 18.1163 10.9369 18.0917 10.9724 18.0672C11.0089 18.0421 11.0454 18.0174 11.0823 17.993C11.1181 17.9693 11.1543 17.9459 11.1906 17.9228C11.2282 17.8988 11.2661 17.8752 11.3042 17.852C11.3409 17.8297 11.3779 17.8075 11.4151 17.7858C11.4538 17.7631 11.4927 17.7408 11.532 17.7188C11.5696 17.6977 11.6074 17.6769 11.6455 17.6564C11.6854 17.635 11.7256 17.614 11.766 17.5932C11.8044 17.5735 11.8428 17.554 11.8817 17.535C11.9122 17.52 11.943 17.5055 11.9739 17.4909C12.8791 17.9667 13.9083 18.2375 15 18.2375C16.0917 18.2375 17.1208 17.9667 18.026 17.4909C18.0566 17.5054 18.0872 17.5198 18.1175 17.5346C18.1568 17.554 18.1957 17.5736 18.2346 17.5935C18.2745 17.614 18.3143 17.6348 18.3538 17.656C18.3922 17.6767 18.4305 17.6978 18.4685 17.7192C18.5073 17.7409 18.5458 17.7629 18.5839 17.7853C18.6217 17.8073 18.6592 17.8298 18.6964 17.8525C18.734 17.8755 18.7713 17.8987 18.8083 17.9223C18.8452 17.9457 18.8818 17.9694 18.9181 17.9935C18.9546 18.0176 18.9907 18.042 19.0267 18.0668C19.0625 18.0915 19.0982 18.1164 19.1335 18.1417C19.1689 18.167 19.2039 18.1926 19.2387 18.2185C19.2736 18.2444 19.3083 18.2706 19.3427 18.2972C19.3769 18.3236 19.4107 18.3504 19.4444 18.3773C19.4782 18.4045 19.5118 18.4318 19.5452 18.4595C19.5783 18.487 19.611 18.515 19.6435 18.5431C19.6763 18.5714 19.7089 18.5998 19.7411 18.6287C19.773 18.6573 19.8045 18.6863 19.8359 18.7154C19.8676 18.7448 19.8992 18.7745 19.9304 18.8045C19.9611 18.8341 19.9913 18.864 20.0213 18.8941C20.0519 18.9247 20.0826 18.9554 20.1126 18.9865C20.1421 19.0171 20.1711 19.048 20.2001 19.0791C20.2295 19.1107 20.2589 19.1425 20.2878 19.1746C20.3161 19.2062 20.3439 19.2381 20.3716 19.2702C20.3999 19.3028 20.4282 19.3355 20.4558 19.3687C20.4829 19.4012 20.5094 19.4341 20.5359 19.467C20.563 19.5007 20.59 19.5343 20.6165 19.5684C20.6424 19.6019 20.6676 19.6358 20.6929 19.6697C20.7187 19.7042 20.7444 19.7387 20.7696 19.7737C20.7943 19.8081 20.8184 19.843 20.8425 19.8779C20.8669 19.9132 20.8913 19.9484 20.9151 19.9842C20.9386 20.0196 20.9613 20.0553 20.9842 20.0911C21.0073 20.1272 21.0305 20.1633 21.053 20.1999C21.0752 20.236 21.0966 20.2728 21.1182 20.3093C21.14 20.3462 21.1619 20.383 21.1829 20.4203C21.2039 20.4575 21.2241 20.4952 21.2444 20.5328C21.2647 20.5702 21.2852 20.6076 21.3048 20.6454C21.3246 20.6835 21.3434 20.7223 21.3626 20.7609C21.3814 20.7988 21.4004 20.8366 21.4186 20.875C21.4371 20.9141 21.4546 20.9537 21.4724 20.9931C21.4898 21.0317 21.5074 21.07 21.5241 21.1089C21.5412 21.1488 21.5573 21.1892 21.5737 21.2294C21.5896 21.2686 21.6059 21.3076 21.6211 21.347C21.6369 21.3879 21.6516 21.4292 21.6667 21.4704C21.6811 21.5098 21.6959 21.549 21.7096 21.5887C21.7241 21.6307 21.7374 21.6731 21.7511 21.7154C21.7639 21.755 21.7772 21.7943 21.7893 21.8342C21.8024 21.8771 21.8143 21.9206 21.8266 21.9638C21.8379 22.0035 21.8496 22.0431 21.8602 22.0831C21.8719 22.1271 21.8823 22.1716 21.8932 22.216C21.9029 22.2557 21.9132 22.2953 21.9222 22.3353C21.9324 22.3805 21.9413 22.4262 21.9507 22.4717C21.9588 22.5112 21.9675 22.5506 21.975 22.5904C21.9838 22.637 21.991 22.6839 21.9989 22.7308C22.0055 22.77 22.0127 22.809 22.0186 22.8485C22.0258 22.897 22.0316 22.946 22.0379 22.9948C22.0428 23.0329 22.0485 23.0708 22.0527 23.109C22.0585 23.1607 22.0627 23.2128 22.0674 23.2649C22.0706 23.3006 22.0746 23.3361 22.0773 23.372C22.0817 23.431 22.0844 23.4905 22.0873 23.5498C22.0887 23.5789 22.0911 23.6079 22.0921 23.637C22.0954 23.7259 22.0971 23.815 22.0971 23.9044V24.816V25.924H7.90272ZM23.6801 23.2053C23.6644 23.0091 23.6416 22.8141 23.6128 22.6203C23.6082 22.5896 23.6027 22.5592 23.5978 22.5286C23.5866 22.4584 23.575 22.3884 23.562 22.3187C23.5551 22.2819 23.5477 22.2454 23.5403 22.2087C23.5277 22.145 23.5145 22.0815 23.5004 22.0182C23.4918 21.98 23.483 21.9418 23.474 21.9038C23.4592 21.8416 23.4438 21.7797 23.4276 21.7179C23.4179 21.6805 23.4082 21.6431 23.3978 21.6057C23.3802 21.5415 23.3614 21.4775 23.3422 21.4136C23.332 21.38 23.3224 21.3462 23.3118 21.3126C23.2881 21.237 23.2629 21.1618 23.2371 21.0867C23.2298 21.0658 23.2232 21.0446 23.2158 21.0237C23.1818 20.9274 23.1462 20.8317 23.1087 20.7366C23.1007 20.7162 23.0919 20.6961 23.0837 20.6757C23.0539 20.6019 23.0235 20.5282 22.9917 20.455C22.9776 20.4226 22.9627 20.3905 22.9482 20.3582C22.9208 20.2973 22.8931 20.2367 22.8643 20.1764C22.8474 20.1412 22.83 20.1061 22.8127 20.0711C22.7844 20.0139 22.7555 19.957 22.726 19.9004C22.7075 19.8649 22.6888 19.8296 22.6698 19.7944C22.6392 19.7378 22.6078 19.6816 22.5759 19.6256C22.5568 19.5919 22.5378 19.5582 22.5183 19.5248C22.4828 19.4643 22.4462 19.4045 22.4091 19.3447C22.3919 19.3168 22.3751 19.2887 22.3576 19.2611C22.3024 19.1742 22.2459 19.0879 22.1874 19.0026C22.133 18.9232 22.077 18.8453 22.0203 18.768C22.0039 18.7456 21.9871 18.7234 21.9705 18.7012C21.9269 18.643 21.8827 18.5854 21.8379 18.5284C21.8217 18.5079 21.8056 18.4871 21.7892 18.4667C21.7297 18.3925 21.6692 18.319 21.6074 18.2469C21.5994 18.2376 21.5911 18.2285 21.583 18.2192C21.5286 18.1561 21.4732 18.0939 21.417 18.0325C21.3977 18.0114 21.3783 17.9906 21.3588 17.9696C21.309 17.9162 21.2585 17.8635 21.2075 17.8115C21.1906 17.7943 21.1741 17.777 21.1571 17.76C21.0907 17.6933 21.0232 17.6276 20.9547 17.5631C20.9406 17.5499 20.9261 17.537 20.912 17.5238C20.856 17.4718 20.7994 17.4207 20.7423 17.3703C20.7205 17.3511 20.6986 17.3321 20.6767 17.3131C20.6197 17.2639 20.5621 17.2155 20.5039 17.1678C20.488 17.1548 20.4725 17.1415 20.4565 17.1286C20.3835 17.0697 20.3095 17.012 20.2347 16.9555C20.216 16.9414 20.197 16.9277 20.1782 16.9137C20.1196 16.8703 20.0606 16.8274 20.0008 16.7854C19.9774 16.7689 19.9539 16.7524 19.9304 16.7362C19.8637 16.6902 19.7965 16.6451 19.7285 16.6009C19.7166 16.5932 19.7049 16.5851 19.693 16.5775C19.6244 16.5334 19.5553 16.4902 19.4853 16.448C19.5034 16.4308 19.5203 16.4125 19.5381 16.3951C19.588 16.3468 19.6371 16.2977 19.6854 16.2478C19.7124 16.2199 19.7392 16.1919 19.7656 16.1636C19.8184 16.1072 19.8698 16.0497 19.9205 15.9915C19.9421 15.9668 19.9638 15.9422 19.9849 15.9171C20.039 15.8531 20.0915 15.7878 20.1431 15.7217C20.16 15.7001 20.1773 15.6788 20.1939 15.657C20.2457 15.5889 20.2957 15.5195 20.345 15.4494C20.6592 15.4956 20.9759 15.5189 21.2916 15.5189C22.3834 15.5189 23.4125 15.2482 24.3177 14.7723C26.8028 15.9496 28.3889 18.4266 28.3889 21.1858V23.2053H23.6801Z" fill="#4B555D"/>
</svg>
