<svg width="88" height="24" viewBox="0 0 88 24" fill="none" xmlns="http://www.w3.org/2000/svg">
<g clip-path="url(#clip0_50_119734)">
<path d="M5.3211 0C6.65738 0 7.91824 0.557143 8.95538 1.59429C8.99138 1.63029 9.02224 1.66714 9.05652 1.71343C9.74738 2.68114 10.3508 3.53057 11.0545 4.53257L16.4322 12.2186C16.488 12.3009 16.5265 12.3891 16.5522 12.4834L16.5677 12.5571L23.3545 19.3431C24.1851 20.1737 24.2134 21.5066 23.4402 22.3714L23.3545 22.4623L22.4605 23.3554C22.0448 23.7703 21.4902 24 20.9014 24C20.3134 24 19.758 23.7703 19.3431 23.3546L12.5562 16.5694L12.4834 16.5531C12.42 16.536 12.3582 16.5129 12.2991 16.4811L12.2117 16.428L7.13652 12.8794C5.75224 11.9143 4.70395 11.1771 3.73538 10.494L1.7151 9.05829C1.6671 9.02486 1.62338 8.98714 1.59424 8.95629L1.45795 8.81571C0.437095 7.73143 -0.0694764 6.42686 0.00766647 5.052C0.0779522 3.78857 0.656524 2.53371 1.5951 1.59429C2.60652 0.582857 3.96252 0 5.3211 0ZM21.8605 19.5471L19.5094 21.8246L20.1917 22.506C20.3545 22.6689 20.5611 22.7683 20.7874 22.7931L20.9014 22.8C21.1722 22.8 21.4225 22.6963 21.6128 22.506L22.506 21.6137C22.8977 21.222 22.8977 20.5834 22.506 20.1917L21.8605 19.5471V19.5471ZM15.5477 13.2334L13.206 15.522L18.6608 20.976L21.012 18.6986L15.5477 13.2334ZM2.05881 2.88257C1.5531 3.54514 1.24881 4.33629 1.2051 5.11886C1.14424 6.20229 1.5651 7.22914 2.4531 8.11714L2.43081 8.09486L3.61795 8.93914C4.07567 9.26486 4.53509 9.58971 5.02624 9.93514L5.39995 10.1983L12.1225 14.9014L13.0757 13.9697L2.05881 2.88257ZM5.3211 1.2C4.47938 1.2 3.62567 1.49914 2.91081 2.03657L13.9337 13.1314L14.928 12.1603L12.5022 8.69143C11.4514 7.18714 10.6748 6.07714 9.98995 5.10429L9.84424 4.89771L8.09224 2.42914L7.96967 2.31C7.22738 1.62171 6.37881 1.24543 5.48824 1.20429L5.3211 1.2Z" fill="#4B555D"/>
</g>
<g opacity="0.5" clip-path="url(#clip1_50_119734)">
<path d="M37.3206 0C38.6569 0 39.9178 0.557143 40.9549 1.59429C40.9909 1.63029 41.0218 1.66714 41.056 1.71343C41.7469 2.68114 42.3503 3.53057 43.054 4.53257L48.4317 12.2186C48.4875 12.3009 48.526 12.3891 48.5517 12.4834L48.5672 12.5571L55.354 19.3431C56.1846 20.1737 56.2129 21.5066 55.4397 22.3714L55.354 22.4623L54.46 23.3554C54.0443 23.7703 53.4897 24 52.9009 24C52.3129 24 51.7575 23.7703 51.3426 23.3546L44.5557 16.5694L44.4829 16.5531C44.4195 16.536 44.3578 16.5129 44.2986 16.4811L44.2112 16.428L39.136 12.8794C37.7517 11.9143 36.7035 11.1771 35.7349 10.494L33.7146 9.05829C33.6666 9.02486 33.6229 8.98714 33.5937 8.95629L33.4575 8.81571C32.4366 7.73143 31.93 6.42686 32.0072 5.052C32.0775 3.78857 32.656 2.53371 33.5946 1.59429C34.606 0.582857 35.962 0 37.3206 0ZM53.86 19.5471L51.5089 21.8246L52.1912 22.506C52.354 22.6689 52.5606 22.7683 52.7869 22.7931L52.9009 22.8C53.1717 22.8 53.422 22.6963 53.6123 22.506L54.5055 21.6137C54.8972 21.222 54.8972 20.5834 54.5055 20.1917L53.86 19.5471V19.5471ZM47.5472 13.2334L45.2055 15.522L50.6603 20.976L53.0115 18.6986L47.5472 13.2334ZM34.0583 2.88257C33.5526 3.54514 33.2483 4.33629 33.2046 5.11886C33.1437 6.20229 33.5646 7.22914 34.4526 8.11714L34.4303 8.09486L35.6175 8.93914C36.0752 9.26486 36.5346 9.58971 37.0257 9.93514L37.3995 10.1983L44.122 14.9014L45.0752 13.9697L34.0583 2.88257ZM37.3206 1.2C36.4789 1.2 35.6252 1.49914 34.9103 2.03657L45.9332 13.1314L46.9275 12.1603L44.5017 8.69143C43.4509 7.18714 42.6743 6.07714 41.9895 5.10429L41.8437 4.89771L40.0918 2.42914L39.9692 2.31C39.2269 1.62171 38.3783 1.24543 37.4877 1.20429L37.3206 1.2Z" fill="#4B555D"/>
</g>
<g opacity="0.5" clip-path="url(#clip2_50_119734)">
<path d="M69.3202 0C70.6565 0 71.9173 0.557143 72.9545 1.59429C72.9905 1.63029 73.0213 1.66714 73.0556 1.71343C73.7465 2.68114 74.3499 3.53057 75.0536 4.53257L80.4313 12.2186C80.487 12.3009 80.5256 12.3891 80.5513 12.4834L80.5668 12.5571L87.3536 19.3431C88.1842 20.1737 88.2125 21.5066 87.4393 22.3714L87.3536 22.4623L86.4596 23.3554C86.0439 23.7703 85.4893 24 84.9005 24C84.3125 24 83.757 23.7703 83.3422 23.3546L76.5553 16.5694L76.4825 16.5531C76.419 16.536 76.3573 16.5129 76.2982 16.4811L76.2108 16.428L71.1356 12.8794C69.7513 11.9143 68.703 11.1771 67.7345 10.494L65.7142 9.05829C65.6662 9.02486 65.6225 8.98714 65.5933 8.95629L65.457 8.81571C64.4362 7.73143 63.9296 6.42686 64.0068 5.052C64.077 3.78857 64.6556 2.53371 65.5942 1.59429C66.6056 0.582857 67.9616 0 69.3202 0ZM85.8596 19.5471L83.5085 21.8246L84.1908 22.506C84.3536 22.6689 84.5602 22.7683 84.7865 22.7931L84.9005 22.8C85.1713 22.8 85.4216 22.6963 85.6119 22.506L86.505 21.6137C86.8967 21.222 86.8967 20.5834 86.505 20.1917L85.8596 19.5471V19.5471ZM79.5467 13.2334L77.205 15.522L82.6599 20.976L85.011 18.6986L79.5467 13.2334ZM66.0579 2.88257C65.5522 3.54514 65.2479 4.33629 65.2042 5.11886C65.1433 6.20229 65.5642 7.22914 66.4522 8.11714L66.4299 8.09486L67.617 8.93914C68.0748 9.26486 68.5342 9.58971 69.0253 9.93514L69.399 10.1983L76.1216 14.9014L77.0748 13.9697L66.0579 2.88257ZM69.3202 1.2C68.4785 1.2 67.6248 1.49914 66.9099 2.03657L77.9328 13.1314L78.927 12.1603L76.5013 8.69143C75.4505 7.18714 74.6739 6.07714 73.989 5.10429L73.8433 4.89771L72.0913 2.42914L71.9688 2.31C71.2265 1.62171 70.3779 1.24543 69.4873 1.20429L69.3202 1.2Z" fill="#4B555D"/>
</g>
<defs>
<clipPath id="clip0_50_119734">
<rect width="23.9995" height="24" fill="white"/>
</clipPath>
<clipPath id="clip1_50_119734">
<rect width="23.9995" height="24" fill="white" transform="translate(31.9995)"/>
</clipPath>
<clipPath id="clip2_50_119734">
<rect width="23.9995" height="24" fill="white" transform="translate(63.9991)"/>
</clipPath>
</defs>
</svg>
