<svg width="24" height="24" viewBox="0 0 24 24" fill="none" xmlns="http://www.w3.org/2000/svg">
<path fill-rule="evenodd" clip-rule="evenodd" d="M8 9C8 6.79087 9.79086 5 12 5C14.2091 5 16 6.79087 16 9C16 10.8638 14.7252 12.4299 13 12.874V14C13 14.5523 12.5523 15 12 15C11.4477 15 11 14.5523 11 14V12C11 11.4477 11.4477 11 12 11C13.1046 11 14 10.1046 14 9C14 7.89544 13.1046 7 12 7C10.8954 7 10 7.89544 10 9C10 9.55229 9.55228 10 9 10C8.44772 10 8 9.55229 8 9Z" fill="#676767"/>
<path fill-rule="evenodd" clip-rule="evenodd" d="M12 18.5C12.6904 18.5 13.25 17.9403 13.25 17.25C13.25 16.5597 12.6904 16 12 16C11.3096 16 10.75 16.5597 10.75 17.25C10.75 17.9403 11.3096 18.5 12 18.5Z" fill="#676767"/>
</svg>
