<svg width="21" height="17" viewBox="0 0 21 17" fill="none" xmlns="http://www.w3.org/2000/svg">
<path d="M0.9 3.39993H11.54C11.6318 3.85205 11.8771 4.25852 12.2343 4.55048C12.5915 4.84244 13.0387 5.00194 13.5 5.00194C13.9613 5.00194 14.4085 4.84244 14.7657 4.55048C15.1229 4.25852 15.3682 3.85205 15.46 3.39993H20.1C20.2061 3.39993 20.3078 3.35779 20.3828 3.28277C20.4579 3.20776 20.5 3.10602 20.5 2.99993C20.5 2.89384 20.4579 2.7921 20.3828 2.71709C20.3078 2.64207 20.2061 2.59993 20.1 2.59993H15.46C15.3682 2.14781 15.1229 1.74134 14.7657 1.44938C14.4085 1.15742 13.9613 0.997925 13.5 0.997925C13.0387 0.997925 12.5915 1.15742 12.2343 1.44938C11.8771 1.74134 11.6318 2.14781 11.54 2.59993H0.9C0.793913 2.59993 0.692172 2.64207 0.617157 2.71709C0.542143 2.7921 0.5 2.89384 0.5 2.99993C0.5 3.10602 0.542143 3.20776 0.617157 3.28277C0.692172 3.35779 0.793913 3.39993 0.9 3.39993ZM13.5 1.79993C13.7373 1.79993 13.9693 1.87031 14.1667 2.00217C14.364 2.13402 14.5178 2.32144 14.6087 2.54071C14.6995 2.75998 14.7232 3.00126 14.6769 3.23404C14.6306 3.46682 14.5164 3.68064 14.3485 3.84846C14.1807 4.01628 13.9669 4.13057 13.7341 4.17687C13.5013 4.22317 13.2601 4.19941 13.0408 4.10859C12.8215 4.01776 12.6341 3.86395 12.5022 3.66661C12.3704 3.46927 12.3 3.23727 12.3 2.99993C12.3003 2.68178 12.4269 2.37675 12.6519 2.15178C12.8768 1.92681 13.1818 1.80027 13.5 1.79993Z" fill="#262626"/>
<path d="M20.1 14.6H18.46C18.3679 14.1482 18.1225 13.7421 17.7654 13.4504C17.4083 13.1587 16.9614 12.9994 16.5003 12.9994C16.0392 12.9994 15.5923 13.1587 15.2352 13.4504C14.8781 13.7421 14.6327 14.1482 14.5406 14.6H0.9C0.793913 14.6 0.692172 14.6421 0.617157 14.7171C0.542143 14.7921 0.5 14.8939 0.5 15C0.5 15.106 0.542143 15.2078 0.617157 15.2828C0.692172 15.3578 0.793913 15.4 0.9 15.4H14.54C14.6321 15.8518 14.8775 16.2578 15.2346 16.5495C15.5917 16.8412 16.0386 17.0005 16.4997 17.0005C16.9608 17.0005 17.4077 16.8412 17.7648 16.5495C18.1219 16.2578 18.3673 15.8518 18.4594 15.4H20.1C20.2061 15.4 20.3078 15.3578 20.3828 15.2828C20.4579 15.2078 20.5 15.106 20.5 15C20.5 14.8939 20.4579 14.7921 20.3828 14.7171C20.3078 14.6421 20.2061 14.6 20.1 14.6ZM16.5 16.2C16.2627 16.2 16.0307 16.1296 15.8333 15.9977C15.636 15.8659 15.4822 15.6784 15.3913 15.4592C15.3005 15.2399 15.2768 14.9986 15.3231 14.7658C15.3694 14.5331 15.4836 14.3193 15.6515 14.1514C15.8193 13.9836 16.0331 13.8693 16.2659 13.823C16.4987 13.7767 16.7399 13.8005 16.9592 13.8913C17.1785 13.9821 17.3659 14.1359 17.4978 14.3333C17.6296 14.5306 17.7 14.7626 17.7 15C17.6997 15.3181 17.5731 15.6231 17.3481 15.8481C17.1232 16.0731 16.8182 16.1996 16.5 16.2Z" fill="#262626"/>
<path d="M20.1 8.59993H7.46C7.36819 8.14781 7.12291 7.74134 6.7657 7.44938C6.4085 7.15742 5.96134 6.99792 5.5 6.99792C5.03866 6.99792 4.5915 7.15742 4.2343 7.44938C3.87709 7.74134 3.63181 8.14781 3.54 8.59993H0.9C0.793913 8.59993 0.692172 8.64207 0.617157 8.71709C0.542143 8.7921 0.5 8.89384 0.5 8.99993C0.5 9.10602 0.542143 9.20776 0.617157 9.28277C0.692172 9.35779 0.793913 9.39993 0.9 9.39993H3.54C3.63181 9.85205 3.87709 10.2585 4.2343 10.5505C4.5915 10.8424 5.03866 11.0019 5.5 11.0019C5.96134 11.0019 6.4085 10.8424 6.7657 10.5505C7.12291 10.2585 7.36819 9.85205 7.46 9.39993H20.1C20.2061 9.39993 20.3078 9.35779 20.3828 9.28277C20.4579 9.20776 20.5 9.10602 20.5 8.99993C20.5 8.89384 20.4579 8.7921 20.3828 8.71709C20.3078 8.64207 20.2061 8.59993 20.1 8.59993ZM5.5 10.1999C5.26266 10.1999 5.03065 10.1296 4.83332 9.99769C4.63598 9.86584 4.48217 9.67842 4.39134 9.45915C4.30052 9.23988 4.27676 8.9986 4.32306 8.76582C4.36936 8.53304 4.48365 8.31922 4.65147 8.1514C4.81929 7.98358 5.03311 7.86929 5.26589 7.82299C5.49867 7.77668 5.73995 7.80045 5.95922 7.89127C6.17849 7.9821 6.36591 8.13591 6.49776 8.33325C6.62962 8.53058 6.7 8.76259 6.7 8.99993C6.69966 9.31808 6.57312 9.62311 6.34815 9.84808C6.12318 10.073 5.81815 10.1996 5.5 10.1999Z" fill="#262626"/>
</svg>
