<svg width="185" height="42" viewBox="0 0 185 42" fill="none" xmlns="http://www.w3.org/2000/svg">
<path d="M71.9566 35.8342V10.1978H77.8127V14.554H78.1173C78.6589 13.0852 79.556 11.9392 80.8084 11.1158C82.0609 10.2813 83.5559 9.86399 85.2936 9.86399C87.0538 9.86399 88.5376 10.2868 89.7449 11.1325C90.9635 11.967 91.821 13.1075 92.3175 14.554H92.5883C93.1638 13.1297 94.1341 11.9948 95.4994 11.1491C96.876 10.2924 98.5065 9.86399 100.391 9.86399C102.783 9.86399 104.735 10.6095 106.247 12.1005C107.759 13.5915 108.515 15.7668 108.515 18.6264V35.8342H102.371V19.5611C102.371 17.9699 101.942 16.8072 101.085 16.0728C100.227 15.3273 99.1778 14.9545 97.9366 14.9545C96.4585 14.9545 95.302 15.4107 94.467 16.3232C93.6433 17.2244 93.2315 18.3983 93.2315 19.8448V35.8342H87.223V19.3107C87.223 17.9866 86.8168 16.9296 86.0044 16.1396C85.2033 15.3496 84.154 14.9545 82.8564 14.9545C81.9763 14.9545 81.1751 15.1771 80.453 15.6222C79.7309 16.0561 79.1554 16.6737 78.7266 17.4748C78.2979 18.2648 78.0835 19.1883 78.0835 20.2454V35.8342H71.9566Z" fill="white"/>
<path d="M112.703 35.8342V10.1978H118.83V35.8342H112.703ZM115.783 6.55931C114.813 6.55931 113.978 6.24219 113.278 5.60795C112.579 4.96259 112.229 4.18928 112.229 3.288C112.229 2.37559 112.579 1.60227 113.278 0.968039C113.978 0.32268 114.813 0 115.783 0C116.765 0 117.6 0.32268 118.288 0.968039C118.988 1.60227 119.338 2.37559 119.338 3.288C119.338 4.18928 118.988 4.96259 118.288 5.60795C117.6 6.24219 116.765 6.55931 115.783 6.55931Z" fill="white"/>
<path d="M130.583 36.3516C128.936 36.3516 127.452 36.0623 126.132 35.4837C124.823 34.8939 123.785 34.026 123.017 32.88C122.261 31.7339 121.883 30.3208 121.883 28.6406C121.883 27.1941 122.154 25.998 122.696 25.0522C123.237 24.1064 123.976 23.3498 124.913 22.7823C125.849 22.2148 126.904 21.7865 128.078 21.4972C129.263 21.1967 130.487 20.9798 131.751 20.8462C133.274 20.6905 134.51 20.5514 135.457 20.429C136.405 20.2955 137.093 20.0952 137.522 19.8281C137.962 19.55 138.182 19.1216 138.182 18.543V18.4428C138.182 17.1855 137.804 16.2119 137.048 15.522C136.292 14.8322 135.203 14.4872 133.782 14.4872C132.281 14.4872 131.091 14.8099 130.211 15.4553C129.342 16.1006 128.755 16.8628 128.45 17.7418L122.73 16.9407C123.181 15.3829 123.926 14.0811 124.964 13.0352C126.002 11.9781 127.271 11.1881 128.772 10.6651C130.273 10.131 131.931 9.86399 133.748 9.86399C135 9.86399 136.247 10.0086 137.488 10.2979C138.729 10.5872 139.863 11.0657 140.89 11.7333C141.917 12.3898 142.741 13.2855 143.361 14.4205C143.993 15.5554 144.309 16.9741 144.309 18.6765V35.8342H138.419V32.3125H138.216C137.844 33.0246 137.319 33.6922 136.642 34.3153C135.976 34.9273 135.136 35.4225 134.12 35.8008C133.116 36.168 131.937 36.3516 130.583 36.3516ZM132.174 31.9119C133.404 31.9119 134.47 31.6727 135.373 31.1942C136.275 30.7047 136.969 30.0593 137.454 29.2582C137.951 28.457 138.199 27.5836 138.199 26.6378V23.6168C138.007 23.7726 137.68 23.9173 137.218 24.0508C136.766 24.1843 136.258 24.3011 135.694 24.4013C135.13 24.5014 134.572 24.5904 134.019 24.6683C133.466 24.7462 132.986 24.813 132.58 24.8686C131.666 24.991 130.848 25.1913 130.126 25.4695C129.404 25.7476 128.834 26.1371 128.416 26.6378C127.999 27.1274 127.79 27.7616 127.79 28.5405C127.79 29.6532 128.202 30.4933 129.026 31.0607C129.849 31.6282 130.899 31.9119 132.174 31.9119Z" fill="white"/>
<path d="M148.442 35.8342V10.1978H154.298V14.554H154.602C155.144 13.0852 156.041 11.9392 157.294 11.1158C158.546 10.2813 160.041 9.86399 161.779 9.86399C163.539 9.86399 165.023 10.2868 166.23 11.1325C167.449 11.967 168.306 13.1075 168.803 14.554H169.073C169.649 13.1297 170.619 11.9948 171.985 11.1491C173.361 10.2924 174.992 9.86399 176.876 9.86399C179.268 9.86399 181.22 10.6095 182.732 12.1005C184.244 13.5915 185 15.7668 185 18.6264V35.8342H178.856V19.5611C178.856 17.9699 178.427 16.8072 177.57 16.0728C176.712 15.3273 175.663 14.9545 174.422 14.9545C172.944 14.9545 171.787 15.4107 170.952 16.3232C170.128 17.2244 169.717 18.3983 169.717 19.8448V35.8342H163.708V19.3107C163.708 17.9866 163.302 16.9296 162.49 16.1396C161.688 15.3496 160.639 14.9545 159.342 14.9545C158.461 14.9545 157.66 15.1771 156.938 15.6222C156.216 16.0561 155.641 16.6737 155.212 17.4748C154.783 18.2648 154.569 19.1883 154.569 20.2454V35.8342H148.442Z" fill="white"/>
<path fill-rule="evenodd" clip-rule="evenodd" d="M28.6474 34.0615L21.2864 41.3014C20.3394 42.2329 18.8041 42.2329 17.8571 41.3014L0.710244 24.4365C-0.236749 23.5051 -0.236747 21.9949 0.710244 21.0635L17.8571 4.19857C18.8041 3.26714 20.3394 3.26714 21.2864 4.19857L28.6474 11.4385L36.0083 4.19857C36.9553 3.26714 38.4907 3.26714 39.4377 4.19857L56.5845 21.0635C57.5315 21.9949 57.5315 23.5051 56.5845 24.4365L39.4377 41.3014C38.4907 42.2329 36.9553 42.2329 36.0083 41.3014L28.6474 34.0615ZM5.85429 22.75L19.5717 9.25805L25.218 14.8115L18.8615 21.0635C17.9145 21.9949 17.9145 23.5051 18.8615 24.4365L25.218 30.6885L19.5717 36.242L5.85429 22.75ZM32.0767 14.8115L37.723 9.25805L51.4404 22.75L37.723 36.242L32.0767 30.6885L38.4332 24.4365C39.3802 23.5051 39.3802 21.9949 38.4332 21.0635L32.0767 14.8115ZM28.6474 18.1845L33.3351 22.75L28.6474 27.3155L23.9596 22.75L28.6474 18.1845Z" fill="white"/>
<path d="M33.3351 22.75L28.6474 18.1845L23.9596 22.75L28.6474 27.3155L33.3351 22.75Z" fill="#F5BE49"/>
</svg>
