<svg width="601" height="601" viewBox="0 0 601 601" fill="none" xmlns="http://www.w3.org/2000/svg">
<path d="M410.325 343.377L426.423 405.612C426.807 406.914 426.729 408.309 426.201 409.559C425.673 410.809 424.728 411.838 423.527 412.47L371.563 442.285C369.537 443.453 367.231 444.045 364.892 443.999C362.554 443.952 360.273 443.269 358.295 442.021L314.702 416.801C314.126 416.438 313.651 415.935 313.322 415.339C312.993 414.743 312.82 414.073 312.82 413.392V408.929L388.002 388.566L381.421 326.41L410.325 343.377Z" fill="#4E5D6B" stroke="#1F3543" stroke-miterlimit="10"/>
<path d="M347.147 306.494L363.086 371.507C363.348 372.604 363.25 373.757 362.807 374.795C362.364 375.834 361.599 376.702 360.625 377.272L315.571 403.282C314.735 403.767 314.041 404.463 313.558 405.3C313.076 406.138 312.822 407.087 312.822 408.054C312.822 409.02 313.076 409.97 313.558 410.807C314.041 411.645 314.735 412.341 315.571 412.825L359.388 438.125C361.192 439.154 363.233 439.696 365.311 439.696C367.388 439.696 369.43 439.154 371.234 438.125L419.197 411.062C420.417 410.376 421.372 409.299 421.907 408.005C422.441 406.711 422.525 405.275 422.145 403.927L403.994 339.336L347.147 306.494Z" fill="#D9DDE1" stroke="#1F3543" stroke-linejoin="round"/>
<path d="M402.263 420.016L344.797 386.915C349.848 384.031 360.154 378.139 360.973 377.637C361.997 377.009 362.724 376.25 363.352 374.796C363.854 373.634 363.737 372.176 363.616 371.592L357.274 345.795L414.649 379.024C416.631 386.115 420.754 400.858 421.388 403.104C422.18 405.912 421.883 406.407 421.388 407.96C420.991 409.202 419.835 410.129 419.307 410.437L417.424 411.494L402.263 420.016Z" fill="#8C96A2"/>
<path d="M299.118 34.2036L563.375 186.79C566.781 188.756 569.456 191.775 570.996 195.393C572.537 199.011 572.86 203.032 571.917 206.85L520.795 413.116C517.307 426.002 503.013 429.293 496.195 425.357L239.125 267.598C235.722 265.628 233.05 262.604 231.514 258.984C229.978 255.363 229.661 251.341 230.609 247.524L275.111 40.4823C281.836 34.7169 291.01 29.636 299.118 34.2036Z" fill="#D9DDE1" stroke="#1F3543" stroke-miterlimit="10"/>
<path fill-rule="evenodd" clip-rule="evenodd" d="M571.866 200.898C572.03 202.876 571.849 204.944 571.3 207.166L520.392 412.682C516.918 425.522 502.684 428.801 495.894 424.879L482.316 416.542L562.24 204.881L571.866 200.898Z" fill="#8C96A2"/>
<path d="M289.852 38.1146L556.386 192.004C559.126 193.593 561.278 196.026 562.521 198.94C563.764 201.853 564.031 205.09 563.283 208.168L511.529 417.014C511.085 418.792 510.235 420.442 509.044 421.836C507.854 423.23 506.357 424.328 504.671 425.045C502.984 425.762 501.154 426.078 499.325 425.968C497.496 425.858 495.717 425.325 494.129 424.411L227.595 270.193C224.844 268.602 222.685 266.16 221.444 263.235C220.202 260.309 219.945 257.06 220.711 253.976L272.465 45.5123C272.91 43.7361 273.76 42.0872 274.949 40.695C276.138 39.3029 277.634 38.2053 279.319 37.4885C281.003 36.7717 282.831 36.4552 284.659 36.5638C286.487 36.6725 288.264 37.2033 289.852 38.1146Z" fill="#D9DDE1" stroke="#1F3543" stroke-miterlimit="10"/>
<path d="M291.827 42.7339L553.214 193.688C555.913 195.246 558.032 197.64 559.252 200.508C560.473 203.376 560.728 206.563 559.979 209.589L509.555 412.511C507.304 423.502 500.183 424.134 492.444 419.764L231.11 268.52C228.413 266.96 226.296 264.565 225.078 261.697C223.861 258.829 223.607 255.643 224.357 252.619L274.768 49.9868C275.201 48.2416 276.032 46.6209 277.199 45.2525C278.365 43.8841 279.833 42.8057 281.487 42.1022C283.142 41.3988 284.937 41.0897 286.731 41.1993C288.526 41.3089 290.27 41.8343 291.827 42.7339Z" fill="white" stroke="#1F3543" stroke-miterlimit="10"/>
<path d="M227.332 227.279L220.751 253.974C219.984 257.058 220.241 260.308 221.483 263.233C222.725 266.158 224.884 268.6 227.635 270.191L494.168 424.409C495.757 425.323 497.535 425.856 499.365 425.966C501.194 426.076 503.024 425.76 504.71 425.043C506.397 424.326 507.894 423.228 509.084 421.834C510.274 420.441 511.125 418.79 511.569 417.012L517.123 394.635L227.332 227.279Z" fill="#D9DDE1" stroke="#1F3543" stroke-miterlimit="10"/>
<path d="M371.984 380.748L405.39 400.032" stroke="#1F3543" stroke-linecap="round" stroke-linejoin="round"/>
<path d="M313.858 67.1781L524.533 188.845C526.708 190.102 528.417 192.031 529.4 194.343C530.384 196.654 530.589 199.223 529.986 201.661L489.344 365.214L486.616 376.824L264.92 249.159C262.747 247.902 261.041 245.972 260.059 243.66C259.078 241.349 258.874 238.781 259.478 236.343L300.109 73.0238C300.457 71.6173 301.128 70.3109 302.068 69.2081C303.008 68.1052 304.191 67.2359 305.524 66.669C306.858 66.102 308.305 65.8529 309.751 65.9412C311.197 66.0296 312.603 66.453 313.858 67.1781Z" fill="white" stroke="#1F3543" stroke-miterlimit="10"/>
<path d="M493.342 196.304L493.587 188.99L502.477 194.09L499.604 199.044C499.604 199.044 499.285 199.51 498.826 199.633C498.367 199.755 497.937 199.603 497.742 199.49L494.077 197.381C493.882 197.268 493.714 197.112 493.587 196.926C493.46 196.74 493.376 196.527 493.342 196.304Z" fill="#F7F8F9" stroke="#8C96A2" stroke-width="0.7" stroke-linecap="round" stroke-linejoin="round"/>
<path d="M493.084 188.748L502.894 194.334L503.701 193.039L493.084 187.105V188.748Z" fill="#F7F8F9" stroke="#8C96A2" stroke-width="0.7" stroke-linecap="round" stroke-linejoin="round"/>
<path d="M494.973 191.238L494.738 196.565" stroke="#8C96A2" stroke-width="0.7" stroke-linecap="round" stroke-linejoin="round"/>
<path d="M497.662 192.738L496.397 197.425" stroke="#8C96A2" stroke-width="0.7" stroke-linecap="round" stroke-linejoin="round"/>
<path d="M498.028 198.38L500.114 194.223" stroke="#8C96A2" stroke-width="0.7" stroke-linecap="round" stroke-linejoin="round"/>
<path d="M494.738 187.918L497.808 185.619" stroke="#8C96A2" stroke-width="0.7" stroke-linecap="round" stroke-linejoin="round"/>
<path d="M501.963 191.959L501.343 187.475" stroke="#8C96A2" stroke-width="0.7" stroke-linecap="round" stroke-linejoin="round"/>
<path d="M336.634 113.652L513.349 214.278C514.277 214.815 515.006 215.638 515.426 216.624C515.846 217.611 515.934 218.707 515.676 219.748L498.331 289.549C497.557 293.33 495.108 293.547 492.445 292.044L315.749 191.318C314.821 190.781 314.093 189.958 313.674 188.971C313.255 187.985 313.168 186.889 313.426 185.849L330.767 116.147C330.915 115.547 331.201 114.99 331.602 114.519C332.004 114.048 332.509 113.677 333.078 113.435C333.647 113.193 334.264 113.087 334.882 113.125C335.499 113.162 336.099 113.343 336.634 113.652Z" fill="#D9DDE1"/>
<path d="M346.631 295.674L294.635 265.582L308.549 206.567C308.698 205.967 308.984 205.409 309.385 204.939C309.786 204.468 310.291 204.097 310.86 203.855C311.429 203.613 312.047 203.507 312.664 203.545C313.281 203.582 313.881 203.763 314.417 204.072L358.62 229.504C359.549 230.04 360.278 230.863 360.698 231.85C361.117 232.836 361.205 233.932 360.948 234.973L346.631 295.674Z" fill="#D9DDE1"/>
<path d="M332.918 78.1856L313.858 67.1781C312.604 66.453 311.198 66.0296 309.751 65.9412C308.305 65.8529 306.858 66.102 305.525 66.669C304.191 67.2359 303.008 68.1052 302.068 69.2081C301.128 70.3109 300.458 71.6173 300.109 73.0238L259.479 236.343C258.874 238.781 257.4 244.596 257.4 244.596L285.367 260.992L332.918 78.1856Z" fill="#8C96A2" stroke="#1F3543"/>
<g opacity="0.6">
<path d="M398.306 203.113L401.698 189.432C401.858 188.786 402.593 188.474 403.169 188.807L415.218 195.774C415.605 195.997 415.796 196.45 415.688 196.883L412.216 210.713C412.053 211.363 411.311 211.672 410.735 211.329L398.766 204.213C398.387 203.988 398.2 203.541 398.306 203.113Z" stroke="#8C96A2" stroke-linecap="round"/>
<path d="M399.245 199.786L403.414 197.037C403.999 196.651 404.79 196.972 404.941 197.656L406.05 202.684C406.196 203.346 406.944 203.674 407.53 203.332L409.433 202.222C409.972 201.908 410.664 202.158 410.877 202.744L412.758 207.917" stroke="#8C96A2" stroke-linecap="round"/>
<path d="M410.547 197.454C410.547 198.453 409.821 199.181 409.023 199.181C408.226 199.181 407.5 198.453 407.5 197.454C407.5 196.454 408.226 195.727 409.023 195.727C409.821 195.727 410.547 196.454 410.547 197.454Z" stroke="#8C96A2"/>
<path d="M398.467 202.773L399.198 199.797C399.265 199.523 399.445 199.29 399.694 199.156L403.327 197.194C403.585 197.055 403.892 197.036 404.165 197.142L404.494 197.27C404.809 197.393 405.041 197.667 405.11 197.999L406.023 202.391C406.087 202.7 406.293 202.961 406.579 203.094L406.733 203.166C407.015 203.297 407.341 203.29 407.617 203.147L408.721 202.573C408.864 202.499 409.022 202.46 409.182 202.46H410.022C410.43 202.46 410.796 202.707 410.949 203.085L412.695 207.392C412.767 207.57 412.787 207.764 412.751 207.953L412.251 210.606C412.165 211.061 411.767 211.391 411.303 211.391C411.136 211.391 410.971 211.348 410.826 211.265L401.142 205.741C401.089 205.71 401.038 205.675 400.991 205.636L398.792 203.775C398.502 203.529 398.377 203.141 398.467 202.773Z" fill="#8C96A2"/>
</g>
<path d="M506.665 197.902L504.809 202.543M503.839 199.215L507.695 201.286" stroke="#8C96A2" stroke-linecap="round" stroke-linejoin="round"/>
<path d="M509.893 200.601L512.596 199.678L510.441 205.356M514.614 200.601L516.735 201.867L514.614 202.928C515.15 203.304 516.016 204.108 516.016 205.151C516.016 206.494 514.673 207.409 512.596 206.28" stroke="#8C96A2" stroke-linecap="round" stroke-linejoin="round"/>
<path d="M332.821 288.374C332.018 291.603 328.344 293.162 325.464 291.495L285.081 268.124C281.61 266.116 279.887 262.053 280.856 258.162L296.801 194.073C296.95 193.473 297.236 192.915 297.637 192.445C298.038 191.974 298.544 191.603 299.113 191.361C299.682 191.119 300.299 191.013 300.916 191.05C301.534 191.088 302.134 191.269 302.669 191.578L346.873 217.009C347.801 217.546 348.53 218.369 348.95 219.356C349.37 220.342 349.457 221.438 349.2 222.479L332.821 288.374Z" fill="#E9E4FC" stroke="#1F3543" stroke-miterlimit="10"/>
<path fill-rule="evenodd" clip-rule="evenodd" d="M288.442 227.483L296.806 193.862C296.954 193.262 297.241 192.704 297.642 192.234C298.043 191.763 298.548 191.392 299.117 191.15C299.686 190.908 300.304 190.802 300.921 190.839C301.538 190.877 302.138 191.058 302.673 191.367L346.877 216.799C347.806 217.335 348.535 218.158 348.954 219.145C349.374 220.131 349.462 221.227 349.204 222.268L340.365 257.839L288.442 227.483Z" fill="#6610F2"/>
<path d="M290.189 239.202L290.484 237.971C290.641 237.317 291.386 237.001 291.965 237.343L305.781 245.498C306.169 245.727 306.355 246.187 306.238 246.621L305.899 247.87C305.726 248.508 304.992 248.805 304.423 248.468L290.651 240.295C290.274 240.072 290.086 239.628 290.189 239.202Z" fill="#D0C6FA" fill-opacity="0.4"/>
<path d="M316.921 268.724L320.815 253.728C320.981 253.087 321.713 252.782 322.285 253.115L335.406 260.734C335.792 260.958 335.983 261.411 335.874 261.843L331.98 277.281C331.815 277.935 331.062 278.242 330.487 277.888L317.366 269.827C316.991 269.597 316.811 269.15 316.921 268.724Z" fill="#F9F8FF"/>
<path d="M289.156 245.211L289.451 243.98C289.608 243.326 290.352 243.01 290.932 243.352L311.217 255.313C311.605 255.542 311.792 256.002 311.674 256.437L311.335 257.687C311.162 258.324 310.429 258.622 309.861 258.285L289.619 246.305C289.241 246.081 289.053 245.638 289.156 245.211Z" fill="#D0C6FA" fill-opacity="0.4"/>
<path d="M287.981 251.212L288.277 249.981C288.433 249.327 289.177 249.011 289.756 249.352L310.884 261.783C311.272 262.011 311.46 262.472 311.342 262.907L311.002 264.157C310.83 264.794 310.097 265.092 309.529 264.756L288.445 252.307C288.067 252.083 287.879 251.639 287.981 251.212Z" fill="#D0C6FA" fill-opacity="0.4"/>
<path d="M321.711 269.552L321.956 262.238L330.845 267.338L327.973 272.292C327.973 272.292 327.654 272.758 327.195 272.881C326.736 273.003 326.306 272.851 326.111 272.738L322.446 270.629C322.251 270.516 322.083 270.36 321.956 270.174C321.829 269.988 321.745 269.775 321.711 269.552Z" fill="#E9E4FC" stroke="#8567F2" stroke-width="0.7" stroke-linecap="round" stroke-linejoin="round"/>
<path d="M321.453 261.996L331.263 267.582L332.069 266.286L321.453 260.354V261.996Z" fill="#E9E4FC" stroke="#8567F2" stroke-width="0.7" stroke-linecap="round" stroke-linejoin="round"/>
<path d="M323.341 264.486L323.107 269.813" stroke="#8567F2" stroke-width="0.7" stroke-linecap="round" stroke-linejoin="round"/>
<path d="M326.031 265.986L324.766 270.673" stroke="#8567F2" stroke-width="0.7" stroke-linecap="round" stroke-linejoin="round"/>
<path d="M326.397 271.628L328.483 267.471" stroke="#8567F2" stroke-width="0.7" stroke-linecap="round" stroke-linejoin="round"/>
<path d="M323.107 261.166L326.177 258.867" stroke="#8567F2" stroke-width="0.7" stroke-linecap="round" stroke-linejoin="round"/>
<path d="M330.332 265.207L329.712 260.723" stroke="#8567F2" stroke-width="0.7" stroke-linecap="round" stroke-linejoin="round"/>
<path d="M332.821 288.374C332.018 291.603 328.344 293.162 325.464 291.495L285.081 268.124C281.61 266.116 279.887 262.053 280.856 258.162L296.801 194.073C296.95 193.473 297.236 192.915 297.637 192.445C298.038 191.974 298.544 191.603 299.113 191.361C299.682 191.119 300.299 191.013 300.916 191.05C301.534 191.088 302.134 191.269 302.669 191.578L346.873 217.009C347.801 217.546 348.53 218.369 348.95 219.356C349.37 220.342 349.457 221.438 349.2 222.479L332.821 288.374Z" stroke="#2E076C" stroke-miterlimit="10"/>
<path d="M411.622 333.206L359.625 303.114L374.36 243.888C374.508 243.287 374.795 242.73 375.196 242.259C375.597 241.788 376.102 241.417 376.671 241.175C377.24 240.933 377.858 240.827 378.475 240.865C379.092 240.903 379.692 241.083 380.227 241.393L424.431 266.824C425.36 267.36 426.089 268.183 426.508 269.17C426.928 270.157 427.016 271.253 426.758 272.294L411.622 333.206Z" fill="#F7F8F9"/>
<path fill-rule="evenodd" clip-rule="evenodd" d="M365.995 277.297L374.359 243.677C374.508 243.076 374.794 242.519 375.195 242.048C375.596 241.577 376.102 241.206 376.671 240.964C377.24 240.723 377.857 240.616 378.474 240.654C379.092 240.692 379.692 240.872 380.227 241.182L424.431 266.613C425.359 267.149 426.088 267.972 426.508 268.959C426.928 269.946 427.016 271.042 426.758 272.083L417.919 307.653L365.995 277.297Z" fill="#D9DDE1"/>
<path d="M367.743 289.017L368.038 287.785C368.195 287.131 368.94 286.816 369.519 287.157L383.335 295.312C383.723 295.541 383.91 296.001 383.792 296.435L383.453 297.684C383.28 298.322 382.546 298.62 381.977 298.282L368.205 290.11C367.828 289.886 367.64 289.443 367.743 289.017Z" fill="#D9DDE1" fill-opacity="0.4"/>
<path d="M394.475 318.538L398.369 303.542C398.535 302.902 399.267 302.597 399.839 302.929L412.96 310.548C413.346 310.772 413.537 311.225 413.428 311.658L409.534 327.095C409.369 327.75 408.616 328.056 408.041 327.703L394.92 319.642C394.545 319.412 394.365 318.964 394.475 318.538Z" fill="#D9DDE1"/>
<path d="M366.71 295.025L367.005 293.794C367.162 293.141 367.907 292.825 368.486 293.166L388.771 305.128C389.159 305.357 389.346 305.817 389.228 306.251L388.889 307.501C388.716 308.139 387.983 308.436 387.415 308.1L367.173 296.119C366.795 295.896 366.607 295.452 366.71 295.025Z" fill="#D9DDE1" fill-opacity="0.4"/>
<path d="M365.535 301.027L365.831 299.795C365.988 299.142 366.731 298.826 367.31 299.166L388.438 311.597C388.826 311.826 389.014 312.286 388.896 312.721L388.557 313.972C388.384 314.609 387.652 314.907 387.083 314.571L365.999 302.121C365.621 301.898 365.433 301.454 365.535 301.027Z" fill="#D9DDE1" fill-opacity="0.4"/>
<path d="M399.266 319.364L399.51 312.051L408.4 317.151L405.527 322.104C405.527 322.104 405.208 322.571 404.749 322.693C404.29 322.816 403.86 322.664 403.665 322.551L400 320.441C399.805 320.328 399.637 320.173 399.51 319.987C399.383 319.8 399.299 319.587 399.266 319.364Z" fill="#D9DDE1" stroke="#8C96A2" stroke-width="0.7" stroke-linecap="round" stroke-linejoin="round"/>
<path d="M399.007 311.809L408.817 317.394L409.624 316.1L399.007 310.166V311.809Z" fill="#D9DDE1" stroke="#8C96A2" stroke-width="0.7" stroke-linecap="round" stroke-linejoin="round"/>
<path d="M400.896 314.299L400.661 319.626" stroke="#8C96A2" stroke-width="0.7" stroke-linecap="round" stroke-linejoin="round"/>
<path d="M403.585 315.799L402.32 320.487" stroke="#8C96A2" stroke-width="0.7" stroke-linecap="round" stroke-linejoin="round"/>
<path d="M403.951 321.44L406.038 317.283" stroke="#8C96A2" stroke-width="0.7" stroke-linecap="round" stroke-linejoin="round"/>
<path d="M400.661 310.979L403.731 308.68" stroke="#8C96A2" stroke-width="0.7" stroke-linecap="round" stroke-linejoin="round"/>
<path d="M407.886 315.02L407.266 310.535" stroke="#8C96A2" stroke-width="0.7" stroke-linecap="round" stroke-linejoin="round"/>
<path d="M476.905 370.818L424.908 340.725L439.642 281.499C439.791 280.899 440.077 280.341 440.478 279.87C440.879 279.4 441.384 279.029 441.954 278.787C442.523 278.545 443.14 278.438 443.757 278.476C444.375 278.514 444.975 278.695 445.51 279.004L489.714 304.435C490.642 304.971 491.371 305.795 491.791 306.781C492.211 307.768 492.298 308.864 492.041 309.905L476.905 370.818Z" fill="#F7F8F9"/>
<path fill-rule="evenodd" clip-rule="evenodd" d="M431.278 314.909L439.642 281.288C439.791 280.688 440.077 280.13 440.478 279.659C440.879 279.189 441.384 278.818 441.953 278.576C442.522 278.334 443.14 278.228 443.757 278.265C444.374 278.303 444.974 278.484 445.51 278.793L489.713 304.224C490.642 304.76 491.371 305.584 491.791 306.57C492.21 307.557 492.298 308.653 492.041 309.694L483.202 345.265L431.278 314.909Z" fill="#D9DDE1"/>
<path d="M433.025 326.629L433.321 325.398C433.478 324.744 434.222 324.428 434.801 324.77L448.617 332.925C449.005 333.154 449.192 333.613 449.074 334.048L448.735 335.297C448.562 335.935 447.829 336.232 447.26 335.895L433.487 327.722C433.11 327.498 432.923 327.055 433.025 326.629Z" fill="#D9DDE1" fill-opacity="0.4"/>
<path d="M459.758 356.152L463.651 341.156C463.818 340.515 464.549 340.21 465.122 340.542L478.243 348.162C478.629 348.386 478.819 348.838 478.71 349.271L474.817 364.709C474.652 365.363 473.899 365.67 473.324 365.316L460.202 357.255C459.828 357.025 459.647 356.577 459.758 356.152Z" fill="#D9DDE1"/>
<path d="M431.992 332.637L432.288 331.406C432.445 330.752 433.189 330.436 433.768 330.778L454.054 342.739C454.442 342.968 454.629 343.428 454.511 343.863L454.172 345.112C453.999 345.75 453.266 346.048 452.697 345.711L432.455 333.731C432.078 333.507 431.89 333.064 431.992 332.637Z" fill="#D9DDE1" fill-opacity="0.4"/>
<path d="M430.818 338.64L431.113 337.408C431.27 336.755 432.014 336.439 432.593 336.78L453.72 349.211C454.109 349.439 454.297 349.899 454.178 350.334L453.839 351.585C453.666 352.222 452.934 352.52 452.366 352.184L431.282 339.734C430.903 339.511 430.715 339.067 430.818 338.64Z" fill="#D9DDE1" fill-opacity="0.4"/>
<path d="M464.548 356.978L464.793 349.664L473.682 354.764L470.81 359.718C470.81 359.718 470.491 360.184 470.032 360.307C469.572 360.429 469.143 360.277 468.948 360.164L465.283 358.055C465.087 357.942 464.92 357.786 464.793 357.6C464.666 357.413 464.582 357.201 464.548 356.978Z" fill="#D9DDE1" stroke="#8C96A2" stroke-width="0.7" stroke-linecap="round" stroke-linejoin="round"/>
<path d="M464.289 349.422L474.1 355.007L474.906 353.713L464.289 347.779V349.422Z" fill="#D9DDE1" stroke="#8C96A2" stroke-width="0.7" stroke-linecap="round" stroke-linejoin="round"/>
<path d="M466.178 351.912L465.944 357.239" stroke="#8C96A2" stroke-width="0.7" stroke-linecap="round" stroke-linejoin="round"/>
<path d="M468.867 353.412L467.602 358.1" stroke="#8C96A2" stroke-width="0.7" stroke-linecap="round" stroke-linejoin="round"/>
<path d="M469.234 359.054L471.32 354.896" stroke="#8C96A2" stroke-width="0.7" stroke-linecap="round" stroke-linejoin="round"/>
<path d="M465.944 348.592L469.014 346.293" stroke="#8C96A2" stroke-width="0.7" stroke-linecap="round" stroke-linejoin="round"/>
<path d="M473.169 352.633L472.549 348.148" stroke="#8C96A2" stroke-width="0.7" stroke-linecap="round" stroke-linejoin="round"/>
<g opacity="0.6">
<path d="M308.653 225.929L312.045 212.249C312.205 211.603 312.94 211.29 313.516 211.624L325.565 218.59C325.952 218.814 326.143 219.266 326.035 219.699L322.563 233.53C322.4 234.179 321.658 234.488 321.083 234.146L309.113 227.03C308.734 226.804 308.547 226.357 308.653 225.929Z" stroke="#E9E4FC" stroke-linecap="round"/>
<path d="M309.592 222.603L313.761 219.853C314.346 219.467 315.137 219.788 315.288 220.473L316.397 225.5C316.543 226.162 317.291 226.49 317.877 226.149L319.78 225.038C320.319 224.724 321.011 224.974 321.224 225.56L323.105 230.733" stroke="#E9E4FC" stroke-linecap="round"/>
<path d="M320.894 220.268C320.894 221.268 320.168 221.995 319.37 221.995C318.573 221.995 317.847 221.268 317.847 220.268C317.847 219.268 318.573 218.541 319.37 218.541C320.168 218.541 320.894 219.268 320.894 220.268Z" stroke="#E9E4FC"/>
<path d="M308.814 225.589L309.545 222.613C309.612 222.339 309.792 222.106 310.041 221.972L313.674 220.011C313.932 219.871 314.239 219.852 314.512 219.959L314.841 220.087C315.156 220.21 315.388 220.484 315.457 220.815L316.37 225.208C316.434 225.517 316.64 225.777 316.926 225.911L317.08 225.982C317.362 226.114 317.688 226.107 317.964 225.963L319.068 225.389C319.21 225.315 319.369 225.277 319.529 225.277H320.369C320.777 225.277 321.143 225.524 321.296 225.901L323.042 230.208C323.114 230.386 323.134 230.581 323.098 230.769L322.598 233.422C322.512 233.878 322.114 234.208 321.65 234.208C321.483 234.208 321.318 234.164 321.173 234.081L311.489 228.557C311.436 228.527 311.385 228.492 311.338 228.452L309.139 226.591C308.849 226.346 308.723 225.958 308.814 225.589Z" fill="#E9E4FC"/>
</g>
<g opacity="0.6">
<path d="M386.174 275.964L389.565 262.283C389.725 261.637 390.46 261.325 391.036 261.658L403.086 268.625C403.472 268.848 403.664 269.301 403.555 269.734L400.084 283.564C399.921 284.213 399.178 284.522 398.603 284.18L386.633 277.064C386.254 276.838 386.068 276.391 386.174 275.964Z" stroke="#8C96A2" stroke-linecap="round"/>
<path d="M387.112 272.638L391.281 269.888C391.866 269.502 392.657 269.823 392.808 270.508L393.917 275.535C394.063 276.197 394.812 276.525 395.397 276.184L397.301 275.073C397.839 274.759 398.531 275.009 398.744 275.595L400.625 280.77" stroke="#8C96A2" stroke-linecap="round"/>
<path d="M398.414 270.301C398.414 271.301 397.688 272.028 396.89 272.028C396.093 272.028 395.367 271.301 395.367 270.301C395.367 269.301 396.093 268.574 396.89 268.574C397.688 268.574 398.414 269.301 398.414 270.301Z" stroke="#8C96A2"/>
<path d="M386.334 275.624L387.065 272.649C387.132 272.374 387.313 272.141 387.561 272.007L391.194 270.046C391.452 269.906 391.759 269.887 392.032 269.994L392.361 270.122C392.677 270.245 392.908 270.519 392.977 270.85L393.89 275.243C393.954 275.552 394.16 275.812 394.446 275.946L394.6 276.018C394.882 276.149 395.209 276.142 395.484 275.999L396.588 275.425C396.731 275.351 396.889 275.312 397.049 275.312H397.889C398.297 275.312 398.663 275.559 398.816 275.936L400.562 280.243C400.634 280.421 400.654 280.616 400.618 280.805L400.118 283.458C400.032 283.913 399.634 284.243 399.17 284.243C399.003 284.243 398.838 284.199 398.693 284.116L389.009 278.592C388.956 278.562 388.905 278.527 388.858 278.487L386.659 276.626C386.37 276.381 386.244 275.993 386.334 275.624Z" fill="#8C96A2"/>
</g>
<g opacity="0.6">
<path d="M451.362 313.456L454.754 299.775C454.914 299.129 455.649 298.817 456.225 299.15L468.274 306.117C468.661 306.34 468.852 306.794 468.743 307.227L465.272 321.056C465.109 321.705 464.367 322.014 463.791 321.672L451.821 314.556C451.443 314.331 451.256 313.884 451.362 313.456Z" stroke="#ABB2BB" stroke-linecap="round"/>
<path d="M452.301 310.13L456.469 307.381C457.055 306.995 457.845 307.315 457.996 308L459.105 313.028C459.251 313.69 460 314.018 460.586 313.676L462.489 312.566C463.028 312.251 463.72 312.501 463.933 313.088L465.814 318.261" stroke="#ABB2BB" stroke-linecap="round"/>
<path d="M463.602 307.795C463.602 308.795 462.876 309.522 462.079 309.522C461.281 309.522 460.555 308.795 460.555 307.795C460.555 306.795 461.281 306.068 462.079 306.068C462.876 306.068 463.602 306.795 463.602 307.795Z" stroke="#ABB2BB"/>
<path d="M451.523 313.116L452.253 310.141C452.321 309.866 452.501 309.633 452.75 309.499L456.383 307.538C456.641 307.399 456.947 307.38 457.221 307.486L457.55 307.614C457.865 307.737 458.097 308.011 458.166 308.343L459.079 312.735C459.143 313.044 459.349 313.305 459.635 313.438L459.789 313.51C460.07 313.641 460.397 313.634 460.673 313.491L461.777 312.917C461.919 312.843 462.077 312.804 462.238 312.804H463.078C463.485 312.804 463.852 313.051 464.005 313.428L465.751 317.736C465.823 317.913 465.842 318.108 465.807 318.297L465.306 320.95C465.22 321.405 464.822 321.735 464.359 321.735C464.191 321.735 464.027 321.691 463.881 321.608L454.197 316.085C454.144 316.054 454.094 316.019 454.047 315.979L451.848 314.118C451.558 313.873 451.432 313.485 451.523 313.116Z" fill="#ABB2BB"/>
</g>
<path d="M115.292 521.548L370.007 546.749C370.759 546.822 371.49 547.044 372.156 547.403C372.823 547.763 373.412 548.251 373.891 548.841C375.407 550.721 376.269 553.051 376.343 555.472C376.418 557.894 375.701 560.273 374.303 562.245L374.028 562.63C373.439 563.454 372.646 564.108 371.727 564.525C370.809 564.942 369.798 565.106 368.796 565.004L113.871 539.259C112.484 539.124 111.122 538.806 109.817 538.315L83.3437 528.398C82.9688 528.258 82.6516 527.995 82.4429 527.652C82.2343 527.308 82.1464 526.904 82.1934 526.504C82.2405 526.104 82.4196 525.731 82.7022 525.446C82.9847 525.161 83.3541 524.98 83.7511 524.932L111.676 521.593C112.876 521.446 114.088 521.431 115.292 521.548Z" fill="#D9DDE1" stroke="#1F3543" stroke-linecap="round" stroke-linejoin="round"/>
<path d="M91.9537 523.963C91.9537 523.963 88.4181 527.515 90.9986 531.265L91.9537 523.963Z" fill="#D9DDE1"/>
<path d="M91.9537 523.963C91.9537 523.963 88.4181 527.515 90.9986 531.265" stroke="#1F3543" stroke-linecap="round" stroke-linejoin="round"/>
<path d="M113.511 521.473C111.231 525.687 110.506 530.577 111.462 535.278L113.511 521.473Z" fill="#D9DDE1"/>
<path d="M113.511 521.473C111.231 525.687 110.506 530.577 111.462 535.278" stroke="#1F3543" stroke-linecap="round" stroke-linejoin="round"/>
<path d="M368.796 565.006C368.796 565.006 365.064 561.763 366.451 554.807L368.796 565.006Z" fill="#D9DDE1"/>
<path d="M368.796 565.006C368.796 565.006 365.064 561.763 366.451 554.807" stroke="#1F3543" stroke-linecap="round" stroke-linejoin="round"/>
<path d="M368.336 550.902C372.587 553.655 373.718 559.569 373.752 562.182C374.889 560.665 375.419 558.999 375.542 558.355C375.81 552.814 371.431 549.059 369.207 547.874L113.258 523.115C112.688 524.062 112.252 525.917 112.104 526.726L368.336 550.902Z" fill="#F7F8F9"/>
<path d="M111.061 526.618C111.292 525.393 111.925 523.711 112.213 523.023L91.7465 525.01C91.5071 525.288 91.2257 525.857 91.1149 526.108L111.061 526.618Z" fill="#F7F8F9"/>
<path d="M215.61 390.061C214.432 388.765 214.49 387.881 214.49 387.528L213.44 383.113L209.803 379.336C207.889 379.697 203.762 381.368 203.285 381.541C202.809 381.715 200.052 385.337 199.511 386.006C198.752 388.715 197.268 394.501 197.398 395.975C197.56 397.817 198.481 397.492 201.407 399.28C204.333 401.067 202.653 403.451 210.509 403.885C218.365 404.318 220.912 402.747 221.995 400.58C223.079 398.413 221.631 394.229 218.967 392.771C216.303 391.312 216.682 391.24 215.61 390.061Z" fill="#F7CD83" stroke="#6E5521" stroke-width="0.5" stroke-linecap="round" stroke-linejoin="round"/>
<path d="M182.448 397.393C181.398 396.649 180.114 394.872 180.114 394.872L180.518 390.305L173.471 385.77C171.539 386.134 168.638 389.419 168.157 389.594C167.676 389.769 166.462 391.161 165.915 391.836C165.15 394.569 164.128 399.219 164.259 400.706C164.423 402.565 164.877 403.425 167.829 405.23C170.781 407.034 169.086 409.439 177.013 409.876C184.94 410.314 187.509 408.728 188.603 406.542C189.696 404.355 187.91 400.464 185.614 399.206C183.318 397.949 183.76 398.322 182.448 397.393Z" fill="#F7CD83" stroke="#6E5521" stroke-width="0.5" stroke-linecap="round" stroke-linejoin="round"/>
<path d="M166.333 402.623C165.517 402.095 164.633 400.522 164.292 399.801C163.812 401.901 164.712 403.283 166.333 404.243C167.953 405.203 169.094 406.103 169.574 407.064C170.054 408.024 171.374 409.345 174.195 409.705C177.016 410.065 182.838 410.485 186.078 409.345C189.319 408.204 189.619 404.843 189.319 404.243C189.019 403.643 188.479 399.801 183.198 399.382C177.916 398.962 173.295 405.203 172.815 406.103C172.335 407.004 171.074 406.163 170.114 405.203C169.154 404.243 167.353 403.283 166.333 402.623Z" fill="white" stroke="#6E5521" stroke-width="0.5" stroke-linecap="round" stroke-linejoin="round"/>
<path d="M204.734 295.842C207.203 301.653 212.912 316.952 215.993 331.661C216.407 332.722 217.236 335.242 217.236 336.838C217.236 338.833 215.993 343.589 215.993 345.89C215.993 348.192 215.24 366.881 213.486 379.475C213.76 379.777 214.33 380.795 214.427 382.45C214.546 384.484 213.613 383.893 214.386 387.069C214.401 387.126 214.414 387.181 214.427 387.235C214.413 387.179 214.399 387.123 214.386 387.069C213.879 385.127 212.048 381.545 208.383 381.545C203.669 381.545 201.493 384.907 201.252 386.071C201.058 387.002 201.171 388.873 201.252 389.692C200.16 390.561 197.848 393.163 197.327 396.618C196.546 396.385 194.983 395.559 194.983 394.11C194.983 392.299 196.155 392.149 195.894 389.692C195.634 387.235 194.072 388.061 194.983 386.071C195.894 384.08 195.894 381.294 195.894 380.041C195.894 378.787 194.853 367.067 193.161 360.241C191.807 354.78 193.204 342.364 194.072 336.838C191.685 331.359 187.718 318.972 186.676 317.635C186.676 322.368 187.431 333.114 187.431 338.792C187.431 345.89 186.891 347.627 185.741 349.965C184.59 352.304 181.466 375.73 180.118 387.235C180.417 387.815 181.015 389.298 181.015 390.588C181.015 391.96 180.367 392.534 180.172 394.084C180.175 394.424 180.154 394.736 180.118 395.003C180.118 394.66 180.138 394.357 180.172 394.084C180.157 392.104 179.345 389.163 176.094 388.381C171.333 387.235 168.158 389.993 168.158 393.305C166.882 394.336 164.33 397.035 164.33 399.59C163.414 398.407 161.726 395.654 162.3 394.11C163.016 392.18 163.493 392.149 162.896 389.692C162.3 387.235 163.732 387.884 163.732 386.071C163.732 384.258 163.614 374.675 162.3 364.836C160.986 354.998 165.524 342.604 165.763 340.304C166.001 338.004 162.169 327.264 160.258 319.026C158.347 310.788 157.001 303.266 157.001 298.309L204.734 295.842Z" fill="#F5BE49"/>
<path d="M186.676 317.635L191.894 311.864M186.676 317.635C187.718 318.972 191.685 331.359 194.072 336.838C193.204 342.364 191.807 354.78 193.161 360.241C194.853 367.067 195.894 378.787 195.894 380.041C195.894 381.294 195.894 384.08 194.983 386.071C194.072 388.061 195.634 387.235 195.894 389.692C196.155 392.149 194.983 392.299 194.983 394.11C194.983 395.559 196.546 396.385 197.327 396.618C197.848 393.163 200.16 390.561 201.252 389.692C201.171 388.873 201.058 387.002 201.252 386.071C201.493 384.907 203.669 381.545 208.383 381.545C212.154 381.545 213.984 385.338 214.427 387.235C213.581 383.872 214.548 384.519 214.427 382.45C214.33 380.795 213.76 379.777 213.486 379.475C215.24 366.881 215.993 348.192 215.993 345.89C215.993 343.589 217.236 338.833 217.236 336.838C217.236 335.242 216.407 332.722 215.993 331.661C212.912 316.952 207.203 301.653 204.734 295.842L157.001 298.309C157.001 303.266 158.347 310.788 160.258 319.026C162.169 327.264 166.001 338.004 165.763 340.304C165.524 342.604 160.986 354.998 162.3 364.836C163.614 374.675 163.732 384.258 163.732 386.071C163.732 387.884 162.3 387.235 162.896 389.692C163.493 392.149 163.016 392.18 162.3 394.11C161.726 395.654 163.414 398.407 164.33 399.59C164.33 397.035 166.882 394.336 168.158 393.305C168.158 389.993 171.333 387.235 176.094 388.381C179.904 389.298 180.364 393.178 180.118 395.003C180.118 392.711 181.015 392.202 181.015 390.588C181.015 389.298 180.417 387.815 180.118 387.235C181.466 375.73 184.59 352.304 185.741 349.965C186.891 347.627 187.431 345.89 187.431 338.792C187.431 333.114 186.676 322.368 186.676 317.635Z" stroke="#6E5521" stroke-width="0.5"/>
<path d="M156.852 238.144C161.447 234.706 173.237 227.745 183.642 227.413C194.046 227.081 198.768 228.197 201.489 229.35C202.007 229.31 203.136 229.298 203.513 229.57C203.89 229.842 204.019 230.294 204.036 230.486C204.246 230.46 204.738 230.491 205.031 230.826C205.397 231.245 206.196 232.416 207.149 233.165C208.102 233.914 223.333 243.188 227.145 247.204C228.324 246.97 231.295 246.514 233.739 246.562C236.183 246.61 238.791 246.582 239.789 246.562C243.085 245.919 244.771 250.09 244.771 253.738C244.771 257.386 241.965 261.314 239.789 261.314C236.931 261.784 230.766 262.738 228.974 262.798C226.734 262.872 223.075 262.051 221.656 262.126C220.238 262.2 219.342 261.155 217.998 259.886C216.922 258.87 208.788 254.819 204.856 252.921C204.486 257.39 203.615 267.281 203.089 271.094C203.158 271.384 203.336 272.092 203.491 272.61C203.685 273.257 202.585 274.358 202.585 274.746C202.585 275.134 204.979 290.213 205.432 295.973C205.885 301.732 174.291 306.164 156.853 298.547C156.518 295.834 158.105 284.907 159.307 275.136C158.592 273.463 157.777 271.392 156.862 268.924C155.18 264.383 151.649 253.114 151.985 248.572C152.255 244.939 154.708 240.206 156.852 238.144Z" fill="#F7CD83"/>
<path d="M156.852 238.144C161.447 234.706 173.237 227.745 183.642 227.413C194.046 227.081 198.768 228.197 201.489 229.35M156.852 238.144C154.708 240.206 152.255 244.939 151.985 248.572C151.649 253.114 155.18 264.383 156.862 268.924C158.545 273.465 159.89 276.661 160.9 278.511C161.707 279.991 172.449 286.752 177.719 289.948C180.242 289.387 187.427 284.97 188.503 278.511C185.252 274.979 176.542 269.227 175.196 267.747C175.407 267.432 175.702 266.682 175.196 266.202C174.828 265.853 174.471 266.063 173.942 266.623M156.852 238.144C158.303 238.672 161.783 240.326 164.063 242.726M201.489 229.35C202.007 229.31 203.136 229.298 203.513 229.57C203.89 229.842 204.019 230.294 204.036 230.486M201.489 229.35C202.308 231.14 204.129 235.404 204.856 238.144C205.582 240.884 205.697 243.528 205.663 244.508M204.036 230.486C204.246 230.46 204.738 230.491 205.031 230.826C205.397 231.245 206.196 232.416 207.149 233.165C208.102 233.914 223.333 243.188 227.145 247.204M204.036 230.486C204.146 231.091 204.37 232.556 204.395 233.578M227.145 247.204C226.101 248.247 223.837 250.852 223.129 252.921M227.145 247.204C228.324 246.97 231.295 246.514 233.739 246.562C236.183 246.61 238.791 246.582 239.789 246.562M239.789 246.562C238.737 247.878 236.606 251.157 236.493 253.738C236.353 256.965 237.613 261.314 239.789 261.314M239.789 246.562C243.085 245.919 244.771 250.09 244.771 253.738C244.771 257.386 241.965 261.314 239.789 261.314M239.789 261.314C236.931 261.784 230.766 262.738 228.974 262.798C226.734 262.872 223.075 262.051 221.656 262.126C220.238 262.2 219.342 261.155 217.998 259.886C216.922 258.87 208.788 254.819 204.856 252.921M204.856 252.921C204.486 257.39 203.615 267.281 203.089 271.094C203.158 271.384 203.336 272.092 203.491 272.61C203.685 273.257 202.585 274.358 202.585 274.746C202.585 275.134 204.979 290.213 205.432 295.973C205.885 301.732 174.291 306.164 156.853 298.547C156.518 295.834 158.105 284.907 159.307 275.136M204.856 252.921L205.031 250.688M168.938 271.153C169.614 270.753 171.264 269.623 172.464 268.302C173.091 267.612 173.561 267.027 173.942 266.623M173.942 266.623C173.999 266.158 173.994 265.137 173.514 264.777C173.034 264.417 170.264 254.127 168.938 249.026" stroke="#6E5521" stroke-width="0.5" stroke-linecap="round" stroke-linejoin="round"/>
<path d="M351.888 210.314C353.53 211.262 356.761 214.578 356.545 220.257M358.199 206.455C360.125 207.783 363.846 211.931 363.324 217.904" stroke="#2E076C" stroke-linecap="round"/>
<path d="M137.346 239.164C137.312 237.268 138.491 232.791 143.471 230.052M130.788 235.74C130.934 233.406 132.575 228.08 137.963 225.453" stroke="#6E5521" stroke-linecap="round"/>
<path d="M176.8 290.659V289.508L177.724 289.912C178.975 289.43 182.112 287.879 184.652 285.524C187.193 283.168 188.29 279.885 188.521 278.538L187.366 277.037C187.481 276.844 187.589 276.645 188.235 276.645C189.043 276.645 192.332 279.176 193.572 280.947C194.299 281.986 193.572 283.302 192.877 284.663C189.904 290.491 184.354 293.726 182.795 293.726C181.236 293.726 176.8 291.467 176.8 290.659Z" fill="#F7CD83"/>
<path d="M188.521 278.538L188.809 277.499M188.521 278.538L187.366 277.037C187.481 276.844 187.589 276.645 188.235 276.645C189.043 276.645 192.332 279.176 193.572 280.947C194.299 281.986 193.572 283.302 192.877 284.663C189.904 290.491 184.354 293.726 182.795 293.726C181.236 293.726 176.8 291.467 176.8 290.659C176.8 290.012 176.8 289.796 176.8 289.508L177.724 289.912C178.975 289.43 182.112 287.879 184.652 285.524C187.193 283.168 188.29 279.885 188.521 278.538Z" stroke="#6E5521" stroke-width="0.5" stroke-linecap="round" stroke-linejoin="round"/>
<path d="M175.418 233.927C175.418 227.041 174.221 222.685 172.686 219.973L187.579 225.65C185.88 228.69 188.268 233.035 188.589 233.927C189.147 237.006 187.246 241.625 186.39 242.374C182.877 241.603 177.062 236.875 175.418 233.927Z" fill="#FBE7CB" stroke="#6E5521" stroke-width="0.5" stroke-linejoin="round"/>
<path d="M174.255 232.102C173.794 232.437 173.01 233.56 173.563 235.372C174.255 237.637 180.042 242.92 186.772 244.87C187.485 244.262 189.125 242.216 189.98 238.895M190.483 235.687C190.84 234.303 190.886 231.347 188.219 230.592" stroke="#6E5521" stroke-width="0.5" stroke-linecap="round" stroke-linejoin="round"/>
<path d="M193.154 225.027C197.569 219.774 197.553 207.604 195.063 201.453C192.603 193.22 181.553 190.765 175.898 193.979C170.009 197.325 169.483 206.24 170.236 210.085C168.779 210.534 165.997 212.142 166.519 214.979C167.041 217.816 169.736 218.687 171.019 218.768C171.019 218.768 173.461 223.617 176.599 226.396C179.737 229.175 187.472 231.787 193.154 225.027Z" fill="#FBE7CB" stroke="#6E5521" stroke-width="0.5"/>
<path d="M183.531 207.465C182.767 207.114 181.601 206.439 180.573 205.817C179.907 205.414 178.728 205.121 179.214 205.729C179.67 206.298 180.157 207.932 179.431 207.869C178.029 207.746 176.678 207.385 175.551 206.992C174.567 206.648 173.458 207.687 173.734 208.692C175.075 213.575 174.045 216.955 173.628 217.665C172.842 219.004 172.75 212.404 170.634 210.499C170.371 210.263 169.987 210.275 169.673 210.437L168.548 211.015C168.028 211.283 167.386 211.1 167.113 210.583C162.537 201.917 167.069 194.584 173.969 190.631C181.109 186.54 187.933 188.386 193.09 192.399C196.203 194.822 198.608 199.862 198.382 201.788C198.202 203.328 196.866 208.634 196.704 210.468C195.627 207.667 194.391 205.553 193.372 204.086C192.765 203.214 190.809 203.714 190.282 204.637C189.534 205.951 188.51 207.318 187.708 208.287C187.446 208.603 187.026 208.738 186.63 208.629C184.947 208.167 183.772 207.587 183.585 207.491C183.566 207.482 183.55 207.474 183.531 207.465Z" fill="#6E5521"/>
<path d="M167.596 198.342C167.871 197.153 169.483 194.95 170.71 193.914C174.232 195.424 178.326 196.626 180.347 196.626C179.478 198.41 178.993 200.838 178.86 201.83C172.09 201.372 168.53 199.314 167.596 198.342Z" fill="#FBE7CB"/>
<path d="M180.798 201.829C180.798 200.24 181.611 197.698 182.047 196.625H186.179C187.014 197.728 187.85 200.554 188.164 201.829C185.949 202.58 182.33 202.142 180.798 201.829Z" fill="#FBE7CB"/>
<path d="M193.96 194.406C192.256 195.607 189.386 196.197 188.164 196.342C189.102 197.233 189.934 200.134 190.233 201.473C193.176 201.189 195.88 199.709 196.864 199.004C196.438 197.262 194.751 195.213 193.96 194.406Z" fill="#FBE7CB"/>
<path d="M193.083 284.279C194.029 285.052 197.398 288.015 198.214 288.483C199.235 289.067 202.034 291.32 203.717 292C205.4 292.679 205.64 293.145 206.355 294.126C207.071 295.106 208.655 296.909 209.211 298.029C209.767 299.149 210.318 304.435 210.123 305.233C209.929 306.031 209.864 306.456 209.363 306.698C209.337 307.118 208.99 307.959 207.808 307.966C207.645 308.499 207.023 309.404 205.839 308.757C204.985 308.29 204.021 305.443 202.762 303.167C202.162 302.594 201.715 302.162 200.767 300.899C201.477 301.927 202.231 303.111 202.449 303.766C202.905 305.132 203.383 306.153 203.516 307.208C203.65 308.262 202.502 308.936 201.496 307.694C200.49 306.453 199.079 303.134 198.372 302.582C197.666 302.031 195.329 301.451 193.063 299.197C190.796 296.942 191.312 295.431 190.082 294.092C189.097 293.02 186.796 292 186.796 292C186.796 292 189.05 290.125 190.478 288.483C191.905 286.841 193.083 284.279 193.083 284.279Z" fill="#FBE7CB"/>
<path d="M209.363 306.698C209.864 306.456 209.929 306.031 210.123 305.233C210.318 304.435 209.767 299.149 209.211 298.029C208.655 296.909 207.071 295.106 206.355 294.126C205.64 293.145 205.4 292.679 203.717 292C202.034 291.32 199.235 289.067 198.214 288.483C197.398 288.015 194.029 285.052 193.083 284.279C193.083 284.279 191.905 286.841 190.478 288.483C189.05 290.125 186.796 292 186.796 292C186.796 292 189.097 293.02 190.082 294.092C191.312 295.431 190.796 296.942 193.063 299.197C195.329 301.451 197.666 302.031 198.372 302.582C199.079 303.134 200.49 306.453 201.496 307.694C202.502 308.936 203.65 308.262 203.516 307.208C203.383 306.153 202.905 305.132 202.449 303.766C202.085 302.673 200.229 300.108 199.577 299.248C201.424 301.881 201.954 302.395 202.762 303.167C204.021 305.443 204.985 308.29 205.839 308.757C207.023 309.404 207.645 308.499 207.808 307.966M209.363 306.698C209.259 305.878 208.651 301.075 207.767 299.699C207.06 298.599 205.104 296.724 204.214 295.924M209.363 306.698C209.337 307.118 208.99 307.959 207.808 307.966M207.808 307.966C207.714 307.223 206.243 302.725 205.753 301.648C205.361 300.786 203.164 298.891 202.114 298.05" stroke="#6E5521" stroke-width="0.5" stroke-linecap="round" stroke-linejoin="round"/>
<path d="M188.099 218.418C188.061 218.914 187.694 219.933 186.537 220.036" stroke="#6E5521" stroke-width="0.5" stroke-linecap="round"/>
<path d="M186.627 224.101C185.834 224.288 183.768 224.245 181.846 222.57" stroke="#6E5521" stroke-width="0.5" stroke-linecap="round"/>
<path d="M183.018 213.221C181.743 213.354 179.476 213.893 177.83 214.941" stroke="#6E5521" stroke-width="0.5" stroke-linecap="round"/>
<path d="M182.682 209.529C181.162 209.902 178.462 210.881 176.504 212.271" stroke="#6E5521" stroke-width="0.5" stroke-linecap="round"/>
<path d="M188.277 208.594C189.842 208.577 192.701 208.853 194.944 209.711" stroke="#6E5521" stroke-width="0.5" stroke-linecap="round"/>
<path d="M193.802 211.768C191.905 211.166 189.888 211.168 188.335 212.144" stroke="#6E5521" stroke-width="0.5" stroke-linecap="round"/>
<path d="M182.772 216.193C182.141 216.45 181.455 214.911 181.191 214.109L182.653 213.516C182.956 214.302 183.404 215.937 182.772 216.193Z" fill="#6E5521" stroke="#6E5521" stroke-width="0.5" stroke-linecap="round"/>
<path d="M192.172 214.107C191.496 214.193 191.277 212.227 191.262 211.656H193.014C193.071 212.221 192.849 214.021 192.172 214.107Z" fill="#6E5521" stroke="#6E5521" stroke-width="0.5" stroke-linecap="round"/>
<path d="M244.24 245.738C244.751 245.879 245.158 246.13 245.297 246.238C249.265 251.047 248.152 256.247 247.089 258.42C246.239 260.159 245.051 261.144 244.563 261.419C241.726 262.358 239.892 262.013 239.33 261.723C235.888 258.377 236.114 254.639 236.201 252.906C236.288 251.173 238.634 246.238 239.33 246.238C240.025 246.238 243.6 245.562 244.24 245.738Z" fill="#F7CD83"/>
<path d="M243.6 247.169C243.745 246.986 244.075 246.59 244.24 246.473M243.6 247.169C245.228 247.169 246.313 248.566 246.653 249.264C247.018 249.853 247.882 254.639 247.089 256.813C246.296 258.987 245.473 259.78 244.563 260.544C243.834 261.155 243.065 260.799 242.771 260.544C240.92 258.84 240.098 255.08 240.509 252.906C240.838 251.167 242.707 248.357 243.6 247.169ZM245.297 246.238C245.158 246.13 244.751 245.879 244.24 245.738C243.6 245.562 240.025 246.238 239.33 246.238C238.634 246.238 236.288 251.173 236.201 252.906C236.114 254.639 235.888 258.377 239.33 261.723C239.892 262.013 241.726 262.358 244.563 261.419C245.051 261.144 246.239 260.159 247.089 258.42C248.152 256.247 249.265 251.047 245.297 246.238Z" stroke="#6E5521" stroke-width="0.5" stroke-linecap="round" stroke-linejoin="round"/>
<path d="M243.143 247.996L246.358 247.644C246.665 247.033 248.413 244.675 249.725 243.238C250.387 242.514 250.773 242.582 251.866 242.786C253.323 242.104 256.65 241.328 257.472 241.27C258.5 241.196 262.008 241.801 263.146 241.934C266.547 242.332 266.547 242.602 266.645 243.161C266.744 243.721 265.54 244.862 263.718 244.648C261.897 244.435 261.139 244.063 260.164 244.233C259.77 244.301 258.633 244.389 257.896 244.608C258.316 244.862 259.446 245.184 260.412 246.072C260.753 246.385 260.947 246.746 261.047 247.114C261.202 247.685 261.134 248.273 261.048 248.73C261.109 249.301 261.22 250.577 261.173 251.119C261.142 251.467 260.533 252.057 259.82 252.647C259.859 253.061 259.816 254.069 259.336 254.785C258.735 255.68 258.426 256.287 257.565 256.187C257.168 256.14 255.53 255.948 254.389 255.031C253.545 255.564 252.697 256.759 251.316 257.395C250.1 257.955 248.809 258.051 246.89 256.943C245.355 256.056 243.486 257.785 241.373 258.525C239.653 253.791 240.305 251.975 243.143 247.996Z" fill="#FBE7CB"/>
<path d="M246.358 247.644L243.143 247.996C240.305 251.975 239.653 253.791 241.373 258.525C243.486 257.785 245.355 256.056 246.89 256.943C248.809 258.051 250.1 257.955 251.316 257.395C252.697 256.759 253.545 255.564 254.389 255.031M246.358 247.644C246.665 247.033 248.413 244.675 249.725 243.238C250.387 242.514 250.773 242.582 251.866 242.786M246.358 247.644C245.878 248.409 245.622 248.924 245.787 250.493M250.406 253.23C250.816 252.804 251.888 251.323 252.188 250.067C252.563 248.497 252.105 245.878 252.671 245.945C253.236 246.011 254.65 247.071 256.105 247.443C257.638 247.834 258.091 246.62 257.405 245.959C257.176 245.738 256.645 245.283 256.277 244.951M251.866 242.786C252.74 242.951 253.8 243.268 254.048 243.325C254.42 243.412 255.539 244.286 256.277 244.951M251.866 242.786C253.323 242.104 256.65 241.328 257.472 241.27C258.5 241.196 262.008 241.801 263.146 241.934C266.547 242.332 266.547 242.602 266.645 243.161C266.744 243.721 265.54 244.862 263.718 244.648C261.897 244.435 261.139 244.063 260.164 244.233C259.77 244.301 258.633 244.389 257.896 244.608M256.277 244.951C256.277 244.951 257.174 244.821 257.896 244.608M257.896 244.608C258.316 244.862 259.446 245.184 260.412 246.072C260.753 246.385 260.947 246.746 261.047 247.114C261.202 247.685 261.134 248.273 261.048 248.73M261.048 248.73C260.993 249.021 260.93 249.259 260.913 249.406C260.852 249.932 257.917 251.383 257.091 251.48C256.266 251.577 253.545 250.327 253.087 249.886C252.629 249.445 252.755 247.849 254.011 247.996C254.294 248.043 255.039 248.117 256.18 248.434L256.922 248.612M261.048 248.73C261.109 249.301 261.22 250.577 261.173 251.119C261.142 251.467 260.533 252.057 259.82 252.647M253.677 250.274C252.784 250.062 252.342 251.341 253.2 251.975C253.251 252.013 253.316 252.061 253.393 252.118M259.82 252.647C259.147 253.203 258.383 253.759 257.927 254.11C257.061 254.778 254.335 252.815 253.393 252.118M259.82 252.647C259.859 253.061 259.816 254.069 259.336 254.785C258.735 255.68 258.426 256.287 257.565 256.187C257.168 256.14 255.53 255.948 254.389 255.031M254.389 255.031C254.389 255.031 252.655 253.579 252.755 252.728C252.803 252.315 253.207 252.15 253.393 252.118" stroke="#6E5521" stroke-width="0.5" stroke-linecap="round" stroke-linejoin="round"/>
<path d="M201.029 397.393C199.263 396.938 197.938 396.068 197.497 395.69C196.929 396.825 198.065 397.709 200.335 398.907C202.606 400.106 202.48 400.547 204.309 402.503C206.139 404.458 212.131 403.953 215.096 403.953C218.06 403.953 222.038 403.944 222.819 400.537C223.401 397.996 222.528 395.98 221.005 394.299C219.994 393.183 218.74 392.572 214.455 393.158C208.463 393.978 206.139 400.295 205.319 400.043C204.499 399.79 203.237 397.961 201.029 397.393Z" fill="white" stroke="#6E5521" stroke-width="0.5" stroke-linecap="round" stroke-linejoin="round"/>
<path d="M166.303 215.434C166.948 217.908 169.574 218.75 170.806 218.861C171.059 219.567 173.531 222.766 174.011 223.967C174.396 224.928 174.797 227.639 174.949 228.875C165.623 231.419 158.657 236.781 157.083 238.13C155.51 239.478 152.926 242.961 152.364 246.886C151.802 250.811 152.14 254.31 154.05 260.715C155.578 265.838 158.133 272.438 159.219 275.097C158.282 281.164 156.409 293.861 156.409 296.109C156.409 298.356 156.859 298.843 157.083 298.805C157.046 299.592 157.173 302.671 157.982 308.693C158.994 316.221 163.756 331.788 164.817 335.921C165.666 339.227 165.171 342.288 164.817 343.405C162.304 352.844 161.578 359.546 161.634 361.78C161.69 364.014 162.527 369.32 162.974 374.626C163.421 379.932 163.979 385.908 163.477 387.136C162.974 388.365 162.863 388.03 162.974 390.152C163.086 392.275 161.857 393.504 161.801 395.291C161.757 396.721 163.235 398.977 163.979 399.926C163.7 401.49 164.538 403.724 165.711 404.171C166.884 404.618 168.224 405.903 169.285 406.796C170.346 407.69 171.575 408.919 173.418 409.365C175.261 409.812 181.796 410.315 184.086 409.924C186.376 409.533 188.386 408.583 189.001 407.299C189.615 406.014 189.783 403.948 189.001 402.384C188.219 400.82 186.823 399.703 185.538 399.2C184.253 398.698 181.182 395.961 180.735 395.291C180.288 394.621 180.735 392.554 181.182 391.325C181.628 390.097 180.511 388.421 180.344 387.136C180.176 385.852 181.349 378.815 181.796 375.854C182.243 372.894 184.868 352.9 185.706 350.833C186.543 348.767 187.046 347.035 187.549 344.578C188.051 342.12 187.493 335.362 187.549 333.128C187.593 331.341 187.232 322.814 187.046 318.774L193.86 336.926C193.078 343.014 192.296 349.381 192.24 353.793C192.184 358.205 192.52 359.043 193.581 362.953C194.642 366.862 195.424 377.362 195.815 379.429C196.206 381.495 195.2 385.405 194.642 386.634C194.083 387.863 195.48 387.751 195.815 389.706C196.15 391.66 194.754 392.554 194.642 394.062C194.552 395.268 196.168 396.277 196.988 396.631C197.099 397.469 198.719 398.027 200.059 398.754C201.4 399.48 202.014 400.094 203.355 401.658C204.695 403.222 206.371 403.948 208.772 403.948C211.174 403.948 214.693 404.059 216.871 403.948C219.049 403.836 221.451 403.445 222.623 401.658C223.796 399.871 223.294 396.575 222.121 394.9C220.948 393.224 220.11 393.392 218.826 392.554C217.541 391.716 214.693 389.65 214.693 388.7C214.693 387.751 214.357 386.913 214.19 386.019C214.022 385.126 214.525 384.623 214.693 382.948C214.86 381.272 213.799 380.881 213.743 379.429C213.687 377.977 214.469 372.001 215.139 367.421C215.81 362.841 216.424 345.974 216.424 344.578C216.424 343.181 217.541 338.993 217.597 336.926C217.653 334.86 216.703 333.184 216.424 331.899C216.145 330.615 215.921 329.274 214.972 325.7C214.212 322.84 210.95 312.593 209.414 307.827L209.715 306.835C210.226 306.414 210.587 305.061 210.527 303.648C210.467 302.235 210.046 298.928 209.414 297.755C208.909 296.817 206.598 293.937 205.506 292.614C204.704 287.473 203.064 276.907 202.92 275.777C202.74 274.364 203.1 274.123 203.521 273.462C203.942 272.8 203.762 272.469 203.521 271.597C203.281 270.726 203.524 270.098 204.03 265.982C204.434 262.689 204.889 256.231 205.065 253.414C208.571 255.28 215.777 259.071 216.552 259.301C217.522 259.588 218.958 261.526 219.711 262.208C220.465 262.89 222.009 262.496 222.511 262.531C223.014 262.567 226.568 263.214 229.404 262.962C231.672 262.761 236.595 262.089 238.773 261.778C239.025 261.979 239.524 262.149 239.742 262.208C241.609 262.754 243.727 262.149 244.552 261.778C246.563 260.916 247.52 258.738 247.747 257.757C249.793 258.331 251.373 257.865 252.306 257.434C253.053 257.089 253.838 255.95 254.137 255.424C254.364 255.591 255.056 256.005 256.004 256.321C257.188 256.716 257.978 256.716 258.911 255.926C259.658 255.295 260.012 253.916 260.096 253.306C260.611 252.935 261.64 252.092 261.64 251.69C261.64 251.288 261.496 249.848 261.424 249.178C261.592 248.878 261.826 247.964 261.424 246.701C261.022 245.437 259.414 244.81 258.66 244.655C262.322 244.116 262.07 245.049 264.655 244.87C267.24 244.69 267.796 242.501 266.504 242.142C265.211 241.783 259.378 240.706 257.296 240.885C255.214 241.065 253.168 241.855 252.306 242.142C251.445 242.429 251.122 241.962 249.865 242.501C248.86 242.931 247.125 245.604 246.383 246.886C246.192 246.442 245.558 245.53 244.552 245.444C243.296 245.337 240.065 245.767 239.383 245.803C238.838 245.832 238.539 246.164 238.458 246.326C234.022 246.236 229.144 246.662 227.259 246.886C223.065 243.069 211.712 235.529 206.559 232.235C205.269 230.031 204.498 229.883 204.274 230.085C203.669 228.203 201.788 228.875 201.25 228.875C198.669 227.8 193.723 227.262 191.572 227.128C198.226 221.281 196.882 209.923 196.882 209.117C196.882 208.31 198.024 204.076 198.562 202.866C198.992 201.899 198.383 199.82 198.024 198.901C195.806 192.786 191.438 189.694 185.86 188.619C180.282 187.544 177.19 188.485 172.822 191.173C168.453 193.861 165.161 199.304 165.161 204.076C165.161 207.893 166.729 210.416 167.513 211.2C166.841 211.581 165.658 212.961 166.303 215.434Z" stroke="#6E5521" stroke-linecap="round" stroke-linejoin="round"/>
<g style="mix-blend-mode:multiply">
<path d="M180.079 211.516C181.082 211.366 182.274 211.788 182.744 212.017C183.119 212.177 183.277 212.519 181.019 212.864C178.762 213.208 176.755 214.682 176.849 214.055C176.943 213.428 178.824 211.704 180.079 211.516Z" fill="#F7CD83"/>
<path d="M188.332 210.002C189.143 209.303 190.441 209.408 190.989 209.548C191.334 209.613 194.38 210.247 194.38 210.911C194.38 211.575 192.667 210.806 190.989 210.736C189.311 210.666 187.318 210.876 188.332 210.002Z" fill="#F7CD83"/>
<path d="M186.15 219.819C187.196 219.769 187.595 219.203 187.664 218.927C187.913 218.304 187.664 218.221 187.27 218.346C186.876 218.47 184.843 219.881 186.15 219.819Z" fill="#F7CD83"/>
<path d="M183.495 224.84C182.333 224.508 181.586 223.907 181.524 223.761C181.161 223.431 180.445 223.388 181.019 224.508C181.594 225.628 182.084 225.836 183.204 225.836C184.324 225.836 184.656 225.172 183.495 224.84Z" fill="#F7CD83"/>
<path d="M167.592 216.727C165.387 213.706 167.809 211.499 169.296 210.773L170.332 210.316C170.571 210.386 170.959 210.814 171.122 211.019C171.913 212.283 172.334 214.18 172.773 216.024C173.125 217.5 173.353 217.857 173.423 217.851C173.312 217.991 172.939 217.963 172.334 216.727C171.579 215.181 169.401 212.863 168.506 213.618C167.61 214.374 168.225 215.901 168.4 216.727C168.541 217.387 167.92 217.002 167.592 216.727Z" fill="#F7CD83"/>
<path d="M175.685 207.564C174.913 207.237 174.267 207.37 174.041 207.477C174.863 206.606 175.563 207.004 175.745 207.056C175.926 207.109 176.493 207.343 177.762 207.612C178.776 207.827 179.379 207.867 179.553 207.86C179.028 208.318 176.649 207.971 175.685 207.564Z" fill="#F7CD83"/>
<path d="M183.413 207.86C181.647 207.02 179.988 206.252 179.38 205.974C178.981 205.442 178.965 205.36 179.553 205.393C180.142 205.426 181.62 206.455 183.297 207.335C184.638 208.039 186.246 208.525 186.882 208.68C186.462 208.757 185.179 208.701 183.413 207.86Z" fill="#F7CD83"/>
<path d="M185.068 234.106C184.202 233.086 183.658 230.622 183.495 229.517C179.019 229.245 175.9 226.402 174.899 225.014C175.511 227.937 175.683 232.123 175.692 233.851C175.851 234.304 176.722 235.323 177.137 235.777C179.403 237.731 183.991 240.337 185.068 239.487C186.144 238.637 186.15 235.38 185.068 234.106Z" fill="#F7CD83"/>
<path d="M178.164 240.076C178.721 238.986 177.448 237.059 176.742 236.232C175.953 235.403 175.35 234.395 175.148 233.995C175.186 232.569 175.036 230.359 174.957 229.432C173.921 229.703 170.9 230.679 167.097 232.418C163.294 234.158 159.332 237.024 157.826 238.239C158.658 238.59 159.814 239.237 160.288 239.516C159.899 239.237 159.333 238.681 160.179 238.696C161.026 238.71 163.622 240.637 164.814 241.599C167.006 239.172 171.381 236.501 173.294 235.468C172.69 233.636 173.486 232.385 173.959 231.989C174.037 231.901 174.235 231.755 174.405 231.872C174.574 231.99 174.533 232.176 174.491 232.254C174.307 232.395 174.119 232.624 174.048 232.721C173.745 233.098 173.321 234.237 174.048 235.778C174.774 237.318 177.095 239.285 178.164 240.076Z" fill="#F7CD83"/>
<path d="M175.167 264.123C174.517 263.299 172.511 259.552 171.59 257.781C171.635 257.956 171.885 258.866 172.529 261.109C173.174 263.353 173.58 264.358 173.703 264.58C173.79 264.619 173.931 264.822 173.991 264.918C174.134 265.148 174.223 265.717 174.25 265.972C174.627 265.634 175.167 265.649 175.568 266.203C175.889 266.647 175.702 267.393 175.568 267.711L175.926 268.08L184.111 274.368C183.749 273.302 182.832 271.018 182.051 270.411C181.075 269.652 175.98 265.153 175.167 264.123Z" fill="#F7CD83"/>
<path d="M169.209 268.496C170.849 267.845 172.301 265.969 172.821 265.112C173.517 264.131 172.04 264.58 170.869 265.972C169.697 267.364 167.419 267.064 166.28 268.659C165.141 270.254 167.158 269.31 169.209 268.496Z" fill="#F7CD83"/>
<path d="M163.419 242.458C161.899 240.865 158.743 239.285 157.356 238.695C156.589 239.151 155.308 240.992 154.733 241.974C154.158 242.956 153.379 244.393 152.912 246.957C152.445 249.52 152.721 252.335 152.996 254.048C153.272 255.761 153.909 258.154 154.072 258.792C154.202 259.302 154.781 261.209 155.054 262.1L156.248 265.67C156.546 266.512 157.167 268.259 157.268 268.509C157.368 268.759 158.339 271.34 158.812 272.599L159.731 274.887C159.801 275.122 159.736 275.329 159.694 275.403C160.096 276.302 160.974 278.19 161.272 278.558C161.644 279.018 162.893 280.004 164.908 281.428C166.52 282.567 170.501 285.13 172.29 286.269L177.723 289.62C182.499 287.364 184.229 285.795 185.982 283.531C187.384 281.719 188.055 279.49 188.216 278.602L187.822 278.207C187.099 282.567 183.308 286.399 181.373 286.601C179.437 286.803 178.59 286.48 175.926 285.795C173.262 285.109 162.363 278.141 162.122 277.809C161.88 277.478 161.579 275.245 162.122 274.371C162.665 273.496 164.082 273.798 163.962 273.104C163.841 272.41 160.795 273.194 159.859 271.053C158.924 268.911 157.235 259.259 156.843 256.454C156.451 253.649 156.481 244.328 158.201 244.057C159.92 243.785 165.018 245.836 165.379 245.716C165.741 245.595 165.319 244.449 163.419 242.458Z" fill="#F7CD83"/>
<path d="M157.858 298.649C157.858 293.412 159.865 283.309 160.868 278.912C161.439 279.609 162.742 280.55 165.588 282.557C167.865 284.162 173.835 287.858 176.536 289.504V290.572C176.536 290.975 176.872 291.322 177.04 291.445C178.088 292.318 180.203 293.288 181.347 293.695C182.492 294.103 183.035 294.122 184.258 293.598C185.236 293.179 186.256 292.505 186.644 292.221C187.019 292.376 187.983 292.834 188.837 293.424C189.904 294.161 190.311 294.626 190.719 295.771C191.126 296.916 191.301 297.479 192.329 298.778C193.151 299.818 194.457 300.733 195.007 301.06C176.216 304.091 162.411 300.716 157.858 298.649Z" fill="#F7CD83"/>
<path d="M177.089 290.677C177.057 290.566 177.076 290.131 177.089 289.927C177.127 289.947 177.257 290.01 177.479 290.103C177.751 290.217 177.825 290.185 178.004 290.108L178.016 290.103C178.167 290.038 178.58 289.857 178.768 289.775C179.636 290.475 181.525 292.03 182.137 292.644C182.748 293.259 182.044 293.28 181.615 293.213C180.433 292.83 179.528 292.357 178.647 291.876C177.766 291.395 177.13 290.816 177.089 290.677Z" fill="#F7CD83"/>
<path d="M190.963 229.313C190.212 228.9 189.177 228.76 188.753 228.742L187.32 229.227C187.371 229.711 187.615 230.542 187.782 231.138C187.948 231.735 188.577 233.293 188.821 233.742C189.016 234.101 189.15 234.037 189.193 233.96C189.632 232.139 188.36 230.905 188.291 230.899C188.222 230.894 187.879 230.821 187.947 230.542C188 230.318 188.199 230.301 188.291 230.32C188.943 230.552 189.276 230.581 190.144 231.58C190.839 232.379 190.956 233.773 190.927 234.371C191.252 232.857 191.715 229.726 190.963 229.313Z" fill="#F7CD83"/>
<path d="M203.698 233.9C203.493 233.272 202.428 230.792 201.922 229.631C202.895 229.75 202.981 230.126 203.203 230.689C203.425 231.253 203.954 234.686 203.698 233.9Z" fill="#F7CD83"/>
<path d="M204.723 233.901C204.682 232.876 204.478 231.402 204.381 230.793C204.91 230.793 204.979 232.159 205.013 233.03C205.047 233.901 204.774 235.182 204.723 233.901Z" fill="#F7CD83"/>
<path d="M216.199 244.88C214.153 243.237 207.696 238.8 204.723 236.787C205.37 238.552 205.989 241.738 205.93 244.212C205.883 246.191 205.417 250.305 205.19 252.114C209.048 253.618 217.069 256.819 218.285 257.593C219.805 258.561 219.483 259.743 220.957 259.743C222.431 259.743 224.069 260.864 227.131 260.726C230.192 260.588 235.348 259.101 235.894 259.743C236.331 260.257 237.04 261.07 237.339 261.413L238.479 261.248C238.141 260.83 237.18 259.56 236.959 258.961C236.739 258.361 236.123 257.146 235.997 255.82C235.871 254.495 235.618 253.248 236.391 250.991C237.01 249.186 237.943 247.483 238.332 246.857H238.033C237.734 247.148 237.013 247.911 236.522 248.63C235.909 249.527 231.79 249.2 229.687 249.2H225.744C225.101 249.921 224.343 251.111 224.069 251.572C223.851 251.941 223.529 252.677 223.395 252.998C223.355 253.086 223.228 253.248 223.036 253.186C222.845 253.125 222.837 252.927 222.857 252.836L223.08 252.288C223.838 250.559 225.518 248.53 226.264 247.732C225.341 246.977 224.586 248.99 223.999 249.2C223.412 249.409 218.757 246.935 216.199 244.88Z" fill="#F7CD83"/>
<path d="M240.514 251.902L236.728 251.713C236.633 251.899 236.52 252.543 236.475 252.842C236.371 253.3 236.463 255.02 236.522 255.822C236.812 257.596 237.411 258.797 237.675 259.175L241.271 258.963C240.752 258.036 240.388 256.483 240.27 255.822C239.881 253.767 240.27 252.353 240.514 251.902Z" fill="#F7CD83"/>
<path d="M243.367 260.555C242.715 260.354 242.036 259.217 241.778 258.673C242.113 258.673 243.702 257.67 244.956 257.189C245.96 256.804 246.503 257.028 246.65 257.189C245.583 259.781 244.182 260.806 243.367 260.555Z" fill="#F7CD83"/>
<path d="M241.382 251.32C241.754 250.541 242.805 248.953 243.284 248.256L245.845 247.986C245.723 248.211 245.626 248.512 245.592 248.634C245.418 249.168 245.471 250.173 245.52 250.608C245.031 250.908 243.821 251.752 242.892 252.728C241.731 253.947 240.918 252.292 241.382 251.32Z" fill="#F7CD83"/>
<path d="M247.09 250.609C246.54 251.253 246.178 250.769 246.066 250.447C246.03 250.115 245.98 249.348 246.066 248.932C246.173 248.412 246.32 248.079 247.161 246.806C248.002 245.533 249.905 243.441 250.226 243.135C250.541 242.835 251.046 242.917 251.512 242.992L251.542 242.997C251.921 243.058 252.638 243.226 252.949 243.303C253.5 243.517 252.766 243.639 251.756 244.052C250.746 244.465 249.523 246.225 249.171 247.219C248.819 248.213 247.779 249.804 247.09 250.609Z" fill="#F7CD83"/>
<path d="M258.868 246.342C258.522 245.984 257.54 245.365 257.092 245.1L256.896 245.14L257.323 245.506C257.693 245.799 257.879 246.13 257.926 246.26C258.168 246.999 257.753 247.442 257.4 247.621C257.048 247.801 256.571 247.85 256.128 247.732C255.686 247.615 255.043 247.442 253.902 246.806C252.989 246.297 252.734 246.225 252.72 246.253C252.637 246.419 252.63 247.02 252.63 247.442V248.714C252.734 248.27 252.969 247.946 253.41 247.787C253.852 247.628 254.372 247.767 254.891 247.85C255.409 247.933 256.75 248.306 256.934 248.341C257.117 248.375 257.214 248.506 257.193 248.679C257.176 248.818 257.013 248.88 256.934 248.894L256.529 248.796C255.735 248.594 255.172 248.493 254.262 248.306C253.353 248.118 253.136 248.638 253.122 249.157C253.11 249.573 253.309 249.754 253.41 249.793C253.699 249.989 254.31 250.298 254.58 250.428C255.804 250.994 256.659 251.174 256.934 251.193C256.544 250.212 257.092 249.374 257.323 249.157C257.554 248.941 258.868 248.551 259.099 248.306C259.331 248.06 259.302 246.789 258.868 246.342Z" fill="#F7CD83"/>
<path d="M256.336 242.997C255.731 242.752 253.716 242.701 252.806 242.705C253.198 242.812 254.065 243.04 254.225 243.096C254.426 243.166 254.827 243.432 255.138 243.653C255.387 243.829 256.071 244.398 256.382 244.661C256.791 244.604 257.582 244.413 257.926 244.324C257.648 243.984 256.941 243.242 256.336 242.997Z" fill="#F7CD83"/>
<path d="M199.466 273.372C200.577 273.335 201.627 272.461 202.013 272.029C202.552 271.532 202.013 271.52 200.994 271.52C199.975 271.52 195.669 272.585 195.252 272.909C194.835 273.233 198.077 273.418 199.466 273.372Z" fill="#F7CD83"/>
<path d="M257.193 253.959C256.364 253.282 256.674 252.195 256.934 251.736C255.987 251.736 253.92 250.676 253.66 250.54C253.401 250.405 252.995 250.608 252.983 251.014C252.972 251.42 253.051 251.578 253.66 252.007C254.27 252.436 255.183 253.067 255.973 253.496C256.605 253.839 257.05 253.947 257.193 253.959Z" fill="#F7CD83"/>
<path d="M257.323 255.91C256.797 255.585 256.934 254.804 257.067 254.454C256.325 254.295 255.369 253.749 254.983 253.495C254.52 253.225 253.696 252.645 253.341 252.389C253.258 252.41 253.075 252.501 253.013 252.702C252.935 252.953 253.122 253.349 253.739 254.048C254.233 254.608 254.667 254.943 254.822 255.041C255.752 255.627 256.877 255.864 257.323 255.91Z" fill="#F7CD83"/>
<path d="M252.983 250.135C252.697 249.959 252.594 249.465 252.579 249.24C252.528 251.039 251.271 252.574 250.769 253.219L250.766 253.223C250.264 253.868 249.349 255.042 250.226 255.909C251.105 256.777 253.436 255.623 253.62 255.294C253.767 255.031 253.894 254.964 253.939 254.964C253.755 254.79 253.306 254.339 252.983 253.926C252.58 253.409 252.426 252.903 252.52 252.574C252.595 252.311 252.796 252.121 252.887 252.059C252.088 251.072 252.618 250.365 252.983 250.135Z" fill="#F7CD83"/>
<path d="M246.519 256.183C246.125 255.641 246.052 254.366 246.066 253.796C246.066 252.395 244.779 255.182 244.956 255.66C245.133 256.137 247.012 256.861 246.519 256.183Z" fill="#F7CD83"/>
<path d="M203.969 295.296C204.082 295.459 204.578 295.905 204.812 296.108C206.092 297.295 207.544 298.949 207.919 299.48C208.218 299.905 208.429 300.531 208.496 300.791C208.47 300.646 208.403 300.236 208.34 299.761C208.262 299.168 206.763 297.201 205.671 296.108C204.578 295.015 203.829 295.093 203.969 295.296Z" fill="#F7CD83"/>
<path d="M202.439 297.436C202.239 297.698 202.356 297.899 202.439 297.967C204.533 299.687 205.658 301.015 205.8 301.24C205.915 301.42 206.084 301.776 206.155 301.932C206.071 301.495 205.771 300.449 205.234 299.762C204.562 298.904 202.689 297.108 202.439 297.436Z" fill="#F7CD83"/>
<path d="M202.641 293.403C202.802 293.148 203.228 292.965 203.422 292.906C203.51 292.711 203.173 292.622 202.641 292.782C202.108 292.942 202.439 293.723 202.641 293.403Z" fill="#F7CD83"/>
<path d="M200.139 295.478C200.366 295.138 200.777 294.863 200.955 294.769C201.363 294.242 200.387 294.272 199.997 294.609C199.606 294.946 199.855 295.904 200.139 295.478Z" fill="#F7CD83"/>
<path d="M199.269 296.385C198.971 296.606 198.612 296.939 198.471 297.077C197.761 297.219 198.222 296.261 198.471 296.109C198.719 295.957 199.642 296.109 199.269 296.385Z" fill="#F7CD83"/>
<path d="M196.678 298.496C197.019 298.113 197.589 298.277 197.832 298.407C198.045 298.674 197.707 298.603 197.211 298.833C196.714 299.064 196.252 298.975 196.678 298.496Z" fill="#F7CD83"/>
<path d="M189.478 289.926C188.485 290.924 187.59 291.684 187.267 291.94C187.856 292.242 189.212 292.995 189.923 293.594C190.812 294.343 191.147 295.489 191.217 295.653C191.288 295.817 191.483 296.83 192.512 298.211C193.541 299.591 195.343 300.722 196.029 301.104C196.715 301.486 197.877 301.993 198.314 302.242C198.75 302.492 199 302.973 199.187 303.248C199.337 303.469 199.785 304.286 199.99 304.668C200.305 305.263 201.066 306.645 201.597 307.412C202.127 308.18 202.67 308.158 202.875 308.052C202.284 308.052 201.847 307.264 201.431 306.804C201.015 306.344 200.139 304.221 199.438 302.973C198.738 301.725 198.059 301.878 196.417 300.937C194.776 299.996 193.265 297.741 192.105 294.771C191.177 292.394 189.967 290.55 189.478 289.926Z" fill="#F7CD83"/>
<path d="M203.263 302.355C202.885 302.016 200.924 300.239 199.99 299.393C200.148 299.583 200.552 300.096 200.903 300.63C201.343 301.297 202.439 302.583 202.742 302.81C202.984 302.993 203.19 303.385 203.263 303.559C203.669 304.378 204.548 306.173 204.808 306.803C205.069 307.432 205.492 308.059 205.671 308.294C205.025 306.455 203.64 302.693 203.263 302.355Z" fill="#F7CD83"/>
<path d="M195.803 328.201C194.423 325.27 192.613 316.288 191.88 312.164L187.008 317.596L189.983 325.14C192.023 328.646 196.113 335.943 196.148 337.082C196.191 338.504 194.768 345.833 194.854 351.566C194.94 357.3 195.803 359.197 196.536 362.215C197.268 365.232 199.251 379.588 199.251 380.665C199.251 381.743 198.777 383.812 197.958 385.192C197.139 386.571 196.32 386.658 196.536 387.304C196.751 387.951 198.174 388.21 198.389 388.899C198.605 389.589 197.312 390.063 197.01 391.227C196.708 392.391 196.492 393.685 197.01 393.641C197.527 393.598 198.734 390.365 199.251 389.589C199.769 388.813 199.251 387.865 199.251 386.356C199.251 384.847 199.898 382.131 201.278 380.881C202.657 379.631 202.528 379.501 202.571 378.251C202.614 377.001 200.157 367.776 199.251 362.215C198.346 356.653 198.734 345.79 198.863 344.108C198.993 342.427 200.717 341.479 202.83 342.082C204.942 342.686 207.27 342.082 208.391 341.694C209.512 341.306 205.977 340.789 204.597 340.444C203.218 340.099 199.683 337.814 198.519 336.306C197.355 334.797 197.527 331.865 195.803 328.201Z" fill="#F7CD83"/>
<path d="M215.35 340.443C214.045 340.731 211.688 341.383 212.698 341.693C213.961 342.081 216.928 341.184 215.35 340.443Z" fill="#F7CD83"/>
<path d="M207.179 378.899C208.886 378.943 211.1 379.574 211.994 379.884C214.296 380.521 210.024 377.75 208.164 377.695C206.304 377.641 205.045 378.845 207.179 378.899Z" fill="#F7CD83"/>
<path d="M178.768 349.223C180.701 349.223 182.572 348.868 183.266 348.69C186.347 347.358 183.932 350.606 183.266 351.022C182.599 351.439 178.768 351.605 176.186 350.606C173.604 349.606 172.022 347.358 172.688 347.108C173.355 346.858 176.353 349.223 178.768 349.223Z" fill="#F7CD83"/>
<path d="M170.002 304.403C165.688 303.219 159.91 301.067 157.56 300.139V299.152C160.463 300.497 166.48 301.654 169.125 302.064C171.595 302.364 177.81 302.929 182.907 302.785C188.004 302.641 193.478 301.824 195.578 301.434C196.008 301.599 197.007 302.016 197.56 302.355L197.627 302.396C198.255 302.781 198.327 302.825 198.701 303.247C199.088 303.684 200.139 306.148 200.955 307.411C201.608 308.422 202.351 308.652 202.641 308.64C202.674 309.29 202.48 310.568 201.431 310.471C200.119 310.351 198.314 305.697 197.56 305.337C196.806 304.977 196.417 303.982 195.007 304.403C193.597 304.824 175.394 305.883 170.002 304.403Z" fill="#F7CD83"/>
<path d="M163.258 360.636C163.02 355.394 165.211 345.825 166.336 341.695C166.859 339.677 167.509 339.476 167.673 341.003C167.836 342.53 166.336 352.726 165.873 357.47C165.411 362.213 166.557 384.369 166.912 385.525C167.268 386.681 168.631 386.148 169.847 385.91C171.062 385.673 173.581 386.355 170.973 387.305C168.365 388.256 167.386 391.838 167.357 392.816C167.333 393.599 166.26 394.486 165.727 394.832C165.252 394.871 164.168 395.075 163.622 395.573C162.941 396.195 162.881 395.099 163.267 393.913C163.652 392.727 165.341 390.949 166.142 390.386C166.942 389.823 166.023 388.459 165.341 389.319C164.66 390.178 163.771 389.734 163.978 389.319C164.185 388.904 164.946 388.238 165.144 387.305C165.343 386.373 163.556 367.189 163.258 360.636Z" fill="#F7CD83"/>
<path d="M162.199 319.928C160.435 312.989 159.504 305.916 159.259 303.247C159.259 299.692 161.17 308.051 162.199 313.166C163.228 318.281 164.184 323.088 164.698 325.587C165.213 328.086 167.673 338.449 166.977 338.302C166.28 338.155 164.404 328.601 162.199 319.928Z" fill="#F7CD83"/>
<path d="M174.391 393.403C172.913 393.374 170.442 394.019 169.391 394.345C167.927 394.737 166.637 395.425 166.175 395.72C164.812 397.356 164.536 399.138 164.569 399.825C164.655 400.047 164.958 400.662 165.477 401.35C166.126 402.21 165.866 402.048 167.181 402.842C168.495 403.637 169.582 404.432 169.874 404.67C170.166 404.908 170.88 405.698 171.674 406.103C172.31 406.428 172.556 406.141 172.599 405.957C172.885 405.464 173.381 404.894 173.594 404.67C173.618 404.248 173.608 403.236 173.377 402.569C173.087 401.736 170.623 400.613 169.391 398.946C168.159 397.28 168.522 397.28 170.623 395.903C172.724 394.526 178.159 395.359 178.775 394.831C179.391 394.302 176.239 393.439 174.391 393.403Z" fill="#F7CD83"/>
<path d="M165.555 403.385C164.627 402.689 164.413 401.25 164.421 400.617C164.727 401.123 165.442 402.219 165.86 402.553C166.383 402.969 167.601 403.721 167.74 403.787C167.879 403.852 169.22 404.669 169.874 405.313C170.528 405.957 171.289 406.499 171.674 406.65C172.06 406.801 174.782 409.151 173.594 408.892C172.406 408.633 171.674 408.142 171.09 407.668C170.505 407.193 168.784 405.678 167.927 404.966C167.07 404.255 166.714 404.255 165.555 403.385Z" fill="#F7CD83"/>
<path d="M202.4 388.615C201.908 387.835 202.106 386.454 202.266 385.861C202.343 385.522 201.91 385.699 201.607 386.56C201.364 387.249 201.43 389.02 201.493 389.819C199.242 391.488 198.084 394.4 197.787 395.647C199.156 396.6 200.538 396.994 200.715 397.057C200.892 397.12 201.343 397.145 202.172 397.547C202.835 397.869 203.68 398.494 204.019 398.766C204.803 399.5 205.259 399.767 205.389 399.809C205.781 399.487 206.499 398.477 206.809 398.012C205.778 397.032 201.197 396.637 200.715 395.647C200.234 394.658 200.127 393.989 200.715 392.679C201.304 391.369 203.309 390.192 204.646 390.085C205.983 389.978 208.042 389.23 206.464 389.123C204.887 389.016 203.015 389.589 202.4 388.615Z" fill="#F7CD83"/>
<path d="M199.808 397.261C199.083 397.032 198.043 396.398 197.614 396.109C197.614 397.204 198.549 397.393 199.713 398.011C200.878 398.629 201.567 398.961 202.814 400.313C203.811 401.394 204.546 402.115 204.789 402.341C206.316 403.499 207.501 403.052 207.607 402.341C207.712 401.63 205.389 400.449 204.963 400.155C204.539 399.862 203.974 399.393 203.461 398.968L203.452 398.961C202.937 398.534 201.927 397.9 201.301 397.723C200.675 397.547 200.715 397.546 199.808 397.261Z" fill="#F7CD83"/>
</g>
<path d="M72.0532 382.912V352.531L97.7283 361.658L112.694 353.024C116.728 350.698 121.304 349.475 125.961 349.475C130.618 349.475 135.193 350.698 139.228 353.024L245.07 414.11L348.58 454.538V484.933C348.587 486.899 348.067 488.831 347.077 490.53C346.086 492.229 344.659 493.632 342.944 494.595L312.668 512.986C308.633 515.317 304.054 516.545 299.394 516.545C294.733 516.545 290.154 515.317 286.119 512.986L77.563 392.63C75.8621 391.647 74.4546 390.228 73.486 388.52C72.5174 386.811 72.0227 384.875 72.0532 382.912Z" fill="#D9DDE1" stroke="#1F3543" stroke-linecap="round" stroke-linejoin="round"/>
<path d="M26.5937 431.125L49.1403 401.927C51.4924 398.859 54.6985 396.555 58.3561 395.302C62.0137 394.049 65.96 393.904 69.7 394.884L137.016 412.786L286.176 498.859C290.211 501.191 294.789 502.418 299.45 502.418C304.111 502.418 308.689 501.191 312.724 498.859L347.446 478.83C347.279 480.467 346.77 482.05 345.952 483.478L327.112 516.31C324.939 520.095 321.566 523.048 317.526 524.703C313.487 526.359 309.011 526.622 304.805 525.451L32.7236 449.66C30.8673 449.138 29.1676 448.169 27.7737 446.837C26.3799 445.505 25.3345 443.851 24.7293 442.021C24.124 440.191 23.9775 438.24 24.3026 436.34C24.6277 434.441 25.4144 432.65 26.5937 431.125Z" fill="#E9E4FC" stroke="#2E076C" stroke-linecap="round" stroke-linejoin="round"/>
<path d="M343.034 445.514L134.478 325.173C130.445 322.841 125.869 321.613 121.21 321.613C116.552 321.613 111.976 322.841 107.943 325.173L77.6899 342.841C75.9893 343.819 74.5766 345.228 73.5943 346.925C72.612 348.623 72.0948 350.549 72.0948 352.51C72.0948 354.471 72.612 356.398 73.5943 358.095C74.5766 359.793 75.9893 361.201 77.6899 362.179L286.246 482.535C290.283 484.86 294.861 486.084 299.52 486.084C304.18 486.084 308.757 484.86 312.795 482.535L343.034 464.853C344.731 463.872 346.14 462.462 347.12 460.765C348.099 459.068 348.615 457.143 348.615 455.184C348.615 453.224 348.099 451.299 347.12 449.602C346.14 447.905 344.731 446.495 343.034 445.514Z" fill="#F7F8F9" stroke="#1F3543" stroke-linecap="round" stroke-linejoin="round"/>
<path d="M125.445 327.131L78.2959 353.757L107.916 370.884L153.938 344.033L125.445 327.131Z" fill="white" stroke="#1F3543" stroke-linecap="round" stroke-linejoin="round"/>
<path d="M67.6285 401.504L33.6678 443.266L69.9255 453.365L103.182 410.828L67.6285 401.504Z" fill="#B4A2F7" stroke="#2E076C" stroke-linecap="round" stroke-linejoin="round"/>
<path d="M159.125 425.942L170.385 432.45L139.44 472.042L103.182 461.943L137.128 420.182L159.125 425.942Z" fill="#B4A2F7" stroke="#2E076C" stroke-linecap="round" stroke-linejoin="round"/>
<path d="M229.64 466.632L210.828 490.703L174.57 480.605L199.879 449.463L229.64 466.632Z" fill="#6610F2" stroke="#2E076C" stroke-linecap="round" stroke-linejoin="round"/>
<path d="M286.176 499.268C286.937 499.704 287.712 500.085 288.501 500.451L280.342 510.888L244.084 500.789L258.359 483.211L286.176 499.268Z" fill="#4F0CBB" stroke="#2E076C" stroke-linecap="round" stroke-linejoin="round"/>
<path d="M32.321 421.689L57.4008 394.636C60.0191 391.792 63.4192 389.785 67.1747 388.866C70.9301 387.947 74.8735 388.157 78.5102 389.47L143.944 413.35L287.456 495.659C291.265 498.344 295.714 499.978 300.356 500.397C304.998 500.816 309.669 500.005 313.897 498.045L347.225 478.755C346.912 480.37 346.724 481.153 345.892 483.148L326.657 516.719C324.153 520.293 320.528 522.931 316.356 524.217C312.184 525.502 307.703 525.362 303.619 523.818L36.7599 440.701C34.9581 440.014 33.3524 438.895 32.0839 437.443C30.8154 435.992 29.9229 434.251 29.4846 432.374C29.0463 430.497 29.0758 428.541 29.5703 426.678C30.0648 424.815 31.0094 423.102 32.321 421.689Z" fill="#E9E4FC" stroke="#2E076C" stroke-linecap="round" stroke-linejoin="round"/>
<path d="M76.9293 395.676L43.6736 436.513L79.229 448.203L111.78 406.591L76.9293 395.676Z" fill="white" stroke="#2E076C" stroke-linecap="round" stroke-linejoin="round"/>
<path d="M157.009 421.047L176.236 432.023L150.824 469.957L114.745 458.314L146.123 416.549L157.009 421.047Z" fill="#B4A2F7" stroke="#2E076C" stroke-linecap="round" stroke-linejoin="round"/>
<path d="M239.334 468.299L224.413 492.639L189.507 481.043L208.872 450.689L239.334 468.299Z" fill="#6610F2" stroke="#2E076C" stroke-linecap="round" stroke-linejoin="round"/>
<path d="M296.702 499.909C297.82 500.189 302.281 500.667 302.281 500.667L295.027 514.693L259.374 503.141L269.558 485.555C269.558 485.555 289.958 497.254 292.404 498.407C294.85 499.56 296.702 499.909 296.702 499.909Z" fill="#4F0CBB" stroke="#2E076C" stroke-linecap="round" stroke-linejoin="round"/>
<path d="M175.148 356.678L129.195 383.728L158.83 400.856L203.641 373.58L175.148 356.678Z" fill="#D9DDE1" stroke="#1F3543" stroke-linecap="round" stroke-linejoin="round"/>
<path d="M230.644 388.844L184.054 415.857L213.688 432.984L259.138 405.76L230.644 388.844Z" fill="#8C96A2" stroke="#1F3543" stroke-linecap="round" stroke-linejoin="round"/>
<path d="M287.217 421.088L241.28 447.633L270.914 464.76L315.71 437.99L287.217 421.088Z" fill="#4E5D6B" stroke="#1F3543" stroke-linecap="round" stroke-linejoin="round"/>
<g style="mix-blend-mode:multiply">
<path d="M313.691 498.726L346.788 479.798C346.702 480.357 346.567 480.743 346.292 481.58C346.072 482.25 345.543 483.201 345.307 483.593L328.767 512.436L326.483 516.413C325.319 518.309 323.832 519.888 323.234 520.44C321.819 521.865 319.667 523.133 318.768 523.588C317.072 524.522 314.633 525.148 313.625 525.345C311.829 525.696 309.874 525.692 309.122 525.646C307.987 525.616 306.433 525.34 305.797 525.207L303.613 524.607L299.421 523.451L82.2563 391.49L143.863 413.961L192.593 441.861L256.978 478.724L289.741 497.675C289.974 497.819 293.321 499.529 296.046 500.275C298.772 501.021 300.85 501.121 302.297 501.049C306.256 500.734 307.886 500.616 308.657 500.275C310.465 499.73 312.827 499.233 313.691 498.726Z" fill="#D0C6FA"/>
</g>
<path d="M234.945 336.649C232.967 333.971 231.123 331.518 231.019 331.309C229.816 332.616 224.977 334.797 221.525 336.178C221.551 336.387 221.729 336.868 222.231 337.12C224.212 339.503 230.678 344.791 236.49 349.386C237.69 350.335 238.672 351.161 238.117 351.995C237.672 352.662 237.931 353.709 238.117 354.149L239.367 353.732C239.715 353.871 240.799 354.149 242.355 354.149C244.301 354.149 247.22 356.164 247.776 356.581C248.331 356.998 249.513 359.638 249.721 360.333C249.888 360.889 250.903 362.742 251.389 363.599C251.528 362.14 251.945 360.82 251.736 359.638C251.528 358.457 251.319 354.774 250.277 354.149C249.235 353.523 244.969 350.081 244.691 349.386C244.413 348.691 244.066 347.51 242.815 347.023C241.814 346.634 237.638 340.294 234.945 336.649Z" fill="#FBE7CB" stroke="#6E5521" stroke-width="0.5" stroke-linecap="round" stroke-linejoin="round"/>
<path d="M173.209 327.961C172.805 327.607 172.535 326.929 172.451 326.635C175.179 327.999 179.651 328.761 181.546 328.971C182.557 338.623 182.641 342.046 182.557 342.551C173.777 332.698 173.714 328.403 173.209 327.961Z" fill="#FBE7CB" stroke="#6E5521" stroke-width="0.5" stroke-linecap="round" stroke-linejoin="round"/>
<path d="M243.047 354.278C249.868 356.205 248.533 359.319 250.313 362.136C252.092 364.954 251.166 371.443 251.166 373.519C251.166 375.595 249.839 386.581 249.097 391.474L232.548 381.63C226.088 384.911 217.991 388.567 212.768 389.546C203.278 391.326 184.297 380.353 182.518 375.459C181.094 371.545 181.43 365.129 181.776 362.41L223.889 358.555C223.39 355.148 221.596 353.824 222.066 352.031C223.86 351.351 226.86 350.574 228.922 350.145C229.982 349.925 231.073 350.143 232.014 350.68L237.823 353.995C239.966 353.607 241.368 353.803 243.047 354.278Z" fill="#F5BE49"/>
<path d="M223.889 358.555L181.776 362.41C181.43 365.129 181.094 371.545 182.518 375.459C184.297 380.353 203.278 391.326 212.768 389.546C217.991 388.567 226.088 384.911 232.548 381.63M223.889 358.555C226.998 357.557 233.002 354.869 237.823 353.995M223.889 358.555C223.39 355.148 221.596 353.824 222.066 352.031C223.86 351.351 226.86 350.574 228.922 350.145C229.982 349.925 231.073 350.143 232.014 350.68L237.823 353.995M239.904 377.684C238.069 378.732 235.477 380.143 232.548 381.63M232.548 381.63L249.097 391.474C249.839 386.581 251.166 375.595 251.166 373.519C251.166 371.443 252.092 364.954 250.313 362.136C248.533 359.319 249.868 356.205 243.047 354.278C241.368 353.803 239.966 353.607 237.823 353.995" stroke="#6E5521" stroke-width="0.5" stroke-linecap="round" stroke-linejoin="round"/>
<path d="M195.615 290.965C201.501 292.166 207.747 292.767 215.315 297.692C216.356 298.493 218.508 299.271 220.234 301.889C221.916 303.77 223.67 307.956 224.169 312.251C224.835 317.988 229.914 328.287 230.397 329.704C230.47 329.918 230.656 330.086 230.814 330.295C230.934 330.454 231.056 330.626 231.083 330.822C231.381 332.966 220.727 338.399 218.105 337.726C219.44 338.53 218.789 341.841 218.858 343.564C218.95 345.865 219.826 346.129 219.826 347.527C219.826 348.925 220.286 350.411 221.115 350.78C221.677 351.03 222.855 354.151 223.61 356.375C223.846 357.07 223.819 357.834 223.434 358.459C221.136 362.185 214.065 368.421 199.762 369.831C196.538 369.773 188.722 368.28 182.252 362.883C181.666 362.393 181.334 361.68 181.361 360.916C181.482 357.449 182.224 348.474 182.255 346.321C182.33 341.11 181.542 334.629 180.992 328.783C174.999 328.191 171.895 326.786 170.619 325.79C170.159 325.431 169.996 324.845 170.082 324.268C170.873 318.988 176.963 304.609 180.09 297.692C180.246 297.315 180.422 296.965 180.619 296.645C183.551 291.872 189.24 290.197 191.718 290.646C192.918 290.601 194.231 290.683 195.615 290.965Z" fill="#F7CD83"/>
<path d="M181.355 297.692C183.291 293.008 188.833 290.756 191.718 290.646M220.234 301.889C218.508 299.271 216.356 298.493 215.315 297.692C207.747 292.767 201.501 292.166 195.615 290.965C194.231 290.683 192.918 290.601 191.718 290.646M220.234 301.889C218.432 302.089 213.321 303.549 212.072 305.567C210.822 307.585 209.186 312.021 210.066 317.742M220.234 301.889C221.916 303.77 223.67 307.956 224.169 312.251C224.835 317.988 229.914 328.287 230.397 329.704C230.47 329.918 230.656 330.086 230.814 330.295C230.934 330.454 231.056 330.626 231.083 330.822C231.394 333.063 219.748 338.894 217.802 337.597M217.802 337.597C217.802 337.597 212.985 325.573 212.522 323.394M217.802 337.597C219.532 338.069 218.784 341.723 218.858 343.564C218.95 345.865 219.826 346.129 219.826 347.527C219.826 348.925 220.286 350.411 221.115 350.78C221.677 351.03 222.855 354.151 223.61 356.375C223.846 357.07 223.819 357.834 223.434 358.459C221.136 362.185 214.065 368.421 199.762 369.831C196.538 369.773 188.722 368.28 182.252 362.883C181.666 362.393 181.334 361.68 181.361 360.916C181.482 357.449 182.224 348.474 182.255 346.321C182.33 341.11 181.542 334.629 180.992 328.783M191.718 290.646C189.24 290.197 183.551 291.872 180.619 296.645C180.422 296.965 180.246 297.315 180.09 297.692M180.09 297.692C177.504 303.926 180.198 317.523 180.619 324.186C180.711 325.646 180.843 327.191 180.992 328.783M180.09 297.692C176.963 304.609 170.873 318.988 170.082 324.268C169.996 324.845 170.159 325.431 170.619 325.79C171.895 326.786 174.999 328.191 180.992 328.783M217.802 337.597C215.049 336.164 219.607 339.041 217.802 337.597V337.597Z" stroke="#6E5521" stroke-width="0.5" stroke-linecap="round" stroke-linejoin="round"/>
<path d="M216.239 275.441C216.239 269.871 215.313 263.494 214.779 262.022C208.914 250.023 197.048 253.552 193.125 258.612C189.202 263.672 188.861 274.585 190.851 278.796C192.841 283.008 194.603 283.288 194.603 285.335V291.057C194.603 291.596 194.694 292.141 194.979 292.598C197.325 296.355 203.614 295.382 205.651 293.213C205.233 291.166 204.653 289.233 204.827 288.055C213.552 288.055 215.731 282.34 215.801 278.463C216.633 277.893 217.081 277.619 217.081 276.825C217.081 276.398 216.488 275.689 216.239 275.441Z" fill="#FBE7CB" stroke="#6E5521" stroke-width="0.5" stroke-linejoin="round"/>
<path d="M193.063 291.578C192.907 292.683 193.436 295.19 196.796 296.385C200.996 297.878 205.429 295.685 206.269 294.845" stroke="#6E5521" stroke-width="0.5" stroke-linecap="round" stroke-linejoin="round"/>
<path d="M206.803 271.021C206.803 271.021 206.068 270.295 205.213 270.597C203.565 271.179 203.032 275.231 204.899 276.656C205.679 277.252 206.501 276.873 206.501 276.873" stroke="#6E5521" stroke-width="0.5" stroke-linecap="round"/>
<path d="M218.2 258.67C214.695 256.423 208.29 253.086 205.713 252.297C200.176 250.655 197.248 251.648 194.856 252.78C187.113 256.445 185.356 264.011 185.658 268.788C185.959 273.566 187.754 277.017 190.975 280.245C194.403 283.682 195.727 284.5 196.632 285.339C202.166 282.823 205.836 278.885 204.798 277.535C203.759 276.185 202.892 274.542 203.723 272.361C204.554 270.18 205.837 269.876 207.067 271.226C208.051 272.307 208.114 274.824 208.085 276.867C210.661 272.795 212.191 267 212.633 264.611C212.322 266.804 211.885 271.076 212.633 270.627C213.569 270.066 222.68 261.542 218.2 258.67Z" fill="#6E5521" stroke="#6E5521" stroke-width="0.5" stroke-linecap="round" stroke-linejoin="round"/>
<path d="M216.145 258.04C215.105 257.6 213.38 256.458 212.647 255.941C211.368 257.42 208.616 258.756 207.401 259.239C208.2 260.199 209.699 263.27 210.349 264.686C214.506 262.287 215.945 259.256 216.145 258.04Z" fill="#FBE7CB"/>
<path d="M208.632 265.129C208.147 263.11 206.679 260.82 206.006 259.928L204.844 260.383C205.168 261.297 205.417 264.77 205.501 266.392C206.874 266.15 208.161 265.449 208.632 265.129Z" fill="#FBE7CB"/>
<path d="M203.229 266.695C203.511 265.039 203.346 261.965 203.229 260.635C197.532 262.711 190.691 261.029 187.982 259.928C186.738 261.96 186.427 264.242 186.427 265.129C190.683 268.725 199.401 267.671 203.229 266.695Z" fill="#FBE7CB"/>
<path d="M215.924 271.424C215.184 271.476 213.941 271.822 213.194 272.615" stroke="#6E5521" stroke-width="0.5" stroke-linecap="round"/>
<path d="M211.077 281.289C211.486 281.908 212.398 282.821 213.455 283.081" stroke="#6E5521" stroke-width="0.5" stroke-linecap="round"/>
<path d="M215.112 273.259C214.748 273.259 214.718 272.232 214.748 271.719H215.59C215.583 272.232 215.476 273.259 215.112 273.259Z" fill="#6E5521" stroke="#6E5521" stroke-width="0.5" stroke-linecap="round"/>
<path d="M159.353 331.685C158.165 330.451 156.192 326.764 157.803 321.889M152.909 333.453C151.57 331.818 149.38 327.286 151.329 322.233" stroke="#6E5521" stroke-linecap="round"/>
<path d="M193.039 255.168C192.212 252.87 188.766 248.965 181.598 251.722C174.43 254.478 170.662 259.63 168.824 262.984C168.384 263.747 168.309 264.973 168.455 266.208C168.824 269.329 170.509 270.291 171.277 271.037L173.93 268.384L172.892 272.293C173.718 273.015 179.252 274.74 180.887 273.021C181.15 272.745 181.312 272.379 181.338 271.907C183.214 267.223 185.68 260.914 191.277 260.235L193.039 255.168Z" fill="#6E5521"/>
<path d="M168.824 262.984C170.662 259.63 174.43 254.478 181.598 251.722C188.766 248.965 192.212 252.87 193.039 255.168L191.277 260.235C185.221 260.969 182.831 268.295 180.887 273.021M168.824 262.984C171.535 263.306 178.792 265.097 180.887 269.949C181.546 271.476 181.437 272.443 180.887 273.021M168.824 262.984C168.384 263.747 168.309 264.973 168.455 266.208C168.824 269.329 170.509 270.291 171.277 271.037L173.93 268.384L172.892 272.293C173.718 273.015 179.252 274.74 180.887 273.021" stroke="#6E5521"/>
<path d="M240.286 352.852C241.243 354.013 244.024 356.453 247.502 356.922H248.89" stroke="#6E5521" stroke-width="0.5" stroke-linecap="round" stroke-linejoin="round"/>
<path d="M248.471 356.69C245.021 356.747 242.236 354.604 241.275 353.525L245.846 353.831L248.471 356.69Z" fill="#FBE7CB"/>
<path d="M249.894 359.77C250.023 359.819 250.168 359.754 250.217 359.625C250.266 359.496 250.201 359.351 250.071 359.302L249.894 359.77ZM248.242 357.814C248.35 358.059 248.519 358.43 248.678 358.749C248.757 358.908 248.835 359.058 248.903 359.174C248.937 359.232 248.971 359.285 249.003 359.329C249.019 359.351 249.037 359.374 249.057 359.395C249.074 359.413 249.107 359.445 249.154 359.469L249.377 359.022C249.395 359.03 249.407 359.039 249.411 359.043C249.414 359.046 249.416 359.047 249.418 359.049C249.419 359.05 249.419 359.051 249.42 359.051C249.42 359.051 249.419 359.05 249.416 359.046C249.414 359.043 249.41 359.039 249.406 359.033C249.389 359.01 249.365 358.972 249.335 358.921C249.275 358.82 249.203 358.682 249.125 358.527C248.971 358.217 248.805 357.853 248.7 357.613L248.242 357.814ZM249.154 359.469C249.292 359.538 249.713 359.701 249.894 359.77L250.071 359.302C249.878 359.229 249.487 359.077 249.377 359.022L249.154 359.469Z" fill="#6E5521"/>
<g style="mix-blend-mode:multiply">
<path d="M193.236 282.351C190.082 279.34 187.939 276.889 186.457 273.156C185.019 269.539 185.509 265.849 186.294 263.169C183.899 265.674 181.979 270.611 181.318 272.765C179.385 275.092 174.772 273.533 172.707 272.463L173.425 269.215L171.158 271.179C167.653 268.188 167.995 264.75 168.605 263.406C172.497 255.313 180 251.882 183.265 251.178C180.039 256.607 184.242 260.107 187.939 259.171C187.939 259.171 189.58 258.897 191.103 257.737C193.377 256.004 192.827 254.096 192.827 254.096C193.933 253.348 194.935 252.848 195.59 252.596C205.059 248.932 207.157 264.148 206.697 267.172C206.329 269.592 205.506 270.217 205.14 270.227C204.835 270.338 204.129 270.766 203.755 271.594C203.286 272.628 203.311 274.391 203.538 275.073C203.766 275.755 204.263 276.607 204.973 276.991C205.541 277.298 206.128 277.257 206.35 277.198C206.551 277.729 206.833 279.116 206.35 280.42C205.747 282.05 201.521 283.922 200.796 285.612C200.217 286.964 200.76 292.342 201.104 294.861C201.904 296.713 204.792 295.912 206.136 295.28C207.081 295.833 209.426 297.331 211.244 298.899C213.063 300.467 214.708 302.196 215.355 303.016C215.033 303.099 213.322 303.977 212.8 304.436L212.779 304.455C212.089 305.063 211.821 305.299 211.005 307.084C210.199 308.849 209.942 310.534 209.662 312.363L209.644 312.482C209.415 313.981 209.648 316.612 209.793 317.739C209.804 317.842 209.877 318.039 210.074 318.008C210.271 317.977 210.3 317.816 210.29 317.739C210.281 317.632 210.241 317.269 210.155 316.681C210.048 315.945 210.039 314.447 210.075 313.325C210.11 312.204 210.406 310.508 210.747 309.333C211.088 308.158 211.483 307.108 211.932 306.291C212.38 305.475 212.542 305.269 213.188 304.829C213.704 304.477 214.297 304.24 214.529 304.165C215.131 304.165 216.753 304.731 217.474 307.066C218.375 309.985 218.697 315.341 221.659 321.169C224.028 325.831 227.258 331.195 228.577 333.294C225.853 335.291 222.052 336.736 220.491 337.209C219.357 334.916 216.047 326.078 214.534 321.946C213.911 321.012 211.737 320.171 212.171 323.05C212.247 323.557 214.162 329.131 214.008 329.182C213.854 329.233 213.825 329.412 213.875 329.518C213.916 329.602 214.084 329.87 214.162 329.993L215.939 332.823C215.97 335.741 216.073 341.848 216.242 342.938C216.454 344.3 217.666 345.239 217.666 346.602C217.666 347.965 215.909 349.267 216.03 351.841C216.149 354.362 218.418 352.845 219.023 352.44L219.059 352.416C219.604 352.053 220.482 355.808 220.936 357.625C221.299 359.078 221.188 360.592 221.087 361.168C219.731 362.549 217.554 364.004 216.636 364.559C213.583 366.473 208.968 367.892 207.042 368.363C203.16 369.563 199.559 369.723 197.638 369.403C195.717 369.083 191.715 368.043 188.434 366.482C185.809 365.233 183.521 363.473 182.705 362.749C183.201 359.847 184.159 352.962 184.02 348.633C183.845 343.223 180.989 322.694 180.806 321.169C180.624 319.644 180.143 315.484 179.928 313.247C179.712 311.009 179.398 307.943 179.431 305.043C179.464 302.142 179.803 299.808 180.394 298.138C180.866 296.802 181.766 296.191 182.157 296.053C181.931 296.329 181.379 297.5 181.351 297.605C181.323 297.71 181.323 297.852 181.484 297.925C181.612 297.983 181.724 297.901 181.764 297.852C182.691 295.536 184.389 293.761 187.682 292.063C190.317 290.705 193.236 290.612 194.84 290.974V286.94C194.856 286.51 194.867 285.449 194.78 284.655C194.694 283.86 193.715 282.788 193.236 282.351Z" fill="#F7CD83"/>
<path d="M213.063 273.754C214.09 273.987 215.041 274.093 215.388 274.118C216.575 274.263 215.388 275.256 214.201 275.111C213.014 274.966 211.779 273.464 213.063 273.754Z" fill="#F7CD83"/>
<path d="M172.27 324.837C172.23 320.95 176.762 311.963 179.033 307.955C179.033 310.869 180.335 321.168 180.806 327.141C181.183 331.92 181.852 339.385 182.139 342.52C178.866 338.245 172.31 328.724 172.27 324.837Z" fill="#F7CD83"/>
<path d="M207.628 368.723C210.718 368.044 214.942 366.381 218.401 363.967C221.33 362.236 223.003 359.831 223.473 358.845C223.779 358.877 224.472 358.647 224.781 358.528C226.995 357.683 232.187 355.763 235.24 354.844C238.294 353.925 240.492 353.985 241.21 354.131C243.914 356.561 246.739 357.166 247.813 357.165C248.711 358.389 249.054 359.805 249.385 360.76C249.715 361.715 249.886 361.77 250.507 363.111C251.004 364.184 251.137 366.12 251.141 366.954C250.084 366.334 249.141 362.913 247.641 361.355C246.142 359.796 227.569 362.276 219.059 369.402C210.548 376.528 237.551 379.299 233.176 381.593C234.619 380.836 237.718 379.211 238.562 378.768C239.619 378.213 240.807 377.21 241.361 377.421C241.916 377.632 242.681 380.669 242.391 382.755C242.159 384.424 241.889 386.003 241.784 386.583L233.176 381.593C206.136 395.773 199.538 386.471 196.79 385.143C193.563 383.55 186.846 380.092 185.795 379.008C184.48 377.654 183.365 375.941 183.046 373.551C182.791 371.638 182.786 366.058 182.816 363.507L184.442 364.732C190.55 368.776 196.458 369.768 198.837 369.984C201.215 370.2 204.538 369.402 207.628 368.723Z" fill="#F7CD83"/>
<path d="M233.403 345.004C231.293 343.545 226.066 338.743 223.716 336.525C225.421 335.865 226.962 334.988 228.094 334.246C232.38 339.155 241.224 349.222 242.307 350.22C243.661 351.467 247.385 355.013 248.475 355.278C249.565 355.543 249.644 355.759 249.86 356.093C250.076 356.427 250.793 359.325 250.813 359.924C250.828 360.404 250.728 361.355 250.675 361.771C250.593 361.591 250.392 361.172 250.243 360.936C250.094 360.7 249.86 360.026 249.762 359.718C249.811 359.747 249.927 359.806 249.997 359.806C250.086 359.806 250.243 359.718 250.243 359.61C250.243 359.502 250.194 359.355 250.105 359.325C250.035 359.302 249.676 359.175 249.505 359.115C249.316 358.598 248.784 357.6 248.541 357.166H248.784C248.915 357.181 249.169 357.154 249.141 356.916C249.112 356.679 248.891 356.66 248.784 356.68C247.364 356.802 245.915 356.393 245.368 356.173C242.578 355.277 240.685 352.948 240.564 352.792C240.444 352.636 240.316 352.55 240.174 352.621C240.032 352.692 240.025 352.917 240.131 353.051C240.217 353.158 240.496 353.433 240.625 353.558C240.006 353.499 239.036 353.582 238.629 353.631C238.555 352.3 239.418 351.092 239.492 350.599C239.566 350.106 236.041 346.828 233.403 345.004Z" fill="#F7CD83"/>
</g>
<path d="M201.649 251.232C198.037 250.659 194.22 252.57 192.763 253.597C192.983 253.072 190.174 251.099 188.723 250.686C184.024 249.35 179.573 251.923 177.446 253.308C175.319 254.692 169.532 259.441 168.295 263.694C167.306 267.097 169.744 270.203 171.087 271.33L173.081 269.757L172.394 272.349C173.62 272.851 176.293 273.9 177.179 274.077C178.287 274.299 180.584 275.186 181.65 272.061C182.502 269.561 184.694 265.995 185.684 264.525C184.238 269.853 186.75 275.186 189.109 278.303C191.469 281.42 194.438 282.946 194.438 284.392V290.558C192.733 290.071 190.175 290.355 189.109 290.558C185.075 291.852 182.182 294.212 180.584 296.876C178.985 299.54 175.027 309.512 174.038 311.871C173.048 314.231 169.613 322.105 170.07 325.454C170.126 325.869 170.073 325.882 171.997 326.959C172.367 327.166 172.145 327.036 172.709 327.988C173.111 328.667 172.987 328.672 173.448 329.598C176.05 334.826 180.783 340.654 181.797 342.203C182.185 345.103 181.497 356.173 181.497 358.685V362.034V370.978C181.497 375.897 184.431 379.295 188.456 381.263C192.481 383.231 204.197 390.922 212.783 389.491C219.652 388.346 228.764 383.887 232.462 381.8L249.094 391.369C249.346 388.686 250.023 382.032 250.714 376.881C251.578 370.441 251.943 365.989 251.383 363.907C251.383 363.907 252.068 360.679 252.068 359.839C252.068 359 251.606 357.621 251.383 356.066C251.161 354.511 250.714 354.237 250.517 353.941C250.359 353.704 245.829 350.079 244.94 349.091C244.809 348.647 244.325 347.778 244.046 347.512C243.923 347.396 243.028 346.616 242.657 346.247C241.788 345.308 236.65 338.109 233.299 333.643C233.299 333.643 232.114 332.284 231.661 331.168C231.626 330.647 231.037 329.936 230.747 329.646C230.269 328.385 226.019 319.152 224.954 315.392C223.888 311.631 222.849 305.299 221.624 303.548C220.398 301.798 219.07 300.011 215.289 297.42C212.264 295.347 207.773 293.615 205.905 293.008C205.513 292.056 205.112 289.436 204.96 288.246C206.139 288.468 209.26 288.351 212.313 286.11C215.366 283.869 216.036 280.321 215.989 278.827C216.488 278.687 217.485 278.183 217.485 277.287C217.485 276.39 216.768 275.513 216.409 275.186C216.353 272.889 215.957 269.582 215.766 268.215C215.933 267.976 216.711 266.854 218.489 264.274C220.71 261.049 219.922 259.544 217.485 257.896C215.049 256.248 206.163 251.949 201.649 251.232Z" stroke="#6E5521" stroke-linejoin="round"/>
</svg>
